<svg xmlns="http://www.w3.org/2000/svg" xmlns:xlink="http://www.w3.org/1999/xlink" width="449.89" height="451.782" viewBox="0 0 449.89 451.782"><defs><linearGradient id="linear-gradient" x1=".5" x2=".5" y2="1" gradientUnits="objectBoundingBox"><stop offset="0" stop-color="#383838"/><stop offset="1" stop-color="#020202"/></linearGradient><linearGradient id="linear-gradient-2" x1=".5" x2=".5" y2="1" gradientUnits="objectBoundingBox"><stop offset="0" stop-color="#1db27b"/><stop offset="1" stop-color="#0f593e"/></linearGradient><linearGradient id="linear-gradient-8" x1=".5" x2=".5" y2="1" gradientUnits="objectBoundingBox"><stop offset="0" stop-color="#62cbac"/><stop offset="1" stop-color="#316656"/></linearGradient><linearGradient id="linear-gradient-13" x1=".5" x2=".5" y2="1" gradientUnits="objectBoundingBox"><stop offset="0" stop-color="#202020"/><stop offset="1" stop-color="#2e2e2e"/></linearGradient></defs><g id="Group_14909" data-name="Group 14909" transform="translate(8561.991 478.711)"><path id="Path_36083" fill="#feffff" d="M416.045,629.378V642.8c-110.76,0-221.518.054-332.277-.681-.54-.006-.75-.055-1.806.631-.649.589-2.1.988-1.94-13.416,1.785-6.393,3.694-3.1,5.537-3.1,70.22-.3,140.439.027,210.657-.323a16.957,16.957,0,0,0,1.772-3.824c13.064-5.772,26.146-3.5,39.221-3.7,7.787-.115,15.575-1.147,23.36.566,15.8,1.989,31.6.2,47.393.883,2.184.095,4.384-1.348,6.546,2.347A32.688,32.688,0,0,1,416.045,629.378Z" data-name="Path 36083" transform="translate(-8642 -670.694)"/><path id="Path_36078" fill="url(#linear-gradient)" d="M80.022,618.666V577.727c3.669-6.609,10.035-10.482,15.555-15.191,12.311-10.5,26.872-16.986,41.68-23,3.231-1.312,6.475-2.594,9.7-3.938,9.591-3.279,19.047-6.95,28.771-9.846a19.39,19.39,0,0,0,3.769-1.107c23.852-7.484,48.046-13.431,72.938-16.243,1.169-.132,2.243-.622,3.4-.781,20.438-2.064,40.866-2.339,61.281.2,2.148.8,2.851,2.648,3.273,4.649,1.233,5.849,2.664,11.67,3.309,17.617.653,6.026-1.144,11.478-4.543,16.439-.768,1.091-1.7,2.045-2.552,3.07-3.807,5.024-8.474,9.3-12.344,14.286-7.143,9.2-7.552,15.692-.975,25.374,4.294,6.32,9.057,12.413,9.442,20.453.177,3.675.941,7.747-3.3,10.088a34.284,34.284,0,0,1-6.487.282q-107.377.014-214.757-.02C85.416,620.059,82.466,620.719,80.022,618.666Z" data-name="Path 36078" transform="translate(-8642 -647.089)"/><path id="Union_6" fill="url(#linear-gradient-2)" stroke="rgba(0,0,0,0)" stroke-miterlimit="10" stroke-width="1" d="M8699.043,716.122c-.911-6.825-1.271-13.642.185-20.447a1.9,1.9,0,0,1,.108-.166c-4.771,4.553-10.66,7.464-16.277,10.72-4.265,2.472-8,6.036-13.137,6.867l-.726-.047a2.94,2.94,0,0,1-2.285,1.241c-1.48,0-2.91-1.263-4.391-1.525-1.585-.907-3.015-2.045-4.511-3.1-6.116-5.22-11.816-10.814-16.007-17.772-.111-5.465,4.295-5.662,7.914-6.783,17.99-10.967,35.918-22.036,54-32.85a38.155,38.155,0,0,1,20.991-5.156l5.974.013c2.973,1.356,5.336,4.066,8.946,4.015a1.664,1.664,0,0,1,.434,1.192c5.5,4.84,8.021,4.782,14.584-.2a92.453,92.453,0,0,1,27.3.845l15.7,4.4v0c6.369,2.259,12.741,3.077,19.117.031q7.9-2.168,15.8-4.331a70.371,70.371,0,0,1,9.758-1.247c4.246-.333,6.329,1.754,6.374,5.911,2.865,1.863,4.124,4.206,2.6,7.372h.394l.016.018c.009.018.016.038.024.056a2.679,2.679,0,0,1,.376-.369c4.3,1.112,6.214,4.751,5.364,10.222-1.031,2.652-2.71,4.364-5.82,3.986-5.227,1.523-10.313,3.55-15.756,4.266q-1.1.5-2.2.992c-6.832,1.95-13.7,3.8-20.482,5.894a17.976,17.976,0,0,1-10.718.331c-5.385-1.607-10.749-3.29-16.109-4.982-6.6-2.085-6.594-2.1-8.812,4.611-.552,1.692-1.107,3.384-1.654,5.076q-1.173,3.468-2.35,6.936h0q-.773,2.538-1.545,5.076a11.862,11.862,0,0,1-1.356.716q.476.057.956.12l-1.912,8.057c-6.876-4.006-14.6-5.229-22.228-6.776a1.794,1.794,0,0,1,.089-.967c-4.709-.087-9.417-.187-14.126-.218l-2.454.022a9.477,9.477,0,0,1-7.217.867,38.389,38.389,0,0,0-7.47-1.192,1.859,1.859,0,0,1,.18.482c.425,1.91-1.827,1.81-2.961,2.537a65.64,65.64,0,0,0-10.554,5.285,5.581,5.581,0,0,1-2.47,1.192C8700.144,717.345,8699.581,717.032,8699.043,716.122Zm-28.121-8.03-.136.016c.024.048.045.095.063.142a1.044,1.044,0,0,0,.072-.155l0,0Zm19.97-12.03h0l0,0Z" data-name="Union 6" transform="translate(-17101.926 -987.129)"/><path id="Path_36089" fill="url(#linear-gradient-2)" d="M399.91,251.278c6.281-7.829,14.568-13.569,21.564-20.654,1.049-1.062,2.5-1.8,3.333-2.992,4.64-6.667,10.089-6.386,17.194-3.642,21.1,8.151,42.494,15.548,63.752,23.3,1.647.6,3.62.716,5.088,2.889l-31.945,29.2a12.6,12.6,0,0,1-7.765-.655c-21.65-7.978-43.308-15.933-65.085-23.561C403.7,254.343,401.211,253.745,399.91,251.278Z" data-name="Path 36089" transform="translate(-8642 -647.089)"/><path id="Path_36090" fill="url(#linear-gradient)" d="M280.169,312.141l-.941-1.188c-2.25-.237-2.772-2.192-3.6-3.748a65.322,65.322,0,0,1-5.367-13.4,28.9,28.9,0,0,0-2.351-6.56c-.581-1.042-1.34-1.948-2.746-1.7a.814.814,0,0,0-.682.667c-.177,1.277.953,1.568,1.684,2.169,3,2.47,3.406,5.921,3.45,9.452.009.753-.375,1.68-1.567,1.155a25.359,25.359,0,0,0-5.536-4.916c-2.359-1.507-6.781-15.125-5.964-17.767,1.173-3.789,6.232-7.337,11.484-7.3,3.875.03,7.147-.736,9.915-3.487a6.645,6.645,0,0,1,2.093-1.319c3.5-1.478,7.36-2.608,10,.9,2.625,3.485-.511,6.069-2.677,8.534-.761.867-1.588,1.675-2.385,2.51-1.016,2.48-3.391,2.935-5.553,3.683-1.4.486-2.877.734-4.3,1.172-1.53.471-2.941,1.2-2.269,3.108.754,2.136,2.286,1.371,3.616.588a19.614,19.614,0,0,1,7.476-2.447c1.417-.189,3.023-.513,3.868,1.254,5.954,6.339,8.8,13.953,9.283,22.54,1.545,2.616.009,4.571-1.4,6.56a13.015,13.015,0,0,1-7.553,4.154C284.313,317.438,281.51,315.963,280.169,312.141Z" data-name="Path 36090" transform="translate(-8642 -647.089)"/><path id="Path_36092" fill="url(#linear-gradient-2)" d="M475.9,281.2c-.1,3.083-1.27,4.044-4.435,2.885q-48.691-17.823-97.428-35.527c-1.315-.481-3.96-.361-3.2-2.834.8-2.6,2.928-1.407,4.607-.827q12.246,4.233,24.475,8.519c3.457-.187,6.347,1.62,9.439,2.7,20.121,7.029,40.093,14.476,60.192,21.571C471.763,278.462,474.533,278.709,475.9,281.2Z" data-name="Path 36092" transform="translate(-8642 -647.089)"/><path id="Union_7" fill="url(#linear-gradient-2)" stroke="rgba(0,0,0,0)" stroke-miterlimit="10" stroke-width="1" d="M.51,140.7c21.109-7.467,37.922-20.19,48.987-39.944,4.1-8.132,8.266-16.24,10.949-24.992,3.723-6.844,6.279-14.215,9.972-21.107C79.55,37.614,92.784,25.7,111.31,19.771q8.517-2.724,16.914-5.812C136.531,10.9,144.379,7,150.893,0c-1.755,5.121-7.737,9.426-15.617,12.892-10.339,4.548-21.348,7.148-31.689,11.752C91.88,29.858,83.254,38.23,76.214,48.453A105.2,105.2,0,0,0,61.487,79.778c-3.5,5.244-4.819,11.516-7.961,16.928-.986,1.7-1.993,3.389-2.991,5.082h0c-9.1,16.8-22.749,28.606-40.033,36.43q-4.983,2.256-9.977,4.489C-.591,142.046.4,141.368.51,140.7Z" data-name="Union 7" opacity=".37" transform="translate(-8500.5 -476.648)"/><path id="Path_36095" fill="#d7ede6" d="M475.9,281.2q-35.963-13.013-71.922-26.036c-1.382-.5-2.706-1.163-4.057-1.749q-.006-1.065-.015-2.132,37.78,13.78,75.571,27.534a18.487,18.487,0,0,0,3.416.566Z" data-name="Path 36095" transform="translate(-8642 -647.089)"/><path id="Union_8" fill="url(#linear-gradient-2)" stroke="rgba(0,0,0,0)" stroke-miterlimit="10" stroke-width="1" d="M68.055,277.689a225.09,225.09,0,0,1-33.978-34.1C23.668,230.211,14.6,216.073,9.465,199.7c6.631,15.441,15.719,29.4,25.592,42.881C49.665,259.955,66,275.434,84.927,288.091c1.091.73,2.083,1.608,3.12,2.417l.989,1.015c-.005.317-.019.633-.043.948C80.869,289.175,74.619,283.074,68.055,277.689ZM6.007,117.762A103.627,103.627,0,0,1,23.114,84.878h0c6.6-9.946,15.024-18.378,22.815-27.33,6.936-7.971,14.083-15.757,21.137-23.625C75.935,23.615,82.549,11.853,89.023,0Q88.514,2.951,88,5.9C84.247,16.877,77.27,25.813,69.829,34.45a1.552,1.552,0,0,1-1.3.575c-.543,2.936-2.638,4.94-4.495,6.993C51.674,55.689,38.881,68.979,27.5,83.513c-.774.989-1.4,2.452-2.984,2.376q.021.093.039.19a6.765,6.765,0,0,1-1.568,3.6A123.063,123.063,0,0,0,9.274,115.532,6.27,6.27,0,0,1,7.1,118.779C.056,140.544.635,162.6,4.578,184.788-1.61,162.3-1.895,139.945,6.007,117.762Z" data-name="Union 8" opacity=".37" transform="translate(-8202.13 -395.834)"/><path id="Path_36097" fill="#def0ea" d="M397.739,335c-1.929-3.141-1.21-7.516-4.648-9.955-1.911-5.171-5.114-9.743-6.944-14.951,1.849-.4,2.694,1.094,3.832,2.034,5.426.224,10.36-3.35,15.924-2.059A2.243,2.243,0,0,0,408,311.174c-.224,2.541-2.542,2.144-4.048,2.779-2.782,1.172-5.892,1.572-8.878,3.389,4.391,1.945,7.975-2.617,11.837-.279.854,1.652,3.161.428,4.036,2.035-2.143,1.99-5.059,1.072-7.495,1.982-1.654.618-3.622.512-5.107,2.466,3.732,1.557,7.205-2.754,10.641-.253-1.527,2.44,1.9,1.469,1.949,2.823-2.9,2.324-7.109.929-10.117,3.632,1.753,2.048,4.517-.44,6.145,1.424C405.367,336.005,400.873,333.867,397.739,335Z" data-name="Path 36097" transform="translate(-8642 -647.089)"/><path id="Path_36099" fill="#90c9b7" d="M268.052,298.98c.238-3.946.994-8.081-3.9-10.054a2.62,2.62,0,0,1-1.965-2.582,2.865,2.865,0,0,1,2.077-2.541,3.425,3.425,0,0,1,3.7.741c1.307,1.171,1.555,2.886,2.037,4.455,2.345,7.625,4.767,15.215,9.227,21.954-4.515,2.459-6.08-1.372-8.27-3.87A13.079,13.079,0,0,0,268.052,298.98Z" data-name="Path 36099" transform="translate(-8642 -647.089)"/><path id="Path_36101" fill="#66bb96" d="M322.224,312.935q-12.075.08-24.152.156c-1.155.007-2.322.031-3.151-1a16.613,16.613,0,0,0,2.19-6.055C305.732,307.427,313.984,310.159,322.224,312.935Z" data-name="Path 36101" transform="translate(-8642 -647.089)"/><path id="Path_36102" fill="#90c9b7" d="M287.828,283.5c-4.318.006-8.527.058-12,3.421-1.581,1.532-3.512,1.105-4.084-1.343-.444-1.906-2.864-4.484,1.092-5.454,4.159-1.021,8.4-1.747,12.149-3.982C286.245,278.471,288.438,280.444,287.828,283.5Z" data-name="Path 36102" transform="translate(-8642 -647.089)"/><path id="Path_36103" fill="url(#linear-gradient-8)" d="M406.909,317.063c-3.5.8-7.016,1.523-10.489,2.422-1.481.383-2.749.352-3.211-1.21-.53-1.789.613-2.624,2.252-3.12,4.2-1.271,8.36-2.648,12.537-3.981,1.886.1,4.393-.452,4.685,2.216.314,2.864-2.269,2.5-4.12,2.824A6.29,6.29,0,0,0,406.909,317.063Z" data-name="Path 36103" transform="translate(-8642 -647.089)"/><path id="Path_36104" fill="url(#linear-gradient-8)" d="M405.9,310.067c-5.33.519-10.143,5.028-15.924,2.059,1.641-3.2,12.317-7.159,15.265-5.672C407.073,307.377,406.812,308.657,405.9,310.067Z" data-name="Path 36104" transform="translate(-8642 -647.089)"/><path id="Path_36105" fill="url(#linear-gradient-8)" d="M408.984,323.293c-3.02.786-6.059,1.506-9.052,2.383-1.639.48-3.1.455-3.718-1.279s.467-2.746,2.119-3.247c4.114-1.247,8.226-2.484,12.612-2.051C412.551,321.551,411.54,322.782,408.984,323.293Z" data-name="Path 36105" transform="translate(-8642 -647.089)"/><path id="Path_36107" fill="url(#linear-gradient-8)" d="M406.961,331.172c-1.945.307-3.883.689-5.838.893a2.327,2.327,0,0,1-2.752-1.618c-.349-1.423.816-2.085,1.914-2.5,3.425-1.286,6.923-2.241,10.648-1.834C413.6,330.926,408.33,329.522,406.961,331.172Z" data-name="Path 36107" transform="translate(-8642 -647.089)"/><path id="Path_36108" fill="#6fbf9d" d="M388.962,318.122c-.5-4.052-2.838-5.455-6.8-5.12-3.088.261-6.217.039-9.328.032,4.357-1.342,8.571-3.328,13.312-2.942,4.034,4.188,5.912,9.373,6.944,14.951l-1.116.046-.012-.018Z" data-name="Path 36108" transform="translate(-8642 -647.089)"/><path id="Path_36110" fill="#b0eedb" d="M317.766,508.931c1.6-.212,2.013-1.256,2.323-2.721a26.181,26.181,0,0,1,5.857-11.376,17.925,17.925,0,0,1,6.957-7.626c10.217-6.008,15.218-14.914,15.541-26.618,3.022-7.792,7.005-14.522,16.641-15,8.216.171,9,1.194,7.24,9.138-3.73,16.857-7.9,33.614-11.394,50.525a26.011,26.011,0,0,1-.892,3.372c-1.364,3.87-3.014,4.3-6.161,1.565-5.87-5.113-11.9-10.027-15.528-13,4.507,3.5,11.02,9.434,17.943,14.869,2.075,1.629,2.107,3.758,1.633,5.861q-5.577,24.78-11.166,49.557c-.942,4.162-3.149,5.016-6.481,2.207-7.106-5.991-14.227-11.983-21.01-18.348-1.376-1.291-2.416-2.812-1.454-4.863C326.534,533.952,320.536,521.444,317.766,508.931Z" data-name="Path 36110" transform="translate(-8642 -647.089)"/><path id="Path_36111" fill="#b1dccf" d="M243.036,461.956c-1.552,2.4.843,3.2,1.921,4.392,4.343,4.793,8.814,9.5,11.762,15.326,3.944,7.8,2.272,15.112-2.282,22.084-.978,1.5-1.941,3-3.053,4.726l3.835.468c-13.541,2.447-27.22,4.161-40.573,7.613Q196.822,521.174,179,525.8c-2.335-2.821.19-4.467,2.03-6.957-5.23-2.026-10.373-3.73-15.285-5.96-4.011-1.82-7.637-4.017-9.829-8.017-1.4-1.092-.794-2.638-.914-4.019,2.66-4.139,6.164-2.93,9.7-1.527,9.893,3.929,19.939,7.462,29.828,11.4,1.235.492,2.507.9,3.785,1.269,5.3,1.529,6.385.575,5.23-4.913-1.986-9.437-4.755-18.68-7.131-28.021-.7-2.744-2.158-3.919-5.033-3.4-3.979.717-6.84-.683-8.153-4.69a2.889,2.889,0,0,1,.657-2.2c5.675.689,11.235-.662,16.707-1.567,8.512-1.408,17-2.451,25.593-3.245,5.122-.473,10.15-2.845,15.53-2.836A2.45,2.45,0,0,1,243.036,461.956Z" data-name="Path 36111" transform="translate(-8642 -647.089)"/><path id="Path_36112" fill="#b0eedb" d="M339.959,597.7c-5.569,6.1-11.315,12.059-15.552,19.221-1.046,1.769-2.6,1.654-4.27,1.815-2.731.264-5.642-.983-8.186.908-.381-.032-.762-.063-1.143-.1a1.166,1.166,0,0,0-.077-.833c2.185-9.37-.284-17.489-5.961-25.146C294.2,579.307,294.508,573.627,306,559.815c3.166-3.807,6.653-7.348,9.993-11.011,4.272,1.01,6.342,4.962,9.534,7.394,6.161,4.7,11.489,10.457,17.663,15.2,1.93,1.484,1.654,3.379,1.3,5.414C343.257,583.84,341.046,590.65,339.959,597.7Z" data-name="Path 36112" transform="translate(-8642 -647.089)"/><path id="Path_36113" fill="#91ceb9" d="M339.959,597.7c-1.15-.814-1.072-1.957-.813-3.127.6-2.728.888-5.584,1.9-8.152,3.418-8.653,2.748-15.515-5.892-21.268-6.941-4.623-12.817-10.841-19.166-16.352a3.708,3.708,0,0,1,1.825-2.323c.229,2.829,2.506,4.259,4.307,5.863,6.3,5.608,12.77,11.026,19.13,16.569,2.279,1.986,3.583,1.722,4.27-1.348,3.753-16.751,7.58-33.486,11.312-50.242a4.759,4.759,0,0,0-1.854-5.2c-7.669-6.26-15.135-12.768-22.675-19.185l.766-.952c4.464,3.623,8.955,7.215,13.384,10.88,2.677,2.215,5.281,4.519,7.877,6.829,2.539,2.26,3.874,1.722,4.621-1.591,4.21-18.68,8.536-37.334,12.759-56.011,1.031-4.559.437-4.948-7-5.285,3.426-3.278,8.407-3.131,13.37.388-3.191,3.128-4.3,7.18-5.165,11.384-3.164,15.43-6.994,30.712-10.265,46.118-.3,1.424-1.362,3.148-.245,4.274,1.385,1.4,3.158.07,4.6-.516,6.607-2.69,13.272-5.237,19.85-8,1.912-.8,3.907-2.089,6.112-.635v.009c1.112,3.325-1.848,3.491-3.568,4.183-7.876,3.165-15.729,6.4-23.646,9.453-3.948,1.525-6.27,3.841-7.165,8.068-2.067,9.761-4.3,19.49-6.463,29.232a2.891,2.891,0,0,0,.393,2.685c6.447-1.732,12.458-4.949,18.821-7.2,1.779-.628,4.118-2.812,5.677.546l-.022.017c-4.025,5.08-10.352,6.061-15.835,7.808-8.312,2.648-12.6,7.162-13.712,15.922-.847,6.693-2.749,13.316-4.273,19.95a17.829,17.829,0,0,1-3.216,7.205Z" data-name="Path 36113" transform="translate(-8642 -647.089)"/><path id="Path_36114" fill="#b1dccf" d="M155.915,504.863c6.643,6.135,14.909,9.1,23.269,11.878,1.55.516,3.683.677,4.038,2.445.351,1.752-1.873,1.39-2.882,2.074-1.707,1.157-1.251,2.921-1.341,4.537a3.458,3.458,0,0,1-3.03,1.013c1.339-2.436-.65-3.167-2.147-4.089C168.5,519.44,163.239,516.1,159,511.379,157.283,509.475,155.95,507.505,155.915,504.863Z" data-name="Path 36114" transform="translate(-8642 -647.089)"/><path id="Path_36116" fill="#b1dccf" d="M199.017,369l3.955,3.058c-1.53,3.495-.054,5.99,2.6,8.219,4.208,3.54,8.909,6.4,13.227,9.791,6.3,4.941,11.308,10.822,13.092,18.85.435,1.961,1.573,4.225-.647,6.008-7.6,2.508-15.622,2.116-23.4,3.454-9.906,1.706-19.984,2.126-29.909,3.737-1.785.29-3.808.18-3.811,2.829a13.026,13.026,0,0,1-.079,2.451c-.3,1.583-1.127,3.014-2.671,3.311-7.586,1.465-14.91,4.537-22.856,3.84-1.68-3.941.55-5.791,3.865-6.816,3.159-.976,6.477-1.351,9.68-2.2,2.186-.579,3.9-1.527,4.71-3.892.882-2.583.752-4.344-2.206-5.445-4.341-1.615-8.708-3.178-13-4.908-4.609-1.855-5.686-4.323-4.586-9.358l.961-.965c2.681-2.417,5.63-2.3,8.823-1.124,6.813,2.511,13.566,5.2,20.752,7.444.833-2.067-.1-3.754-.488-5.418-1.6-6.77-3.555-13.459-4.921-20.279-.973-4.861.034-6.3,4.482-7.589,3.039.615,5.991,1.039,8.515,3.426,2.684,2.539,10.482-.758,12.318-4.913C197.939,371.336,197.824,369.877,199.017,369Z" data-name="Path 36116" transform="translate(-8642 -647.089)"/><path id="Path_36117" fill="#b1dccf" d="M177.028,375.025c-5.218.047-4.324,3.592-3.6,6.67,1.881,8.04,3.954,16.036,6,24.038.327,1.279,1.151,2.717-.141,3.646-1.037.747-2.138-.45-3.191-.85-7.12-2.706-14.265-5.35-21.344-8.159-2.468-.98-4.491,1.015-6.805.6.707-3.689,3.375-6.389,4.949-9.654,3.421-7.1,1.52-13.839-.55-20.673-1.439-4.751-2.627-9.542-2.319-14.57a22.3,22.3,0,0,1,11-13.007c8.55-2.507,16.993-3.629,25.161,1.408,1.011.624,2.532.423,3.817.6-2.223,2.463-7.31,2.061-7.038,7.018-3.99,1.464-8.021,2.844-11.5,5.392-1.837,1.345-4.833,2.832-3.575,5.191,1.658,3.109-.435,8.7,5.629,9.193C175.227,372.011,177.291,372.388,177.028,375.025Z" data-name="Path 36117" transform="translate(-8642 -647.089)"/><path id="Path_36118" fill="#b1dccf" d="M184,470.907c1.9,3.245,4.259,4.738,8.244,3.193,2.659-1.03,4.424.022,5.178,3.331,2.424,10.639,5.915,21.018,7.865,31.785.81,4.474-.8,6.212-5.2,4.685-8.931-3.1-17.747-6.526-26.6-9.846a96.133,96.133,0,0,1-10.593-4.2c-3.082-1.6-5.331.2-7.89.993-2.079-4.431.937-8.8.152-13.22,1.3-1.064,2.8-.957,4.314-.77,9.407-.1,15.754-5.282,20.928-12.484C181.367,473.017,181.467,470.667,184,470.907Z" data-name="Path 36118" transform="translate(-8642 -647.089)"/><path id="Path_36119" fill="#b1dccf" d="M146.977,401.931c-.2,4.6,1.772,7.49,6.366,8.745a46.88,46.88,0,0,1,9.781,3.585c2.1,1.126,6.4.512,5.953,3.867-.516,3.871-1.056,8.743-7.106,8.912-2.432.067-4.834,1.4-7.26,1.434-3.89.06-5.538,2.333-6.706,5.452a.82.82,0,0,1-1.023.033c-1.74-4.2-3.839-8.15-4.292-12.934C142.03,414.047,142.956,407.719,146.977,401.931Z" data-name="Path 36119" transform="translate(-8642 -647.089)"/><path id="Path_36120" fill="url(#linear-gradient-2)" d="M146.982,433.959l1.023-.033c7.489-1.361,14.972-2.759,22.473-4.054a2.869,2.869,0,0,0,2.729-2.934c2.446.828,1.713,2.529,1.159,4.182-4.454,3.449-10.082,2.826-15.11,4.3a20.456,20.456,0,0,1-4.4.807c-4.121.263-5.233,2.2-4.462,6.262,2.19,11.559,4.418,23.113,6.444,34.7.873,2.82-.649,6.869,4.008,7.748a2.26,2.26,0,0,1,1.4,1.508c-.319,1.171-1.274,1.281-2.255,1.351-1.616.035-3.249.577-4.838-.167q-4.392-24.081-8.77-48.166C146.046,437.6,145,435.6,146.982,433.959Z" data-name="Path 36120" transform="translate(-8642 -647.089)"/><path id="Path_36125" fill="url(#linear-gradient-13)" d="M378.192,447.816c-4.387-1.747-8.825-2.813-13.479-1.011-6.174.66-10.366,3.969-12.986,9.514-.759,1.606-.987,3.6-2.818,4.561a1.65,1.65,0,0,1-2.245.128c-14.388-9.418-29.613-17.446-44.176-26.585a5.167,5.167,0,0,1-1.352-1.9c-1.959-12.441-4.733-24.767-6.274-37.25-1.64-13.294-9.475-20.213-21.478-23.8-1.829-.546-5.1-.385-2.483-3.874a5.076,5.076,0,0,1,3.265-.459c4.391,1.125,8.925.03,13.336.834,6.04,1.328,12.292,1.789,17.987,4.552,1.8.873,3.551,1.661,4.5,3.546,13.644,8.183,27.25,16.43,40.941,24.534q33.422,19.78,66.929,39.413c1.776.657,4.216.279,4.678,2.991-.35,4.214-2.673,6.973-6.425,8.676a4.768,4.768,0,0,1-3.312-.776c-23.529-13.437-47.23-26.573-70.832-39.882,22.671,12.975,45.639,25.428,68.223,38.556,1.7.987,3.774,1.55,4.178,3.911-1.444,5.443-6.228,8.429-9.548,12.419-3.793,4.56-7.637,9.138-11.769,13.43A6.583,6.583,0,0,1,390.894,481c-1.246-.129-2.031.292-2.007,1.678-2.487,1.464-3.625.273-4.062-2.117a15.734,15.734,0,0,1,.6-6.381c.809-3.545,1.929-7.014,2.116-10.7.273-5.394-1.325-9.762-6.193-12.621C380.078,450.113,378.756,449.333,378.192,447.816Z" data-name="Path 36125" transform="translate(-8642 -647.089)"/><path id="Path_36127" fill="#b0eedb" d="M377.016,546.8c-4.461-1.338-7.648,2.011-11.391,3.215-4.239,1.363-8.274,3.359-12.4,5.08-3.14,1.31-3.528-.316-2.96-2.826q3.877-17.124,7.819-34.233a5.874,5.874,0,0,1,4.069-4.493c9.283-3.517,18.443-7.36,27.627-11.134,1.275-.524,3.129-.491,3.185-2.58a17.039,17.039,0,0,1,3.956,10.9c.035,3.007.886,6.166-4.183,6.573-2.6.209-4.374,3.307-5.529,5.958Q382.09,535.021,377.016,546.8Z" data-name="Path 36127" transform="translate(-8642 -647.089)"/><path id="Path_36128" fill="#b0eedb" d="M378.192,447.816q13.6,5.018,10.3,19.723c-.869,3.864-1.836,7.711-2.551,11.6-.385,2.1-.267,4.223,2.95,3.533-3.5,1.8-3.23,4.219-1.476,7.221,1.91,3.27,4.377,6.242,5.556,9.922-9.418,3.649-18.818,7.346-28.275,10.894-1.256.471-2.79,1.831-4.141.444-1.258-1.29-.116-2.78.205-4.2q6.13-27.053,12.172-54.125C373.586,449.869,374.357,447.318,378.192,447.816Z" data-name="Path 36128" transform="translate(-8642 -647.089)"/><path id="Path_36129" fill="#b0eedb" d="M339.958,597.7c2.675-11.739,5.385-23.471,8-35.225.615-2.762,1.8-4.573,4.679-5.674,8.2-3.13,16.248-6.632,24.358-9.987-5.765,17.3-14.339,32.692-29.345,43.851A98.6,98.6,0,0,0,339.958,597.7Z" data-name="Path 36129" transform="translate(-8642 -647.089)"/><path id="Path_36133" fill="#477463" d="M390.894,481c.089-.866.173-1.736,1.145-2.129,5.456,2.05,10.225,5.424,15.372,8.073,2.879,1.481,4.623,1.557,6.659-1.21,9.621-13.07,19.5-25.949,29.339-38.855,3.015-3.955,2.886-4.061-1.972-6-1.353-.541-2.945-.706-3.753-2.2.152-.832.492-1.357,1.444-.885a2.535,2.535,0,0,1,.5-.029c11.285,1.583,12.013,3.2,5.425,11.964q-15.259,20.309-30.508,40.626c-1.07,1.425-1.863,3.257-4.3,1.819C403.833,488.386,397.35,484.716,390.894,481Z" data-name="Path 36133" transform="translate(-8642 -647.089)"/><path id="Path_36137" fill="#5a8575" d="M439.128,437.8l-1.19,1.124c-5.061,2.353-10.918,1.563-15.951,4.028l-4.128-2.924c5.023-.872,9.819-2.9,14.986-3.008C434.962,436.97,437.156,436.57,439.128,437.8Z" data-name="Path 36137" transform="translate(-8642 -647.089)"/><path id="Path_36143" fill="#fefefe" d="M177.028,375.025c-.293-.4-.5-.948-.894-1.162-2.07-1.127-8.588-7.909-9.52-9.779-.942-1.89-.843-3.631.785-4.9,4.6-3.6,8.888-7.981,15.555-7.086L199.017,369c-.1,5.629-6.381,11.459-11.887,10.968-.78-.07-1.962-.248-2.223-.755C183.219,375.939,179.708,376.292,177.028,375.025Z" data-name="Path 36143" transform="translate(-8642 -647.089)"/><path id="Path_36147" fill="url(#linear-gradient)" d="M455.165,260.329c-6.663-.026-11.852-3.982-12.237-9.331-.379-5.27,4.175-9.978,10.366-10.717,6.917-.827,13.556,3.113,14.495,8.6C468.838,255.018,462.948,260.359,455.165,260.329Z" data-name="Path 36147" transform="translate(-8642 -647.089)"/><path id="Path_36149" fill="#88c6b1" d="M303.192,433.776c-3.061,3.546-2.8,8.789-6.23,12.148-7.517,8.18-17.142,11.206-27.938,12.169-8.709.777-17.329,2.538-25.989,3.863l-1.181-.18c-.975-1.185-4.415,1.382-3.681-2.413a6.767,6.767,0,0,1,3.987-1.773c8.929-1.465,17.831-3.134,26.886-3.643,11.785,1.965,25.116-6.076,28.637-17.3.495-1.577.748-3.248,1.869-4.57,1.176-.941,1.8.157,2.586.691Z" data-name="Path 36149" transform="translate(-8642 -647.089)"/><path id="Path_36150" fill="#73bca2" d="M237.995,460l3.861,1.773c-4.847,1.978-10.7.435-15.011,4.284-13.391-1.706-26.028,3.22-39.08,4.521-1.933.193-2.644-.863-3.777-1.683a.723.723,0,0,1-1.194-.347,2.212,2.212,0,0,1,1.554-1.588,41.281,41.281,0,0,0,5.43-1.268c14.659-2.508,29.367-4.684,44.1-6.72C235.353,458.771,236.866,458.687,237.995,460Z" data-name="Path 36150" transform="translate(-8642 -647.089)"/><path id="Path_36151" fill="#e7f0ec" d="M182.934,468.709l1.055.19q.006,1,.012,2.008c-3.919,7.028-8.915,12.939-16.734,15.834-2.329.862-4.61,2.382-7.276,1.05l1.94-1.1c3.477-3.282,8.116-4.856,11.576-8.333,2.985-3,4.134-7.177,7.345-9.885A2.068,2.068,0,0,1,182.934,468.709Z" data-name="Path 36151" transform="translate(-8642 -647.089)"/><path id="Path_36152" fill="url(#linear-gradient-2)" d="M188.912,467.105c-1.553,1.309-3.345.648-5.061.608-1.753-1.794-1.772-4.186-2.188-6.428-1.983-10.7-3.785-21.434-5.961-32.1-.361-1.768.053-4.181-2.868-4.3-2.006-3.485.163-3.747,2.9-4.06,17.462-1.994,34.913-4.092,52.364-6.181,1.316-.158,2.608-.51,3.912-.771l3.679-.015c2.58-.78,1.825-2.844,1.6-4.532-.518-3.935-1.125-7.86-1.716-11.786a23.757,23.757,0,0,1,20.05-26.871c-.864-.428-2.017.317-2.679-.722.664-1.06,2.013-.795,3.454-1.463-5.432-1.4-10.639.921-15.392-1.445,10.094.088,20.209-.424,30.253,1.092-1.345,1.958.34,1.636,1.378,1.856a32.13,32.13,0,0,1,17.466,9.743c4.273,4.645,5.159,10.512,6.125,16.426,1.993,12.2,4.733,24.277,5.9,36.608l-2.294-.671c-1.011-.115-1.329-.819-1.45-1.693-1.614-12.037-4.034-23.942-6-35.922-1.957-11.915-8.425-18.7-20.766-21.191-11.209-2.261-20.725,1.1-28.019,10.088-3.813,4.7-3.492,10.246-2.909,15.747.421,3.966,1.349,7.87,1.861,11.83.648,5.018.2,5.917-4.913,6.6-13.528,1.819-27.069,3.566-40.664,4.834-4.312.4-8.6,1-12.893,1.538-2.882.365-4.1,1.876-3.509,4.788,1.579,7.828,2.959,15.694,4.458,23.537.613,3.21,2.4,3.872,5.375,3.485,7.932-1.035,15.788-2.526,23.7-3.7,16.142-2.4,32.215-5.24,48.362-7.6,2.3-.336,6.015-1.922,6.487,1.179.508,3.333-3.592,3.157-6.025,3.506-23.411,3.359-46.689,7.557-70.089,10.988C186.845,460.993,186.673,461.49,188.912,467.105Z" data-name="Path 36152" transform="translate(-8642 -647.089)"/><path id="Path_36153" fill="#1c4d39" d="M172.834,424.89c.365-1.125-.3-2.936,1.743-2.966,1.347-.019,1.316,1.22,1.494,2.16,2.755,14.514,5.946,28.952,7.779,43.63-.305.332-.612.664-.917,1l-1.852.259c-1.609.23-1.851-1.012-2.264-2.078-1.351-9-3.185-17.91-4.726-26.874-.49-2.851-1.788-5.761-.293-8.712.019-1.485.738-3.064-.591-4.366Q173.021,425.914,172.834,424.89Z" data-name="Path 36153" transform="translate(-8642 -647.089)"/><path id="Path_36154" fill="#fefefe" d="M173.8,431.3c2.241,11.8,4.967,23.525,6.158,35.511-1.85,9.287-10.447,17.6-19.17,18.538-2.205.161-2.733-1.386-3.147-3.065-.381-1.55-.329-3.307-1.994-4.26-2.4-12.864-4.676-25.752-7.265-38.577-.664-3.289,1.144-3.631,3.345-4.045Q162.757,433.334,173.8,431.3Z" data-name="Path 36154" transform="translate(-8642 -647.089)"/><path id="Path_36155" fill="url(#linear-gradient-2)" d="M161.152,484.961c9.669-2.533,14.758-9.8,18.8-18.146l1.125,2.153c-3.9,8.581-9.835,14.976-19.149,17.726l-1.137-.954A.493.493,0,0,1,161.152,484.961Z" data-name="Path 36155" transform="translate(-8642 -647.089)"/><path id="Path_36156" fill="#c5dfd6" d="M161.152,484.961a7.491,7.491,0,0,1-.357.779c-6.5.613-3.945-4.8-5.149-7.712a4.046,4.046,0,0,1,3.35,4.214C159.024,483.756,159.545,484.756,161.152,484.961Z" data-name="Path 36156" transform="translate(-8642 -647.089)"/><path id="Path_36157" fill="#fefffe" d="M421.987,442.947c1.024-3.327,4.179-2.858,6.544-3.33,3.06-.61,6.264-.5,9.407-.7,11.125,2.27,11.14,2.281,4.584,11-9.271,12.333-18.634,24.6-27.8,37.005-2.126,2.877-3.936,3.806-7.147,1.524-4.958-3.522-11.1-5.166-15.533-9.581L413.9,453.629c.435-1.076.756-2.25,2.146-2.515C418.039,448.4,421.431,446.7,421.987,442.947Z" data-name="Path 36157" transform="translate(-8642 -647.089)"/><path id="Path_36158" fill="url(#linear-gradient-2)" d="M416.045,451.114a4.46,4.46,0,0,1-2.147,2.517c-1.025-2.153-3.235-2.77-5.076-3.81Q375,430.712,341.138,411.663c-.974-.55-2.247-.786-2.653-2.4,2.973-.538,4.921,1.523,7.065,2.723q33.681,18.854,67.3,37.82A27.009,27.009,0,0,0,416.045,451.114Z" data-name="Path 36158" transform="translate(-8642 -647.089)"/><path id="Path_36160" fill="#1e4f3b" d="M233.068,397.983c-1.051-8.179.746-15.412,7.047-21.151,3.718-3.339,8.213-5.226,12.834-6.88l3.58.21c-3.7,1.94-7.152,3.24-10.01,5.344-8.559,6.3-11.661,14.765-9.251,25.233a101.715,101.715,0,0,1,1.7,10.723c.292,2.445-.291,4.186-3.278,2.4A79.754,79.754,0,0,0,233.068,397.983Z" data-name="Path 36160" transform="translate(-8642 -647.089)"/><path id="Path_36161" fill="url(#linear-gradient-8)" d="M173.244,370.984c-1-.058-1.805-.2-2.081-1.181a2.568,2.568,0,0,1,.5-2.774,44.516,44.516,0,0,1,12.941-7.923,2.348,2.348,0,0,1,2.937,1.276,1.926,1.926,0,0,1-.987,2.514c-3.974,2.634-8.005,5.185-12.037,7.732A4.2,4.2,0,0,1,173.244,370.984Z" data-name="Path 36161" transform="translate(-8642 -647.089)"/><path id="Path_36162" fill="url(#linear-gradient-8)" d="M172.361,363.8c-1.614.2-2.363-.152-2.853-.868a2.333,2.333,0,0,1,.314-3.16c2.794-2.926,6.452-4.558,9.924-6.443a2.1,2.1,0,0,1,2.628.86c.661.874.87,2.092.02,2.712C178.943,359.413,175.362,361.753,172.361,363.8Z" data-name="Path 36162" transform="translate(-8642 -647.089)"/><path id="Path_36163" fill="url(#linear-gradient-8)" d="M182.184,374c-2.007.076-2.949-.12-3.547-1.083a1.8,1.8,0,0,1,.663-2.579c2.978-2.053,5.977-4.091,9.1-5.907a2.822,2.822,0,0,1,3.978.81c1.018,1.572-.367,2.535-1.372,3.211C187.891,370.548,184.654,372.463,182.184,374Z" data-name="Path 36163" transform="translate(-8642 -647.089)"/><path id="Path_36164" fill="url(#linear-gradient-8)" d="M186.016,376.076c-.226-2.874,7.6-8.009,10.268-6.715a1.88,1.88,0,0,1,1.264,2.349c-.5,1.845-7.794,6.535-9.745,6.3A1.771,1.771,0,0,1,186.016,376.076Z" data-name="Path 36164" transform="translate(-8642 -647.089)"/><path id="Path_36165" fill="url(#linear-gradient-13)" d="M188.912,467.105c-4,.123-3.207-3.319-3.517-5.352-.406-2.668,2.468-2.324,3.972-2.568,17.536-2.837,35.1-5.492,52.652-8.24,8.9-1.394,17.783-2.88,26.674-4.325l-.21-1.521c-5.206.709-10.427,1.323-15.615,2.143q-32.225,5.1-64.429,10.319c-2.5.4-3.975.271-4.472-2.847-1.485-9.324-3.134-18.632-5.126-27.859-.719-3.33.289-3.765,3.218-4.091,18.649-2.073,37.267-4.417,55.914-6.505,2.924-.327,4.238-.83,3.33-4.186-.9-3.339-.979-6.89-1.64-10.306-3.272-16.91,6.934-29.767,24.345-30.58,16.551-.773,27.4,8.2,29.993,24.642,1.681,10.638,3.551,21.247,5.35,31.867.194,1.145.609,2.3-.546,3.2-1.551,1.263-1.732,3.158-2.223,4.894a26.719,26.719,0,0,1-26.492,19.281,287.074,287.074,0,0,0-32.1,4.936Z" data-name="Path 36165" transform="translate(-8642 -647.089)"/><path id="Path_36166" fill="#d4e6e0" d="M270.09,455.068c7.383-1.225,14.166-3.741,19.467-9.283,3.542-3.7,6.038-8,6.315-13.225.132-2.479.912-2.944,2.935-1.666l1.038,1.2c-1.4,16.824-16.584,22.91-28.483,23.642C270.953,455.765,270.514,455.3,270.09,455.068Z" data-name="Path 36166" transform="translate(-8642 -647.089)"/><path id="Path_36126" fill="url(#linear-gradient)" d="M459.039,651.008l-79.225-.164c10.335-20.524,20.308-41.183,26.992-63.283a360.912,360.912,0,0,0,11.08-49.537C464.21,562.865,477.421,609.895,459.039,651.008Z" data-name="Path 36126" transform="translate(-8694.711 -679.431)"/></g></svg>