<svg xmlns="http://www.w3.org/2000/svg" width="50.292" height="50.483" data-name="Group 131"><defs><linearGradient id="a" x1=".5" x2=".5" y2="1" gradientUnits="objectBoundingBox"><stop offset="0" stop-color="#fff"/><stop offset="1" stop-color="#bbb"/></linearGradient><clipPath id="b"><path fill="url(#a)" d="M0 0h50.291v50.483H0z" data-name="Rectangle 7135"/></clipPath></defs><g fill="url(#a)" clip-path="url(#b)" data-name="Group 10459"><path d="M10.494 25.376c0-2.233.037-4.466-.014-6.7a2.68 2.68 0 0 1 1.612-2.709c3.893-2.058 7.75-4.187 11.6-6.333a2.654 2.654 0 0 1 2.828 0q5.837 3.231 11.711 6.395a2.369 2.369 0 0 1 1.432 2.277c-.013 4.728.041 9.457-.056 14.182a2.6 2.6 0 0 1-1.174 1.826c-3.9 2.232-7.851 4.366-11.807 6.491a3.222 3.222 0 0 1-3.243-.065q-5.725-3.164-11.478-6.277a2.46 2.46 0 0 1-1.44-2.522c.08-2.186.023-4.377.023-6.566zm12.562 10.357c0-3.162.01-6.079-.017-9a.983.983 0 0 0-.394-.732c-2.574-1.436-5.168-2.835-7.965-4.357 0 3.214-.008 6.173.017 9.131a.844.844 0 0 0 .387.6c2.579 1.429 5.173 2.832 7.967 4.352m4.193 0a47.515 47.515 0 0 1 5.315-2.863c2.515-.976 3.478-2.522 3.1-5.23a45.232 45.232 0 0 1-.051-6c-2.8 1.524-5.35 2.906-7.888 4.32a.978.978 0 0 0-.457.686c-.031 2.951-.02 5.9-.02 9.088M17.045 18.085c2.736 1.508 5.276 2.914 7.829 4.3a.733.733 0 0 0 .6-.019c2.545-1.4 5.079-2.816 7.788-4.325-2.689-1.474-5.163-2.845-7.658-4.174a1.158 1.158 0 0 0-.942.02c-2.48 1.337-4.938 2.714-7.618 4.2" data-name="Path 8509"/><path d="M9.617.011h3.008c1.862 0 2.855.748 2.837 2.125s-.993 2.074-2.893 2.079c-1.918.005-3.836-.011-5.755 0-1.869.01-2.6.745-2.6 2.633-.01 2.057.009 4.114-.007 6.171-.012 1.55-.8 2.479-2.08 2.49s-2.085-.921-2.1-2.465C.014 10.855-.001 8.666.024 6.478A6.287 6.287 0 0 1 6.478.007C7.524-.008 8.569 0 9.617 0z" data-name="Path 8510"/><path d="M40.741.008c1.09 0 2.18-.018 3.27.006a6.27 6.27 0 0 1 6.257 6.26c.036 2.275.024 4.552.007 6.827a2.142 2.142 0 0 1-2.035 2.407c-1.269.035-2.129-.909-2.144-2.424-.021-2.144.01-4.289-.012-6.433a2.129 2.129 0 0 0-2.4-2.433c-2.092-.022-4.185 0-6.278-.009-1.629-.009-2.585-.818-2.564-2.136S35.81.013 37.477.008h3.27" data-name="Path 8511"/><path d="M9.62 50.452c-1.177 0-2.356.042-3.531-.008a6.222 6.222 0 0 1-6.044-6.059c-.077-2.4-.041-4.814-.008-7.22a2.056 2.056 0 0 1 2.087-2.205A2.08 2.08 0 0 1 4.2 37.185c.034 2.188 0 4.376.016 6.564.013 1.725.764 2.486 2.47 2.5 2.049.018 4.1 0 6.147.007 1.666.01 2.613.767 2.631 2.069.019 1.347-.959 2.12-2.7 2.129-1.046.005-2.093 0-3.139 0" data-name="Path 8512"/><path d="M50.278 40.908c0 1.092.017 2.185 0 3.277a6.267 6.267 0 0 1-6.109 6.262c-2.349.062-4.7.03-7.051.007a2.1 2.1 0 1 1-.023-4.188c2.176-.032 4.353 0 6.529-.015 1.7-.015 2.452-.784 2.466-2.5.017-2.141-.013-4.282.011-6.423.016-1.466.808-2.358 2.041-2.384 1.283-.027 2.119.909 2.138 2.424.015 1.18 0 2.359 0 3.539" data-name="Path 8513"/></g></svg>