<svg xmlns="http://www.w3.org/2000/svg" xmlns:xlink="http://www.w3.org/1999/xlink" id="Group_11755" width="795.326" height="592.691" data-name="Group 11755" viewBox="0 0 795.326 592.691"><defs><linearGradient id="linear-gradient" x1=".5" x2=".5" y2="1" gradientUnits="objectBoundingBox"><stop offset="0" stop-color="#1db27b"/><stop offset="1" stop-color="#0f593e"/></linearGradient><clipPath id="clip-path"><path id="Rectangle_13573" fill="none" d="M0,0H220.022V10.476H0Z" data-name="Rectangle 13573"/></clipPath><linearGradient id="linear-gradient-4" x1=".5" x2=".5" y2="1" gradientUnits="objectBoundingBox"><stop offset="0" stop-color="#202020"/><stop offset="1" stop-color="#2e2e2e"/></linearGradient><clipPath id="clip-path-7"><path id="Rectangle_13614" fill="url(#linear-gradient)" d="M0,0H385.479V260.46H0Z" data-name="Rectangle 13614"/></clipPath><linearGradient id="linear-gradient-14" x1=".5" x2=".5" y2="1" gradientUnits="objectBoundingBox"><stop offset="0" stop-color="#383838"/><stop offset="1" stop-color="#020202"/></linearGradient><linearGradient id="linear-gradient-15" x1=".5" x2=".5" y2="1" gradientUnits="objectBoundingBox"><stop offset="0" stop-color="#62cbac"/><stop offset="1" stop-color="#316656"/></linearGradient><clipPath id="clip-path-8"><path id="Rectangle_13615" fill="none" d="M0,0H13.861V15.9H0Z" data-name="Rectangle 13615"/></clipPath><clipPath id="clip-path-9"><path id="Rectangle_13616" fill="url(#linear-gradient)" d="M0,0H46.8V281.917H0Z" data-name="Rectangle 13616"/></clipPath><clipPath id="clip-path-10"><path id="Rectangle_13617" fill="none" d="M0,0H11.712V99.117H0Z" data-name="Rectangle 13617"/></clipPath><clipPath id="clip-path-11"><path id="Rectangle_13619" fill="none" d="M0,0H19.161V20H0Z" data-name="Rectangle 13619"/></clipPath><clipPath id="clip-path-12"><path id="Rectangle_13620" fill="url(#linear-gradient)" d="M0,0H70.79V261.509H0Z" data-name="Rectangle 13620"/></clipPath><clipPath id="clip-path-13"><path id="Rectangle_13623" fill="none" d="M0,0H59.088V6.008H0Z" data-name="Rectangle 13623"/></clipPath><linearGradient id="linear-gradient-26" x1=".5" x2=".5" y2="1" gradientUnits="objectBoundingBox"><stop offset="0" stop-color="#fefefe"/><stop offset="1" stop-color="#e4e4e4"/></linearGradient></defs><g id="Group_11347" data-name="Group 11347"><path id="Rectangle_13560" fill="#ebebeb" d="M0,520.853H795.326v.4H0Z" data-name="Rectangle 13560"/><path id="Rectangle_13561" fill="#ebebeb" d="M662.951,546.456h52.686v.4H662.951Z" data-name="Rectangle 13561"/><path id="Rectangle_13562" fill="#ebebeb" d="M513.029,550.773h13.828v.4H513.029Z" data-name="Rectangle 13562"/><path id="Rectangle_13563" fill="#ebebeb" d="M630.83,531.685h30.528v.4H630.83Z" data-name="Rectangle 13563"/><path id="Rectangle_13564" fill="#ebebeb" d="M83.444,534.357h68.705v.4H83.444Z" data-name="Rectangle 13564"/><path id="Rectangle_13565" fill="#ebebeb" d="M166.312,534.357h10.074v.4H166.312Z" data-name="Rectangle 13565"/><path id="Rectangle_13566" fill="#ebebeb" d="M209.124,541.073H358.13v.4H209.124Z" data-name="Rectangle 13566"/><path id="Path_32866" fill="#ebebeb" d="M377.007,449.911H69.853a9.09,9.09,0,0,1-9.079-9.079V9.079A9.091,9.091,0,0,1,69.853,0H377.007a9.09,9.09,0,0,1,9.078,9.079V440.832a9.089,9.089,0,0,1-9.078,9.079M69.853.4a8.691,8.691,0,0,0-8.686,8.679V440.832a8.691,8.691,0,0,0,8.682,8.682H377.007a8.691,8.691,0,0,0,8.68-8.682V9.079A8.691,8.691,0,0,0,377.007.4Z" data-name="Path 32866"/><path id="Path_32867" fill="#ebebeb" d="M721.06,449.911H413.907a9.088,9.088,0,0,1-9.078-9.079V9.079A9.089,9.089,0,0,1,413.907,0H721.06a9.091,9.091,0,0,1,9.079,9.079V440.832a9.09,9.09,0,0,1-9.079,9.079M413.907.4a8.69,8.69,0,0,0-8.68,8.682v431.75a8.69,8.69,0,0,0,8.68,8.682H721.06a8.692,8.692,0,0,0,8.682-8.682V9.079A8.692,8.692,0,0,0,721.06.4Z" data-name="Path 32867"/><path id="Rectangle_13567" fill="#e6e6e6" d="M460.8,45.936H679.96v143.52H460.8Z" data-name="Rectangle 13567"/><path id="Rectangle_13568" fill="#f0f0f0" stroke="#707070" stroke-width="1" d="M454.111,45.936H676.836v143.52H454.111Z" data-name="Rectangle 13568"/><path id="Rectangle_13569" fill="#e6e6e6" d="M460.8,189.456H679.96v28.167H460.8Z" data-name="Rectangle 13569"/><path id="Rectangle_13570" fill="#f0f0f0" d="M442.97,189.456H665.7v28.167H442.97Z" data-name="Rectangle 13570"/><path id="Rectangle_13571" fill="#fafafa" d="M463.473,55.3h204V180.1h-204Z" data-name="Rectangle 13571"/><path id="Path_32868" fill="#fff" d="M621.472,180.1,595.415,55.3H554.756l26.056,124.8Z" data-name="Path 32868"/><path id="Path_32869" fill="#f0f0f0" d="M663.138,170.778a.669.669,0,0,0,.67-.668V61.39a.67.67,0,0,0-1.339,0V170.11a.669.669,0,0,0,.67.668" data-name="Path 32869"/><path id="Path_32870" fill="#fff" d="M572.079,180.1,546.022,55.3H530.167l26.056,124.8Z" data-name="Path 32870"/><path id="Rectangle_13572" fill="#e6e6e6" d="M463.473,55.3h1.188V180.1h-1.188Z" data-name="Rectangle 13572"/><g id="Group_11283" data-name="Group 11283"><g id="Group_11282" clip-path="url(#clip-path)" data-name="Group 11282" transform="translate(451.896 58.938)"><path id="Path_32871" fill="#b0eedb" d="M0,10.476H219.161L220.023,0H.862Z" data-name="Path 32871"/></g></g><g id="Group_11286" data-name="Group 11286"><g id="Group_11285" clip-path="url(#clip-path)" data-name="Group 11285" transform="translate(451.896 76.121)"><path id="Path_32872" fill="#b0eedb" d="M0,10.476H219.161L220.023,0H.862Z" data-name="Path 32872"/></g></g><g id="Group_11289" data-name="Group 11289"><g id="Group_11288" clip-path="url(#clip-path)" data-name="Group 11288" transform="translate(451.896 93.303)"><path id="Path_32873" fill="#b0eedb" d="M0,10.476H219.161L220.023,0H.862Z" data-name="Path 32873"/></g></g><g id="Group_11292" data-name="Group 11292"><g id="Group_11291" clip-path="url(#clip-path)" data-name="Group 11291" transform="translate(451.896 110.485)"><path id="Path_32874" fill="#b0eedb" d="M0,10.476H219.161L220.023,0H.862Z" data-name="Path 32874"/></g></g><g id="Group_11295" data-name="Group 11295"><g id="Group_11294" clip-path="url(#clip-path)" data-name="Group 11294" transform="translate(451.896 127.667)"><path id="Path_32875" fill="#b0eedb" d="M0,10.476H219.161L220.023,0H.862Z" data-name="Path 32875"/></g></g><g id="Group_11298" data-name="Group 11298"><g id="Group_11297" clip-path="url(#clip-path)" data-name="Group 11297" transform="translate(451.896 144.85)"><path id="Path_32876" fill="#b0eedb" d="M0,10.476H219.161L220.023,0H.862Z" data-name="Path 32876"/></g></g><path id="Rectangle_13579" fill="#e6e6e6" d="M602.537,416.479h45.952v9.06H602.537Z" data-name="Rectangle 13579"/><path id="Rectangle_13580" fill="#e6e6e6" d="M515.859,312.374h8.483V520.853h-8.483Z" data-name="Rectangle 13580"/><path id="Rectangle_13581" fill="url(#linear-gradient-4)" stroke="#707070" stroke-width="1" d="M486.478,416.479H602.537v9.06H486.478Z" data-name="Rectangle 13581"/><path id="Rectangle_13582" fill="#e6e6e6" d="M602.537,466.053h45.952v9.06H602.537Z" data-name="Rectangle 13582"/><path id="Rectangle_13583" fill="url(#linear-gradient-4)" stroke="#707070" stroke-width="1" d="M486.478,466.053H602.537v9.06H486.478Z" data-name="Rectangle 13583"/><path id="Rectangle_13584" fill="#e6e6e6" d="M602.537,317.327h45.952v9.06H602.537Z" data-name="Rectangle 13584"/><path id="Rectangle_13585" fill="url(#linear-gradient-4)" stroke="#707070" stroke-width="1" d="M486.478,317.327H602.537v9.06H486.478Z" data-name="Rectangle 13585"/><path id="Rectangle_13586" fill="#e6e6e6" d="M602.537,366.9h45.952v9.06H602.537Z" data-name="Rectangle 13586"/><path id="Rectangle_13587" fill="url(#linear-gradient-4)" stroke="#707070" stroke-width="1" d="M486.478,366.9H602.537v9.06H486.478Z" data-name="Rectangle 13587"/><path id="Rectangle_13588" fill="#e6e6e6" d="M631.921,312.374H640.4V520.853h-8.483Z" data-name="Rectangle 13588"/><path id="Rectangle_13589" fill="url(#linear-gradient-4)" stroke="#707070" stroke-width="1" d="M594.054,312.374h8.483V520.853h-8.483Z" data-name="Rectangle 13589"/><path id="Rectangle_13590" fill="url(#linear-gradient-4)" stroke="#707070" stroke-width="1" d="M486.478,312.374h8.483V520.853h-8.483Z" data-name="Rectangle 13590"/><path id="Rectangle_13591" fill="#e6e6e6" d="M103.987,352.417H190.8V520.854H103.987Z" data-name="Rectangle 13591"/><path id="Path_32877" fill="#fafafa" d="M127.169,520.854H103.987V497.6h47.489Z" data-name="Path 32877"/><path id="Rectangle_13592" fill="#e6e6e6" d="M340.691,352.417h86.815V520.854H340.691Z" data-name="Rectangle 13592"/><path id="Rectangle_13593" fill="#fafafa" stroke="#707070" stroke-width="1" d="M103.987,352.415H360.923V512.85H103.987Z" data-name="Rectangle 13593"/><path id="Path_32878" fill="#fafafa" d="M337.741,520.854h23.182V497.6H313.435Z" data-name="Path 32878"/><path id="Rectangle_13594" fill="#b0eedb" d="M121.971,412.2H342.94v40.15H121.971Z" data-name="Rectangle 13594"/><path id="Rectangle_13595" fill="#b0eedb" d="M121.971,460.93H342.94v40.15H121.971Z" data-name="Rectangle 13595"/><path id="Path_32879" fill="#fafafa" d="M163.971,416.491H300.939a7.28,7.28,0,0,0,7.28-7.279v-.491H156.692v.491a7.279,7.279,0,0,0,7.279,7.279" data-name="Path 32879"/><path id="Rectangle_13596" fill="#b0eedb" d="M121.971,363.469H342.94v40.15H121.971Z" data-name="Rectangle 13596"/><path id="Path_32880" fill="#fafafa" d="M163.971,367.761H300.939a7.28,7.28,0,0,0,7.28-7.279v-.492H156.692v.492a7.279,7.279,0,0,0,7.279,7.279" data-name="Path 32880"/><path id="Path_32881" fill="#fafafa" d="M163.971,465.222H300.939a7.28,7.28,0,0,0,7.28-7.279v-.491H156.692v.491a7.279,7.279,0,0,0,7.279,7.279" data-name="Path 32881"/><path id="Rectangle_13597" fill="#e6e6e6" d="M117.817,45.936H336.979v143.52H117.817Z" data-name="Rectangle 13597"/><path id="Rectangle_13598" fill="#f0f0f0" stroke="#707070" stroke-width="1" d="M111.13,45.936H333.855v143.52H111.13Z" data-name="Rectangle 13598"/><path id="Rectangle_13599" fill="#e6e6e6" d="M117.817,189.456H336.979v28.167H117.817Z" data-name="Rectangle 13599"/><path id="Rectangle_13600" fill="#f0f0f0" d="M99.99,189.456H322.713v28.167H99.99Z" data-name="Rectangle 13600"/><path id="Rectangle_13601" fill="#fafafa" d="M120.49,55.3h204V180.1h-204Z" data-name="Rectangle 13601"/><path id="Path_32882" fill="#fff" d="M278.491,180.1,252.438,55.3H211.776l26.056,124.8Z" data-name="Path 32882"/><path id="Path_32883" fill="#f0f0f0" d="M320.157,170.778a.668.668,0,0,0,.668-.668V61.39a.669.669,0,1,0-1.338,0V170.11a.669.669,0,0,0,.67.668" data-name="Path 32883"/><path id="Path_32884" fill="#fff" d="M229.1,180.1,203.042,55.3H187.191l26.056,124.8Z" data-name="Path 32884"/><path id="Rectangle_13602" fill="#e6e6e6" d="M120.492,55.3h1.188V180.1h-1.188Z" data-name="Rectangle 13602"/><path id="Union_15" fill="#b0eedb" d="M9144-2329.975l.486-5.91H9144l.487-5.91H9144l.486-5.908H9144l.486-5.91H9144l.486-5.91H9144l.862-10.474h219.162l-.486,5.908h.486l-.488,5.91h.488l-.486,5.91h.484l-.485,5.91h.487l-.488,5.91h.488l-.862,10.474Z" data-name="Union 15" transform="translate(-9035.084 2428.939)"/><path id="Rectangle_13609" fill="#f5f5f5" d="M152.723,262.819H160.3V347.27h-7.576Z" data-name="Rectangle 13609"/><path id="Rectangle_13610" fill="#fafafa" d="M153.7,262.76h2.141v84.451H153.7Z" data-name="Rectangle 13610"/><path id="Rectangle_13611" fill="#fafafa" d="M156.737,262.76h.838v84.451h-.838Z" data-name="Rectangle 13611"/><path id="Path_32891" fill="#f0f0f0" d="M128.466,352.417h56.093a7.067,7.067,0,0,0-7.067-7.067H135.533a7.067,7.067,0,0,0-7.067,7.067Z" data-name="Path 32891"/><path id="Path_32892" fill="#f0f0f0" d="M142.9,315.245a2.186,2.186,0,0,0,2.179-2.179V257.7a2.179,2.179,0,1,0-4.358,0v55.371a2.186,2.186,0,0,0,2.179,2.179" data-name="Path 32892"/><path id="Path_32893" fill="#e0e0e0" d="M122.6,282.891h67.826l-7.8-47.4H130.4Z" data-name="Path 32893"/><path id="Rectangle_13612" fill="url(#linear-gradient-4)" d="M164.028,234.588l1.586-.114,2.112,29.334-1.586.114Z" data-name="Rectangle 13612"/><path id="Rectangle_13613" fill="url(#linear-gradient-4)" d="M167.23,279.07l1.587-.114.795,11.034-1.587.114Z" data-name="Rectangle 13613"/><path id="Path_32894" fill="url(#linear-gradient-4)" d="M537.181,413.9H196.53a15.346,15.346,0,0,1-15.017-14.009L164.772,167.451a12.9,12.9,0,0,1,13-14.007H518.425a15.346,15.346,0,0,1,15.017,14.007L550.18,399.893a12.9,12.9,0,0,1-13,14.009" data-name="Path 32894"/><path id="Path_32895" fill="#407bff" d="M538.487,413.9H197.836a15.346,15.346,0,0,1-15.017-14.009L166.082,167.451a12.9,12.9,0,0,1,13-14.007H519.731a15.346,15.346,0,0,1,15.017,14.007l16.739,232.442a12.9,12.9,0,0,1-13,14.009" data-name="Path 32895"/><g id="Group_11319" data-name="Group 11319"><g id="Group_11318" clip-path="url(#clip-path-7)" data-name="Group 11318" transform="translate(166.045 153.442)"><path id="Path_32896" fill="url(#linear-gradient)" d="M476.83,356.924H136.179a15.346,15.346,0,0,1-15.017-14.009L104.425,110.473a12.9,12.9,0,0,1,13-14.007H458.074a15.346,15.346,0,0,1,15.017,14.007L489.83,342.915a12.9,12.9,0,0,1-13,14.009" data-name="Path 32896" transform="translate(-104.388 -96.464)"/></g></g><path id="Path_32897" fill="url(#linear-gradient-14)" d="M456.092,100.869H115.441q-.577,0-1.141.046c-8.709.717-6.929,13.963,1.859,13.963H457.391c8.788,0,8.66-13.245-.151-13.963q-.57-.045-1.148-.046" data-name="Path 32897" transform="translate(64.144 59.578)"/><path id="Path_32898" fill="#fafafa" d="M188.457,167.452a2.948,2.948,0,0,1-2.981,3.212,3.507,3.507,0,0,1-3.442-3.212,2.949,2.949,0,0,1,2.981-3.212,3.507,3.507,0,0,1,3.442,3.212" data-name="Path 32898"/><path id="Path_32899" fill="#fafafa" d="M199.382,167.452a2.948,2.948,0,0,1-2.981,3.212,3.507,3.507,0,0,1-3.442-3.212,2.948,2.948,0,0,1,2.981-3.212,3.507,3.507,0,0,1,3.442,3.212" data-name="Path 32899"/><path id="Path_32900" fill="#fafafa" d="M210.3,167.452a2.949,2.949,0,0,1-2.981,3.212,3.507,3.507,0,0,1-3.442-3.212,2.949,2.949,0,0,1,2.981-3.212,3.507,3.507,0,0,1,3.442,3.212" data-name="Path 32900"/><path id="Path_32917" fill="#ffb573" d="M562.594,187.9c1.422-.713,3.116-1.634,4.683-2.494q2.4-1.317,4.747-2.742c3.116-1.918,6.256-3.814,9.239-5.92a122.663,122.663,0,0,0,16.723-13.764c.663-.608,1.23-1.282,1.844-1.923l.907-.975.455-.485.227-.245c.059-.064.046-.049.018-.013l-.051.078c-.227.423-.038.3.049-.115a8.678,8.678,0,0,0,.224-1.735,47.74,47.74,0,0,0-1.16-10.05c-1.416-7.136-3.56-14.472-5.68-21.661l6.181-2.71a130.38,130.38,0,0,1,9.722,21.63,50.682,50.682,0,0,1,2.734,12.555,19.439,19.439,0,0,1-.132,3.994,12.1,12.1,0,0,1-1.945,5.222l-.264.367-.205.267-.245.3-.49.6-.983,1.193c-.663.784-1.292,1.615-2,2.349a113.177,113.177,0,0,1-18.1,16.148c-3.24,2.368-6.553,4.618-9.994,6.665q-2.57,1.556-5.213,3-2.706,1.5-5.515,2.809Z" data-name="Path 32917"/><path id="Path_32918" fill="url(#linear-gradient-15)" d="M345.941,354.48a16.161,16.161,0,0,0,3.517-.477.315.315,0,0,0,.1-.569c-.456-.3-4.5-2.912-6.052-2.211a1.076,1.076,0,0,0-.628.888,1.794,1.794,0,0,0,.523,1.677,3.811,3.811,0,0,0,2.539.694m2.625-.927c-2.319.463-4.064.383-4.739-.232a1.191,1.191,0,0,1-.323-1.123.448.448,0,0,1,.262-.4c.818-.369,3.15.757,4.8,1.754" data-name="Path 32918" transform="translate(202.506 207.38)"/><path id="Path_32919" fill="url(#linear-gradient-15)" d="M348.287,355.171a.3.3,0,0,0,.159-.043.313.313,0,0,0,.157-.272c0-.162-.019-4-1.467-5.281a1.639,1.639,0,0,0-1.336-.422,1.1,1.1,0,0,0-1.063.88c-.3,1.5,2.122,4.376,3.393,5.1a.32.32,0,0,0,.156.04m-2.267-5.4a1.019,1.019,0,0,1,.7.277c.864.765,1.161,2.919,1.234,4.2-1.268-1.012-2.779-3.172-2.6-4.086.03-.15.116-.329.52-.377a1.109,1.109,0,0,1,.143-.01" data-name="Path 32919" transform="translate(203.605 206.22)"/><path id="Path_32920" fill="#ffb573" d="M550.721,148.112c-1.549,7.906-4.816,23.919.716,29.2,0,0-2.162,8.02-16.853,8.02-16.153,0-7.719-8.02-7.719-8.02,8.817-2.1,8.59-8.645,7.053-14.788Z" data-name="Path 32920"/><path id="Path_32921" fill="#263238" d="M523.776,180.494c-2.535.344-.379-6.226.652-6.9,2.38-1.573,33.167-3.8,32.966-.065-.127,1.608-.883,4.746-2.228,5.812s-9.256-2.155-31.39,1.158" data-name="Path 32921"/><path id="Path_32922" fill="#263238" d="M528.791,178.279c-2.014.681-1.823-5.938-1.137-6.735,1.588-1.842,26.507-8.244,27.248-4.621.285,1.564.422,4.688-.434,5.9s-8.176-.794-25.676,5.456" data-name="Path 32922"/><path id="Path_32923" fill="#263238" d="M519.523,133.861a.629.629,0,0,1-.526-.231,5.025,5.025,0,0,0-4.12-1.953.631.631,0,0,1-.137-1.253,6.26,6.26,0,0,1,5.233,2.41.631.631,0,0,1-.45,1.029" data-name="Path 32923"/><path id="Path_32924" fill="#ff5652" d="M516.441,141.646s-1.362,4.783-3.142,7.2c1.541,1.179,3.883.34,3.883.34Z" data-name="Path 32924"/><path id="Path_32925" fill="#263238" d="M517.217,139.713c.1,1.069-.377,1.991-1.075,2.061s-1.352-.743-1.457-1.813.377-1.992,1.075-2.06,1.352.743,1.457,1.812" data-name="Path 32925"/><path id="Path_32926" fill="#263238" d="M516.076,137.93l-2.642-.488s1.516,1.877,2.642.488" data-name="Path 32926"/><path id="Path_32927" fill="#ffb573" d="M567.386,561.075H554.062l1.045-30.855H568.43Z" data-name="Path 32927"/><path id="Path_32928" fill="#263238" d="M553.007,559.532h14.968a1.055,1.055,0,0,1,1.064.91l1.705,11.844a2.14,2.14,0,0,1-2.136,2.368c-5.219-.089-7.734-.4-14.316-.4-4.05,0-9.967.422-15.56.422-5.469,0-5.89-5.531-3.561-6.032,10.443-2.246,12.091-5.343,15.609-8.3a3.478,3.478,0,0,1,2.227-.819" data-name="Path 32928"/><g id="Group_11322" data-name="Group 11322"><g id="Group_11321" clip-path="url(#clip-path-8)" data-name="Group 11321" transform="translate(554.573 530.229)"><path id="Path_32929" d="M13.861,0H.531L0,15.9H13.328Z" data-name="Path 32929"/></g></g><path id="Path_32930" fill="#ffb573" d="M514.375,195.8a261.1,261.1,0,0,1-23.941-10.743A144.285,144.285,0,0,1,467.522,171.1a52.476,52.476,0,0,1-5.443-4.883c-.442-.477-.888-.919-1.323-1.467a20.769,20.769,0,0,1-1.4-1.8,12.693,12.693,0,0,1-2.131-5.741,12.968,12.968,0,0,1,.781-5.758,17.528,17.528,0,0,1,2.238-4.148,29.679,29.679,0,0,1,5.392-5.6,66.578,66.578,0,0,1,11.624-7.42c1.972-1.048,3.981-1.991,6.019-2.86s4.043-1.7,6.211-2.45l2.825,6.129c-6.938,4.373-14.125,9.178-19.409,14.569a21.858,21.858,0,0,0-3.113,3.961c-.757,1.252-.748,2.19-.619,2.117.065,0,.04-.029.226.156l.632.679c.239.283.574.576.876.867a40.529,40.529,0,0,0,4.292,3.45,102.3,102.3,0,0,0,10.234,6.315c3.585,1.991,7.274,3.9,11.031,5.7,7.5,3.59,15.267,7.045,22.891,10.2Z" data-name="Path 32930"/><path id="Path_32931" fill="#ffb573" d="M496.234,130.753l2.2-4.778L488.419,122.5s-3.119,9.388.6,13.721a9.609,9.609,0,0,0,7.212-5.465" data-name="Path 32931"/><path id="Path_32932" fill="#ffb573" d="M498.438,115.645l-8.006-2.308-2.009,9.161,10.015,3.477Z" data-name="Path 32932"/><path id="Path_32933" fill="#ffb573" d="M601.823,126.439l1.168-11.166L592.674,117.7s-.153,10.466,5.308,12.135Z" data-name="Path 32933"/><path id="Path_32934" fill="#ffb573" d="M598.018,107.456l-6.724,3.14,1.374,7.1,10.32-2.426Z" data-name="Path 32934"/><path id="Path_32935" fill="#ffb573" d="M552.815,132.505c.485,13.214.973,18.8-5,26.192-8.981,11.122-25.318,8.828-29.742-3.975-3.983-11.523-4.107-31.2,8.236-37.689a18.035,18.035,0,0,1,26.5,15.472" data-name="Path 32935"/><path id="Path_32936" fill="#263238" d="M547.059,158.672c12.972-5.6,21.5-17.426,17.9-35.907-3.447-17.682-15.383-19.43-20.314-15.76s-17.222-1.8-24.6,4.408c-12.779,10.754-.7,22.349,5.6,29.219,3.759,7.727,8.683,23.542,21.413,18.041" data-name="Path 32936"/><path id="Path_32937" fill="url(#linear-gradient-15)" d="M341.5,83.048c4.377,6.339,12.773,8.128,18.754,4s7.28-12.615,2.9-18.954-12.773-8.128-18.754-4-7.28,12.615-2.9,18.954" data-name="Path 32937" transform="translate(200.175 36.544)"/><path id="Path_32938" fill="#263238" d="M545.04,108.243c-1.872-10.653,8.209-18.868,21.69-14.9s6.35,15.921,3.585,25.465,4.49,18.633,7.522,11.365-2.065-9.512-2.065-9.512,14.314,3.711,1.016,19.848-25.334-1.681-22.08-12.2c2.631-8.5-7.9-10-9.67-20.071" data-name="Path 32938"/><path id="Path_32939" fill="#263238" d="M531.568,112.269c-6.154-3.21-16.576-5.806-22.508,4.172-2.8,4.719-1.718,11.117-1.718,11.117l18.116,1.206Z" data-name="Path 32939"/><path id="Path_32940" fill="#263238" d="M505.21,124.429h-.025a.4.4,0,0,1-.372-.422c.017-.272.455-6.671,4.317-10.684,9.336-9.7,20.281-1.654,23.413,1.043a.4.4,0,0,1-.519.6c-3-2.582-13.47-10.292-22.32-1.094-3.659,3.8-4.093,10.118-4.1,10.182a.4.4,0,0,1-.4.372" data-name="Path 32940"/><path id="Path_32941" fill="#ffb573" d="M527.863,140.106a11.026,11.026,0,0,1-2.634,6.8c-2.2,2.57-4.716,1.3-5.3-1.546-.52-2.566,0-6.994,2.774-8.547,2.737-1.53,5.178.347,5.157,3.289" data-name="Path 32941"/><path id="Path_32942" fill="#263238" d="M525,261.136s.849,92.487,8.873,144.026c6.48,41.627,18.472,137.892,18.472,137.892h18.17s1.775-92.934-1.514-134.1c-8.324-104.187,13.156-123.667-4.177-147.818Z" data-name="Path 32942"/><g id="Group_11325" data-name="Group 11325"><g id="Group_11324" clip-path="url(#clip-path-9)" data-name="Group 11324" transform="translate(524.999 261.136)"><path id="Path_32943" fill="url(#linear-gradient)" d="M0,0S.849,92.487,8.873,144.026c6.48,41.627,18.472,137.892,18.472,137.892h18.17S47.29,188.984,44,147.818C35.677,43.631,57.157,24.151,39.824,0Z" data-name="Path 32943"/></g></g><g id="Group_11328" data-name="Group 11328"><g id="Group_11327" clip-path="url(#clip-path-10)" data-name="Group 11327" transform="translate(525.881 295.217)"><path id="Path_32944" d="M8.669,7.878c6.378,27.916,1.288,71.882-2.2,91.24C2.779,69.718.918,31.627,0,3.711c3.293-5.345,6.41-5.7,8.669,4.168" data-name="Path 32944"/></g></g><path id="Path_32945" fill="url(#linear-gradient-15)" d="M345.731,344.952h23.142l1.215-8.119L345.6,336Z" data-name="Path 32945" transform="translate(204.128 198.462)"/><path id="Path_32946" fill="#407bff" d="M556.463,183.063c2.176-4.328,13.878-7.051,20.274-7.042l4.788,21.259s-12.747,18.917-18.047,16.911c-6.261-2.365-11.683-21.851-7.02-31.124" data-name="Path 32946"/><path id="Union_1" fill="url(#linear-gradient-14)" stroke="rgba(0,0,0,0)" stroke-miterlimit="10" stroke-width="1" d="M17.6,90.359c-3.912-24.054-6.019-40.92-7.062-52.742A94.5,94.5,0,0,1,0,25.081L3.353,0c5.662,1.285,15.5,4.347,20.909,7.689,3.052-.449,6.336-.871,9.494-1.159,3.357-.306,6.62-.432,9.948-.444h1.012c4.288.014,8.711.208,13.612.444,4.2.2,8.363.654,11.966,1.147A43.949,43.949,0,0,1,83.336,5.25h.293l4.787,21.258S80.458,38.316,74.5,42.282c-3.634,21.2-3.433,32.538-2.792,48.077Z" data-name="Union 1" transform="translate(493.108 170.777)"/><path id="Path_32948" fill="url(#linear-gradient-15)" d="M344.237,338.539a.315.315,0,0,0,.011-.313.319.319,0,0,0-.326-.164c-.67.1-6.557,1.036-7.354,2.717a1.016,1.016,0,0,0,.062.994,1.75,1.75,0,0,0,1.365.907c1.929.2,4.716-2.478,6.2-4.091a.263.263,0,0,0,.037-.049m-7.062,2.445c.544-.892,3.589-1.715,5.913-2.143-2.1,2.135-3.946,3.323-5.026,3.21a1.133,1.133,0,0,1-.889-.6.394.394,0,0,1-.032-.4.631.631,0,0,1,.035-.064" data-name="Path 32948" transform="translate(198.735 199.675)"/><path id="Path_32949" fill="url(#linear-gradient-15)" d="M343.929,339.606a.29.29,0,0,0,.029-.064.313.313,0,0,0-.059-.307c-.1-.116-2.459-2.835-4.634-2.976a2.285,2.285,0,0,0-1.734.587c-.654.587-.6,1.1-.434,1.419.69,1.365,4.921,1.84,6.627,1.486a.321.321,0,0,0,.205-.145m-6.227-2a1.322,1.322,0,0,1,.251-.286,1.647,1.647,0,0,1,1.271-.428c1.43.094,3.053,1.572,3.791,2.324-1.885.159-4.939-.414-5.354-1.233a.353.353,0,0,1,.041-.377" data-name="Path 32949" transform="translate(199.044 198.608)"/><path id="Path_32950" fill="#ffb573" d="M556.86,532.571l-12.186,5.413-5.43-11.3-7.1-14.8-.832-1.721,12.172-5.421.942,1.936,6.88,14.332Z" data-name="Path 32950"/><g id="Group_11334" data-name="Group 11334"><g id="Group_11333" clip-path="url(#clip-path-11)" data-name="Group 11333" transform="translate(532.148 506.677)"><path id="Path_32951" d="M19.161,14.332,7.1,20.006,0,5.206,12.277.006Z" data-name="Path 32951"/></g></g><path id="Path_32952" fill="#263238" d="M510.709,261.136s-38.93,96.767-28.38,142.331c9.536,41.182,51.7,119.173,51.7,119.173l16.3-8.184s-26.069-94.147-28.9-114.6c-5.5-39.8,29.866-95.97,29.866-138.724Z" data-name="Path 32952"/><g id="Group_11337" data-name="Group 11337"><g id="Group_11336" clip-path="url(#clip-path-12)" data-name="Group 11336" transform="translate(480.518 261.136)"><path id="Path_32953" fill="url(#linear-gradient)" d="M30.191,0S-8.739,96.767,1.811,142.331c9.536,41.182,51.7,119.173,51.7,119.173l16.3-8.184s-26.069-94.147-28.9-114.6C35.411,98.92,70.777,42.75,70.777,0Z" data-name="Path 32953"/></g></g><path id="Path_32954" fill="#263238" d="M542.5,536.289l12.1-8.809a1.059,1.059,0,0,1,1.4.11l8.348,8.572a2.142,2.142,0,0,1-.332,3.173c-4.272,3-6.487,4.231-11.809,8.1-3.274,2.383-9.8,7.653-14.321,10.944-4.422,3.218-8.017-1.005-6.429-2.78,7.121-7.96,8.621-12.883,9.727-17.341a3.479,3.479,0,0,1,1.316-1.969" data-name="Path 32954"/><path id="Path_32955" fill="url(#linear-gradient-15)" d="M336.63,337.5l21.044-9.625-2.7-8.577-22.536,10.28Z" data-name="Path 32955" transform="translate(196.355 188.594)"/><path id="Union_2" fill="url(#linear-gradient-14)" stroke="rgba(0,0,0,0)" stroke-miterlimit="10" stroke-width="1" d="M17.6,90.359C13.689,66.3,11.582,49.44,10.538,37.618A94.47,94.47,0,0,1,0,25.081L3.353,0c5.662,1.285,15.5,4.347,20.908,7.688,3.052-.449,6.337-.871,9.495-1.159,8.005-.73,15.465-.439,24.572,0a159.7,159.7,0,0,1,22.98,3.028c-10.528,45.2-10.5,58.777-9.594,80.8Z" data-name="Union 2" transform="translate(493.108 170.777)"/><path id="Path_32960" fill="#407bff" d="M565.632,257.961l2.44,4.844c.189.375-.256.759-.881.759h-56.75c-.487,0-.891-.239-.923-.546l-.488-4.844c-.033-.336.39-.619.923-.619h54.8a.983.983,0,0,1,.881.406" data-name="Path 32960"/><g id="Group_11346" data-name="Group 11346"><g id="Group_11345" clip-path="url(#clip-path-13)" data-name="Group 11345" transform="translate(509.029 257.555)"><path id="Path_32961" fill="#fff" d="M56.6.406l2.44,4.844c.189.375-.256.759-.881.759H1.412c-.487,0-.891-.239-.923-.546L0,.619C-.032.283.391,0,.924,0h54.8a.983.983,0,0,1,.881.406" data-name="Path 32961"/></g></g><path id="Path_32962" fill="#263238" d="M558.273,264.088h1.468c.291,0,.514-.151.495-.334l-.689-6.294c-.021-.185-.275-.334-.568-.334h-1.468c-.293,0-.514.15-.495.334l.689,6.294c.021.183.275.334.568.334" data-name="Path 32962"/><path id="Path_32963" fill="#263238" d="M522.7,264.088h1.467c.293,0,.514-.151.495-.334l-.687-6.294c-.021-.185-.275-.334-.569-.334H521.94c-.294,0-.515.15-.495.334l.687,6.294c.021.183.275.334.569.334" data-name="Path 32963"/><path id="Rectangle_13624" fill="none" d="M0,0H795.326V592.691H0Z" data-name="Rectangle 13624"/><path id="Rectangle_13625" fill="none" d="M0,0H795.326V592.691H0Z" data-name="Rectangle 13625"/></g><path id="Path_33187" fill="#e0e0e0" d="M481.73,322.773H350.342a6.633,6.633,0,0,1-6.634-6.635V239.753a6.633,6.633,0,0,1,6.635-6.634H481.73a6.633,6.633,0,0,1,6.633,6.634V316.14a6.633,6.633,0,0,1-6.634,6.634" data-name="Path 33187" opacity=".14"/><path id="Path_33188" fill="#ebebeb" d="M427.056,279.165a11.019,11.019,0,1,1-11.019-11.019,11.019,11.019,0,0,1,11.019,11.019" data-name="Path 33188"/><path id="Path_33189" fill="#fff" d="M413.38,282.389v-6.5a.414.414,0,0,1,.617-.36l5.811,3.276a.413.413,0,0,1,0,.722L414,282.753a.414.414,0,0,1-.615-.362" data-name="Path 33189"/><path id="Path_33190" fill="#fff" d="M351.979,312.474v.233H350.89v-.184l.587-.558c.143-.137.169-.223.169-.3,0-.135-.094-.213-.275-.213a.416.416,0,0,0-.346.154l-.192-.148a.681.681,0,0,1,.562-.245c.321,0,.528.162.528.424a.59.59,0,0,1-.245.466l-.4.376Z" data-name="Path 33190"/><path id="Path_33191" fill="#fff" d="M352.121,311.741a.173.173,0,1,1,.173.173.173.173,0,0,1-.173-.173m0,.8a.173.173,0,1,1,.173.173.173.173,0,0,1-.173-.173" data-name="Path 33191"/><path id="Path_33192" fill="#fff" d="M353.159,311.228v1.478h-.274v-1.248h-.313v-.23Z" data-name="Path 33192"/><path id="Path_33193" fill="#fff" d="M354.768,312.371h-.261v.336h-.266v-.336h-.811v-.19l.728-.953h.294l-.686.91h.484v-.3h.258v.3h.261Z" data-name="Path 33193"/><path id="Rectangle_13807" fill="#fff" d="M357.179,311.74H469.211v.593H357.179Z" data-name="Rectangle 13807"/><path id="Rectangle_13808" fill="#ebebeb" d="M357.1,311.12h35.011V312.7H357.1Z" data-name="Rectangle 13808"/><path id="Path_33194" fill="#ebebeb" d="M393.236,312.036a1.7,1.7,0,1,1-1.7-1.7,1.7,1.7,0,0,1,1.7,1.7" data-name="Path 33194"/><path id="Path_33195" fill="#fff" d="M472.033,312.02a.492.492,0,0,1-.54.479c-.4,0-.64-.26-.64-.734a.7.7,0,0,1,.724-.785.736.736,0,0,1,.388.094l-.1.207a.5.5,0,0,0-.281-.072c-.279,0-.453.173-.453.508a.5.5,0,0,1,.394-.153.461.461,0,0,1,.509.454m-.266.013c0-.154-.116-.251-.3-.251a.269.269,0,0,0-.3.254c0,.139.109.249.306.249a.257.257,0,0,0,.29-.251" data-name="Path 33195"/><path id="Path_33196" fill="#fff" d="M472.166,311.512a.172.172,0,1,1,.05.124.173.173,0,0,1-.05-.124m0,.8a.174.174,0,1,1,.173.174.174.174,0,0,1-.173-.174" data-name="Path 33196"/><path id="Path_33197" fill="#fff" d="M472.688,311.739c0-.486.266-.76.617-.76s.619.274.619.76-.266.76-.619.76-.617-.274-.617-.76m.96,0c0-.357-.14-.521-.342-.521s-.34.164-.34.521.139.521.34.521.342-.164.342-.521" data-name="Path 33197"/><path id="Path_33198" fill="#fff" d="M474.107,311.739c0-.486.266-.76.617-.76s.619.274.619.76-.266.76-.619.76-.617-.274-.617-.76m.96,0c0-.357-.14-.521-.342-.521s-.34.164-.34.521.139.521.34.521.342-.164.342-.521" data-name="Path 33198"/><path id="Path_33199" fill="#fff" d="M477.772,311.648h-.6v-1.514h1.51v.593h-.91Z" data-name="Path 33199"/><path id="Path_33200" fill="#fff" d="M478.686,313.61h-1.515V312.1h.593v.917h.921Z" data-name="Path 33200"/><path id="Path_33201" fill="#fff" d="M481.073,313.611h-1.511v-.592h.918v-.92h.593Z" data-name="Path 33201"/><path id="Path_33202" fill="#fff" d="M481.075,311.644h-.594v-.917h-.92v-.594h1.514Z" data-name="Path 33202"/><path id="Path_33203" fill="#fff" d="M461.968,241.834a23.577,23.577,0,0,1,3.047-.166h.164v.17l.04,3.871v.5l-.355-.355-.406-.406-1.033-1.038.278.008-1.621,1.424-.307.27.006-.4c.018-1.2.058-2.19.092-2.862a4.7,4.7,0,0,1,.089-1.009,7.857,7.857,0,0,1,.089,1.124c.034.685.074,1.628.092,2.747l-.3-.134,1.592-1.458.14-.129.138.137,1.038,1.033.406.406-.351.146.04-3.871.166.165a29.688,29.688,0,0,1-3.047-.165" data-name="Path 33203"/><path id="Path_33204" fill="#fff" d="M473.174,242.318a10.666,10.666,0,0,1-.738.942c-.5.62-1.249,1.546-2.163,2.577l-.341.384V245.7c0-.6-.006-1.251-.009-1.919V243.6l.063.148-1.35-1.315-.352-.342.488.007c1.338.019,2.488.089,3.255.135a10.045,10.045,0,0,1,1.148.087c-.04.018-.541.034-1.331.072s-1.846.094-3.074.1l.137-.336,1.364,1.3.063.06v.277c0,.669-.006,1.314-.009,1.919l-.342-.132c.855-.935,1.63-1.7,2.211-2.285s.941-.952.982-.971" data-name="Path 33204"/><path id="Path_33205" fill="#fff" d="M473.173,242.317c.044.1-.6.476-1.444.831s-1.56.555-1.6.449.6-.476,1.445-.829a3.519,3.519,0,0,1,1.6-.451" data-name="Path 33205"/><path id="Path_33206" fill="#fff" d="M478.633,241.834c0-.021.193-.069.546-.01a2.148,2.148,0,0,1,1.284.774,2.291,2.291,0,0,1,.374,2.193,2.336,2.336,0,0,1-4.41,0,2.29,2.29,0,0,1,.374-2.193,2.145,2.145,0,0,1,1.284-.774c.353-.059.548-.011.546.01s-.191.044-.508.145a2.163,2.163,0,0,0-1.092.8,2.023,2.023,0,0,0-.249,1.888,1.974,1.974,0,0,0,3.7,0,2.023,2.023,0,0,0-.249-1.888,2.163,2.163,0,0,0-1.092-.8c-.316-.1-.509-.11-.508-.145" data-name="Path 33206"/><path id="Path_33207" fill="#fff" d="M479.372,244.911c-.08.08-.556-.266-1.065-.773l-.06-.061v-.1c0-.724.092-1.312.206-1.312s.206.588.206,1.312v.013l-.06-.146c.508.509.853.985.773,1.065" data-name="Path 33207"/><path id="Path_33208" fill="#fff" d="M426.241,244.77c0,.114-14.867.206-33.2.206s-33.2-.092-33.2-.206,14.863-.206,33.2-.206,33.2.092,33.2.206" data-name="Path 33208"/><path id="Path_33209" fill="#fff" d="M356.7,244.769a2.619,2.619,0,1,1-2.618-2.618,2.619,2.619,0,0,1,2.618,2.618" data-name="Path 33209"/><path id="Path_33213" fill="#fff" d="M385.178,370.737s-.01-.417-.015-1.219-.014-1.995-.014-3.554l-.037-13.688-.082-50.684.15.151c-46.012.016-112.232.041-185.712.069h-.019l.22-.22c0,24.135-.006,47.486-.008,69.145l-.212-.212,133.066.1,38.7.059,10.363.026c1.176.007,2.072.011,2.681.013s.919.014.919.014-.3.009-.893.014l-2.656.013-10.319.027-38.646.059-133.21.1h-.211v-.212c0-21.659-.006-45.009-.008-69.145v-.22h.232l185.712.071h.15v.149l-.082,50.774-.037,13.654-.016,3.528c0,.8-.015,1.188-.015,1.188" data-name="Path 33213"/><path id="Path_33214" fill="#f5f5f5" d="M182.782,230.771l7.512-46.05,49.638,8.1-7.512,46.049Z" data-name="Path 33214" opacity=".15"/><path id="Path_33215" fill="#e0e0e0" d="M218.632,200.009a3.473,3.473,0,1,0,3.012,4.008,3.547,3.547,0,0,0-3.012-4.008" data-name="Path 33215"/><path id="Path_33216" fill="#e0e0e0" d="M235.5,195.825l-41.927-6.884c.054-.043-.522.359-.279.194v.03l-.007.041-.013.082-.027.165-.054.328-.107.656-.214,1.307-.425,2.6-.837,5.126L190,209.393l-2.945,18.157-.033.2.206.033,30.47,4.877L226.208,234l2.232.342.568.081a1.1,1.1,0,0,0,.185.019,1.546,1.546,0,0,0-.2-.045l-.586-.107-2.265-.394-8.544-1.449-9.363-1.563,20.975,3.428a1,1,0,0,0-.012.13.786.786,0,0,0,.039-.165c.024-.132.056-.3.1-.514q.125-.72.356-2.031l1.323-7.767,4.669-27.909.033-.194ZM221.77,216.061l-8.138,6.927-8.755-16.98-17.338,21.127c.9-5.474,1.879-11.4,2.91-17.666l1.628-9.921.839-5.126.425-2.6.214-1.307.107-.656.054-.328.016-.1,41.5,6.75L230.823,223.8l-1.226,7.828q-.2,1.339-.315,2.076c-.032.224-.056.4-.077.539a.127.127,0,0,1-.005.045Z" data-name="Path 33216"/><path id="Path_33217" fill="url(#linear-gradient-26)" d="M0,0H134.621V76.5H0Z" data-name="Path 33217" opacity=".19" transform="translate(242.731 183.991)"/><path id="Path_33218" fill="#263238" d="M377.351,260.489s-.009-.47-.013-1.373l-.014-4-.033-15.3-.068-55.833.128.128-134.611.038h-.01l.167-.166c0,27.062-.008,52.933-.011,76.5l-.155-.155,96.843.075,27.8.042,7.407.019,1.913.01c.43,0,.654.009.654.009s-.211.006-.636.01l-1.895.009-7.376.019-27.769.042-96.946.075h-.155v-.155c0-23.565-.008-49.436-.011-76.5v-.162h.176l134.611.038h.128v.128l-.068,55.912-.033,15.267-.014,3.973c0,.9-.013,1.346-.013,1.346" data-name="Path 33218"/><path id="Path_33219" fill="#ebebeb" d="M297.35,196.471c0,.092-9.148.167-20.429.167s-20.43-.075-20.43-.167,9.146-.166,20.43-.166,20.429.074,20.429.166" data-name="Path 33219"/><path id="Path_33220" fill="#ebebeb" d="M318.737,203.8c0,.092-9.148.166-20.429.166s-20.431-.074-20.431-.166,9.146-.166,20.431-.166,20.429.074,20.429.166" data-name="Path 33220"/><path id="Path_33221" fill="#ebebeb" d="M363.236,196.471c0,.092-9.147.167-20.429.167s-20.431-.075-20.431-.167,9.146-.166,20.431-.166,20.429.074,20.429.166" data-name="Path 33221"/><path id="Path_33222" fill="#ebebeb" d="M314.709,196.465a91.724,91.724,0,0,1-11.032,0,91.724,91.724,0,0,1,11.032,0" data-name="Path 33222"/><path id="Path_33223" fill="#ebebeb" d="M268.721,203.8a45.914,45.914,0,0,1-5.516.166,45.888,45.888,0,0,1-5.515-.166,45.883,45.883,0,0,1,5.515-.166,45.9,45.9,0,0,1,5.516.166" data-name="Path 33223"/><path id="Path_33224" fill="#ebebeb" d="M334.638,203.494a84.928,84.928,0,0,1-10.616,0,84.947,84.947,0,0,1,10.616,0" data-name="Path 33224"/><path id="Path_33225" fill="#ebebeb" d="M297.35,213.26c0,.092-9.148.166-20.429.166s-20.43-.074-20.43-.166,9.146-.166,20.43-.166,20.429.074,20.429.166" data-name="Path 33225"/><path id="Path_33226" fill="#ebebeb" d="M318.737,220.589c0,.092-9.148.167-20.429.167s-20.431-.074-20.431-.167,9.146-.165,20.431-.165,20.429.074,20.429.165" data-name="Path 33226"/><path id="Path_33227" fill="#ebebeb" d="M363.236,213.26c0,.092-9.147.166-20.429.166s-20.431-.074-20.431-.166,9.146-.166,20.431-.166,20.429.074,20.429.166" data-name="Path 33227"/><path id="Path_33228" fill="#ebebeb" d="M314.709,213.254a91.736,91.736,0,0,1-11.032,0,91.728,91.728,0,0,1,11.032,0" data-name="Path 33228"/><path id="Path_33229" fill="#ebebeb" d="M268.721,220.589a45.694,45.694,0,0,1-5.516.167,45.669,45.669,0,0,1-5.515-.167,46.146,46.146,0,0,1,5.515-.165,46.162,46.162,0,0,1,5.516.165" data-name="Path 33229"/><path id="Path_33230" fill="#ebebeb" d="M334.638,220.282a84.936,84.936,0,0,1-10.616,0,84.959,84.959,0,0,1,10.616,0" data-name="Path 33230"/><path id="Path_33231" fill="#ebebeb" d="M297.731,242.368c0,.092-9.148.166-20.429.166s-20.43-.074-20.43-.166,9.146-.166,20.43-.166,20.429.074,20.429.166" data-name="Path 33231"/><path id="Path_33232" fill="#ebebeb" d="M319.116,249.7c0,.092-9.148.166-20.429.166s-20.43-.074-20.43-.166,9.146-.166,20.43-.166,20.429.074,20.429.166" data-name="Path 33232"/><path id="Path_33233" fill="#ebebeb" d="M363.616,242.368c0,.092-9.147.166-20.429.166s-20.43-.074-20.43-.166,9.146-.166,20.43-.166,20.429.074,20.429.166" data-name="Path 33233"/><path id="Path_33234" fill="#ebebeb" d="M315.087,242.362a91.723,91.723,0,0,1-11.032,0,91.732,91.732,0,0,1,11.032,0" data-name="Path 33234"/><path id="Path_33235" fill="#ebebeb" d="M269.1,249.7a45.911,45.911,0,0,1-5.516.166,45.9,45.9,0,0,1-5.516-.166,45.905,45.905,0,0,1,5.516-.166,45.908,45.908,0,0,1,5.516.166" data-name="Path 33235"/><path id="Path_33236" fill="#ebebeb" d="M335.017,249.391a84.943,84.943,0,0,1-10.616,0,84.94,84.94,0,0,1,10.616,0" data-name="Path 33236"/><path id="Path_33237" fill="#ebebeb" d="M297.35,229.046c0,.092-9.148.166-20.429.166s-20.43-.074-20.43-.166,9.146-.166,20.43-.166,20.429.074,20.429.166" data-name="Path 33237"/><path id="Path_33238" fill="#ebebeb" d="M318.737,236.377c0,.092-9.148.167-20.429.167s-20.431-.075-20.431-.167,9.146-.165,20.431-.165,20.429.074,20.429.165" data-name="Path 33238"/><path id="Path_33239" fill="#ebebeb" d="M363.236,229.046c0,.092-9.147.166-20.429.166s-20.431-.074-20.431-.166,9.146-.166,20.431-.166,20.429.074,20.429.166" data-name="Path 33239"/><path id="Path_33240" fill="#ebebeb" d="M314.709,229.04a91.163,91.163,0,0,1-11.032,0,92.256,92.256,0,0,1,11.032,0" data-name="Path 33240"/><path id="Path_33241" fill="#ebebeb" d="M268.721,236.377a45.826,45.826,0,0,1-5.516.167,45.807,45.807,0,0,1-5.515-.167,46.181,46.181,0,0,1,5.515-.165,46.194,46.194,0,0,1,5.516.165" data-name="Path 33241"/><path id="Path_33242" fill="#ebebeb" d="M334.638,236.068a84.94,84.94,0,0,1-10.616,0,84.943,84.943,0,0,1,10.616,0" data-name="Path 33242"/><path id="Path_33243" fill="#263238" d="M342.307,248.4a1.336,1.336,0,0,0,.251-.551,4,4,0,0,0,.131-1.651,2.148,2.148,0,0,0-.131-.56.692.692,0,0,0-.546-.441.491.491,0,0,0-.406.139.664.664,0,0,0-.169.375,4.16,4.16,0,0,0,.013.7c.036.464.036.907.11,1.445a.874.874,0,0,0,.568.687,1.745,1.745,0,0,0,.859.034,6.814,6.814,0,0,0,1.5-.444,7.077,7.077,0,0,0,.669-.331,1.955,1.955,0,0,0,.607-.459.645.645,0,0,0,.016-.818.772.772,0,0,0-.729-.175,4.49,4.49,0,0,0-1.076.444,5.854,5.854,0,0,0-1.325.981c-.273.277-.395.456-.378.471a11.617,11.617,0,0,1,1.82-1.224,4.623,4.623,0,0,1,1.01-.375.487.487,0,0,1,.44.089.326.326,0,0,1-.041.4,1.7,1.7,0,0,1-.511.361,6.866,6.866,0,0,1-.638.306,6.7,6.7,0,0,1-1.427.414,1.41,1.41,0,0,1-.677-.017.511.511,0,0,1-.342-.421c-.064-.44-.082-.954-.124-1.4a4.3,4.3,0,0,1-.03-.629c.021-.183.1-.267.231-.258.3.02.4.419.453.74a5.793,5.793,0,0,1-.129,2.164" data-name="Path 33243"/><path id="Path_33244" fill="#263238" d="M369.483,222.742a1.346,1.346,0,0,0-.018-.6,4.016,4.016,0,0,0-.612-1.539,2.168,2.168,0,0,0-.364-.444A.691.691,0,0,0,367.8,220a.487.487,0,0,0-.3.3.652.652,0,0,0,.014.411,4.146,4.146,0,0,0,.319.617c.238.4.433.8.737,1.248a.874.874,0,0,0,.813.366,1.746,1.746,0,0,0,.785-.348,6.758,6.758,0,0,0,1.608-1.655,1.948,1.948,0,0,0,.342-.679.644.644,0,0,0-.347-.741.772.772,0,0,0-.731.165,4.512,4.512,0,0,0-.77.873,5.839,5.839,0,0,0-.755,1.466,1.5,1.5,0,0,0-.132.589,11.6,11.6,0,0,1,1.092-1.9,4.607,4.607,0,0,1,.741-.782.487.487,0,0,1,.434-.115.326.326,0,0,1,.141.381,1.71,1.71,0,0,1-.3.549,6.9,6.9,0,0,1-.439.557,6.739,6.739,0,0,1-1.1,1,1.432,1.432,0,0,1-.615.284.511.511,0,0,1-.493-.227c-.252-.367-.494-.82-.727-1.2a4.327,4.327,0,0,1-.3-.552c-.061-.173-.027-.285.093-.333.276-.114.546.2.734.464a5.794,5.794,0,0,1,.839,2" data-name="Path 33244"/><path id="Path_33245" fill="#e0e0e0" d="M331.787,248.16a1.24,1.24,0,0,0-1.385.9,1.193,1.193,0,0,0,.885,1.382,1.309,1.309,0,0,0,1.462-.967,1.237,1.237,0,0,0-1.08-1.334" data-name="Path 33245"/><path id="Rectangle_13809" fill="none" d="M322.856,252.832h27.556v15.314H322.856Z" data-name="Rectangle 13809"/><path id="Path_33246" fill="#263238" d="M340.2,253.481c-.068.132-.766-.128-1.63-.013-.867.091-1.484.508-1.582.4-.111-.086.472-.789,1.521-.909s1.78.418,1.692.526" data-name="Path 33246"/><path id="Path_33247" fill="#263238" d="M342.5,256.048c-.031.144-.719.094-1.445.442-.736.327-1.143.884-1.274.813-.136-.039.147-.866,1.057-1.282s1.72-.1,1.662.027" data-name="Path 33247"/><path id="Path_33248" fill="#263238" d="M342.483,260.266c-.135-.03,0-.787.694-1.355s1.459-.56,1.463-.421c.023.146-.571.345-1.134.82s-.883,1.007-1.022.956" data-name="Path 33248"/><path id="Path_33249" fill="#263238" d="M341.5,250.137c-.114.1-.64-.384-1.42-.7-.774-.327-1.484-.356-1.5-.5-.031-.133.78-.354,1.694.026s1.341,1.1,1.224,1.172" data-name="Path 33249"/><path id="Rectangle_13810" fill="none" d="M354.945,234.8h30.382v2.462H354.945Z" data-name="Rectangle 13810"/><path id="Path_33250" fill="#263238" d="M369.83,228.23c0,.148-.744.223-1.469.707-.737.465-1.108,1.111-1.244,1.054-.137-.027.075-.916.963-1.487s1.781-.411,1.751-.274" data-name="Path 33250"/><path id="Path_33251" fill="#263238" d="M373.028,229.515c.035.143-.6.4-1.1,1.034-.516.618-.636,1.3-.784,1.293-.139.024-.25-.843.383-1.618s1.5-.85,1.5-.709" data-name="Path 33251"/><path id="Path_33252" fill="#263238" d="M374.878,233.309c-.134.033-.349-.705.024-1.521s1.063-1.147,1.127-1.023c.086.121-.361.561-.656,1.236-.312.667-.347,1.293-.495,1.309" data-name="Path 33252"/><path id="Path_33253" fill="#263238" d="M369.526,224.653c-.061.136-.743-.062-1.581,0s-1.489.336-1.567.209c-.087-.106.545-.661,1.532-.725s1.687.394,1.616.511" data-name="Path 33253"/><path id="Path_33254" fill="#f5f5f5" d="M410.466,369.718l-7.525-46.045-49.633,8.112,7.525,46.045Z" data-name="Path 33254" opacity=".15"/><path id="Path_33255" fill="#e0e0e0" d="M374.616,338.957a3.473,3.473,0,1,1-3.012,4.008,3.547,3.547,0,0,1,3.012-4.008" data-name="Path 33255"/><path id="Path_33256" fill="#e0e0e0" d="M357.747,334.773l41.927-6.886c-.054-.043.522.359.279.194v.03l.007.041.013.082.027.165.054.328.107.656.214,1.307.425,2.6.837,5.126,1.615,9.923L406.2,366.5l.033.2-.206.033-30.47,4.877-8.514,1.338-2.232.342-.568.081a1.1,1.1,0,0,1-.185.019,1.552,1.552,0,0,1,.2-.045l.586-.107,2.265-.394,8.544-1.449,9.363-1.563-20.975,3.428a1,1,0,0,1,.012.13.786.786,0,0,1-.039-.165c-.024-.132-.056-.3-.1-.514q-.125-.72-.356-2.031l-1.323-7.767L357.576,335l-.033-.194Zm13.731,20.234,8.138,6.927,8.755-16.98,17.341,21.129c-.9-5.474-1.879-11.4-2.91-17.666l-1.628-9.921-.839-5.126-.425-2.6-.214-1.307-.107-.656-.054-.328-.016-.1-41.5,6.75,4.409,27.624,1.226,7.828q.2,1.339.315,2.076c.032.224.056.4.077.539a.127.127,0,0,0,.005.045Z" data-name="Path 33256"/><path id="Path_33257" fill="url(#linear-gradient-26)" d="M134.622,0H0V76.5H134.622Z" data-name="Path 33257" opacity=".19" transform="translate(215.895 322.939)"/><path id="Path_33258" fill="#263238" d="M215.9,399.437s.009-.47.013-1.373l.014-4,.033-15.3.068-55.833-.128.128,134.611.038h.01l-.167-.166c0,27.062.008,52.933.011,76.5l.155-.155-96.843.075-27.8.042-7.407.019-1.913.01c-.43,0-.654.009-.654.009s.211.006.636.01l1.9.009,7.376.019,27.769.042,96.946.075h.155v-.155c0-23.565.008-49.436.011-76.5v-.162h-.176l-134.611.038h-.128v.128l.068,55.912.033,15.267.014,3.973c0,.9.013,1.346.013,1.346" data-name="Path 33258"/><path id="Path_33259" fill="#ebebeb" d="M295.9,335.419c0,.092,9.148.167,20.429.167s20.431-.075,20.431-.167-9.146-.166-20.431-.166-20.429.074-20.429.166" data-name="Path 33259"/><path id="Path_33260" fill="#ebebeb" d="M274.512,342.747c0,.092,9.148.166,20.429.166s20.431-.074,20.431-.166-9.146-.166-20.431-.166-20.429.074-20.429.166" data-name="Path 33260"/><path id="Path_33261" fill="#ebebeb" d="M230.012,335.419c0,.092,9.148.167,20.429.167s20.431-.075,20.431-.167-9.146-.166-20.431-.166-20.429.074-20.429.166" data-name="Path 33261"/><path id="Path_33262" fill="#ebebeb" d="M278.538,335.413a91.737,91.737,0,0,0,11.032,0,91.737,91.737,0,0,0-11.032,0" data-name="Path 33262"/><path id="Path_33263" fill="#ebebeb" d="M324.526,342.747a91.721,91.721,0,0,0,11.031,0,91.7,91.7,0,0,0-11.031,0" data-name="Path 33263"/><path id="Path_33264" fill="#ebebeb" d="M258.61,342.441a42.511,42.511,0,0,0,5.308.166,42.51,42.51,0,0,0,5.308-.166,42.528,42.528,0,0,0-5.308-.166,42.527,42.527,0,0,0-5.308.166" data-name="Path 33264"/><path id="Path_33265" fill="#ebebeb" d="M295.9,352.208c0,.092,9.148.166,20.429.166s20.431-.074,20.431-.166-9.146-.166-20.431-.166-20.429.074-20.429.166" data-name="Path 33265"/><path id="Path_33266" fill="#ebebeb" d="M274.512,359.537c0,.093,9.148.167,20.429.167s20.431-.074,20.431-.167-9.146-.165-20.431-.165-20.429.074-20.429.165" data-name="Path 33266"/><path id="Path_33267" fill="#ebebeb" d="M230.012,352.208c0,.092,9.148.166,20.429.166s20.431-.074,20.431-.166-9.146-.166-20.431-.166-20.429.074-20.429.166" data-name="Path 33267"/><path id="Path_33268" fill="#ebebeb" d="M278.538,352.2a91.736,91.736,0,0,0,11.032,0,91.744,91.744,0,0,0-11.032,0" data-name="Path 33268"/><path id="Path_33269" fill="#ebebeb" d="M324.526,359.537a91.168,91.168,0,0,0,11.031,0,92.27,92.27,0,0,0-11.031,0" data-name="Path 33269"/><path id="Path_33270" fill="#ebebeb" d="M258.61,359.23a42.521,42.521,0,0,0,5.308.166,42.517,42.517,0,0,0,5.308-.166,42.522,42.522,0,0,0-5.308-.166,42.528,42.528,0,0,0-5.308.166" data-name="Path 33270"/><path id="Path_33271" fill="#ebebeb" d="M295.517,381.316c0,.092,9.148.166,20.429.166s20.431-.074,20.431-.166-9.146-.166-20.431-.166-20.429.074-20.429.166" data-name="Path 33271"/><path id="Path_33272" fill="#ebebeb" d="M274.132,388.649c0,.092,9.148.166,20.429.166s20.431-.074,20.431-.166-9.146-.166-20.431-.166-20.429.074-20.429.166" data-name="Path 33272"/><path id="Path_33273" fill="#ebebeb" d="M229.632,381.316c0,.092,9.148.166,20.429.166s20.431-.074,20.431-.166-9.146-.166-20.431-.166-20.429.074-20.429.166" data-name="Path 33273"/><path id="Path_33274" fill="#ebebeb" d="M278.158,381.31a91.736,91.736,0,0,0,11.032,0,91.745,91.745,0,0,0-11.032,0" data-name="Path 33274"/><path id="Path_33275" fill="#ebebeb" d="M324.147,388.649a91.728,91.728,0,0,0,11.032,0,91.753,91.753,0,0,0-11.032,0" data-name="Path 33275"/><path id="Path_33276" fill="#ebebeb" d="M258.231,388.338a42.5,42.5,0,0,0,5.308.166,42.5,42.5,0,0,0,5.308-.166,42.522,42.522,0,0,0-5.308-.166,42.538,42.538,0,0,0-5.308.166" data-name="Path 33276"/><path id="Path_33277" fill="#ebebeb" d="M295.9,367.994c0,.092,9.148.166,20.429.166s20.431-.074,20.431-.166-9.146-.166-20.431-.166-20.429.074-20.429.166" data-name="Path 33277"/><path id="Path_33278" fill="#ebebeb" d="M274.512,375.325c0,.092,9.148.167,20.429.167s20.431-.075,20.431-.167-9.146-.165-20.431-.165-20.429.074-20.429.165" data-name="Path 33278"/><path id="Path_33279" fill="#ebebeb" d="M230.012,367.994c0,.092,9.148.166,20.429.166s20.431-.074,20.431-.166-9.146-.166-20.431-.166-20.429.074-20.429.166" data-name="Path 33279"/><path id="Path_33280" fill="#ebebeb" d="M278.538,367.987a91.159,91.159,0,0,0,11.032,0,92.287,92.287,0,0,0-11.032,0" data-name="Path 33280"/><path id="Path_33281" fill="#ebebeb" d="M324.526,375.325a91.16,91.16,0,0,0,11.031,0,92.28,92.28,0,0,0-11.031,0" data-name="Path 33281"/><path id="Path_33282" fill="#ebebeb" d="M258.61,375.016a42.511,42.511,0,0,0,5.308.166,42.515,42.515,0,0,0,5.308-.166,42.539,42.539,0,0,0-5.308-.166,42.528,42.528,0,0,0-5.308.166" data-name="Path 33282"/><path id="Path_33283" fill="#263238" d="M250.941,387.35a1.336,1.336,0,0,1-.251-.551,4,4,0,0,1-.131-1.651,2.149,2.149,0,0,1,.131-.56.692.692,0,0,1,.546-.441.491.491,0,0,1,.406.139.663.663,0,0,1,.169.375,4.158,4.158,0,0,1-.013.7c-.036.464-.036.907-.11,1.445a.875.875,0,0,1-.568.687,1.745,1.745,0,0,1-.859.034,6.814,6.814,0,0,1-1.5-.444,7.09,7.09,0,0,1-.669-.331,1.954,1.954,0,0,1-.607-.459.645.645,0,0,1-.016-.818.772.772,0,0,1,.729-.175,4.491,4.491,0,0,1,1.076.444,5.856,5.856,0,0,1,1.325.981c.273.277.4.456.378.471a11.614,11.614,0,0,0-1.82-1.224,4.625,4.625,0,0,0-1.01-.375.487.487,0,0,0-.44.089.326.326,0,0,0,.041.4,1.7,1.7,0,0,0,.511.361,6.866,6.866,0,0,0,.638.306,6.7,6.7,0,0,0,1.427.414,1.41,1.41,0,0,0,.677-.017.511.511,0,0,0,.342-.421c.064-.44.082-.954.124-1.395a4.3,4.3,0,0,0,.03-.629c-.021-.183-.1-.267-.231-.258-.3.02-.4.419-.453.74a5.793,5.793,0,0,0,.129,2.164" data-name="Path 33283"/><path id="Path_33284" fill="#263238" d="M223.765,361.689a1.345,1.345,0,0,1,.018-.605,4.017,4.017,0,0,1,.612-1.539,2.165,2.165,0,0,1,.364-.444.691.691,0,0,1,.685-.154.488.488,0,0,1,.3.3.652.652,0,0,1-.014.411,4.142,4.142,0,0,1-.319.617c-.238.4-.433.8-.737,1.248a.874.874,0,0,1-.813.366,1.745,1.745,0,0,1-.785-.348,6.756,6.756,0,0,1-1.608-1.655,1.947,1.947,0,0,1-.342-.679.644.644,0,0,1,.347-.741.772.772,0,0,1,.731.165,4.508,4.508,0,0,1,.77.873,5.838,5.838,0,0,1,.755,1.466,1.506,1.506,0,0,1,.132.589,11.615,11.615,0,0,0-1.092-1.9,4.607,4.607,0,0,0-.741-.782.486.486,0,0,0-.434-.115.326.326,0,0,0-.141.381,1.711,1.711,0,0,0,.3.549,6.908,6.908,0,0,0,.438.557,6.737,6.737,0,0,0,1.1,1,1.432,1.432,0,0,0,.615.284.511.511,0,0,0,.493-.227c.252-.367.494-.82.727-1.2a4.32,4.32,0,0,0,.3-.552c.061-.173.027-.285-.093-.333-.276-.114-.546.2-.734.464a5.8,5.8,0,0,0-.839,2" data-name="Path 33284"/><path id="Path_33285" fill="#e0e0e0" d="M261.462,387.108a1.24,1.24,0,0,1,1.385.905,1.193,1.193,0,0,1-.885,1.382,1.309,1.309,0,0,1-1.462-.967,1.237,1.237,0,0,1,1.08-1.334" data-name="Path 33285"/><path id="Rectangle_13811" fill="none" d="M242.835,391.78h27.556v15.314H242.835Z" data-name="Rectangle 13811"/><path id="Path_33286" fill="#263238" d="M253.049,392.429c.068.132.766-.128,1.63-.013.867.091,1.484.508,1.582.4.11-.086-.472-.789-1.521-.909s-1.78.417-1.692.526" data-name="Path 33286"/><path id="Path_33287" fill="#263238" d="M250.747,394.995c.031.144.719.094,1.445.442.735.327,1.143.883,1.274.813.136-.039-.147-.866-1.057-1.282s-1.72-.1-1.662.027" data-name="Path 33287"/><path id="Path_33288" fill="#263238" d="M250.763,399.214c.135-.03,0-.787-.694-1.355s-1.459-.56-1.463-.421c-.023.146.571.345,1.134.82s.883,1.007,1.022.956" data-name="Path 33288"/><path id="Path_33289" fill="#263238" d="M251.746,389.085c.114.1.64-.384,1.42-.7.774-.327,1.484-.356,1.5-.5s-.78-.354-1.694.026-1.341,1.1-1.224,1.172" data-name="Path 33289"/><path id="Rectangle_13812" fill="none" d="M207.922,373.748H238.3v2.462H207.922Z" data-name="Rectangle 13812"/><path id="Path_33290" fill="#263238" d="M223.419,367.178c0,.148.744.223,1.469.707.737.465,1.108,1.111,1.244,1.054.137-.027-.075-.916-.963-1.487s-1.781-.411-1.751-.274" data-name="Path 33290"/><path id="Path_33291" fill="#263238" d="M220.221,368.463c-.035.143.6.4,1.1,1.034.516.618.636,1.3.784,1.293.139.024.25-.843-.383-1.618s-1.5-.85-1.5-.709" data-name="Path 33291"/><path id="Path_33292" fill="#263238" d="M218.37,372.256c.134.033.349-.7-.024-1.521s-1.063-1.147-1.127-1.023c-.086.121.361.561.656,1.236.312.667.347,1.293.495,1.309" data-name="Path 33292"/><path id="Path_33293" fill="#263238" d="M223.721,363.6c.061.136.743-.062,1.581,0s1.489.336,1.567.209c.087-.106-.545-.661-1.532-.725s-1.687.394-1.616.511" data-name="Path 33293"/></svg>