<svg xmlns="http://www.w3.org/2000/svg" width="795.326" height="592.691">
    <defs>
        <clipPath id="b">
            <path fill="none" data-name="Rectangle 13573" d="M0 0h220.022v10.476H0z"/>
        </clipPath>
        <clipPath id="c">
            <path fill="none" data-name="Rectangle 13603" d="M0 0h220.023v10.476H0z"/>
        </clipPath>
        <clipPath id="d">
            <path fill="none" data-name="Rectangle 13607" d="M0 0h220.023v10.478H0z"/>
        </clipPath>
        <clipPath id="e">
            <path fill="url(#a)" data-name="Rectangle 13614" d="M0 0h385.479v260.46H0z"/>
        </clipPath>
        <clipPath id="h">
            <path fill="none" data-name="Rectangle 13615" d="M0 0h13.861v15.904H0z"/>
        </clipPath>
        <clipPath id="i">
            <path fill="#e8ecee" data-name="Rectangle 13616" d="M0 0h46.799v281.917H0z"/>
        </clipPath>
        <clipPath id="j">
            <path fill="none" data-name="Rectangle 13617" d="M0 0h11.712v99.117H0z"/>
        </clipPath>
        <clipPath id="k">
            <path fill="none" data-name="Rectangle 13619" d="M0 0h19.161v20.005H0z"/>
        </clipPath>
        <clipPath id="l">
            <path fill="#e8ecee" data-name="Rectangle 13620" d="M0 0h70.79v261.509H0z"/>
        </clipPath>
        <clipPath id="m">
            <path fill="none" data-name="Rectangle 13623" d="M0 0h59.088v6.008H0z"/>
        </clipPath>
        <linearGradient id="a" x1=".5" x2=".5" y2="1" gradientUnits="objectBoundingBox">
            <stop offset="0" stop-color="#1db27b"/>
            <stop offset="1" stop-color="#0f593e"/>
        </linearGradient>
        <linearGradient id="f" x1=".5" x2=".5" y2="1" gradientUnits="objectBoundingBox">
            <stop offset="0" stop-color="#383838"/>
            <stop offset="1" stop-color="#020202"/>
        </linearGradient>
        <linearGradient id="g" x1=".5" x2=".5" y2="1" gradientUnits="objectBoundingBox">
            <stop offset="0" stop-color="#62cbac"/>
            <stop offset="1" stop-color="#316656"/>
        </linearGradient>
        <linearGradient id="n" x1=".5" x2=".5" y2="1" gradientUnits="objectBoundingBox">
            <stop offset="0" stop-color="#fefefe"/>
            <stop offset="1" stop-color="#e4e4e4"/>
        </linearGradient>
    </defs>
    <g data-name="Group 11755">
        <g data-name="Group 11347">
            <path fill="#ebebeb" data-name="Rectangle 13560" d="M0 520.853h795.326v.398H0z"/>
            <path fill="#ebebeb" data-name="Rectangle 13561" d="M662.951 546.456h52.686v.398h-52.686z"/>
            <path fill="#ebebeb" data-name="Rectangle 13562" d="M513.029 550.773h13.828v.398h-13.828z"/>
            <path fill="#ebebeb" data-name="Rectangle 13563" d="M630.83 531.685h30.528v.398H630.83z"/>
            <path fill="#ebebeb" data-name="Rectangle 13564" d="M83.444 534.357h68.705v.398H83.444z"/>
            <path fill="#ebebeb" data-name="Rectangle 13565" d="M166.312 534.357h10.074v.398h-10.074z"/>
            <path fill="#ebebeb" data-name="Rectangle 13566" d="M209.124 541.073H358.13v.398H209.124z"/>
            <path fill="#ebebeb" d="M377.007 449.911H69.853a9.09 9.09 0 0 1-9.079-9.079V9.079A9.091 9.091 0 0 1 69.853 0h307.154a9.09 9.09 0 0 1 9.078 9.079v431.753a9.089 9.089 0 0 1-9.078 9.079M69.853.4a8.691 8.691 0 0 0-8.686 8.679v431.753a8.691 8.691 0 0 0 8.682 8.682h307.158a8.691 8.691 0 0 0 8.68-8.682V9.079A8.691 8.691 0 0 0 377.007.4z" data-name="Path 32866"/>
            <path fill="#ebebeb" d="M721.06 449.911H413.907a9.088 9.088 0 0 1-9.078-9.079V9.079A9.089 9.089 0 0 1 413.907 0H721.06a9.091 9.091 0 0 1 9.079 9.079v431.753a9.09 9.09 0 0 1-9.079 9.079M413.907.4a8.69 8.69 0 0 0-8.68 8.682v431.75a8.69 8.69 0 0 0 8.68 8.682H721.06a8.692 8.692 0 0 0 8.682-8.682V9.079A8.692 8.692 0 0 0 721.06.4z" data-name="Path 32867"/>
            <path fill="#e6e6e6" data-name="Rectangle 13567" d="M460.798 45.936H679.96v143.52H460.798z"/>
            <path fill="#f0f0f0" stroke="#707070" data-name="Rectangle 13568" d="M454.111 45.936h222.725v143.52H454.111z"/>
            <path fill="#e6e6e6" data-name="Rectangle 13569" d="M460.798 189.456H679.96v28.167H460.798z"/>
            <path fill="#f0f0f0" data-name="Rectangle 13570" d="M442.97 189.456h222.725v28.167H442.97z"/>
            <path fill="#fafafa" data-name="Rectangle 13571" d="M463.473 55.299h203.999v124.796H463.473z"/>
            <path fill="#fff" d="m621.472 180.096-26.057-124.8h-40.659l26.056 124.8z" data-name="Path 32868"/>
            <path fill="#f0f0f0" d="M663.138 170.778a.669.669 0 0 0 .67-.668V61.39a.67.67 0 0 0-1.339 0v108.72a.669.669 0 0 0 .67.668" data-name="Path 32869"/>
            <path fill="#fff" d="m572.079 180.096-26.057-124.8h-15.855l26.056 124.8z" data-name="Path 32870"/>
            <path fill="#e6e6e6" data-name="Rectangle 13572" d="M463.473 55.299h1.188v124.796h-1.188z"/>
            <g data-name="Group 11283">
                <g clip-path="url(#b)" data-name="Group 11282" transform="translate(451.896 58.938)">
                    <path fill="#ebebeb" d="M0 10.476h219.161L220.023 0H.862z" data-name="Path 32871"/>
                </g>
            </g>
            <g data-name="Group 11286">
                <g clip-path="url(#b)" data-name="Group 11285" transform="translate(451.896 76.121)">
                    <path fill="#ebebeb" d="M0 10.476h219.161L220.023 0H.862z" data-name="Path 32872"/>
                </g>
            </g>
            <g data-name="Group 11289">
                <g clip-path="url(#b)" data-name="Group 11288" transform="translate(451.896 93.303)">
                    <path fill="#ebebeb" d="M0 10.476h219.161L220.023 0H.862z" data-name="Path 32873"/>
                </g>
            </g>
            <g data-name="Group 11292">
                <g clip-path="url(#b)" data-name="Group 11291" transform="translate(451.896 110.485)">
                    <path fill="#ebebeb" d="M0 10.476h219.161L220.023 0H.862z" data-name="Path 32874"/>
                </g>
            </g>
            <g data-name="Group 11295">
                <g clip-path="url(#b)" data-name="Group 11294" transform="translate(451.896 127.667)">
                    <path fill="#ebebeb" d="M0 10.476h219.161L220.023 0H.862z" data-name="Path 32875"/>
                </g>
            </g>
            <g data-name="Group 11298">
                <g clip-path="url(#b)" data-name="Group 11297" transform="translate(451.896 144.85)">
                    <path fill="#ebebeb" d="M0 10.476h219.161L220.023 0H.862z" data-name="Path 32876"/>
                </g>
            </g>
            <path fill="#e6e6e6" data-name="Rectangle 13579" d="M602.537 416.479h45.952v9.06h-45.952z"/>
            <path fill="#e6e6e6" data-name="Rectangle 13580" d="M515.859 312.374h8.483v208.479h-8.483z"/>
            <path fill="#f5f5f5" stroke="#707070" data-name="Rectangle 13581" d="M486.478 416.479h116.059v9.06H486.478z"/>
            <path fill="#e6e6e6" data-name="Rectangle 13582" d="M602.537 466.053h45.952v9.06h-45.952z"/>
            <path fill="#f5f5f5" stroke="#707070" data-name="Rectangle 13583" d="M486.478 466.053h116.059v9.06H486.478z"/>
            <path fill="#e6e6e6" data-name="Rectangle 13584" d="M602.537 317.327h45.952v9.06h-45.952z"/>
            <path fill="#f5f5f5" stroke="#707070" data-name="Rectangle 13585" d="M486.478 317.327h116.059v9.06H486.478z"/>
            <path fill="#e6e6e6" data-name="Rectangle 13586" d="M602.537 366.903h45.952v9.06h-45.952z"/>
            <path fill="#f5f5f5" stroke="#707070" data-name="Rectangle 13587" d="M486.478 366.903h116.059v9.06H486.478z"/>
            <path fill="#e6e6e6" data-name="Rectangle 13588" d="M631.921 312.374h8.483v208.479h-8.483z"/>
            <path fill="#f5f5f5" stroke="#707070" data-name="Rectangle 13589" d="M594.054 312.374h8.483v208.479h-8.483z"/>
            <path fill="#f5f5f5" stroke="#707070" data-name="Rectangle 13590" d="M486.478 312.374h8.483v208.479h-8.483z"/>
            <path fill="#e6e6e6" data-name="Rectangle 13591" d="M103.987 352.417h86.815v168.437h-86.815z"/>
            <path fill="#fafafa" d="M127.169 520.854h-23.182v-23.252h47.489z" data-name="Path 32877"/>
            <path fill="#e6e6e6" data-name="Rectangle 13592" d="M340.691 352.417h86.815v168.437h-86.815z"/>
            <path fill="#fafafa" stroke="#707070" data-name="Rectangle 13593" d="M103.987 352.415h256.936V512.85H103.987z"/>
            <path fill="#fafafa" d="M337.741 520.854h23.182v-23.252h-47.488z" data-name="Path 32878"/>
            <path fill="#f0f0f0" data-name="Rectangle 13594" d="M121.971 412.198H342.94v40.15H121.971z"/>
            <path fill="#f0f0f0" data-name="Rectangle 13595" d="M121.971 460.93H342.94v40.15H121.971z"/>
            <path fill="#fafafa" d="M163.971 416.491h136.968a7.28 7.28 0 0 0 7.28-7.279v-.491H156.692v.491a7.279 7.279 0 0 0 7.279 7.279" data-name="Path 32879"/>
            <path fill="#f0f0f0" data-name="Rectangle 13596" d="M121.971 363.469H342.94v40.15H121.971z"/>
            <path fill="#fafafa" d="M163.971 367.761h136.968a7.28 7.28 0 0 0 7.28-7.279v-.492H156.692v.492a7.279 7.279 0 0 0 7.279 7.279" data-name="Path 32880"/>
            <path fill="#fafafa" d="M163.971 465.222h136.968a7.28 7.28 0 0 0 7.28-7.279v-.491H156.692v.491a7.279 7.279 0 0 0 7.279 7.279" data-name="Path 32881"/>
            <path fill="#e6e6e6" data-name="Rectangle 13597" d="M117.817 45.936h219.162v143.52H117.817z"/>
            <path fill="#f0f0f0" stroke="#707070" data-name="Rectangle 13598" d="M111.13 45.936h222.725v143.52H111.13z"/>
            <path fill="#e6e6e6" data-name="Rectangle 13599" d="M117.817 189.456h219.162v28.167H117.817z"/>
            <path fill="#f0f0f0" data-name="Rectangle 13600" d="M99.99 189.456h222.723v28.167H99.99z"/>
            <path fill="#fafafa" data-name="Rectangle 13601" d="M120.49 55.299h204.001v124.796H120.49z"/>
            <path fill="#fff" d="M278.491 180.096 252.438 55.299h-40.662l26.056 124.8z" data-name="Path 32882"/>
            <path fill="#f0f0f0" d="M320.157 170.778a.668.668 0 0 0 .668-.668V61.39a.669.669 0 0 0-1.338 0v108.72a.669.669 0 0 0 .67.668" data-name="Path 32883"/>
            <path fill="#fff" d="m229.098 180.096-26.056-124.8h-15.851l26.056 124.8z" data-name="Path 32884"/>
            <path fill="#e6e6e6" data-name="Rectangle 13602" d="M120.492 55.299h1.188v124.796h-1.188z"/>
            <g data-name="Group 11301">
                <g clip-path="url(#c)" data-name="Group 11300" transform="translate(108.916 58.938)">
                    <path fill="#ebebeb" d="M0 10.476h219.162L220.023 0H.862z" data-name="Path 32885"/>
                </g>
            </g>
            <g data-name="Group 11304">
                <g clip-path="url(#c)" data-name="Group 11303" transform="translate(108.916 64.848)">
                    <path fill="#ebebeb" d="M0 10.476h219.162L220.023 0H.862z" data-name="Path 32886"/>
                </g>
            </g>
            <g data-name="Group 11307">
                <g clip-path="url(#c)" data-name="Group 11306" transform="translate(108.916 70.759)">
                    <path fill="#ebebeb" d="M0 10.476h219.162L220.023 0H.862z" data-name="Path 32887"/>
                </g>
            </g>
            <g data-name="Group 11310">
                <g clip-path="url(#c)" data-name="Group 11309" transform="translate(108.916 76.668)">
                    <path fill="#ebebeb" d="M0 10.476h219.162L220.023 0H.862z" data-name="Path 32888"/>
                </g>
            </g>
            <g data-name="Group 11313">
                <g clip-path="url(#d)" data-name="Group 11312" transform="translate(108.916 82.577)">
                    <path fill="#ebebeb" d="M0 10.477h219.162l.861-10.476H.862z" data-name="Path 32889"/>
                </g>
            </g>
            <g data-name="Group 11316">
                <g clip-path="url(#c)" data-name="Group 11315" transform="translate(108.916 88.488)">
                    <path fill="#ebebeb" d="M0 10.476h219.162L220.023 0H.862z" data-name="Path 32890"/>
                </g>
            </g>
            <path fill="#f5f5f5" data-name="Rectangle 13609" d="M152.723 262.819h7.576v84.451h-7.576z"/>
            <path fill="#fafafa" data-name="Rectangle 13610" d="M153.7 262.76h2.141v84.451H153.7z"/>
            <path fill="#fafafa" data-name="Rectangle 13611" d="M156.737 262.76h.838v84.451h-.838z"/>
            <path fill="#f0f0f0" d="M128.466 352.417h56.093a7.067 7.067 0 0 0-7.067-7.067h-41.959a7.067 7.067 0 0 0-7.067 7.067z" data-name="Path 32891"/>
            <path fill="#f0f0f0" d="M142.896 315.245a2.186 2.186 0 0 0 2.179-2.179v-55.371a2.179 2.179 0 0 0-4.358 0v55.371a2.186 2.186 0 0 0 2.179 2.179" data-name="Path 32892"/>
            <path fill="#e0e0e0" d="M122.598 282.891h67.826l-7.8-47.4H130.4z" data-name="Path 32893"/>
            <path fill="#407bff" data-name="Rectangle 13612" d="m164.028 234.588 1.586-.114 2.112 29.334-1.586.114z"/>
            <path fill="#407bff" data-name="Rectangle 13613" d="m167.23 279.07 1.587-.114.795 11.034-1.587.114z"/>
            <path fill="#407bff" d="M537.181 413.902H196.53a15.346 15.346 0 0 1-15.017-14.009l-16.741-232.442a12.9 12.9 0 0 1 13-14.007h340.653a15.346 15.346 0 0 1 15.017 14.007l16.738 232.442a12.9 12.9 0 0 1-13 14.009" data-name="Path 32894"/>
            <path fill="#407bff" d="M538.487 413.902H197.836a15.346 15.346 0 0 1-15.017-14.009l-16.737-232.442a12.9 12.9 0 0 1 13-14.007h340.649a15.346 15.346 0 0 1 15.017 14.007l16.739 232.442a12.9 12.9 0 0 1-13 14.009" data-name="Path 32895"/>
            <g data-name="Group 11319">
                <g clip-path="url(#e)" data-name="Group 11318" transform="translate(166.045 153.442)">
                    <path fill="url(#a)" d="M476.83 356.924H136.179a15.346 15.346 0 0 1-15.017-14.009l-16.737-232.442a12.9 12.9 0 0 1 13-14.007h340.649a15.346 15.346 0 0 1 15.017 14.007l16.739 232.442a12.9 12.9 0 0 1-13 14.009" data-name="Path 32896" transform="translate(-104.388 -96.464)"/>
                </g>
            </g>
            <path fill="url(#f)" d="M456.092 100.869H115.441q-.577 0-1.141.046c-8.709.717-6.929 13.963 1.859 13.963h341.232c8.788 0 8.66-13.245-.151-13.963q-.57-.045-1.148-.046" data-name="Path 32897" transform="translate(64.144 59.578)"/>
            <path fill="#fafafa" d="M188.457 167.452a2.948 2.948 0 0 1-2.981 3.212 3.507 3.507 0 0 1-3.442-3.212 2.949 2.949 0 0 1 2.981-3.212 3.507 3.507 0 0 1 3.442 3.212" data-name="Path 32898"/>
            <path fill="#fafafa" d="M199.382 167.452a2.948 2.948 0 0 1-2.981 3.212 3.507 3.507 0 0 1-3.442-3.212 2.948 2.948 0 0 1 2.981-3.212 3.507 3.507 0 0 1 3.442 3.212" data-name="Path 32899"/>
            <path fill="#fafafa" d="M210.304 167.452a2.949 2.949 0 0 1-2.981 3.212 3.507 3.507 0 0 1-3.442-3.212 2.949 2.949 0 0 1 2.981-3.212 3.507 3.507 0 0 1 3.442 3.212" data-name="Path 32900"/>
            <path fill="#ffb573" d="M562.594 187.9c1.422-.713 3.116-1.634 4.683-2.494a120.78 120.78 0 0 0 4.747-2.742c3.116-1.918 6.256-3.814 9.239-5.92a122.664 122.664 0 0 0 16.723-13.764c.663-.608 1.23-1.282 1.844-1.923l.907-.975.455-.485.227-.245c.059-.064.046-.049.018-.013l-.051.078c-.227.423-.038.3.049-.115a8.685 8.685 0 0 0 .224-1.735 47.742 47.742 0 0 0-1.16-10.05c-1.416-7.136-3.56-14.472-5.68-21.661l6.181-2.71a130.386 130.386 0 0 1 9.722 21.63 50.682 50.682 0 0 1 2.734 12.555 19.436 19.436 0 0 1-.132 3.994 12.1 12.1 0 0 1-1.945 5.222l-.264.367-.205.267-.245.3-.49.595-.983 1.193c-.663.784-1.292 1.615-2 2.349a113.172 113.172 0 0 1-18.1 16.148c-3.24 2.368-6.553 4.618-9.994 6.665q-2.57 1.556-5.213 3a85.64 85.64 0 0 1-5.515 2.809z" data-name="Path 32917"/>
            <path fill="url(#g)" d="M345.941 354.48a16.161 16.161 0 0 0 3.517-.477.315.315 0 0 0 .1-.569c-.456-.3-4.5-2.912-6.052-2.211a1.076 1.076 0 0 0-.628.888 1.794 1.794 0 0 0 .523 1.677 3.811 3.811 0 0 0 2.539.694m2.625-.927c-2.319.463-4.064.383-4.739-.232a1.191 1.191 0 0 1-.323-1.123.448.448 0 0 1 .262-.4c.818-.369 3.15.757 4.8 1.754" data-name="Path 32918" transform="translate(202.506 207.38)"/>
            <path fill="url(#g)" d="M348.287 355.171a.3.3 0 0 0 .159-.043.313.313 0 0 0 .157-.272c0-.162-.019-4-1.467-5.281a1.639 1.639 0 0 0-1.336-.422 1.1 1.1 0 0 0-1.063.88c-.3 1.5 2.122 4.376 3.393 5.1a.32.32 0 0 0 .156.04m-2.267-5.4a1.019 1.019 0 0 1 .7.277c.864.765 1.161 2.919 1.234 4.2-1.268-1.012-2.779-3.172-2.6-4.086.03-.15.116-.329.52-.377a1.108 1.108 0 0 1 .143-.01" data-name="Path 32919" transform="translate(203.605 206.22)"/>
            <path fill="#ffb573" d="M550.721 148.112c-1.549 7.906-4.816 23.919.716 29.195 0 0-2.162 8.02-16.853 8.02-16.153 0-7.719-8.02-7.719-8.02 8.817-2.1 8.59-8.645 7.053-14.788z" data-name="Path 32920"/>
            <path fill="#263238" d="M523.776 180.494c-2.535.344-.379-6.226.652-6.905 2.38-1.573 33.167-3.8 32.966-.065-.127 1.608-.883 4.746-2.228 5.812s-9.256-2.155-31.39 1.158" data-name="Path 32921"/>
            <path fill="#263238" d="M528.791 178.279c-2.014.681-1.823-5.938-1.137-6.735 1.588-1.842 26.507-8.244 27.248-4.621.285 1.564.422 4.688-.434 5.9s-8.176-.794-25.676 5.456" data-name="Path 32922"/>
            <path fill="#263238" d="M519.523 133.861a.629.629 0 0 1-.526-.231 5.025 5.025 0 0 0-4.12-1.953.631.631 0 0 1-.137-1.253 6.26 6.26 0 0 1 5.233 2.41.631.631 0 0 1-.45 1.029" data-name="Path 32923"/>
            <path fill="#ff5652" d="M516.441 141.646s-1.362 4.783-3.142 7.2c1.541 1.179 3.883.34 3.883.34z" data-name="Path 32924"/>
            <path fill="#263238" d="M517.217 139.713c.1 1.069-.377 1.991-1.075 2.061s-1.352-.743-1.457-1.813.377-1.992 1.075-2.06 1.352.743 1.457 1.812" data-name="Path 32925"/>
            <path fill="#263238" d="m516.076 137.93-2.642-.488s1.516 1.877 2.642.488" data-name="Path 32926"/>
            <path fill="#ffb573" d="M567.386 561.075h-13.324l1.045-30.855h13.323z" data-name="Path 32927"/>
            <path fill="#263238" d="M553.007 559.532h14.968a1.055 1.055 0 0 1 1.064.91l1.705 11.844a2.14 2.14 0 0 1-2.136 2.368c-5.219-.089-7.734-.4-14.316-.4-4.05 0-9.967.422-15.56.422-5.469 0-5.89-5.531-3.561-6.032 10.443-2.246 12.091-5.343 15.609-8.3a3.479 3.479 0 0 1 2.227-.819" data-name="Path 32928"/>
            <g data-name="Group 11322">
                <g clip-path="url(#h)" data-name="Group 11321" transform="translate(554.573 530.229)">
                    <path d="M13.861 0H.531L0 15.9h13.328z" data-name="Path 32929"/>
                </g>
            </g>
            <path fill="#ffb573" d="M514.375 195.796a261.105 261.105 0 0 1-23.941-10.743 144.284 144.284 0 0 1-22.912-13.956 52.478 52.478 0 0 1-5.443-4.883c-.442-.477-.888-.919-1.323-1.467a20.773 20.773 0 0 1-1.4-1.8 12.694 12.694 0 0 1-2.131-5.741 12.969 12.969 0 0 1 .781-5.758 17.529 17.529 0 0 1 2.238-4.148 29.68 29.68 0 0 1 5.392-5.6 66.58 66.58 0 0 1 11.624-7.42c1.972-1.048 3.981-1.991 6.019-2.86s4.043-1.7 6.211-2.45l2.825 6.129c-6.938 4.373-14.125 9.178-19.409 14.569a21.859 21.859 0 0 0-3.113 3.961c-.757 1.252-.748 2.19-.619 2.117.065 0 .04-.029.226.156l.632.679c.239.283.574.576.876.867a40.529 40.529 0 0 0 4.292 3.45 102.311 102.311 0 0 0 10.234 6.315c3.585 1.991 7.274 3.9 11.031 5.7 7.5 3.59 15.267 7.045 22.891 10.2z" data-name="Path 32930"/>
            <path fill="#ffb573" d="m496.234 130.753 2.2-4.778-10.015-3.477s-3.119 9.388.6 13.721a9.609 9.609 0 0 0 7.212-5.465" data-name="Path 32931"/>
            <path fill="#ffb573" d="m498.438 115.645-8.006-2.308-2.009 9.161 10.015 3.477z" data-name="Path 32932"/>
            <path fill="#ffb573" d="m601.823 126.439 1.168-11.166-10.317 2.426s-.153 10.466 5.308 12.135z" data-name="Path 32933"/>
            <path fill="#ffb573" d="m598.018 107.456-6.724 3.14 1.374 7.1 10.32-2.426z" data-name="Path 32934"/>
            <path fill="#ffb573" d="M552.815 132.505c.485 13.214.973 18.8-5 26.192-8.981 11.122-25.318 8.828-29.742-3.975-3.983-11.523-4.107-31.2 8.236-37.689a18.035 18.035 0 0 1 26.5 15.472" data-name="Path 32935"/>
            <path fill="#263238" d="M547.059 158.672c12.972-5.605 21.5-17.426 17.9-35.907-3.447-17.682-15.383-19.43-20.314-15.76s-17.222-1.8-24.6 4.408c-12.779 10.754-.7 22.349 5.6 29.219 3.759 7.727 8.683 23.542 21.413 18.041" data-name="Path 32936"/>
            <path fill="url(#g)" d="M341.5 83.048c4.377 6.339 12.773 8.128 18.754 4s7.28-12.615 2.9-18.954-12.773-8.128-18.754-4-7.28 12.615-2.9 18.954" data-name="Path 32937" transform="translate(200.175 36.544)"/>
            <path fill="#263238" d="M545.04 108.243c-1.872-10.653 8.209-18.868 21.69-14.9s6.35 15.921 3.585 25.465 4.49 18.633 7.522 11.365-2.065-9.512-2.065-9.512 14.314 3.711 1.016 19.848-25.334-1.681-22.08-12.2c2.631-8.5-7.9-10-9.67-20.071" data-name="Path 32938"/>
            <path fill="#263238" d="M531.568 112.269c-6.154-3.21-16.576-5.806-22.508 4.172-2.8 4.719-1.718 11.117-1.718 11.117l18.116 1.206z" data-name="Path 32939"/>
            <path fill="#263238" d="M505.21 124.429h-.025a.4.4 0 0 1-.372-.422c.017-.272.455-6.671 4.317-10.684 9.336-9.7 20.281-1.654 23.413 1.043a.4.4 0 0 1-.519.6c-3-2.582-13.47-10.292-22.32-1.094-3.659 3.8-4.093 10.118-4.1 10.182a.4.4 0 0 1-.4.372" data-name="Path 32940"/>
            <path fill="#ffb573" d="M527.863 140.106a11.026 11.026 0 0 1-2.634 6.8c-2.2 2.57-4.716 1.3-5.3-1.546-.52-2.566 0-6.994 2.774-8.547 2.737-1.53 5.178.347 5.157 3.289" data-name="Path 32941"/>
            <path fill="#263238" d="M524.999 261.136s.849 92.487 8.873 144.026c6.48 41.627 18.472 137.892 18.472 137.892h18.17s1.775-92.934-1.514-134.1c-8.324-104.187 13.156-123.667-4.177-147.818z" data-name="Path 32942"/>
            <g data-name="Group 11325">
                <g clip-path="url(#i)" data-name="Group 11324" transform="translate(524.999 261.136)">
                    <path fill="#e8ecee" d="M0 0s.849 92.487 8.873 144.026c6.48 41.627 18.472 137.892 18.472 137.892h18.17s1.775-92.934-1.514-134.1C35.677 43.631 57.157 24.151 39.824 0z" data-name="Path 32943"/>
                </g>
            </g>
            <g data-name="Group 11328">
                <g clip-path="url(#j)" data-name="Group 11327" transform="translate(525.881 295.217)">
                    <path d="M8.669 7.878c6.378 27.916 1.288 71.882-2.2 91.24C2.779 69.718.918 31.627-.005 3.711c3.293-5.345 6.41-5.695 8.669 4.168" data-name="Path 32944"/>
                </g>
            </g>
            <path fill="url(#g)" d="M345.731 344.952h23.142l1.215-8.119L345.6 336z" data-name="Path 32945" transform="translate(204.128 198.462)"/>
            <path fill="#407bff" d="M556.463 183.063c2.176-4.328 13.878-7.051 20.274-7.042l4.788 21.259s-12.747 18.917-18.047 16.911c-6.261-2.365-11.683-21.851-7.02-31.124" data-name="Path 32946"/>
            <path fill="url(#f)" stroke="rgba(0,0,0,0)" stroke-miterlimit="10" d="M17.6 90.359c-3.912-24.054-6.019-40.92-7.062-52.742A94.494 94.494 0 0 1 0 25.081L3.353 0c5.662 1.285 15.5 4.347 20.909 7.689 3.052-.449 6.336-.871 9.494-1.159 3.357-.306 6.62-.432 9.948-.444h1.012c4.288.014 8.711.208 13.612.444 4.2.2 8.363.654 11.966 1.147A43.949 43.949 0 0 1 83.336 5.25h.293l4.787 21.258S80.458 38.316 74.5 42.282c-3.634 21.2-3.433 32.538-2.792 48.077z" data-name="Union 1" transform="translate(493.108 170.777)"/>
            <path fill="url(#g)" d="M344.237 338.539a.315.315 0 0 0 .011-.313.319.319 0 0 0-.326-.164c-.67.1-6.557 1.036-7.354 2.717a1.016 1.016 0 0 0 .062.994 1.75 1.75 0 0 0 1.365.907c1.929.2 4.716-2.478 6.205-4.091a.26.26 0 0 0 .037-.049m-7.062 2.445c.544-.892 3.589-1.715 5.913-2.143-2.1 2.135-3.946 3.323-5.026 3.21a1.133 1.133 0 0 1-.889-.6.394.394 0 0 1-.032-.4.628.628 0 0 1 .035-.064" data-name="Path 32948" transform="translate(198.735 199.675)"/>
            <path fill="url(#g)" d="M343.929 339.606a.29.29 0 0 0 .029-.064.313.313 0 0 0-.059-.307c-.1-.116-2.459-2.835-4.634-2.976a2.285 2.285 0 0 0-1.734.587c-.654.587-.6 1.1-.434 1.419.69 1.365 4.921 1.84 6.627 1.486a.321.321 0 0 0 .205-.145m-6.227-2a1.322 1.322 0 0 1 .251-.286 1.647 1.647 0 0 1 1.271-.428c1.43.094 3.053 1.572 3.791 2.324-1.885.159-4.939-.414-5.354-1.233a.353.353 0 0 1 .041-.377" data-name="Path 32949" transform="translate(199.044 198.608)"/>
            <path fill="#ffb573" d="m556.86 532.571-12.186 5.413-5.43-11.3-7.1-14.8-.832-1.721 12.172-5.421.942 1.936 6.88 14.332z" data-name="Path 32950"/>
            <g data-name="Group 11334">
                <g clip-path="url(#k)" data-name="Group 11333" transform="translate(532.148 506.677)">
                    <path d="M19.161 14.332 7.096 20.006l-7.1-14.8 12.281-5.2z" data-name="Path 32951"/>
                </g>
            </g>
            <path fill="#263238" d="M510.709 261.136s-38.93 96.767-28.38 142.331c9.536 41.182 51.7 119.173 51.7 119.173l16.3-8.184s-26.069-94.147-28.9-114.6c-5.5-39.8 29.866-95.97 29.866-138.724z" data-name="Path 32952"/>
            <g data-name="Group 11337">
                <g clip-path="url(#l)" data-name="Group 11336" transform="translate(480.518 261.136)">
                    <path fill="#e8ecee" d="M30.191 0s-38.93 96.767-28.38 142.331c9.536 41.182 51.7 119.173 51.7 119.173l16.3-8.184s-26.069-94.147-28.9-114.6c-5.5-39.8 29.866-95.97 29.866-138.724z" data-name="Path 32953"/>
                </g>
            </g>
            <path fill="#263238" d="m542.501 536.289 12.1-8.809a1.059 1.059 0 0 1 1.4.11l8.348 8.572a2.142 2.142 0 0 1-.332 3.173c-4.272 3-6.487 4.231-11.809 8.1-3.274 2.383-9.8 7.653-14.321 10.944-4.422 3.218-8.017-1.005-6.429-2.78 7.121-7.96 8.621-12.883 9.727-17.341a3.479 3.479 0 0 1 1.316-1.969" data-name="Path 32954"/>
            <path fill="url(#g)" d="m336.63 337.5 21.044-9.625-2.7-8.577-22.536 10.28z" data-name="Path 32955" transform="translate(196.355 188.594)"/>
            <path fill="url(#f)" stroke="rgba(0,0,0,0)" stroke-miterlimit="10" d="M17.6 90.359C13.689 66.3 11.582 49.44 10.538 37.618A94.47 94.47 0 0 1 0 25.081L3.353 0c5.662 1.285 15.5 4.347 20.908 7.688 3.052-.449 6.337-.871 9.495-1.159 8.005-.73 15.465-.439 24.572 0a159.7 159.7 0 0 1 22.98 3.028c-10.528 45.2-10.5 58.777-9.594 80.8z" data-name="Union 2" transform="translate(493.108 170.777)"/>
            <path fill="#407bff" d="m565.632 257.961 2.44 4.844c.189.375-.256.759-.881.759h-56.75c-.487 0-.891-.239-.923-.546l-.488-4.844c-.033-.336.39-.619.923-.619h54.8a.983.983 0 0 1 .881.406" data-name="Path 32960"/>
            <g data-name="Group 11346">
                <g clip-path="url(#m)" data-name="Group 11345" transform="translate(509.029 257.555)">
                    <path fill="#fff" d="m56.603.406 2.44 4.844c.189.375-.256.759-.881.759H1.412c-.487 0-.891-.239-.923-.546L.001.619C-.032.283.391 0 .924 0h54.8a.983.983 0 0 1 .881.406" data-name="Path 32961"/>
                </g>
            </g>
            <path fill="#263238" d="M558.273 264.088h1.468c.291 0 .514-.151.495-.334l-.689-6.294c-.021-.185-.275-.334-.568-.334h-1.468c-.293 0-.514.15-.495.334l.689 6.294c.021.183.275.334.568.334" data-name="Path 32962"/>
            <path fill="#263238" d="M522.701 264.088h1.467c.293 0 .514-.151.495-.334l-.687-6.294c-.021-.185-.275-.334-.569-.334h-1.467c-.294 0-.515.15-.495.334l.687 6.294c.021.183.275.334.569.334" data-name="Path 32963"/>
            <path fill="none" data-name="Rectangle 13624" d="M0 0h795.326v592.691H0z"/>
            <path fill="none" data-name="Rectangle 13625" d="M0 0h795.326v592.691H0z"/>
        </g>
        <path fill="#e0e0e0" d="M481.73 322.773H350.342a6.633 6.633 0 0 1-6.634-6.634v-76.386a6.633 6.633 0 0 1 6.634-6.634H481.73a6.633 6.633 0 0 1 6.633 6.634v76.387a6.633 6.633 0 0 1-6.633 6.634" data-name="Path 33187" opacity=".14"/>
        <path fill="#ebebeb" d="M427.056 279.165a11.019 11.019 0 1 1-11.019-11.019 11.02 11.02 0 0 1 11.019 11.019" data-name="Path 33188"/>
        <path fill="#fff" d="M413.38 282.389v-6.5a.414.414 0 0 1 .617-.36l5.811 3.276a.413.413 0 0 1 0 .722l-5.811 3.226a.414.414 0 0 1-.615-.362" data-name="Path 33189"/>
        <path fill="#fff" d="M351.979 312.474v.233h-1.089v-.184l.587-.558c.143-.137.169-.223.169-.305 0-.135-.094-.213-.275-.213a.416.416 0 0 0-.346.154l-.192-.148a.681.681 0 0 1 .562-.245c.321 0 .528.162.528.424a.59.59 0 0 1-.245.466l-.4.376z" data-name="Path 33190"/>
        <path fill="#fff" d="M352.121 311.741a.173.173 0 1 1 .346 0 .173.173 0 1 1-.346 0m0 .8a.173.173 0 1 1 .346 0 .173.173 0 1 1-.346 0" data-name="Path 33191"/>
        <path fill="#fff" d="M353.159 311.228v1.478h-.274v-1.248h-.313v-.23z" data-name="Path 33192"/>
        <path fill="#fff" d="M354.768 312.371h-.261v.336h-.266v-.336h-.811v-.19l.728-.953h.294l-.686.91h.484v-.3h.258v.3h.261z" data-name="Path 33193"/>
        <path fill="#fff" data-name="Rectangle 13807" d="M357.179 311.74h112.032v.593H357.179z"/>
        <path fill="#ebebeb" data-name="Rectangle 13808" d="M357.095 311.12h35.011v1.582h-35.011z"/>
        <path fill="#ebebeb" d="M393.236 312.036a1.7 1.7 0 1 1-1.7-1.7 1.7 1.7 0 0 1 1.7 1.7" data-name="Path 33194"/>
        <path fill="#fff" d="M472.033 312.02a.492.492 0 0 1-.54.479c-.4 0-.64-.26-.64-.734a.7.7 0 0 1 .724-.785.736.736 0 0 1 .388.094l-.1.207a.5.5 0 0 0-.281-.072c-.279 0-.453.173-.453.508a.5.5 0 0 1 .394-.153.461.461 0 0 1 .509.454m-.266.013c0-.154-.116-.251-.3-.251a.269.269 0 0 0-.3.254c0 .139.109.249.306.249a.257.257 0 0 0 .29-.251" data-name="Path 33195"/>
        <path fill="#fff" d="M472.166 311.512a.173.173 0 1 1 .174.175.172.172 0 0 1-.174-.175m0 .8a.173.173 0 1 1 .347 0 .173.173 0 1 1-.347 0" data-name="Path 33196"/>
        <path fill="#fff" d="M472.688 311.739c0-.486.266-.76.617-.76s.619.274.619.76-.266.76-.619.76-.617-.274-.617-.76m.96 0c0-.357-.14-.521-.342-.521s-.34.164-.34.521.139.521.34.521.342-.164.342-.521" data-name="Path 33197"/>
        <path fill="#fff" d="M474.107 311.739c0-.486.266-.76.617-.76s.619.274.619.76-.266.76-.619.76-.617-.274-.617-.76m.96 0c0-.357-.14-.521-.342-.521s-.34.164-.34.521.139.521.34.521.342-.164.342-.521" data-name="Path 33198"/>
        <path fill="#fff" d="M477.772 311.648h-.6v-1.514h1.51v.593h-.91z" data-name="Path 33199"/>
        <path fill="#fff" d="M478.686 313.61h-1.515v-1.511h.593v.917h.921z" data-name="Path 33200"/>
        <path fill="#fff" d="M481.073 313.611h-1.511v-.592h.918v-.92h.593z" data-name="Path 33201"/>
        <path fill="#fff" d="M481.075 311.644h-.594v-.917h-.92v-.594h1.514z" data-name="Path 33202"/>
        <path fill="#fff" d="M461.968 241.834a23.58 23.58 0 0 1 3.047-.166h.164v.17l.04 3.871v.5l-.355-.355-.406-.406-1.033-1.038.278.008-1.621 1.424-.307.27.006-.4c.018-1.2.058-2.19.092-2.862a4.7 4.7 0 0 1 .089-1.009 7.852 7.852 0 0 1 .089 1.124c.034.685.074 1.628.092 2.747l-.3-.134 1.592-1.458.14-.129.138.137 1.038 1.033.406.406-.351.146.04-3.871.166.165a29.682 29.682 0 0 1-3.047-.165" data-name="Path 33203"/>
        <path fill="#fff" d="M473.174 242.318a10.658 10.658 0 0 1-.738.942c-.5.62-1.249 1.546-2.163 2.577l-.341.384v-.516c0-.605-.006-1.251-.009-1.919v-.188l.063.148-1.35-1.315-.352-.342.488.007c1.338.019 2.488.089 3.255.135a10.044 10.044 0 0 1 1.148.087c-.04.018-.541.034-1.331.072s-1.846.094-3.074.1l.137-.336 1.364 1.3.063.06v.277c0 .669-.006 1.314-.009 1.919l-.342-.132c.855-.935 1.63-1.7 2.211-2.285s.941-.952.982-.971" data-name="Path 33204"/>
        <path fill="#fff" d="M473.173 242.317c.044.105-.6.476-1.444.831s-1.56.555-1.6.449.6-.476 1.445-.829a3.519 3.519 0 0 1 1.6-.451" data-name="Path 33205"/>
        <path fill="#fff" d="M478.633 241.834c0-.021.193-.069.546-.01a2.148 2.148 0 0 1 1.284.774 2.291 2.291 0 0 1 .374 2.193 2.336 2.336 0 0 1-4.41 0 2.29 2.29 0 0 1 .374-2.193 2.145 2.145 0 0 1 1.284-.774c.353-.059.548-.011.546.01s-.191.044-.508.145a2.163 2.163 0 0 0-1.092.8 2.023 2.023 0 0 0-.249 1.888 1.974 1.974 0 0 0 3.7 0 2.023 2.023 0 0 0-.249-1.888 2.163 2.163 0 0 0-1.092-.8c-.316-.1-.509-.11-.508-.145" data-name="Path 33206"/>
        <path fill="#fff" d="M479.372 244.911c-.08.08-.556-.266-1.065-.773l-.06-.061v-.1c0-.724.092-1.312.206-1.312s.206.588.206 1.312v.013l-.06-.146c.508.509.853.985.773 1.065" data-name="Path 33207"/>
        <path fill="#fff" d="M426.241 244.77c0 .114-14.867.206-33.2.206s-33.2-.092-33.2-.206 14.863-.206 33.2-.206 33.2.092 33.2.206" data-name="Path 33208"/>
        <path fill="#fff" d="M356.701 244.769a2.619 2.619 0 1 1-2.618-2.618 2.618 2.618 0 0 1 2.618 2.618" data-name="Path 33209"/>
        <path fill="#fff" d="M385.178 370.737s-.01-.417-.015-1.219-.014-1.995-.014-3.554l-.037-13.688-.082-50.684.15.151c-46.012.016-112.232.041-185.712.069h-.019l.22-.22c0 24.135-.006 47.486-.008 69.145l-.212-.212 133.066.1 38.695.059 10.363.026c1.176.007 2.072.011 2.681.013s.919.014.919.014-.3.009-.893.014l-2.656.013-10.319.027-38.646.059-133.21.1h-.211v-.212c0-21.659-.006-45.009-.008-69.145v-.22h.232l185.712.071h.15v.149l-.082 50.774-.037 13.654-.016 3.528c-.004.8-.015 1.188-.015 1.188" data-name="Path 33213"/>
        <path fill="#f5f5f5" d="m182.782 230.771 7.512-46.05 49.638 8.098-7.512 46.049z" data-name="Path 33214" opacity=".15"/>
        <path fill="#e0e0e0" d="M218.632 200.009a3.473 3.473 0 1 0 3.012 4.008 3.547 3.547 0 0 0-3.012-4.008" data-name="Path 33215"/>
        <path fill="#e0e0e0" d="m235.501 195.825-41.927-6.884c.054-.043-.522.359-.279.194v.03l-.007.041-.013.082-.027.165-.054.328-.107.656-.214 1.307-.425 2.6-.837 5.126-1.615 9.923-2.945 18.157-.033.2.206.033 30.47 4.877 8.514 1.338 2.232.342.568.081a1.1 1.1 0 0 0 .185.019 1.549 1.549 0 0 0-.2-.045l-.586-.107-2.265-.394-8.544-1.449-9.363-1.563 20.975 3.428a1 1 0 0 0-.012.13.786.786 0 0 0 .039-.165c.024-.132.056-.3.1-.514q.125-.72.356-2.031l1.323-7.767 4.669-27.909.033-.194zm-13.731 20.236-8.138 6.927-8.755-16.98-17.338 21.127c.9-5.474 1.879-11.4 2.91-17.666l1.628-9.921.839-5.126.425-2.6.214-1.307.107-.656.054-.328.016-.1 41.5 6.75-4.409 27.624-1.226 7.828q-.2 1.339-.315 2.076c-.032.224-.056.4-.077.539 0 .02 0 .029-.005.045z" data-name="Path 33216"/>
        <path fill="url(#n)" d="M0 0h134.621v76.5H0z" data-name="Path 33217" opacity=".19" transform="translate(242.731 183.991)"/>
        <path fill="#263238" d="M377.351 260.489s-.009-.47-.013-1.373l-.014-4-.033-15.3-.068-55.833.128.128-134.611.038h-.01l.167-.166c0 27.062-.008 52.933-.011 76.5l-.155-.155 96.843.075 27.8.042 7.407.019 1.913.01c.43 0 .654.009.654.009s-.211.006-.636.01l-1.895.009-7.376.019-27.769.042-96.946.075h-.155v-.155c0-23.565-.008-49.436-.011-76.5v-.162h.176l134.611.038h.128v.128l-.068 55.912-.033 15.267-.014 3.973c-.003.9-.013 1.346-.013 1.346" data-name="Path 33218"/>
        <path fill="#ebebeb" d="M297.35 196.471c0 .092-9.148.167-20.429.167s-20.43-.075-20.43-.167 9.146-.166 20.43-.166 20.429.074 20.429.166" data-name="Path 33219"/>
        <path fill="#ebebeb" d="M318.737 203.799c0 .092-9.148.166-20.429.166s-20.431-.074-20.431-.166 9.146-.166 20.431-.166 20.429.074 20.429.166" data-name="Path 33220"/>
        <path fill="#ebebeb" d="M363.236 196.471c0 .092-9.147.167-20.429.167s-20.431-.075-20.431-.167 9.146-.166 20.431-.166 20.429.074 20.429.166" data-name="Path 33221"/>
        <path fill="#ebebeb" d="M314.709 196.465a45.928 45.928 0 0 1-5.516.166 45.919 45.919 0 0 1-5.516-.166 45.9 45.9 0 0 1 5.516-.166 45.9 45.9 0 0 1 5.516.166" data-name="Path 33222"/>
        <path fill="#ebebeb" d="M268.721 203.799a45.911 45.911 0 0 1-5.516.166 45.889 45.889 0 0 1-5.515-.166 45.881 45.881 0 0 1 5.515-.166 45.9 45.9 0 0 1 5.516.166" data-name="Path 33223"/>
        <path fill="#ebebeb" d="M334.638 203.494a42.511 42.511 0 0 1-5.308.166 42.507 42.507 0 0 1-5.308-.166 42.525 42.525 0 0 1 5.308-.166 42.529 42.529 0 0 1 5.308.166" data-name="Path 33224"/>
        <path fill="#ebebeb" d="M297.35 213.26c0 .092-9.148.166-20.429.166s-20.43-.074-20.43-.166 9.146-.166 20.43-.166 20.429.074 20.429.166" data-name="Path 33225"/>
        <path fill="#ebebeb" d="M318.737 220.589c0 .092-9.148.167-20.429.167s-20.431-.074-20.431-.167 9.146-.165 20.431-.165 20.429.074 20.429.165" data-name="Path 33226"/>
        <path fill="#ebebeb" d="M363.236 213.26c0 .092-9.147.166-20.429.166s-20.431-.074-20.431-.166 9.146-.166 20.431-.166 20.429.074 20.429.166" data-name="Path 33227"/>
        <path fill="#ebebeb" d="M314.709 213.254a45.908 45.908 0 0 1-5.516.166 45.9 45.9 0 0 1-5.516-.166 45.9 45.9 0 0 1 5.516-.166 45.912 45.912 0 0 1 5.516.166" data-name="Path 33228"/>
        <path fill="#ebebeb" d="M268.721 220.589a45.692 45.692 0 0 1-5.516.167 45.67 45.67 0 0 1-5.515-.167 46.141 46.141 0 0 1 5.515-.165 46.163 46.163 0 0 1 5.516.165" data-name="Path 33229"/>
        <path fill="#ebebeb" d="M334.638 220.282a42.543 42.543 0 0 1-5.308.166 42.54 42.54 0 0 1-5.308-.166 42.5 42.5 0 0 1 5.308-.166 42.5 42.5 0 0 1 5.308.166" data-name="Path 33230"/>
        <path fill="#ebebeb" d="M297.731 242.368c0 .092-9.148.166-20.429.166s-20.43-.074-20.43-.166 9.146-.166 20.43-.166 20.429.074 20.429.166" data-name="Path 33231"/>
        <path fill="#ebebeb" d="M319.116 249.701c0 .092-9.148.166-20.429.166s-20.43-.074-20.43-.166 9.146-.166 20.43-.166 20.429.074 20.429.166" data-name="Path 33232"/>
        <path fill="#ebebeb" d="M363.616 242.368c0 .092-9.147.166-20.429.166s-20.43-.074-20.43-.166 9.146-.166 20.43-.166 20.429.074 20.429.166" data-name="Path 33233"/>
        <path fill="#ebebeb" d="M315.087 242.362a45.917 45.917 0 0 1-5.516.166 45.908 45.908 0 0 1-5.516-.166 45.911 45.911 0 0 1 5.516-.166 45.919 45.919 0 0 1 5.516.166" data-name="Path 33234"/>
        <path fill="#ebebeb" d="M269.101 249.701a45.912 45.912 0 0 1-5.516.166 45.9 45.9 0 0 1-5.516-.166 45.9 45.9 0 0 1 5.516-.166 45.912 45.912 0 0 1 5.516.166" data-name="Path 33235"/>
        <path fill="#ebebeb" d="M335.017 249.391a42.509 42.509 0 0 1-5.308.166 42.506 42.506 0 0 1-5.308-.166 42.528 42.528 0 0 1 5.308-.166 42.531 42.531 0 0 1 5.308.166" data-name="Path 33236"/>
        <path fill="#ebebeb" d="M297.35 229.046c0 .092-9.148.166-20.429.166s-20.43-.074-20.43-.166 9.146-.166 20.43-.166 20.429.074 20.429.166" data-name="Path 33237"/>
        <path fill="#ebebeb" d="M318.737 236.377c0 .092-9.148.167-20.429.167s-20.431-.075-20.431-.167 9.146-.165 20.431-.165 20.429.074 20.429.165" data-name="Path 33238"/>
        <path fill="#ebebeb" d="M363.236 229.046c0 .092-9.147.166-20.429.166s-20.431-.074-20.431-.166 9.146-.166 20.431-.166 20.429.074 20.429.166" data-name="Path 33239"/>
        <path fill="#ebebeb" d="M314.709 229.04a45.673 45.673 0 0 1-5.516.167 45.664 45.664 0 0 1-5.516-.167 46.137 46.137 0 0 1 5.516-.165 46.146 46.146 0 0 1 5.516.165" data-name="Path 33240"/>
        <path fill="#ebebeb" d="M268.721 236.377a45.828 45.828 0 0 1-5.516.167 45.806 45.806 0 0 1-5.515-.167 46.177 46.177 0 0 1 5.515-.165 46.2 46.2 0 0 1 5.516.165" data-name="Path 33241"/>
        <path fill="#ebebeb" d="M334.638 236.068a42.51 42.51 0 0 1-5.308.166 42.507 42.507 0 0 1-5.308-.166 42.529 42.529 0 0 1 5.308-.166 42.532 42.532 0 0 1 5.308.166" data-name="Path 33242"/>
        <path fill="#263238" d="M342.307 248.403a1.336 1.336 0 0 0 .251-.551 4 4 0 0 0 .131-1.651 2.15 2.15 0 0 0-.131-.56.692.692 0 0 0-.546-.441.491.491 0 0 0-.406.139.664.664 0 0 0-.169.375 4.157 4.157 0 0 0 .013.7c.036.464.036.907.11 1.445a.874.874 0 0 0 .568.687 1.745 1.745 0 0 0 .859.034 6.814 6.814 0 0 0 1.5-.444 7.087 7.087 0 0 0 .669-.331 1.955 1.955 0 0 0 .607-.459.645.645 0 0 0 .016-.818.772.772 0 0 0-.729-.175 4.49 4.49 0 0 0-1.076.444 5.854 5.854 0 0 0-1.325.981c-.273.277-.395.456-.378.471a11.616 11.616 0 0 1 1.82-1.224 4.623 4.623 0 0 1 1.01-.375.487.487 0 0 1 .44.089.326.326 0 0 1-.041.4 1.7 1.7 0 0 1-.511.361 6.87 6.87 0 0 1-.638.306 6.7 6.7 0 0 1-1.427.414 1.41 1.41 0 0 1-.677-.017.511.511 0 0 1-.342-.421c-.064-.44-.082-.954-.124-1.395a4.3 4.3 0 0 1-.03-.629c.021-.183.1-.267.231-.258.3.02.4.419.453.74a5.793 5.793 0 0 1-.129 2.164" data-name="Path 33243"/>
        <path fill="#263238" d="M369.483 222.742a1.345 1.345 0 0 0-.018-.605 4.016 4.016 0 0 0-.612-1.539 2.168 2.168 0 0 0-.364-.444.691.691 0 0 0-.685-.154.487.487 0 0 0-.3.3.652.652 0 0 0 .014.411 4.15 4.15 0 0 0 .319.617c.238.4.433.8.737 1.248a.874.874 0 0 0 .813.366 1.746 1.746 0 0 0 .785-.348 6.758 6.758 0 0 0 1.608-1.655 1.948 1.948 0 0 0 .342-.679.644.644 0 0 0-.347-.741.772.772 0 0 0-.731.165 4.512 4.512 0 0 0-.77.873 5.838 5.838 0 0 0-.755 1.466 1.505 1.505 0 0 0-.132.589 11.607 11.607 0 0 1 1.092-1.9 4.606 4.606 0 0 1 .741-.782.487.487 0 0 1 .434-.115.326.326 0 0 1 .141.381 1.71 1.71 0 0 1-.3.549 6.9 6.9 0 0 1-.439.557 6.736 6.736 0 0 1-1.1 1 1.432 1.432 0 0 1-.615.284.511.511 0 0 1-.493-.227c-.252-.367-.494-.82-.727-1.2a4.323 4.323 0 0 1-.305-.552c-.061-.173-.027-.285.093-.333.276-.114.546.2.734.464a5.794 5.794 0 0 1 .839 2" data-name="Path 33244"/>
        <path fill="#e0e0e0" d="M331.787 248.16a1.24 1.24 0 0 0-1.385.905 1.193 1.193 0 0 0 .885 1.382 1.309 1.309 0 0 0 1.462-.967 1.237 1.237 0 0 0-1.08-1.334" data-name="Path 33245"/>
        <path fill="none" data-name="Rectangle 13809" d="M322.856 252.832h27.556v15.314h-27.556z"/>
        <path fill="#263238" d="M340.198 253.481c-.068.132-.766-.128-1.63-.013-.867.091-1.484.508-1.582.4-.111-.086.472-.789 1.521-.909s1.78.418 1.692.526" data-name="Path 33246"/>
        <path fill="#263238" d="M342.501 256.048c-.031.144-.719.094-1.445.442-.736.327-1.143.884-1.274.813-.136-.039.147-.866 1.057-1.282s1.72-.1 1.662.027" data-name="Path 33247"/>
        <path fill="#263238" d="M342.483 260.266c-.135-.03 0-.787.694-1.355s1.459-.56 1.463-.421c.023.146-.571.345-1.134.82s-.883 1.007-1.022.956" data-name="Path 33248"/>
        <path fill="#263238" d="M341.503 250.137c-.114.1-.64-.384-1.42-.695-.774-.327-1.484-.356-1.5-.5-.031-.133.78-.354 1.694.026s1.341 1.1 1.224 1.172" data-name="Path 33249"/>
        <path fill="none" data-name="Rectangle 13810" d="M354.945 234.8h30.382v2.462h-30.382z"/>
        <path fill="#263238" d="M369.83 228.23c0 .148-.744.223-1.469.707-.737.465-1.108 1.111-1.244 1.054-.137-.027.075-.916.963-1.487s1.781-.411 1.751-.274" data-name="Path 33250"/>
        <path fill="#263238" d="M373.028 229.515c.035.143-.6.4-1.1 1.034-.516.618-.636 1.3-.784 1.293-.139.024-.25-.843.383-1.618s1.5-.85 1.5-.709" data-name="Path 33251"/>
        <path fill="#263238" d="M374.878 233.309c-.134.033-.349-.705.024-1.521s1.063-1.147 1.127-1.023c.086.121-.361.561-.656 1.236-.312.667-.347 1.293-.495 1.309" data-name="Path 33252"/>
        <path fill="#263238" d="M369.526 224.653c-.061.136-.743-.062-1.581 0-.84.048-1.489.336-1.567.209-.087-.106.545-.661 1.532-.725s1.687.394 1.616.511" data-name="Path 33253"/>
        <path fill="#f5f5f5" d="m410.466 369.718-7.525-46.045-49.633 8.112 7.525 46.045z" data-name="Path 33254" opacity=".15"/>
        <path fill="#e0e0e0" d="M374.616 338.957a3.473 3.473 0 1 1-3.012 4.008 3.547 3.547 0 0 1 3.012-4.008" data-name="Path 33255"/>
        <path fill="#e0e0e0" d="m357.747 334.773 41.927-6.886c-.054-.043.522.359.279.194v.03l.007.041.013.082.027.165.054.328.107.656.214 1.307.425 2.6.837 5.126 1.615 9.923 2.945 18.157.033.2-.206.033-30.47 4.877-8.514 1.338-2.232.342-.568.081a1.1 1.1 0 0 1-.185.019 1.549 1.549 0 0 1 .2-.045l.586-.107 2.265-.394 8.544-1.449 9.363-1.563-20.975 3.428a1 1 0 0 1 .012.13.786.786 0 0 1-.039-.165c-.024-.132-.056-.3-.1-.514q-.125-.72-.356-2.031l-1.323-7.767-4.656-27.906-.033-.194zm13.731 20.234 8.138 6.927 8.755-16.98 17.341 21.129c-.9-5.474-1.879-11.4-2.91-17.666l-1.628-9.921-.839-5.126-.425-2.6-.214-1.307-.107-.656-.054-.328-.016-.1-41.5 6.75 4.409 27.624 1.226 7.828q.2 1.339.315 2.076c.032.224.056.4.077.539 0 .02 0 .029.005.045z" data-name="Path 33256"/>
        <path fill="url(#n)" d="M134.622 0H0v76.5h134.622z" data-name="Path 33257" opacity=".19" transform="translate(215.895 322.939)"/>
        <path fill="#263238" d="M215.897 399.437s.009-.47.013-1.373l.014-4 .033-15.3.068-55.833-.128.128 134.611.038h.01l-.167-.166c0 27.062.008 52.933.011 76.5l.155-.155-96.843.075-27.8.042-7.407.019-1.913.01c-.43 0-.654.009-.654.009s.211.006.636.01l1.895.009 7.376.019 27.769.042 96.946.075h.155v-.155c0-23.565.008-49.436.011-76.5v-.162h-.176l-134.611.038h-.128v.128l.068 55.912.033 15.267.014 3.973c.003.9.013 1.346.013 1.346" data-name="Path 33258"/>
        <path fill="#ebebeb" d="M295.899 335.419c0 .092 9.148.167 20.429.167s20.431-.075 20.431-.167-9.146-.166-20.431-.166-20.429.074-20.429.166" data-name="Path 33259"/>
        <path fill="#ebebeb" d="M274.512 342.747c0 .092 9.148.166 20.429.166s20.431-.074 20.431-.166-9.146-.166-20.431-.166-20.429.074-20.429.166" data-name="Path 33260"/>
        <path fill="#ebebeb" d="M230.012 335.419c0 .092 9.148.167 20.429.167s20.431-.075 20.431-.167-9.146-.166-20.431-.166-20.429.074-20.429.166" data-name="Path 33261"/>
        <path fill="#ebebeb" d="M278.538 335.413a45.928 45.928 0 0 0 5.516.166 45.919 45.919 0 0 0 5.516-.166 45.9 45.9 0 0 0-5.516-.166 45.9 45.9 0 0 0-5.516.166" data-name="Path 33262"/>
        <path fill="#ebebeb" d="M324.526 342.747a45.911 45.911 0 0 0 5.516.166 45.889 45.889 0 0 0 5.515-.166 45.881 45.881 0 0 0-5.515-.166 45.9 45.9 0 0 0-5.516.166" data-name="Path 33263"/>
        <path fill="#ebebeb" d="M258.61 342.441a42.509 42.509 0 0 0 5.308.166 42.508 42.508 0 0 0 5.308-.166 42.526 42.526 0 0 0-5.308-.166 42.527 42.527 0 0 0-5.308.166" data-name="Path 33264"/>
        <path fill="#ebebeb" d="M295.899 352.208c0 .092 9.148.166 20.429.166s20.431-.074 20.431-.166-9.146-.166-20.431-.166-20.429.074-20.429.166" data-name="Path 33265"/>
        <path fill="#ebebeb" d="M274.512 359.537c0 .093 9.148.167 20.429.167s20.431-.074 20.431-.167-9.146-.165-20.431-.165-20.429.074-20.429.165" data-name="Path 33266"/>
        <path fill="#ebebeb" d="M230.012 352.208c0 .092 9.148.166 20.429.166s20.431-.074 20.431-.166-9.146-.166-20.431-.166-20.429.074-20.429.166" data-name="Path 33267"/>
        <path fill="#ebebeb" d="M278.538 352.202a45.9 45.9 0 0 0 5.516.166 45.891 45.891 0 0 0 5.516-.166 45.907 45.907 0 0 0-5.516-.166 45.916 45.916 0 0 0-5.516.166" data-name="Path 33268"/>
        <path fill="#ebebeb" d="M324.526 359.537a45.68 45.68 0 0 0 5.516.167 45.658 45.658 0 0 0 5.515-.167 46.161 46.161 0 0 0-5.515-.165 46.184 46.184 0 0 0-5.516.165" data-name="Path 33269"/>
        <path fill="#ebebeb" d="M258.61 359.23a42.517 42.517 0 0 0 5.308.166 42.516 42.516 0 0 0 5.308-.166 42.529 42.529 0 0 0-5.308-.166 42.531 42.531 0 0 0-5.308.166" data-name="Path 33270"/>
        <path fill="#ebebeb" d="M295.517 381.316c0 .092 9.148.166 20.429.166s20.431-.074 20.431-.166-9.146-.166-20.431-.166-20.429.074-20.429.166" data-name="Path 33271"/>
        <path fill="#ebebeb" d="M274.132 388.649c0 .092 9.148.166 20.429.166s20.431-.074 20.431-.166-9.146-.166-20.431-.166-20.429.074-20.429.166" data-name="Path 33272"/>
        <path fill="#ebebeb" d="M229.632 381.316c0 .092 9.148.166 20.429.166s20.431-.074 20.431-.166-9.146-.166-20.431-.166-20.429.074-20.429.166" data-name="Path 33273"/>
        <path fill="#ebebeb" d="M278.158 381.31a45.918 45.918 0 0 0 5.516.166 45.907 45.907 0 0 0 5.516-.166 45.91 45.91 0 0 0-5.516-.166 45.92 45.92 0 0 0-5.516.166" data-name="Path 33274"/>
        <path fill="#ebebeb" d="M324.147 388.649a45.913 45.913 0 0 0 5.516.166 45.9 45.9 0 0 0 5.516-.166 45.9 45.9 0 0 0-5.516-.166 45.913 45.913 0 0 0-5.516.166" data-name="Path 33275"/>
        <path fill="#ebebeb" d="M258.231 388.338a42.509 42.509 0 0 0 5.308.166 42.507 42.507 0 0 0 5.308-.166 42.529 42.529 0 0 0-5.308-.166 42.53 42.53 0 0 0-5.308.166" data-name="Path 33276"/>
        <path fill="#ebebeb" d="M295.899 367.994c0 .092 9.148.166 20.429.166s20.431-.074 20.431-.166-9.146-.166-20.431-.166-20.429.074-20.429.166" data-name="Path 33277"/>
        <path fill="#ebebeb" d="M274.512 375.325c0 .092 9.148.167 20.429.167s20.431-.075 20.431-.167-9.146-.165-20.431-.165-20.429.074-20.429.165" data-name="Path 33278"/>
        <path fill="#ebebeb" d="M230.012 367.994c0 .092 9.148.166 20.429.166s20.431-.074 20.431-.166-9.146-.166-20.431-.166-20.429.074-20.429.166" data-name="Path 33279"/>
        <path fill="#ebebeb" d="M278.538 367.987a45.674 45.674 0 0 0 5.516.167 45.665 45.665 0 0 0 5.516-.167 46.137 46.137 0 0 0-5.516-.165 46.146 46.146 0 0 0-5.516.165" data-name="Path 33280"/>
        <path fill="#ebebeb" d="M324.526 375.325a45.828 45.828 0 0 0 5.516.167 45.805 45.805 0 0 0 5.515-.167 46.177 46.177 0 0 0-5.515-.165 46.2 46.2 0 0 0-5.516.165" data-name="Path 33281"/>
        <path fill="#ebebeb" d="M258.61 375.016a42.509 42.509 0 0 0 5.308.166 42.507 42.507 0 0 0 5.308-.166 42.53 42.53 0 0 0-5.308-.166 42.531 42.531 0 0 0-5.308.166" data-name="Path 33282"/>
        <path fill="#263238" d="M250.941 387.35a1.336 1.336 0 0 1-.251-.551 4 4 0 0 1-.131-1.651 2.149 2.149 0 0 1 .131-.56.692.692 0 0 1 .546-.441.491.491 0 0 1 .406.139.663.663 0 0 1 .169.375 4.157 4.157 0 0 1-.013.7c-.036.464-.036.907-.11 1.445a.875.875 0 0 1-.568.687 1.745 1.745 0 0 1-.859.034 6.815 6.815 0 0 1-1.5-.444 7.087 7.087 0 0 1-.669-.331 1.955 1.955 0 0 1-.607-.459.645.645 0 0 1-.016-.818.772.772 0 0 1 .729-.175 4.49 4.49 0 0 1 1.076.444 5.854 5.854 0 0 1 1.325.981c.273.277.395.456.378.471a11.614 11.614 0 0 0-1.82-1.224 4.624 4.624 0 0 0-1.01-.375.487.487 0 0 0-.44.089.326.326 0 0 0 .041.4 1.7 1.7 0 0 0 .511.361 6.87 6.87 0 0 0 .638.306 6.7 6.7 0 0 0 1.427.414 1.41 1.41 0 0 0 .677-.017.511.511 0 0 0 .342-.421c.064-.44.082-.954.124-1.395a4.3 4.3 0 0 0 .03-.629c-.021-.183-.1-.267-.231-.258-.3.02-.4.419-.453.74a5.793 5.793 0 0 0 .129 2.164" data-name="Path 33283"/>
        <path fill="#263238" d="M223.765 361.689a1.345 1.345 0 0 1 .018-.605 4.017 4.017 0 0 1 .612-1.539 2.165 2.165 0 0 1 .364-.444.691.691 0 0 1 .685-.154.488.488 0 0 1 .3.3.652.652 0 0 1-.014.411 4.141 4.141 0 0 1-.319.617c-.238.4-.433.8-.737 1.248a.874.874 0 0 1-.813.366 1.745 1.745 0 0 1-.785-.348 6.755 6.755 0 0 1-1.608-1.655 1.947 1.947 0 0 1-.342-.679.644.644 0 0 1 .347-.741.772.772 0 0 1 .731.165 4.509 4.509 0 0 1 .77.873 5.839 5.839 0 0 1 .755 1.466 1.506 1.506 0 0 1 .132.589 11.615 11.615 0 0 0-1.092-1.9 4.607 4.607 0 0 0-.741-.782.486.486 0 0 0-.434-.115.326.326 0 0 0-.141.381 1.711 1.711 0 0 0 .3.549 6.911 6.911 0 0 0 .438.557 6.739 6.739 0 0 0 1.1 1 1.432 1.432 0 0 0 .615.284.511.511 0 0 0 .493-.227c.252-.367.494-.82.727-1.2a4.316 4.316 0 0 0 .305-.552c.061-.173.027-.285-.093-.333-.276-.114-.546.2-.734.464a5.8 5.8 0 0 0-.839 2" data-name="Path 33284"/>
        <path fill="#e0e0e0" d="M261.462 387.108a1.24 1.24 0 0 1 1.385.905 1.193 1.193 0 0 1-.885 1.382 1.309 1.309 0 0 1-1.462-.967 1.237 1.237 0 0 1 1.08-1.334" data-name="Path 33285"/>
        <path fill="none" data-name="Rectangle 13811" d="M242.835 391.78h27.556v15.314h-27.556z"/>
        <path fill="#263238" d="M253.049 392.429c.068.132.766-.128 1.63-.013.867.091 1.484.508 1.582.4.11-.086-.472-.789-1.521-.909s-1.78.417-1.692.526" data-name="Path 33286"/>
        <path fill="#263238" d="M250.747 394.995c.031.144.719.094 1.445.442.735.327 1.143.883 1.274.813.136-.039-.147-.866-1.057-1.282s-1.72-.1-1.662.027" data-name="Path 33287"/>
        <path fill="#263238" d="M250.763 399.214c.135-.03 0-.787-.694-1.355s-1.459-.56-1.463-.421c-.023.146.571.345 1.134.82s.883 1.007 1.022.956" data-name="Path 33288"/>
        <path fill="#263238" d="M251.746 389.085c.114.1.64-.384 1.42-.695.774-.327 1.484-.356 1.5-.5.031-.133-.78-.354-1.694.026s-1.341 1.1-1.224 1.172" data-name="Path 33289"/>
        <path fill="none" data-name="Rectangle 13812" d="M207.922 373.748h30.382v2.462h-30.382z"/>
        <path fill="#263238" d="M223.419 367.178c0 .148.744.223 1.469.707.737.465 1.108 1.111 1.244 1.054.137-.027-.075-.916-.963-1.487s-1.781-.411-1.751-.274" data-name="Path 33290"/>
        <path fill="#263238" d="M220.221 368.463c-.035.143.6.4 1.1 1.034.516.618.636 1.3.784 1.293.139.024.25-.843-.383-1.618s-1.5-.85-1.5-.709" data-name="Path 33291"/>
        <path fill="#263238" d="M218.37 372.256c.134.033.349-.705-.024-1.521s-1.063-1.147-1.127-1.023c-.086.121.361.561.656 1.236.312.667.347 1.293.495 1.309" data-name="Path 33292"/>
        <path fill="#263238" d="M223.721 363.6c.061.136.743-.062 1.581 0 .839.048 1.489.336 1.567.209.087-.106-.545-.661-1.532-.725s-1.687.394-1.616.511" data-name="Path 33293"/>
    </g>
</svg>
