<svg xmlns="http://www.w3.org/2000/svg" xmlns:xlink="http://www.w3.org/1999/xlink" width="826.175" height="856.477" viewBox="0 0 826.175 856.477"><defs><linearGradient id="a" x1=".5" x2=".5" y2="1" gradientUnits="objectBoundingBox"><stop offset="0" stop-color="#383838"/><stop offset="1" stop-color="#020202"/></linearGradient><linearGradient id="n" x1=".5" x2=".5" y2="1" gradientUnits="objectBoundingBox"><stop offset="0" stop-color="#62cbac"/><stop offset="1" stop-color="#316656"/></linearGradient><clipPath id="o"><rect width="87.992" height="41.43" fill="url(#a)"/></clipPath><clipPath id="q"><rect width="13.857" height="13.859" fill="url(#a)"/></clipPath><linearGradient id="t" x1=".5" x2=".5" y2="1" gradientUnits="objectBoundingBox"><stop offset="0" stop-color="#fefefe"/><stop offset="1" stop-color="#e4e4e4"/></linearGradient><clipPath id="w"><rect width="65.599" height="30.886" fill="url(#a)"/></clipPath><clipPath id="y"><rect width="10.33" height="10.33" fill="none"/></clipPath><clipPath id="aa"><rect width="151.649" height="71.4" fill="url(#a)"/></clipPath><clipPath id="ac"><rect width="23.882" height="23.882" fill="url(#a)"/></clipPath><clipPath id="ae"><rect width="65.599" height="30.886" fill="none"/></clipPath><linearGradient id="ar" x1=".5" x2=".5" y2="1" gradientUnits="objectBoundingBox"><stop offset="0" stop-color="#1db27b"/><stop offset="1" stop-color="#0f593e"/></linearGradient><filter id="as" width="417.091" height="721.056" x="235.895" y="19.974" filterUnits="userSpaceOnUse"><feOffset dx="4" dy="13" input="SourceAlpha"/><feGaussianBlur result="at" stdDeviation="24"/><feFlood flood-color="#0bb476" flood-opacity="0"/><feComposite in2="at" operator="in"/><feComposite in="SourceGraphic"/></filter><clipPath id="bb"><rect width="59.334" height="27.935" fill="url(#a)"/></clipPath><clipPath id="bd"><rect width="9.345" height="9.343" fill="none"/></clipPath><clipPath id="bl"><rect width="9.345" height="9.343" fill="url(#a)"/></clipPath><clipPath id="bo"><rect width="59.334" height="27.937" fill="url(#a)"/></clipPath><clipPath id="bq"><rect width="9.345" height="9.345" fill="url(#a)"/></clipPath><linearGradient id="bz" x1=".5" x2=".5" y2="1" gradientUnits="objectBoundingBox"><stop offset="0" stop-color="#202020"/><stop offset="1" stop-color="#2e2e2e"/></linearGradient><clipPath id="cb"><rect width="33.197" height="7.304" fill="none"/></clipPath><clipPath id="cd"><rect width="34.805" height="8.229" fill="none"/></clipPath><linearGradient id="cf" x1=".5" x2=".5" y2="1" gradientUnits="objectBoundingBox"><stop offset="0" stop-color="#0a0a0a"/><stop offset="1" stop-color="#020202"/></linearGradient><clipPath id="cj"><rect width="60.879" height="31.535" fill="none"/></clipPath></defs><g transform="translate(-7180 1581.477)"><rect width="826.175" height="856.477" fill="none" transform="translate(7180 -1581.477)"/><path fill="#fafafa" d="M177.417,96.192l-12.556.019a9.586,9.586,0,0,0-3.779.408,5.914,5.914,0,0,0-2.99,2.65,6.379,6.379,0,0,0-.7,2.008,13.006,13.006,0,0,0-.093,2.216c0,.758,0,1.528,0,2.307a10.8,10.8,0,0,1-.152,2.385,6.326,6.326,0,0,1-2.8,4.032,5.937,5.937,0,0,1-2.463.869c-.9.08-1.763.023-2.661.041l-11.254.006-25.522.006q-3.435,0-6.987,0h-1.785a6.908,6.908,0,0,1-1.82-.177,6.052,6.052,0,0,1-3.13-1.928,6.42,6.42,0,0,1-1.526-3.4,13.939,13.939,0,0,1-.066-1.882v-1.878a10.076,10.076,0,0,0-.377-3.694,6.05,6.05,0,0,0-2.243-2.928,5.854,5.854,0,0,0-3.614-1H61.934a19.966,19.966,0,0,0-8.447,1.6,19.719,19.719,0,0,0-7.026,5.245,19.277,19.277,0,0,0-3.979,8c-.2.735-.253,1.5-.387,2.249-.033.64-.068,1.277-.087,1.921v308.71a20.05,20.05,0,0,0,.774,6.075,19.2,19.2,0,0,0,7.459,10.266,19.961,19.961,0,0,0,12.3,3.371q6.555.006,13.067.008l25.876.017,50.59.033,24.651.017c4.063-.023,8.137.064,12.132-.051a19.1,19.1,0,0,0,10.88-4.2,20.46,20.46,0,0,0,3.927-4.339,18.993,18.993,0,0,0,2.409-5.29,20.087,20.087,0,0,0,.723-5.744q0-2.933,0-5.847,0-11.664.008-23.055c.035-60.737.066-115.439.091-161.378.045-45.936.084-83.112.109-108.812q.006-4.817.014-9.09a19.775,19.775,0,0,0-1.411-7.77,19.132,19.132,0,0,0-3.637-5.725,19.338,19.338,0,0,0-11.584-6.1,16.006,16.006,0,0,0-1.956-.179c-.439-.025-.661-.047-.661-.047s-.89.017-2.632.025l-7.72.023" opacity=".14" transform="translate(7219.654 -1490.721)"/><path fill="#263238" d="M187.892,96.411s.222,0,.661.019a14.548,14.548,0,0,1,1.954.152,18.141,18.141,0,0,1,7.235,2.5,18.463,18.463,0,0,1,4.4,3.565,19.323,19.323,0,0,1,3.674,5.758,19.97,19.97,0,0,1,1.442,7.83q.006,4.269.012,9.09c.016,25.7.037,62.876.066,108.812.008,45.94.016,100.641.025,161.379q0,11.387,0,23.054v5.849a20.6,20.6,0,0,1-.741,5.882,19.4,19.4,0,0,1-2.463,5.435,20.855,20.855,0,0,1-4.016,4.459,19.516,19.516,0,0,1-11.137,4.321c-4.045.119-8.06.031-12.121.056l-24.562-.012q-24.786-.015-50.407-.025-12.8-.009-25.779-.014-6.491-.006-13.023-.008a20.383,20.383,0,0,1-12.56-3.468,19.766,19.766,0,0,1-7.646-10.56,21.306,21.306,0,0,1-.8-6.526q0-3.254,0-6.5,0-12.985.006-25.789.006-25.608.014-50.421c.012-33.055.023-64.94.035-95.315s.029-59.237.041-86.248q.015-20.26.025-39.087,0-2.35,0-4.677c.012-.778.068-1.563.109-2.341.136-.766.2-1.547.395-2.3a19.721,19.721,0,0,1,4.057-8.172,19.569,19.569,0,0,1,15.725-6.967l16.811.019,8.089.01,3.962,0a6.17,6.17,0,0,1,3.8,1.061,6.358,6.358,0,0,1,2.358,3.1,10.33,10.33,0,0,1,.393,3.808q0,.942,0,1.878a13.99,13.99,0,0,0,.06,1.839,6.086,6.086,0,0,0,1.439,3.227,5.686,5.686,0,0,0,2.947,1.829,6.567,6.567,0,0,0,1.738.173q.892,0,1.777,0,3.54,0,6.961.01l25.431.037,11.211.018c.885-.016,1.787.041,2.626-.033a5.654,5.654,0,0,0,2.362-.83,6.108,6.108,0,0,0,2.7-3.884,10.742,10.742,0,0,0,.152-2.342q0-1.169,0-2.308a13.157,13.157,0,0,1,.1-2.249,6.5,6.5,0,0,1,.727-2.064,6.073,6.073,0,0,1,3.079-2.722,9.635,9.635,0,0,1,3.83-.41l12.509.035,7.694.031c1.732.01,2.62.029,2.62.029s-.888.017-2.62.027l-7.694.021-12.509.019a9.55,9.55,0,0,0-3.765.408,5.912,5.912,0,0,0-2.98,2.652,6.344,6.344,0,0,0-.7,2.006,12.813,12.813,0,0,0-.091,2.216q0,1.137,0,2.308a10.945,10.945,0,0,1-.15,2.387,6.334,6.334,0,0,1-2.792,4.03,5.9,5.9,0,0,1-2.455.869c-.892.08-1.755.023-2.652.041l-11.211.006-25.431.006q-3.42,0-6.961,0H104.1a6.887,6.887,0,0,1-1.816-.177,6,6,0,0,1-3.114-1.928,6.415,6.415,0,0,1-1.522-3.4,13.944,13.944,0,0,1-.066-1.882v-1.878a10.076,10.076,0,0,0-.377-3.694,6.035,6.035,0,0,0-2.236-2.928,5.821,5.821,0,0,0-3.6-1H62.514A19.181,19.181,0,0,0,47.1,103.371a19.315,19.315,0,0,0-3.964,8.005c-.2.735-.251,1.5-.385,2.249-.039.764-.093,1.524-.1,2.3q0,2.327,0,4.677,0,18.808.008,39.087c0,27.011.006,55.876.008,86.248s0,62.26,0,95.315q0,24.791-.006,50.421,0,12.8,0,25.789,0,3.245,0,6.5a20.723,20.723,0,0,0,.783,6.37A19.211,19.211,0,0,0,50.865,440.6a19.821,19.821,0,0,0,12.251,3.371q6.529.006,13.021.008l25.781.017q25.6.015,50.405.033l24.562.018c4.047-.023,8.108.064,12.088-.051a18.992,18.992,0,0,0,10.842-4.2,20.439,20.439,0,0,0,3.911-4.339,18.971,18.971,0,0,0,2.4-5.29,20.157,20.157,0,0,0,.721-5.744q0-2.933,0-5.849.006-11.661.01-23.054c.033-60.737.064-115.439.089-161.379.047-45.936.084-83.112.109-108.812q.006-4.817.014-9.09a19.793,19.793,0,0,0-1.407-7.768,19.127,19.127,0,0,0-3.622-5.727,19.25,19.25,0,0,0-11.543-6.1,15.438,15.438,0,0,0-1.948-.177c-.437-.027-.659-.049-.659-.049" transform="translate(7219.745 -1490.721)"/><path fill="#263238" d="M125.931,112.4c0,.084-3.186.177-7.117.21s-7.121-.01-7.121-.091,3.184-.177,7.117-.21,7.121.008,7.121.091" transform="translate(7285.435 -1475.473)"/><path fill="#263238" d="M125.948,114.273c0,.084-3.186.177-7.119.21s-7.119-.01-7.121-.091,3.186-.177,7.119-.21,7.121.008,7.121.091" transform="translate(7285.449 -1473.704)"/><path fill="#263238" d="M125.963,116.147c0,.084-3.186.177-7.119.21s-7.119-.01-7.121-.091,3.186-.177,7.119-.21,7.121.01,7.121.091" transform="translate(7285.463 -1471.935)"/><path fill="#263238" d="M52.473,124.023a2.294,2.294,0,0,1,.3-.019c.233-.008.5-.016.824-.027.776-.019,1.792-.043,3.04-.072l-.086.086c-.01-.675-.021-1.411-.035-2.2,0-.41-.035-.8,0-1.269a1.17,1.17,0,0,1,1.021-.937c.49-.01.921-.033,1.452-.008a1.178,1.178,0,0,1,1,1.174q.018,1.543.037,3.215l-.14-.138c1.231-.014,2.514-.025,3.833-.039l-.144.148c-.016-1.545-.029-3.143-.043-4.778l-.012-1.219a1.243,1.243,0,0,0-.538-.906q-.851-.837-1.678-1.652t-1.617-1.6c-.264-.26-.525-.517-.783-.774s-.48-.529-.793-.593a1.036,1.036,0,0,0-.879.169c-.233.2-.48.474-.715.7l-1.376,1.388c-.865.9-1.767,1.72-2.422,2.5a2.71,2.71,0,0,0-.192,1.431c0,.474,0,.925,0,1.351,0,.828-.008,1.555-.012,2.177-.008.556-.012,1.015-.017,1.392a4.441,4.441,0,0,1-.017.5,3.532,3.532,0,0,1-.027-.461c-.01-.371-.021-.822-.037-1.37-.016-.628-.031-1.359-.051-2.195-.008-.434-.016-.894-.025-1.378,0-.245-.008-.5-.012-.754a1.6,1.6,0,0,1,.212-.8c.71-.869,1.555-1.639,2.428-2.564.441-.451.9-.918,1.365-1.4.247-.241.449-.482.741-.735a1.306,1.306,0,0,1,1.112-.218,2.063,2.063,0,0,1,.921.657q.388.382.787.772.8.781,1.621,1.59t1.682,1.65a3.226,3.226,0,0,1,.428.463,1.276,1.276,0,0,1,.2.647c0,.406.006.813.01,1.223.012,1.637.025,3.235.037,4.78v.146l-.146,0c-1.322.008-2.6.018-3.835.023l-.142,0v-.14q-.009-1.671-.017-3.215a.924.924,0,0,0-.774-.931c-.441-.023-.962-.008-1.392,0a.939.939,0,0,0-.826.745c-.037.387-.01.836-.017,1.227,0,.793,0,1.53,0,2.2v.086h-.086c-1.267-.008-2.3-.016-3.091-.021l-.8-.014a1.576,1.576,0,0,1-.264-.016" transform="translate(7229.389 -1475.653)"/><path fill="#263238" d="M135.215,184.362c0,.552-15.252,1-34.062,1s-34.066-.447-34.066-1,15.25-1,34.066-1,34.062.447,34.062,1" transform="translate(7243.328 -1408.388)"/><path fill="url(#n)" d="M0,0H66.139V87.993H0Z" opacity=".27" transform="translate(7300.405 -1247.121) rotate(-89.681)"/><path fill="#e8505b" d="M61.938,191.877,92.9,150.937l18.893,25.828,12.99-13.678,25.145,29.28Z" transform="translate(7238.467 -1438.998)"/><path fill="#e8505b" d="M98.559,151.806a6.928,6.928,0,1,1-6.889-6.965,6.928,6.928,0,0,1,6.889,6.965" transform="translate(7259.956 -1444.752)"/><g><g clip-path="url(#o)" transform="translate(7300.405 -1288.061)"><path fill="url(#a)" d="M61.938,191.877,92.9,150.937l18.893,25.828,12.99-13.678,25.145,29.28Z" transform="translate(-61.938 -150.937)"/></g></g><g><g clip-path="url(#q)" transform="translate(7344.658 -1299.913)"><path fill="url(#a)" d="M98.559,151.806a6.928,6.928,0,1,1-6.889-6.965,6.928,6.928,0,0,1,6.889,6.965" transform="translate(-84.702 -144.839)"/></g></g><path fill="#263238" d="M174.435,196.884c0,.552-27.044,1-60.4,1s-60.4-.447-60.4-1,27.039-1,60.4-1,60.4.447,60.4,1" transform="translate(7230.626 -1396.568)"/><path fill="#263238" d="M174.435,205.547c0,.552-27.044,1-60.4,1s-60.4-.447-60.4-1,27.039-1,60.4-1,60.4.447,60.4,1" transform="translate(7230.626 -1388.391)"/><path fill="#263238" d="M174.435,214.209c0,.552-27.044,1-60.4,1s-60.4-.447-60.4-1,27.039-1,60.4-1,60.4.447,60.4,1" transform="translate(7230.626 -1380.214)"/><path fill="#263238" d="M174.435,222.872c0,.552-27.044,1-60.4,1s-60.4-.447-60.4-1,27.039-1,60.4-1,60.4.447,60.4,1" transform="translate(7230.626 -1372.036)"/><path fill="#263238" d="M174.435,231.534c0,.552-27.044,1-60.4,1s-60.4-.447-60.4-1,27.039-1,60.4-1,60.4.447,60.4,1" transform="translate(7230.626 -1363.86)"/><path fill="#263238" d="M136.085,239.443c0,.276-3.884.527-10.159.708s-14.943.292-24.517.292-18.244-.111-24.521-.292-10.155-.432-10.155-.708,3.882-.527,10.155-.708,14.947-.292,24.521-.292,18.242.111,24.517.292,10.159.432,10.159.708" transform="translate(7242.993 -1356.394)"/><path fill="#fafafa" d="M246.849,81.649l-13.952.021a10.628,10.628,0,0,0-4.2.455,6.6,6.6,0,0,0-3.322,2.957,7.091,7.091,0,0,0-.781,2.238,14.4,14.4,0,0,0-.1,2.473q0,1.268,0,2.574a12.127,12.127,0,0,1-.165,2.661,7.064,7.064,0,0,1-3.114,4.5,6.611,6.611,0,0,1-2.737.968c-1,.087-1.958.025-2.959.045l-12.5.006q-13.075,0-28.362.01H164.9a7.636,7.636,0,0,1-2.024-.2,6.7,6.7,0,0,1-3.476-2.15,7.177,7.177,0,0,1-1.7-3.791,15.853,15.853,0,0,1-.072-2.1q0-1.044,0-2.094a11.188,11.188,0,0,0-.42-4.119,6.727,6.727,0,0,0-2.492-3.266,6.483,6.483,0,0,0-4.014-1.11H118.52a22.156,22.156,0,0,0-9.385,1.783,21.934,21.934,0,0,0-7.809,5.847A21.561,21.561,0,0,0,96.9,98.284c-.218.82-.28,1.674-.428,2.51-.037.713-.076,1.425-.1,2.142v344.3a22.423,22.423,0,0,0,.857,6.779,21.43,21.43,0,0,0,8.291,11.448,22.107,22.107,0,0,0,13.662,3.76l14.521.01,28.753.017,56.218.037q13.822.012,27.392.019c4.514-.025,9.043.072,13.483-.056a21.189,21.189,0,0,0,12.09-4.687,22.791,22.791,0,0,0,4.364-4.839,21.264,21.264,0,0,0,2.675-5.9,22.393,22.393,0,0,0,.8-6.407q0-3.269,0-6.522,0-13.008.01-25.713c.037-67.74.072-128.747.1-179.984.051-51.231.091-92.694.121-121.354q.006-5.374.016-10.14a22.157,22.157,0,0,0-1.569-8.664,21.418,21.418,0,0,0-4.042-6.386,21.46,21.46,0,0,0-12.873-6.8,17.347,17.347,0,0,0-2.173-.2c-.488-.029-.735-.052-.735-.052s-.99.019-2.924.029l-8.579.025" opacity=".17" transform="translate(7270.979 -1504.454)"/><path fill="#263238" d="M258.731,81.667s.247,0,.737.021a15.945,15.945,0,0,1,2.181.169,20.255,20.255,0,0,1,8.068,2.788,20.59,20.59,0,0,1,4.909,3.975,21.5,21.5,0,0,1,4.1,6.421,22.244,22.244,0,0,1,1.61,8.732q.006,4.765.012,10.14c.018,28.66.043,70.123.074,121.354.008,51.237.019,112.245.029,179.984q0,12.7,0,25.713v6.522a23.055,23.055,0,0,1-.824,6.563,21.756,21.756,0,0,1-2.749,6.061,23.272,23.272,0,0,1-4.479,4.973,21.783,21.783,0,0,1-12.422,4.821c-4.51.132-8.989.033-13.518.06l-27.392-.012-56.218-.029q-14.277-.006-28.753-.016l-14.521-.008a22.728,22.728,0,0,1-14.008-3.869,22.036,22.036,0,0,1-8.528-11.777,23.7,23.7,0,0,1-.9-7.276q0-3.633,0-7.253.006-14.478.008-28.761.009-28.559.016-56.233c.014-36.865.025-72.426.039-106.3s.031-66.066.047-96.193q.012-22.593.025-43.592,0-2.624,0-5.218c.012-.867.074-1.744.121-2.609.152-.857.218-1.728.441-2.564a22,22,0,0,1,4.524-9.115A21.823,21.823,0,0,1,118.9,81.37q9.608.012,18.75.021l9.02.012,4.419.006a6.877,6.877,0,0,1,4.234,1.182,7.11,7.11,0,0,1,2.632,3.456,11.5,11.5,0,0,1,.435,4.248q0,1.053,0,2.094a15.508,15.508,0,0,0,.068,2.051,6.8,6.8,0,0,0,1.606,3.6,6.341,6.341,0,0,0,3.285,2.041,7.409,7.409,0,0,0,1.94.191l1.981,0,7.764.012q15.262.02,28.361.041l12.506.021c.986-.017,1.991.045,2.928-.037a6.327,6.327,0,0,0,2.634-.927,6.8,6.8,0,0,0,3.013-4.333,11.859,11.859,0,0,0,.169-2.611q0-1.306.006-2.574a14.384,14.384,0,0,1,.113-2.508,7.208,7.208,0,0,1,.811-2.3,6.789,6.789,0,0,1,3.435-3.036,10.778,10.778,0,0,1,4.271-.455l13.952.037,8.581.035c1.932.012,2.922.033,2.922.033s-.989.019-2.922.029l-8.581.025-13.952.021a10.581,10.581,0,0,0-4.2.457,6.581,6.581,0,0,0-3.324,2.955,7.09,7.09,0,0,0-.781,2.238,14.589,14.589,0,0,0-.1,2.473q0,1.268,0,2.574a12.128,12.128,0,0,1-.165,2.661,7.048,7.048,0,0,1-3.114,4.494,6.576,6.576,0,0,1-2.737.97c-1,.087-1.958.025-2.957.045l-12.506.006-28.362.01h-9.745a7.635,7.635,0,0,1-2.024-.2,6.7,6.7,0,0,1-3.476-2.15,7.185,7.185,0,0,1-1.7-3.789,15.9,15.9,0,0,1-.072-2.1c0-.694,0-1.392,0-2.094a11.189,11.189,0,0,0-.42-4.119A6.707,6.707,0,0,0,155.1,82.91a6.5,6.5,0,0,0-4.014-1.11H118.9a21.4,21.4,0,0,0-17.194,7.63,21.568,21.568,0,0,0-4.421,8.929c-.218.818-.28,1.67-.428,2.508-.045.851-.1,1.7-.117,2.562q0,2.6,0,5.218,0,20.974.008,43.592c0,30.128.006,62.318.01,96.193s0,69.437,0,106.3q0,27.652-.006,56.233,0,14.279,0,28.763,0,3.619,0,7.251a23.069,23.069,0,0,0,.875,7.105,21.416,21.416,0,0,0,8.289,11.448,22.107,22.107,0,0,0,13.662,3.76l14.521.01,28.753.018,56.218.037q13.822.012,27.392.019c4.514-.025,9.043.072,13.483-.056a21.184,21.184,0,0,0,12.09-4.687,22.791,22.791,0,0,0,4.364-4.839,21.207,21.207,0,0,0,2.675-5.9,22.389,22.389,0,0,0,.8-6.407q0-3.269,0-6.522,0-13.008.01-25.713c.039-67.74.072-128.747.1-179.984.051-51.231.091-92.694.121-121.354q.009-5.374.016-10.14a22.115,22.115,0,0,0-1.569-8.664,21.381,21.381,0,0,0-4.042-6.386,21.461,21.461,0,0,0-12.873-6.8,17.351,17.351,0,0,0-2.173-.2c-.488-.029-.735-.052-.735-.052" transform="translate(7270.75 -1504.669)"/><path fill="#263238" d="M189.627,99.5c0,.1-3.554.2-7.939.235s-7.941-.01-7.941-.1,3.554-.2,7.939-.233,7.941.008,7.941.1" transform="translate(7344.012 -1487.663)"/><path fill="#263238" d="M189.644,101.587c0,.093-3.554.2-7.937.233s-7.943-.01-7.943-.1,3.554-.2,7.939-.233,7.941.008,7.941.1" transform="translate(7344.028 -1485.69)"/><path fill="#263238" d="M189.662,103.677c0,.091-3.554.2-7.939.233s-7.941-.01-7.941-.1,3.554-.2,7.939-.233,7.941.008,7.941.1" transform="translate(7344.045 -1483.717)"/><path fill="#263238" d="M107.7,112.462a2.519,2.519,0,0,1,.33-.021l.918-.031c.867-.021,2-.047,3.39-.08l-.093.1q-.018-1.128-.039-2.459c0-.457-.039-.888.006-1.415a1.3,1.3,0,0,1,1.137-1.046c.546-.01,1.026-.035,1.619-.008a1.315,1.315,0,0,1,1.112,1.308q.02,1.72.041,3.587l-.157-.154,4.277-.045-.161.165c-.016-1.722-.031-3.5-.049-5.328l-.012-1.359a1.38,1.38,0,0,0-.6-1.009l-1.87-1.843q-.919-.907-1.8-1.781-.44-.437-.875-.863c-.3-.29-.535-.589-.885-.661A1.151,1.151,0,0,0,113,99.7c-.259.22-.535.529-.8.783l-1.536,1.549c-.964,1-1.969,1.917-2.7,2.784a3.011,3.011,0,0,0-.216,1.6c0,.531,0,1.034,0,1.508-.006.923-.01,1.734-.014,2.426-.008.622-.014,1.133-.019,1.553a5.048,5.048,0,0,1-.019.56,4.054,4.054,0,0,1-.029-.513c-.012-.414-.025-.919-.043-1.53q-.023-1.05-.054-2.447-.015-.726-.029-1.536c0-.274-.01-.554-.014-.842a1.767,1.767,0,0,1,.237-.894c.789-.97,1.734-1.829,2.708-2.862q.738-.755,1.522-1.559c.274-.27.5-.537.826-.818a1.456,1.456,0,0,1,1.24-.245,2.314,2.314,0,0,1,1.026.735l.877.861q.889.869,1.81,1.773t1.874,1.839a3.48,3.48,0,0,1,.478.519,1.389,1.389,0,0,1,.224.721c.006.451.008.906.014,1.363.014,1.825.027,3.608.039,5.33l0,.163-.163,0-4.277.027-.157,0,0-.157c-.006-1.24-.012-2.438-.018-3.585a1.031,1.031,0,0,0-.865-1.038c-.492-.027-1.071-.01-1.551-.006a1.049,1.049,0,0,0-.921.832c-.043.43-.01.931-.019,1.367q0,1.33,0,2.459v.1h-.1l-3.447-.023c-.348-.008-.643-.012-.9-.016a1.752,1.752,0,0,1-.3-.017" transform="translate(7281.505 -1487.865)"/><path fill="url(#n)" d="M166.022,124.413a14.337,14.337,0,1,1-14.337-14.337,14.337,14.337,0,0,1,14.337,14.337" opacity=".43" transform="translate(7309.652 -1477.569)"/><path fill="url(#t)" d="M152.029,123.4h-9.836v-1.209a4.918,4.918,0,0,1,9.836,0Z" opacity=".37" transform="translate(7314.226 -1470.774)"/><path fill="url(#t)" d="M149.017,117.368a2.891,2.891,0,1,1-2.891-2.891,2.891,2.891,0,0,1,2.891,2.891" opacity=".37" transform="translate(7315.21 -1473.415)"/><path fill="#263238" d="M199.981,137.486c0,.616-17.01,1.114-37.989,1.114S124,138.1,124,137.486s17.008-1.116,37.993-1.116,37.989.5,37.989,1.116" transform="translate(7297.051 -1452.748)"/><path fill="url(#n)" d="M0,0H49.306V65.6H0Z" opacity=".48" transform="matrix(0.006, -1, 1, 0.006, 7381.261, -1228.203)"/><path fill="#e8505b" d="M103.531,196.549l23.083-30.52L140.7,185.281l9.683-10.2,18.748,21.829Z" transform="translate(7277.73 -1424.752)"/><path fill="#e8505b" d="M130.832,166.677a5.165,5.165,0,1,1-5.136-5.194,5.165,5.165,0,0,1,5.136,5.194" transform="translate(7293.75 -1429.042)"/><g><g clip-path="url(#w)" transform="translate(7381.261 -1258.722)"><path fill="url(#a)" d="M103.531,196.549l23.083-30.52L140.7,185.281l9.683-10.2,18.748,21.829Z" transform="translate(-103.531 -166.03)"/></g></g><g><g clip-path="url(#y)" transform="translate(7414.252 -1267.56)"><path d="M130.832,166.677a5.165,5.165,0,1,1-5.136-5.194,5.165,5.165,0,0,1,5.136,5.194" transform="translate(-120.502 -161.483)"/></g></g><path fill="url(#n)" d="M0,0H113.984V151.651H0Z" opacity=".41" transform="matrix(0.006, -1, 1, 0.006, 7380.664, -1099.01)"/><path fill="#e8505b" d="M103.224,282.447l53.362-70.554L189.149,256.4l22.385-23.573,43.339,50.463Z" transform="translate(7277.44 -1381.457)"/><path fill="#e8505b" d="M166.339,213.393a11.941,11.941,0,1,1-11.874-12.008,11.941,11.941,0,0,1,11.874,12.008" transform="translate(7314.475 -1391.376)"/><g><g clip-path="url(#aa)" transform="translate(7380.664 -1169.564)"><path fill="url(#a)" d="M103.224,282.447l53.362-70.554L189.149,256.4l22.385-23.573,43.339,50.463Z" transform="translate(-103.224 -211.893)"/></g></g><g><g clip-path="url(#ac)" transform="translate(7456.932 -1189.991)"><path fill="url(#a)" d="M166.339,213.393a11.941,11.941,0,1,1-11.874-12.008,11.941,11.941,0,0,1,11.874,12.008" transform="translate(-142.457 -201.385)"/></g></g><rect width="49.306" height="65.601" fill="#e8505b" transform="translate(7467.865 -1228.203) rotate(-89.681)"/><path fill="#e8505b" d="M148.081,196.549l23.083-30.52,14.086,19.253,9.685-10.2,18.746,21.829Z" transform="translate(7319.784 -1424.752)"/><path fill="#e8505b" d="M175.382,166.677a5.165,5.165,0,1,1-5.136-5.194,5.165,5.165,0,0,1,5.136,5.194" transform="translate(7335.804 -1429.042)"/><g><g clip-path="url(#ae)" transform="translate(7467.865 -1258.722)"><path d="M148.081,196.549l23.083-30.52,14.086,19.253,9.685-10.2,18.746,21.829Z" transform="translate(-148.081 -166.03)"/></g></g><g><g clip-path="url(#y)" transform="translate(7500.856 -1267.56)"><path d="M175.382,166.677a5.165,5.165,0,1,1-5.136-5.194,5.165,5.165,0,0,1,5.136,5.194" transform="translate(-165.052 -161.483)"/></g></g><path fill="#fafafa" d="M448.853,91.535l-12.509.019a9.551,9.551,0,0,0-3.766.408,5.908,5.908,0,0,0-2.98,2.65,6.326,6.326,0,0,0-.7,2.008,13.009,13.009,0,0,0-.093,2.216q0,1.137,0,2.308a10.829,10.829,0,0,1-.15,2.387,6.32,6.32,0,0,1-2.791,4.03,5.885,5.885,0,0,1-2.453.869c-.892.08-1.755.023-2.654.041l-11.211.006c-7.815,0-16.306,0-25.431.008h-8.736a6.872,6.872,0,0,1-1.816-.177,6.016,6.016,0,0,1-3.116-1.928,6.429,6.429,0,0,1-1.522-3.4,14.262,14.262,0,0,1-.064-1.882q0-.936,0-1.878a9.994,9.994,0,0,0-.377-3.694A6.032,6.032,0,0,0,366.25,92.6a5.824,5.824,0,0,0-3.6-1H333.79a19.176,19.176,0,0,0-15.416,6.843,19.323,19.323,0,0,0-3.966,8c-.194.735-.251,1.5-.383,2.249-.033.64-.068,1.277-.088,1.921V419.33a20.048,20.048,0,0,0,.77,6.075,19.2,19.2,0,0,0,7.432,10.266,19.827,19.827,0,0,0,12.251,3.371q6.532.006,13.021.008l25.781.017,50.407.033,24.56.018c4.047-.023,8.108.064,12.09-.051a18.986,18.986,0,0,0,10.84-4.2A20.391,20.391,0,0,0,475,430.526a19.019,19.019,0,0,0,2.4-5.29,20.154,20.154,0,0,0,.723-5.744q0-2.934,0-5.848,0-11.664.01-23.055c.033-60.737.064-115.439.089-161.379.045-45.936.082-83.112.107-108.812q.009-4.817.016-9.09a19.846,19.846,0,0,0-1.407-7.77,19.144,19.144,0,0,0-3.624-5.725,19.236,19.236,0,0,0-11.541-6.1,15.942,15.942,0,0,0-1.948-.179c-.439-.025-.661-.047-.661-.047s-.886.018-2.62.027l-7.692.021" opacity=".17" transform="translate(7476.348 -1495.117)"/><rect width="108.557" height="22.173" fill="url(#n)" opacity=".58" transform="translate(7817.309 -1272.785)"/><path fill="#263238" d="M459.626,91.549s.222,0,.661.019a14.545,14.545,0,0,1,1.954.152,18.171,18.171,0,0,1,7.235,2.5,18.509,18.509,0,0,1,4.4,3.565,19.324,19.324,0,0,1,3.674,5.758,20,20,0,0,1,1.444,7.83q0,4.272.01,9.09c.016,25.7.037,62.876.066,108.812.008,45.94.016,100.641.027,161.378v28.9a20.624,20.624,0,0,1-.741,5.884,19.408,19.408,0,0,1-2.463,5.433,20.853,20.853,0,0,1-4.016,4.46,19.532,19.532,0,0,1-11.137,4.323c-4.045.117-8.06.029-12.121.054l-24.562-.012q-24.786-.015-50.407-.025-12.8-.009-25.779-.014-6.491-.006-13.023-.008a20.384,20.384,0,0,1-12.56-3.468,19.765,19.765,0,0,1-7.646-10.56,21.3,21.3,0,0,1-.8-6.526q0-3.254,0-6.5,0-12.985.006-25.789.009-25.608.014-50.421c.012-33.055.023-64.94.035-95.315s.029-59.237.043-86.248q.012-20.26.023-39.087,0-2.35,0-4.677c.012-.778.068-1.563.109-2.341.136-.766.2-1.547.395-2.3a19.72,19.72,0,0,1,4.057-8.172,19.569,19.569,0,0,1,15.725-6.967l16.811.019q4.1,0,8.089.01l3.962,0a6.191,6.191,0,0,1,3.8,1.061,6.368,6.368,0,0,1,2.358,3.1,10.33,10.33,0,0,1,.393,3.808c0,.63,0,1.254,0,1.878a14,14,0,0,0,.06,1.839,6.086,6.086,0,0,0,1.439,3.227,5.686,5.686,0,0,0,2.947,1.829,6.567,6.567,0,0,0,1.738.173q.892,0,1.777,0,3.54,0,6.961.01l25.431.037,11.211.017c.885-.016,1.786.041,2.626-.033a5.679,5.679,0,0,0,2.362-.828,6.117,6.117,0,0,0,2.7-3.886,10.751,10.751,0,0,0,.152-2.342q0-1.169,0-2.308a13.154,13.154,0,0,1,.1-2.249,6.5,6.5,0,0,1,.727-2.064,6.073,6.073,0,0,1,3.079-2.722,9.705,9.705,0,0,1,3.83-.41l12.509.035,7.694.031c1.732.01,2.621.029,2.621.029s-.888.017-2.621.025l-7.694.023-12.509.019a9.551,9.551,0,0,0-3.766.408,5.911,5.911,0,0,0-2.98,2.652,6.345,6.345,0,0,0-.7,2.006,12.808,12.808,0,0,0-.091,2.216q0,1.137,0,2.308a10.918,10.918,0,0,1-.15,2.385,6.326,6.326,0,0,1-2.791,4.032,5.878,5.878,0,0,1-2.453.869c-.894.08-1.757.023-2.654.041l-11.211.006-25.431.006q-3.42,0-6.961,0h-1.777a6.887,6.887,0,0,1-1.816-.177,6,6,0,0,1-3.114-1.928,6.414,6.414,0,0,1-1.522-3.4,14.272,14.272,0,0,1-.066-1.882V99.284a10.076,10.076,0,0,0-.377-3.694,6.035,6.035,0,0,0-2.236-2.928,5.821,5.821,0,0,0-3.6-1H334.248a19.175,19.175,0,0,0-15.416,6.843,19.318,19.318,0,0,0-3.964,8c-.194.735-.251,1.5-.385,2.249-.039.764-.093,1.524-.105,2.3q0,2.327,0,4.677,0,18.808.008,39.087c0,27.011.006,55.875.008,86.248s0,62.259,0,95.315q0,24.794-.006,50.421,0,12.8,0,25.789v6.5a20.662,20.662,0,0,0,.782,6.37,19.2,19.2,0,0,0,7.434,10.266,19.808,19.808,0,0,0,12.251,3.371l13.021.01q12.979.006,25.781.016,25.6.015,50.405.033l24.562.017c4.047-.023,8.108.064,12.088-.051a18.991,18.991,0,0,0,10.841-4.2,20.389,20.389,0,0,0,3.911-4.339,18.971,18.971,0,0,0,2.4-5.29,20.158,20.158,0,0,0,.721-5.744q0-2.933,0-5.847.006-11.667.01-23.055c.035-60.737.064-115.439.089-161.378.047-45.936.084-83.112.109-108.812q.006-4.817.014-9.09A19.8,19.8,0,0,0,477.4,103.6a19.152,19.152,0,0,0-3.622-5.727,19.25,19.25,0,0,0-11.543-6.1,15.411,15.411,0,0,0-1.948-.177c-.437-.027-.659-.049-.659-.049" transform="translate(7476.253 -1495.311)"/><path fill="#263238" d="M397.665,107.537c0,.084-3.186.177-7.117.21s-7.121-.01-7.121-.091,3.184-.177,7.117-.21,7.121.008,7.121.091" transform="translate(7541.943 -1480.063)"/><path fill="#263238" d="M397.682,109.411c0,.084-3.186.177-7.119.21s-7.119-.01-7.121-.091,3.186-.177,7.119-.21,7.121.008,7.121.091" transform="translate(7541.957 -1478.294)"/><path fill="#263238" d="M397.7,111.285c0,.084-3.186.177-7.119.21s-7.119-.01-7.119-.091,3.184-.177,7.117-.21,7.121.008,7.121.091" transform="translate(7541.972 -1476.525)"/><path fill="#263238" d="M324.206,119.161a2.287,2.287,0,0,1,.3-.019l.824-.027c.776-.019,1.792-.043,3.04-.072l-.086.086c-.01-.675-.021-1.411-.035-2.2,0-.41-.035-.8.006-1.269a1.164,1.164,0,0,1,1.019-.937c.49-.01.921-.033,1.454-.008a1.181,1.181,0,0,1,1,1.174c.01,1.028.023,2.1.035,3.215l-.14-.14c1.23-.012,2.514-.025,3.835-.037l-.146.148c-.015-1.545-.029-3.143-.043-4.778l-.012-1.219a1.24,1.24,0,0,0-.538-.906q-.851-.837-1.676-1.652t-1.619-1.6c-.263-.26-.525-.519-.783-.774s-.48-.529-.793-.593a1.029,1.029,0,0,0-.879.169c-.233.2-.48.474-.715.7l-1.376,1.388c-.865.9-1.767,1.72-2.422,2.5a2.72,2.72,0,0,0-.192,1.433c0,.474,0,.925,0,1.351-.006.828-.01,1.555-.014,2.177-.008.556-.012,1.015-.017,1.392a4.412,4.412,0,0,1-.018.5,3.522,3.522,0,0,1-.027-.461c-.01-.371-.021-.824-.037-1.37-.016-.628-.031-1.359-.051-2.195-.008-.434-.016-.894-.025-1.378,0-.245-.008-.5-.012-.754a1.6,1.6,0,0,1,.212-.8c.71-.869,1.557-1.639,2.428-2.564.441-.451.9-.919,1.365-1.4.247-.241.449-.482.741-.735a1.306,1.306,0,0,1,1.112-.218,2.062,2.062,0,0,1,.921.657l.787.772c.531.519,1.071,1.052,1.621,1.59s1.112,1.093,1.681,1.65a3.221,3.221,0,0,1,.428.463,1.276,1.276,0,0,1,.2.647q0,.607.01,1.223c.014,1.637.025,3.235.037,4.78v.146l-.146,0-3.835.023-.14,0,0-.14q-.009-1.671-.016-3.215a.926.926,0,0,0-.776-.931c-.441-.023-.962-.008-1.392,0a.937.937,0,0,0-.826.745c-.037.387-.008.836-.016,1.227v2.29h-.085l-3.089-.021-.807-.014a1.575,1.575,0,0,1-.264-.016" transform="translate(7485.896 -1480.243)"/><rect width="108.557" height="22.173" fill="url(#n)" opacity=".58" transform="translate(7817.538 -1239.712)"/><rect width="108.557" height="22.173" fill="url(#n)" opacity=".58" transform="translate(7817.538 -1207.539)"/><path fill="url(#t)" d="M402.221,237.2H347.731a11.086,11.086,0,1,1,0-22.173h54.489a11.086,11.086,0,1,1,0,22.173" opacity=".41" transform="translate(7497.782 -1378.5)"/><path fill="#263238" d="M406.83,147.492c0,.552-15.252,1-34.062,1s-34.066-.447-34.066-1,15.25-1,34.066-1,34.062.447,34.062,1" transform="translate(7499.724 -1443.193)"/><path fill="#fafafa" d="M410.63,79.73l-13.952.021a10.616,10.616,0,0,0-4.2.457,6.582,6.582,0,0,0-3.324,2.955,7.036,7.036,0,0,0-.781,2.239,14.571,14.571,0,0,0-.1,2.471q0,1.268,0,2.574a12.131,12.131,0,0,1-.169,2.661,7.054,7.054,0,0,1-3.112,4.5,6.611,6.611,0,0,1-2.737.968c-1,.087-1.958.025-2.959.045l-12.5.006q-13.075,0-28.362.01h-9.745a7.635,7.635,0,0,1-2.024-.2,6.69,6.69,0,0,1-3.476-2.15,7.185,7.185,0,0,1-1.7-3.789,15.923,15.923,0,0,1-.072-2.1c0-.694,0-1.394,0-2.094a11.188,11.188,0,0,0-.42-4.119,6.726,6.726,0,0,0-2.492-3.266,6.5,6.5,0,0,0-4.014-1.11H310.07q-4.45,0-9.02,0-9.142,0-18.75,0a21.4,21.4,0,0,0-17.194,7.63,21.562,21.562,0,0,0-4.421,8.927c-.218.82-.28,1.672-.428,2.51-.037.712-.076,1.425-.1,2.142v344.3a22.422,22.422,0,0,0,.857,6.779,21.429,21.429,0,0,0,8.291,11.448,22.107,22.107,0,0,0,13.662,3.76l14.521.01,28.753.018,56.218.037q13.822.012,27.392.019c4.514-.025,9.043.072,13.483-.056a21.19,21.19,0,0,0,12.09-4.687,22.789,22.789,0,0,0,4.364-4.839,21.26,21.26,0,0,0,2.675-5.9,22.389,22.389,0,0,0,.8-6.407q0-3.269,0-6.522.006-13.008.012-25.713c.037-67.74.072-128.745.1-179.984.051-51.231.091-92.694.121-121.354q.006-5.374.016-10.14a22.156,22.156,0,0,0-1.569-8.664,21.443,21.443,0,0,0-4.042-6.386,21.46,21.46,0,0,0-12.873-6.8,17.348,17.348,0,0,0-2.173-.2c-.488-.029-.735-.052-.735-.052s-.989.019-2.924.029l-8.579.025" opacity=".17" transform="translate(7425.583 -1506.266)"/><path fill="url(#n)" d="M422.512,79.975s.247,0,.737.021a16.216,16.216,0,0,1,2.179.169,20.252,20.252,0,0,1,8.069,2.788,20.629,20.629,0,0,1,4.909,3.975,21.541,21.541,0,0,1,4.1,6.421,22.315,22.315,0,0,1,1.61,8.732q.006,4.765.012,10.14c.017,28.662.043,70.123.074,121.354.008,51.239.017,112.245.029,179.984q0,12.7,0,25.713,0,3.251,0,6.522a23.055,23.055,0,0,1-.822,6.563,21.758,21.758,0,0,1-2.749,6.061,23.271,23.271,0,0,1-4.479,4.973,21.77,21.77,0,0,1-12.422,4.821c-4.512.132-8.989.033-13.518.06l-27.393-.012-56.218-.029q-14.276-.006-28.753-.016-7.237,0-14.521-.008a22.725,22.725,0,0,1-14.008-3.868,22.036,22.036,0,0,1-8.528-11.777,23.7,23.7,0,0,1-.9-7.276q0-3.633,0-7.253,0-14.478.008-28.761.006-28.559.016-56.231c.012-36.867.025-72.428.037-106.3s.033-66.066.049-96.191q.012-22.6.025-43.593,0-2.621,0-5.218c.012-.867.074-1.744.12-2.609.152-.857.218-1.728.441-2.564a21.954,21.954,0,0,1,4.524-9.113,21.817,21.817,0,0,1,17.539-7.772q9.605.012,18.75.021l9.02.012,4.419.006A6.89,6.89,0,0,1,319.1,80.9a7.122,7.122,0,0,1,2.632,3.456,11.544,11.544,0,0,1,.435,4.248q0,1.053,0,2.094a15.513,15.513,0,0,0,.068,2.051,6.8,6.8,0,0,0,1.6,3.6,6.354,6.354,0,0,0,3.287,2.041,7.326,7.326,0,0,0,1.94.191l1.981,0,7.762.012q15.265.02,28.362.041l12.5.021c.988-.017,1.993.045,2.93-.037a6.352,6.352,0,0,0,2.634-.925,6.809,6.809,0,0,0,3.013-4.335,11.862,11.862,0,0,0,.169-2.611q0-1.306,0-2.574a14.767,14.767,0,0,1,.113-2.508,7.273,7.273,0,0,1,.813-2.3,6.781,6.781,0,0,1,3.435-3.036,10.778,10.778,0,0,1,4.271-.455l13.952.037,8.579.035c1.934.012,2.924.033,2.924.033s-.989.019-2.924.029-4.813.016-8.579.025l-13.952.021a10.616,10.616,0,0,0-4.2.457,6.581,6.581,0,0,0-3.324,2.955,7.036,7.036,0,0,0-.781,2.239,14.363,14.363,0,0,0-.1,2.471q0,1.268,0,2.574a12.009,12.009,0,0,1-.167,2.661,7.06,7.06,0,0,1-3.112,4.5,6.61,6.61,0,0,1-2.737.968c-1,.087-1.96.025-2.959.045l-12.5.006-28.362.01h-9.745a7.715,7.715,0,0,1-2.024-.2,6.719,6.719,0,0,1-3.476-2.152,7.163,7.163,0,0,1-1.7-3.789,16.258,16.258,0,0,1-.074-2.1V88.6a11.187,11.187,0,0,0-.42-4.119,6.739,6.739,0,0,0-2.492-3.266,6.485,6.485,0,0,0-4.014-1.108H301.431l-18.75,0a21.4,21.4,0,0,0-17.194,7.63,21.569,21.569,0,0,0-4.421,8.929c-.218.818-.28,1.67-.43,2.508-.043.851-.1,1.7-.115,2.562q0,2.6,0,5.218,0,20.974.008,43.593c0,30.126.006,62.316.01,96.191s0,69.437,0,106.3q0,27.649-.006,56.231,0,14.279,0,28.763,0,3.619,0,7.251a23.125,23.125,0,0,0,.873,7.105,21.43,21.43,0,0,0,8.291,11.448,22.105,22.105,0,0,0,13.662,3.76l14.521.01,28.753.017q28.55.02,56.218.037,13.822.012,27.393.019c4.514-.025,9.043.072,13.483-.056a21.177,21.177,0,0,0,12.09-4.687,22.729,22.729,0,0,0,4.362-4.839,21.129,21.129,0,0,0,2.677-5.9,22.4,22.4,0,0,0,.8-6.407q0-3.269,0-6.522.006-13.008.012-25.713c.037-67.74.072-128.745.1-179.984.05-51.231.091-92.692.119-121.354q.009-5.371.018-10.14a22.124,22.124,0,0,0-1.571-8.664,21.4,21.4,0,0,0-4.04-6.386,21.46,21.46,0,0,0-12.873-6.8,17.347,17.347,0,0,0-2.173-.2c-.488-.029-.735-.052-.735-.052" transform="translate(7425.354 -1506.266)"/><path fill="#263238" d="M353.408,97.805c0,.093-3.554.2-7.937.233s-7.941-.01-7.943-.1,3.553-.2,7.939-.233,7.941.008,7.941.1" transform="translate(7498.616 -1489.26)"/><path fill="#263238" d="M353.426,99.9c0,.093-3.554.2-7.939.233s-7.941-.01-7.941-.1,3.554-.2,7.939-.233,7.941.008,7.941.1" transform="translate(7498.633 -1487.287)"/><path fill="#263238" d="M353.443,101.986c0,.091-3.553.2-7.939.233s-7.941-.01-7.941-.1,3.554-.2,7.939-.235,7.939.01,7.941.1" transform="translate(7498.648 -1485.314)"/><path fill="#263238" d="M271.48,110.77a2.516,2.516,0,0,1,.33-.021l.92-.031c.865-.019,2-.047,3.39-.082l-.1.1q-.017-1.129-.039-2.459c0-.457-.039-.888.006-1.415a1.3,1.3,0,0,1,1.137-1.046c.546-.01,1.027-.035,1.619-.008a1.317,1.317,0,0,1,1.112,1.308q.02,1.72.041,3.587l-.158-.154,4.279-.045-.163.165c-.016-1.722-.031-3.5-.049-5.328l-.012-1.359a1.368,1.368,0,0,0-.6-1.009q-.948-.936-1.87-1.845t-1.8-1.779q-.44-.437-.873-.863c-.3-.29-.536-.589-.885-.661a1.149,1.149,0,0,0-.982.187c-.261.22-.537.529-.8.783q-.79.8-1.534,1.549c-.966,1-1.971,1.917-2.7,2.784a3.031,3.031,0,0,0-.216,1.6c0,.531,0,1.034,0,1.509q-.006,1.385-.014,2.426c-.008.622-.014,1.133-.018,1.553a5.306,5.306,0,0,1-.021.56,4.068,4.068,0,0,1-.029-.513c-.012-.414-.025-.92-.043-1.53q-.023-1.05-.056-2.447-.012-.726-.027-1.536c0-.274-.01-.554-.014-.842a1.767,1.767,0,0,1,.237-.894c.789-.97,1.734-1.829,2.708-2.862q.738-.755,1.522-1.559c.274-.27.5-.537.826-.818a1.456,1.456,0,0,1,1.24-.245,2.314,2.314,0,0,1,1.026.735l.879.861q.886.869,1.81,1.773t1.872,1.839a3.478,3.478,0,0,1,.478.519,1.388,1.388,0,0,1,.224.721q.009.677.014,1.363c.014,1.825.027,3.608.039,5.33l0,.163-.163,0-4.279.027-.155,0V110.7c-.008-1.24-.014-2.438-.019-3.585a1.031,1.031,0,0,0-.865-1.038c-.492-.027-1.073-.01-1.551-.006a1.047,1.047,0,0,0-.921.832c-.043.43-.01.931-.019,1.367q0,1.33,0,2.459v.1h-.1l-3.447-.023c-.348-.008-.643-.012-.9-.016a1.754,1.754,0,0,1-.3-.017" transform="translate(7436.109 -1489.462)"/><path fill="url(#n)" d="M361.953,162.992a35.916,35.916,0,1,1-35.917-35.915,35.916,35.916,0,0,1,35.917,35.915" opacity=".56" transform="translate(7453.865 -1461.521)"/><path fill="url(#t)" d="M326.9,160.457h-24.64v-3.029a12.32,12.32,0,1,1,24.64,0Z" opacity=".56" transform="translate(7465.323 -1444.501)"/><path fill="url(#t)" d="M319.356,145.343a7.242,7.242,0,1,1-7.243-7.243,7.243,7.243,0,0,1,7.243,7.243" opacity=".56" transform="translate(7467.789 -1451.115)"/><rect width="121.072" height="24.729" fill="url(#n)" opacity=".58" transform="translate(7715.88 -1221.472)"/><rect width="121.072" height="24.729" fill="url(#n)" opacity=".58" transform="translate(7715.88 -1185.59)"/><path fill="url(#t)" d="M358.489,253.659h-60.77a12.365,12.365,0,1,1,0-24.729h60.77a12.365,12.365,0,1,1,0,24.729" opacity=".32" transform="translate(7449.364 -1365.375)"/><path fill="#263238" d="M363.762,178.065c0,.616-17.01,1.116-37.989,1.116s-37.993-.5-37.993-1.116,17.008-1.114,37.993-1.114,37.989.5,37.989,1.114" transform="translate(7451.655 -1414.441)"/><path fill="#e0e0e0" d="M287.323,196.544h-5.348a.949.949,0,0,1-.949-.949,3.565,3.565,0,0,1,3.563-3.565h.119a3.563,3.563,0,0,1,3.563,3.565.949.949,0,0,1-.949.949" transform="translate(7445.28 -1400.207)"/><path fill="#e0e0e0" d="M286.054,192.1a2.13,2.13,0,1,1-2.131-2.131,2.131,2.131,0,0,1,2.131,2.131" transform="translate(7446.005 -1402.153)"/><rect width="6.384" height="4.514" fill="#e0e0e0" transform="translate(7726.737 -1172.832)"/><path fill="#e0e0e0" d="M288.732,213.3h-2.14v-1.39a1.807,1.807,0,0,0-3.614,0v1.39h-2.142v-1.39a3.948,3.948,0,0,1,7.9,0Z" transform="translate(7445.1 -1385.17)"/><g filter="url(#as)" transform="matrix(1, 0, 0, 1, 7180, -1581.48)"><path fill="url(#ar)" d="M380.426,40.707c-5.62.01-12.57.019-20.779.031-2.043.049-4.23-.214-6.254.678a9.821,9.821,0,0,0-4.951,4.4,10.563,10.563,0,0,0-1.163,3.332,21.439,21.439,0,0,0-.154,3.68q0,1.887,0,3.83a17.906,17.906,0,0,1-.249,3.96,10.5,10.5,0,0,1-4.636,6.693,9.837,9.837,0,0,1-4.077,1.442c-1.481.128-2.918.037-4.4.066q-8.882,0-18.623.01-19.476,0-42.24.012l-11.563,0h-2.951a11.377,11.377,0,0,1-3.015-.3,9.984,9.984,0,0,1-5.177-3.2,10.673,10.673,0,0,1-2.527-5.641,23.749,23.749,0,0,1-.109-3.122q0-1.551,0-3.116c-.025-2.09.157-4.2-.624-6.131a10.006,10.006,0,0,0-3.713-4.86,9.657,9.657,0,0,0-5.978-1.652H189.3A31.863,31.863,0,0,0,163.695,52.18a32.044,32.044,0,0,0-6.584,13.285c-.325,1.219-.416,2.488-.64,3.734-.054,1.059-.111,2.121-.144,3.188V280.526c0,2.786,0,5.5,0,8.3,0,8.4,0,16.977,0,25.517V584.818a33.313,33.313,0,0,0,1.279,10.085,31.869,31.869,0,0,0,12.346,17.039,32.94,32.94,0,0,0,20.348,5.6q10.85.009,21.629.014l42.822.027,83.727.056,40.8.027c6.722-.039,13.468.109,20.079-.084a31.531,31.531,0,0,0,18.005-6.977,33.8,33.8,0,0,0,6.5-7.2,31.522,31.522,0,0,0,3.985-8.781,33.344,33.344,0,0,0,1.2-9.535q0-4.867,0-9.708.009-19.359.016-38.269c.056-100.818.107-191.615.15-267.875.076-76.248.138-137.958.179-180.614q.015-8,.025-15.091a32.853,32.853,0,0,0-2.339-12.894,31.789,31.789,0,0,0-6.017-9.506A31.946,31.946,0,0,0,401.889,41a25.581,25.581,0,0,0-3.237-.3c-.727-.045-1.094-.08-1.094-.08s-1.475.031-4.355.045l-12.778.037" transform="translate(147.57 38.35)"/></g><path fill="#263238" d="M397.874,40.942s.367,0,1.095.033a23.487,23.487,0,0,1,3.239.251,30.082,30.082,0,0,1,11.987,4.139,30.656,30.656,0,0,1,7.29,5.908,31.937,31.937,0,0,1,6.085,9.539,33.1,33.1,0,0,1,2.395,12.972q.006,7.077.017,15.064c.023,42.577.06,104.173.107,180.282.014,76.116.029,166.746.045,267.379V584.4a34.115,34.115,0,0,1-1.225,9.747,32.317,32.317,0,0,1-4.08,9.006,34.582,34.582,0,0,1-6.656,7.385,32.331,32.331,0,0,1-18.452,7.164c-6.7.194-13.353.049-20.083.089l-40.693-.017q-41.068-.02-83.515-.043l-42.715-.023-21.574-.012a33.768,33.768,0,0,1-20.81-5.746,32.714,32.714,0,0,1-12.667-17.5,35.175,35.175,0,0,1-1.335-10.81q0-5.394,0-10.773.006-21.508.01-42.726.012-42.427.023-83.538c.019-54.767.039-107.595.056-157.92s.049-98.145.07-142.9q.02-33.566.039-64.761,0-3.893.006-7.751c.018-1.287.109-2.589.179-3.876.226-1.269.325-2.564.655-3.808a32.678,32.678,0,0,1,6.72-13.54A32.43,32.43,0,0,1,190.143,40.5q14.271.017,27.853.031l13.4.017,6.565.008a10.22,10.22,0,0,1,6.291,1.757,10.564,10.564,0,0,1,3.909,5.134c.818,2.051.624,4.267.647,6.31q0,1.563,0,3.11a23.124,23.124,0,0,0,.1,3.046,10.1,10.1,0,0,0,2.385,5.348,9.43,9.43,0,0,0,4.883,3.033,10.845,10.845,0,0,0,2.879.284q1.478,0,2.943,0,5.864.006,11.534.016l42.134.062q9.713.015,18.577.031c1.466-.027,2.959.066,4.351-.056a9.379,9.379,0,0,0,3.911-1.374,10.111,10.111,0,0,0,4.479-6.438,17.646,17.646,0,0,0,.251-3.88q0-1.939.006-3.822a21.864,21.864,0,0,1,.169-3.727,10.814,10.814,0,0,1,1.205-3.423,10.08,10.08,0,0,1,5.1-4.508c2.1-.912,4.331-.636,6.345-.677,8.19.021,15.122.041,20.727.054l12.747.052c2.871.016,4.343.049,4.343.049s-1.472.031-4.343.045-7.15.019-12.747.037l-20.727.031c-2.037.049-4.218-.214-6.238.677a9.794,9.794,0,0,0-4.938,4.391,10.522,10.522,0,0,0-1.159,3.326,21.357,21.357,0,0,0-.154,3.672q0,1.884,0,3.822a18.085,18.085,0,0,1-.249,3.954,10.479,10.479,0,0,1-4.625,6.679,9.763,9.763,0,0,1-4.067,1.439c-1.477.13-2.908.039-4.393.068q-8.862.006-18.577.008L273.53,69.1l-11.534,0h-2.943a11.4,11.4,0,0,1-3.007-.3,9.957,9.957,0,0,1-5.163-3.194,10.643,10.643,0,0,1-2.521-5.63,23.706,23.706,0,0,1-.109-3.118q0-1.548,0-3.11c-.025-2.086.157-4.187-.622-6.12a9.994,9.994,0,0,0-3.7-4.85,9.617,9.617,0,0,0-5.964-1.648H190.143A31.773,31.773,0,0,0,164.6,52.473a32.02,32.02,0,0,0-6.569,13.262c-.323,1.217-.416,2.484-.636,3.729-.066,1.266-.157,2.523-.173,3.8q0,3.858,0,7.751.006,31.16.014,64.761c0,44.756.008,92.576.014,142.9s0,103.153-.006,157.92q0,41.077-.01,83.538,0,21.214-.006,42.728,0,5.377,0,10.771a34.276,34.276,0,0,0,1.3,10.556A31.809,31.809,0,0,0,170.842,611.2a32.847,32.847,0,0,0,20.3,5.585q10.821.009,21.574.014l42.715.027,83.515.054,40.7.029c6.7-.039,13.433.109,20.029-.083a31.459,31.459,0,0,0,17.96-6.963,33.745,33.745,0,0,0,6.481-7.189,31.445,31.445,0,0,0,3.975-8.763,33.3,33.3,0,0,0,1.2-9.518q0-4.858,0-9.691.006-19.324.016-38.2c.056-100.633.107-191.263.148-267.379.076-76.11.138-137.7.181-180.282q.012-7.981.021-15.064a32.766,32.766,0,0,0-2.331-12.869,31.777,31.777,0,0,0-6-9.489A31.885,31.885,0,0,0,402.2,41.317a25.377,25.377,0,0,0-3.229-.3c-.725-.045-1.093-.08-1.093-.08" transform="translate(7327.567 -1543.249)"/><path fill="url(#t)" stroke="#fff" stroke-width="1" d="M295.215,67.429c0,.138-5.28.292-11.792.346s-11.8-.014-11.8-.152,5.278-.292,11.794-.346,11.8.014,11.8.152" transform="translate(7436.403 -1517.986)"/><path fill="url(#t)" stroke="#fff" stroke-width="1" d="M295.24,70.534c0,.138-5.28.292-11.794.346s-11.8-.014-11.8-.152,5.278-.292,11.794-.346,11.8.014,11.8.152" transform="translate(7436.427 -1515.055)"/><path fill="url(#t)" stroke="#fff" stroke-width="1" d="M295.266,73.639c0,.138-5.28.292-11.792.346s-11.8-.014-11.8-.152,5.278-.292,11.794-.346,11.8.014,11.8.152" transform="translate(7436.452 -1512.124)"/><path fill="#fff" stroke="#fff" stroke-linecap="round" stroke-width=".5" d="M173.5,86.69a3.662,3.662,0,0,1,.49-.031l1.365-.047q1.933-.047,5.037-.121l-.138.142c-.019-1.116-.039-2.337-.06-3.653.008-.678-.058-1.318.008-2.1a1.935,1.935,0,0,1,1.691-1.553c.811-.016,1.526-.052,2.407-.012a1.955,1.955,0,0,1,1.65,1.944c.021,1.7.041,3.484.062,5.328l-.235-.229,6.355-.066-.241.247c-.023-2.56-.047-5.206-.072-7.918q-.009-1.015-.016-2.016a2.059,2.059,0,0,0-.894-1.5q-1.411-1.388-2.778-2.737l-2.679-2.644q-.656-.65-1.3-1.283c-.445-.432-.8-.875-1.314-.982a1.706,1.706,0,0,0-1.456.278c-.387.327-.8.785-1.184,1.164q-1.172,1.184-2.28,2.3c-1.433,1.489-2.928,2.85-4.014,4.137a4.51,4.51,0,0,0-.319,2.372q0,1.181,0,2.239-.015,2.059-.023,3.606c-.01.921-.019,1.683-.025,2.307-.01.531-.019.818-.031.83a6.057,6.057,0,0,1-.043-.764c-.018-.614-.039-1.363-.064-2.271q-.035-1.56-.084-3.635-.017-1.079-.041-2.284c-.006-.406-.014-.822-.019-1.248a2.638,2.638,0,0,1,.35-1.33c1.176-1.44,2.58-2.716,4.024-4.25q1.1-1.126,2.263-2.317c.406-.4.741-.8,1.225-1.215a2.164,2.164,0,0,1,1.843-.364,3.419,3.419,0,0,1,1.526,1.091q.644.633,1.3,1.277,1.318,1.292,2.689,2.636t2.784,2.733a5.192,5.192,0,0,1,.71.768,2.076,2.076,0,0,1,.332,1.073q.009,1.006.019,2.026c.019,2.712.041,5.358.06,7.918l0,.245h-.245c-2.189.016-4.314.027-6.355.041l-.231,0,0-.231c-.01-1.845-.019-3.626-.029-5.328a1.53,1.53,0,0,0-1.283-1.542c-.731-.039-1.592-.014-2.3-.008a1.557,1.557,0,0,0-1.37,1.236c-.062.638-.016,1.382-.027,2.03v3.8l-.138,0c-2.1-.016-3.814-.027-5.122-.035-.517-.01-.956-.016-1.334-.023a2.377,2.377,0,0,1-.439-.025" transform="translate(7343.545 -1518.285)"/><path fill="url(#a)" d="M374.227,134.042H185.594A17.09,17.09,0,0,1,168.5,116.952V110.6a17.09,17.09,0,0,1,17.089-17.089H374.227A17.09,17.09,0,0,1,391.317,110.6v6.351a17.09,17.09,0,0,1-17.089,17.089" transform="translate(7339.063 -1493.205)"/><path fill="#263238" d="M374.432,134.243s.435-.051,1.279-.107a18.3,18.3,0,0,0,3.678-.715,17.655,17.655,0,0,0,5.359-2.819,16.757,16.757,0,0,0,5.082-6.442,16.316,16.316,0,0,0,1.341-4.724,43.337,43.337,0,0,0,.154-5.459,36.644,36.644,0,0,0-.264-5.937A16.865,16.865,0,0,0,377.6,94.287a46.612,46.612,0,0,0-7.747-.3l-8.233.016-175.814.121a16.708,16.708,0,0,0-16.619,15.291c-.14,2.018-.039,4.152-.07,6.211a19.377,19.377,0,0,0,.632,6.028,16.806,16.806,0,0,0,6.9,9.442,16.078,16.078,0,0,0,5.4,2.3,24.6,24.6,0,0,0,5.863.441q5.96,0,11.8,0,11.681.009,22.849.014c29.747.035,56.534.064,79.042.089l53.286.132,14.488.078,3.767.041c.848.016,1.283.043,1.283.043s-.435.029-1.283.043l-3.767.041c-3.338.018-8.213.043-14.488.078l-53.286.132c-22.507.025-49.3.054-79.042.089q-11.159.006-22.849.014l-11.8.006a25.407,25.407,0,0,1-6.044-.457,16.913,16.913,0,0,1-5.663-2.411,17.621,17.621,0,0,1-7.245-9.9,20.221,20.221,0,0,1-.665-6.25c.031-2.09-.074-4.125.07-6.279A17.531,17.531,0,0,1,185.811,93.3c68.645.047,130.8.089,175.814.122q4.219.006,8.233.014a47.025,47.025,0,0,1,7.846.332,17.326,17.326,0,0,1,13.783,14.2,36.876,36.876,0,0,1,.233,6.007,43.153,43.153,0,0,1-.192,5.507,16.57,16.57,0,0,1-1.4,4.807,16.921,16.921,0,0,1-5.225,6.5,17.543,17.543,0,0,1-5.461,2.784,17.185,17.185,0,0,1-3.721.64c-.85.029-1.285.023-1.285.023" transform="translate(7338.859 -1493.406)"/><path fill="url(#t)" d="M283.431,107.176c-.08,0-.072-.653-.387-1.753a7.32,7.32,0,0,0-2.69-3.849,6.985,6.985,0,1,0,0,11.205,7.327,7.327,0,0,0,2.69-3.849c.315-1.1.307-1.757.387-1.753.029,0,.049.161.06.472a5.479,5.479,0,0,1-.132,1.359,7.306,7.306,0,0,1-2.65,4.236,7.606,7.606,0,0,1-7.251,1.188,7.7,7.7,0,0,1,0-14.51,7.612,7.612,0,0,1,7.251,1.186,7.3,7.3,0,0,1,2.648,4.238,5.408,5.408,0,0,1,.134,1.359c-.012.311-.031.472-.06.472" transform="translate(7433.298 -1487.571)"/><path fill="url(#t)" d="M281.379,113.412c-.169.156-1.777-1.312-3.592-3.278s-3.151-3.686-2.984-3.839,1.777,1.31,3.592,3.278,3.151,3.684,2.984,3.839" transform="translate(7439.392 -1481.148)"/><path fill="#e0e0e0" d="M185.908,102.353h-3.973v-1.034h9.144v1.034H187.1v10.276h-1.2Z" transform="translate(7351.74 -1485.836)"/><path fill="#e0e0e0" d="M194.853,107.4h-7.109a3.147,3.147,0,0,0,3.344,2.957,3.346,3.346,0,0,0,2.6-1.116l.645.745a4.493,4.493,0,0,1-7.739-2.941,4.092,4.092,0,0,1,4.152-4.314,4.049,4.049,0,0,1,4.119,4.314c0,.1-.016.226-.016.356m-7.109-.857h6.026a3.019,3.019,0,0,0-6.026,0" transform="translate(7356.142 -1484.502)"/><path fill="#e0e0e0" d="M197.972,111.264l-2.7-3.555-2.716,3.555h-1.291l3.359-4.362-3.2-4.137h1.293l2.552,3.328,2.552-3.328h1.26l-3.2,4.137,3.392,4.362Z" transform="translate(7360.551 -1484.47)"/><path fill="#e0e0e0" d="M201.49,111.649a2.731,2.731,0,0,1-1.794.6,2.251,2.251,0,0,1-2.488-2.473v-5.136h-1.518v-.97h1.518v-1.858h1.147v1.858h2.585v.97h-2.585v5.072a1.361,1.361,0,0,0,1.472,1.551,1.9,1.9,0,0,0,1.26-.435Z" transform="translate(7364.724 -1485.373)"/><path fill="#e8505b" d="M282.062,134.416c0,.229-16.308.414-36.42.414s-36.424-.185-36.424-.414,16.3-.414,36.424-.414,36.42.185,36.42.414" transform="translate(7377.495 -1454.984)"/><path fill="#263238" d="M340.144,142.106c0,.229-29.311.414-65.459.414s-65.467-.185-65.467-.414,29.305-.414,65.467-.414,65.459.185,65.459.414" transform="translate(7377.495 -1447.724)"/><path fill="#263238" d="M338.6,147.6c0,.231-28.967.416-64.691.416s-64.7-.185-64.7-.416,28.959-.412,64.7-.412,64.691.185,64.691.412" transform="translate(7377.495 -1442.539)"/><path fill="#263238" d="M285.613,152.838c0,.229-17.1.414-38.2.414s-38.2-.185-38.2-.414,17.1-.414,38.2-.414,38.2.185,38.2.414" transform="translate(7377.494 -1437.594)"/><path fill="#e8505b" d="M282.062,176.214c0,.229-16.308.414-36.42.414s-36.424-.185-36.424-.414,16.3-.414,36.424-.414,36.42.185,36.42.414" transform="translate(7377.495 -1415.528)"/><path fill="#263238" d="M340.144,183.9c0,.229-29.311.414-65.459.414s-65.467-.185-65.467-.414,29.305-.414,65.467-.414,65.459.185,65.459.414" transform="translate(7377.495 -1408.269)"/><path fill="#263238" d="M338.6,189.4c0,.229-28.967.414-64.691.414s-64.7-.185-64.7-.414,28.959-.414,64.7-.414,64.691.185,64.691.414" transform="translate(7377.495 -1403.084)"/><path fill="#263238" d="M285.613,194.635c0,.229-17.1.414-38.2.414s-38.2-.185-38.2-.414,17.1-.414,38.2-.414,38.2.185,38.2.414" transform="translate(7377.494 -1398.139)"/><path fill="#e8505b" d="M282.062,218.011c0,.229-16.308.414-36.42.414s-36.424-.185-36.424-.414,16.3-.414,36.424-.414,36.42.185,36.42.414" transform="translate(7377.495 -1376.073)"/><path fill="#263238" d="M340.144,225.7c0,.229-29.311.416-65.459.416s-65.467-.187-65.467-.416,29.305-.414,65.467-.414,65.459.185,65.459.414" transform="translate(7377.495 -1368.813)"/><path fill="#263238" d="M338.6,231.194c0,.229-28.967.414-64.691.414s-64.7-.185-64.7-.414,28.959-.414,64.7-.414,64.691.185,64.691.414" transform="translate(7377.495 -1363.628)"/><path fill="#263238" d="M285.613,236.433c0,.229-17.1.416-38.2.416s-38.2-.187-38.2-.416,17.1-.414,38.2-.414,38.2.185,38.2.414" transform="translate(7377.494 -1358.683)"/><path fill="#e8505b" d="M282.062,259.809c0,.229-16.308.414-36.42.414s-36.424-.185-36.424-.414,16.3-.414,36.424-.414,36.42.187,36.42.414" transform="translate(7377.495 -1336.617)"/><path fill="#263238" d="M340.144,267.5c0,.229-29.311.414-65.459.414s-65.467-.185-65.467-.414,29.305-.414,65.467-.414,65.459.185,65.459.414" transform="translate(7377.495 -1329.357)"/><path fill="#263238" d="M338.6,272.992c0,.229-28.967.414-64.691.414s-64.7-.185-64.7-.414,28.959-.414,64.7-.414,64.691.185,64.691.414" transform="translate(7377.495 -1324.172)"/><path fill="#263238" d="M285.613,278.231c0,.229-17.1.414-38.2.414s-38.2-.185-38.2-.414,17.1-.414,38.2-.414,38.2.185,38.2.414" transform="translate(7377.494 -1319.227)"/><path fill="#e8505b" d="M282.062,301.314c0,.229-16.308.414-36.42.414s-36.424-.185-36.424-.414,16.3-.414,36.424-.414,36.42.187,36.42.414" transform="translate(7377.495 -1297.437)"/><path fill="#263238" d="M340.144,309c0,.229-29.311.414-65.459.414s-65.467-.185-65.467-.414,29.305-.414,65.467-.414,65.459.185,65.459.414" transform="translate(7377.495 -1290.178)"/><path fill="#263238" d="M338.6,314.5c0,.229-28.967.414-64.691.414s-64.7-.185-64.7-.414,28.959-.414,64.7-.414,64.691.187,64.691.414" transform="translate(7377.495 -1284.994)"/><path fill="#263238" d="M285.613,319.736c0,.229-17.1.414-38.2.414s-38.2-.185-38.2-.414,17.1-.414,38.2-.414,38.2.185,38.2.414" transform="translate(7377.494 -1280.047)"/><path fill="url(#n)" d="M0,0H44.6V59.335H0Z" transform="translate(7508.455 -1276.573) rotate(-89.681)"/><path fill="#e8505b" d="M168.961,170.251l20.878-27.6L202.58,160.06l8.76-9.222,16.955,19.743Z" transform="translate(7339.494 -1446.824)"/><path fill="#e8505b" d="M193.655,143.232a4.671,4.671,0,1,1-4.646-4.7,4.672,4.672,0,0,1,4.646,4.7" transform="translate(7353.984 -1450.705)"/><g><g clip-path="url(#bb)" transform="translate(7508.455 -1304.178)"><path fill="url(#a)" d="M168.961,170.251l20.878-27.6L202.58,160.06l8.76-9.222,16.955,19.743Z" transform="translate(-168.961 -142.646)"/></g></g><g><g clip-path="url(#bd)" transform="translate(7538.295 -1312.17)"><path d="M193.655,143.232a4.671,4.671,0,1,1-4.646-4.7,4.672,4.672,0,0,1,4.646,4.7" transform="translate(-184.31 -138.535)"/></g></g><rect width="44.597" height="59.335" fill="url(#n)" transform="translate(7508.455 -1196.353) rotate(-89.681)"/><path fill="#e8505b" d="M168.961,211.518l20.878-27.606,12.741,17.416,8.76-9.224,16.955,19.745Z" transform="translate(7339.494 -1407.871)"/><path fill="#e8505b" d="M193.655,184.5a4.671,4.671,0,1,1-4.646-4.7,4.672,4.672,0,0,1,4.646,4.7" transform="translate(7353.984 -1411.752)"/><g><g clip-path="url(#bb)" transform="translate(7508.455 -1223.958)"><path fill="url(#a)" d="M168.961,211.518l20.878-27.606,12.741,17.416,8.76-9.224,16.955,19.745Z" transform="translate(-168.961 -183.913)"/></g></g><g><g clip-path="url(#bd)" transform="translate(7538.295 -1231.95)"><path d="M193.655,184.5a4.671,4.671,0,1,1-4.646-4.7,4.672,4.672,0,0,1,4.646,4.7" transform="translate(-184.31 -179.802)"/></g></g><rect width="44.597" height="59.335" fill="url(#n)" transform="translate(7508.455 -1116.134) rotate(-89.681)"/><path fill="#e8505b" d="M168.961,252.782l20.878-27.6,12.741,17.414,8.76-9.222,16.955,19.743Z" transform="translate(7339.494 -1368.916)"/><path fill="#e8505b" d="M193.655,225.764a4.671,4.671,0,1,1-4.646-4.7,4.672,4.672,0,0,1,4.646,4.7" transform="translate(7353.984 -1372.797)"/><g><g clip-path="url(#bb)" transform="translate(7508.455 -1143.739)"><path fill="url(#a)" d="M168.961,252.782l20.878-27.6,12.741,17.414,8.76-9.222,16.955,19.743Z" transform="translate(-168.961 -225.178)"/></g></g><g><g clip-path="url(#bl)" transform="translate(7538.295 -1151.73)"><path fill="url(#a)" d="M193.655,225.764a4.671,4.671,0,1,1-4.646-4.7,4.672,4.672,0,0,1,4.646,4.7" transform="translate(-184.31 -221.067)"/></g></g><rect width="44.597" height="59.335" fill="url(#n)" transform="translate(7508.455 -1035.914) rotate(-89.681)"/><path fill="#e8505b" d="M168.961,294.049l20.878-27.606,12.741,17.416,8.76-9.224,16.955,19.745Z" transform="translate(7339.494 -1329.964)"/><path fill="#e8505b" d="M193.655,267.031a4.671,4.671,0,1,1-4.646-4.7,4.672,4.672,0,0,1,4.646,4.7" transform="translate(7353.984 -1333.844)"/><g><g clip-path="url(#bo)" transform="translate(7508.455 -1063.521)"><path fill="url(#a)" d="M168.961,294.049l20.878-27.606,12.741,17.416,8.76-9.224,16.955,19.745Z" transform="translate(-168.961 -266.443)"/></g></g><g><g clip-path="url(#bq)" transform="translate(7538.295 -1071.512)"><path fill="url(#a)" d="M193.655,267.031a4.671,4.671,0,1,1-4.646-4.7,4.672,4.672,0,0,1,4.646,4.7" transform="translate(-184.31 -262.332)"/></g></g><rect width="44.597" height="59.335" fill="url(#n)" transform="translate(7508.455 -956.085) rotate(-89.681)"/><path fill="#e8505b" d="M168.961,335.113l20.878-27.6,12.741,17.414,8.76-9.222,16.955,19.743Z" transform="translate(7339.494 -1291.198)"/><path fill="#e8505b" d="M193.655,308.095a4.671,4.671,0,1,1-4.646-4.7,4.672,4.672,0,0,1,4.646,4.7" transform="translate(7353.984 -1295.079)"/><g><g clip-path="url(#bb)" transform="translate(7508.455 -983.69)"><path fill="url(#a)" d="M168.961,335.113l20.878-27.6,12.741,17.414,8.76-9.222,16.955,19.743Z" transform="translate(-168.961 -307.509)"/></g></g><g><g clip-path="url(#bl)" transform="translate(7538.295 -991.681)"><path fill="url(#a)" d="M193.655,308.095a4.671,4.671,0,1,1-4.646-4.7,4.672,4.672,0,0,1,4.646,4.7" transform="translate(-184.31 -303.398)"/></g></g><path fill="url(#t)" d="M429.943,104.866A21.157,21.157,0,1,1,408.785,83.71a21.158,21.158,0,0,1,21.158,21.156" opacity=".34" transform="translate(7545.91 -1502.458)"/><path fill="#fff" d="M401.791,104.815a.966.966,0,0,1-.616-.222l-7.121-5.861a.971.971,0,1,1,1.233-1.5l6.37,5.241,9.038-11.061a.971.971,0,1,1,1.5,1.231l-9.654,11.815a.977.977,0,0,1-.657.354c-.031,0-.062,0-.1,0" transform="translate(7551.638 -1495.525)"/><path fill="url(#t)" d="M394.643,93.758a29,29,0,1,1-29-29,29,29,0,0,1,29,29" opacity=".23" transform="translate(7497.782 -1520.348)"/><path fill="#fff" d="M356.352,94.593a1.94,1.94,0,0,1-1.236-.443l-9.759-8.034a1.944,1.944,0,1,1,2.471-3l8.252,6.8,12-14.685a1.944,1.944,0,0,1,3.011,2.459l-13.236,16.2a1.934,1.934,0,0,1-1.312.7,1.608,1.608,0,0,1-.192.008" transform="translate(7505.337 -1511.142)"/><rect width="826.175" height="856.477" fill="none" transform="translate(7180 -1581.477)"/><rect width="826.175" height="856.477" fill="none" transform="translate(7180 -1581.477)"/><path fill="#ffbe9d" d="M180.5,198.875l1.164-4.6a17.188,17.188,0,0,0-.2-9.141l-4.8-16.028a6.015,6.015,0,0,0-2.76-3.484c-3.645-2.1-10.863-6.139-11.477-5.63-4.419,3.674,5.455,10.153,5.455,10.153s3.808,4.24.793,7.393c-3.427,3.583-9.871-4.271-9.871-4.271s.34-.818.649-.665c.117.058,3.369,2.669,6.2,2.669l.008-5.214-5.84-3.66a5.868,5.868,0,0,0-4.339-.764l-2.02.432a5.14,5.14,0,0,0-3.2,2.173l-1.919,2.879-.813,1.094a3.655,3.655,0,0,0-.395,3.7l.929,2.039-1.271,1.792a5.5,5.5,0,0,0-.655,5.126L156,198.41l14.591,23.806,15.787-16.959Z" transform="translate(7317.623 -1430.494)"/><path fill="#eb996e" d="M149.045,176.562a3.3,3.3,0,0,1-.527-.98,2.742,2.742,0,0,1,.484-2.521l.072-.091-.052-.111c-.056-.113-.113-.229-.171-.348a24.714,24.714,0,0,0-2.107-3.855,25.223,25.223,0,0,0,1.759,4.026c.058.119.115.235.171.348l.019-.2a2.863,2.863,0,0,0-.422,2.844c.29.71.754.951.774.89" transform="translate(7318.514 -1422.273)"/><path fill="#eb996e" d="M148.915,163.641a4.61,4.61,0,0,0-.3,2.729,21.157,21.157,0,0,0,2.657,6.271,8.079,8.079,0,0,1,.923,1.829,5.014,5.014,0,0,1,.117,1.938,4.726,4.726,0,0,0,.346,2.914,5.663,5.663,0,0,0,1.911,1.987,3.27,3.27,0,0,1-2.288-1.781,4.973,4.973,0,0,1-.527-3.161,4.616,4.616,0,0,0-.126-1.722,8.007,8.007,0,0,0-.875-1.687,18.34,18.34,0,0,1-2.562-6.528c-.26-1.893.694-2.887.723-2.79" transform="translate(7319.846 -1427.011)"/><path fill="#eb996e" d="M153.454,168.75a12.744,12.744,0,0,0-.741-2.169c-.593-1.118-1.248-1.979-1.108-2.1.109-.1.989.587,1.648,1.82.717,1.252.387,2.533.2,2.447" transform="translate(7323.092 -1426.22)"/><path fill="url(#bz)" d="M178,262.533l6.017,7.537,31.21-37.505L174.364,178.8l-20.209,15.851Z" transform="translate(7325.517 -1412.697)"/><path fill="url(#t)" d="M237.87,408.933l2.585,60.932,32.9-.737-2.463-61.054Z" transform="translate(7404.542 -1196.269)"/><path fill="#263238" d="M249.137,467.4c.274-.016-.235-13.359-1.139-29.8s-1.86-29.762-2.134-29.747.235,13.355,1.139,29.8,1.86,29.76,2.134,29.745" transform="translate(7412.017 -1196.471)"/><g><g clip-path="url(#cb)" transform="translate(7643.209 -770.819)"><path d="M271.207,417.012l.27,6.715-32.983.591-.214-5.056Z" transform="translate(-238.28 -417.012)"/></g></g><path fill="url(#t)" d="M215.474,410.569l1.606,37.085s-37.157,14.088-37.526,20.971l72.02-.533-.132-57.888Z" transform="translate(7349.492 -1194.257)"/><path fill="#263238" d="M198.123,423.957c0,.146,1.4.356,3.633-.045a16.388,16.388,0,0,0,3.791-1.2,16.909,16.909,0,0,0,2.078-1.124,4.467,4.467,0,0,0,1.091-.861,1.544,1.544,0,0,0,.15-1.886,1.942,1.942,0,0,0-1.559-.8,4.72,4.72,0,0,0-1.361.2,13.19,13.19,0,0,0-2.253.791,12.871,12.871,0,0,0-3.334,2.224c-1.67,1.571-2.236,2.9-2.113,2.966.161.115.972-1,2.675-2.3a14.49,14.49,0,0,1,3.227-1.849,13.64,13.64,0,0,1,2.08-.659c.768-.206,1.421-.218,1.619.122.074.13.084.183-.076.408a3.651,3.651,0,0,1-.8.63,18.754,18.754,0,0,1-1.911,1.11,20.057,20.057,0,0,1-3.5,1.372c-2.074.595-3.441.7-3.433.894" transform="translate(7367.022 -1186.855)"/><path fill="#263238" d="M200.7,426.934c.126.054.818-1.221.931-3.517a11.783,11.783,0,0,0-.523-3.973,12.009,12.009,0,0,0-.943-2.2,3,3,0,0,0-2.331-1.816,1.693,1.693,0,0,0-1.509,1.025,4.864,4.864,0,0,0-.364,1.334,8.051,8.051,0,0,0,.016,2.447,8.349,8.349,0,0,0,1.578,3.74c1.433,1.87,2.914,2.282,2.941,2.162.117-.179-1.122-.853-2.22-2.652a8.38,8.38,0,0,1-1.174-3.406,7.5,7.5,0,0,1,.051-2.1c.109-.772.393-1.4.682-1.318.36-.008.978.568,1.279,1.18a11.942,11.942,0,0,1,.914,1.963,13.021,13.021,0,0,1,.731,3.618c.115,2.129-.253,3.458-.06,3.511" transform="translate(7364.905 -1189.326)"/><g><g clip-path="url(#cd)" transform="translate(7566.269 -761.813)"><path d="M233.506,421.645l-.072,8.229H198.7v-7.465Z" transform="translate(-198.701 -421.645)"/></g></g><path fill="#ffbe9d" d="M281.834,107.056,287,127.035s1.923,11.048-3.241,11.038c-4.545-.01-4.98-5.931-4.98-5.931s2.255-12.091-3.692-11.423c-.826.093-3,8.431-4.051,12.682a6.247,6.247,0,0,0,.624,4.586l8.573,15.171a17.893,17.893,0,0,0,6.724,6.746l4.3,2.447.554,9.02,24.129.377-7.352-28.137-3.068-17.173a5.728,5.728,0,0,0-4.321-3.206l-2.263-.34-.863-2.169a3.809,3.809,0,0,0-3.06-2.372l-1.409-.177-1.981-4.879c-.655-1.615-5.383-12.251-7.127-12.228,0,0-3.937,1.065-2.661,5.989" transform="translate(7435.677 -1486.073)"/><path fill="#eb996e" d="M288.185,123.333a16.541,16.541,0,0,0-.457-2.193,8.282,8.282,0,0,0-3.279-4.18,24.163,24.163,0,0,1-1.812-5.237,7.032,7.032,0,0,1-.253-2.265c.066-.006.163.855.531,2.2a32.593,32.593,0,0,0,1.845,5.048c.362.317.785.618,1.18.976a7.453,7.453,0,0,1,.982,1.118A7.331,7.331,0,0,1,288,121.057a6.1,6.1,0,0,1,.243,1.664,1.5,1.5,0,0,1-.06.612" transform="translate(7446.54 -1478.151)"/><path fill="#eb996e" d="M289.333,119.162a3.429,3.429,0,0,0-.356-1.1,2.847,2.847,0,0,0-2.241-1.456l-.122-.012-.045-.121c-.045-.122-.091-.249-.138-.379a25.963,25.963,0,0,1-1.376-4.364,25.983,25.983,0,0,1,1.755,4.226l.138.379-.165-.13a2.981,2.981,0,0,1,2.44,1.736c.325.727.169,1.252.111,1.223" transform="translate(7449.071 -1476.01)"/><path fill="#ffbe9d" d="M221.961,215.291l43.755-.562-4.885-37.254s2.99-.64,3.19-16.848.945-43.745.945-43.745a56.33,56.33,0,0,0-56.6,7.115l-2.4,1.849Z" transform="translate(7374.421 -1475.467)"/><path fill="#ffbe9d" d="M213.814,129.772c-.276-.119-11.137-3.293-10.783,7.788s11.407,8.439,11.415,8.122-.632-15.909-.632-15.909" transform="translate(7371.647 -1459.458)"/><path fill="#ffbe9d" d="M236.13,128.509c.276-.117,10.153-2.782,9.8,8.3s-11.405,8.441-11.415,8.122,1.615-16.421,1.615-16.421" transform="translate(7401.375 -1460.511)"/><path fill="#0c0c0c" d="M206.726,145.253c1.656,9.284,1.33,14.164,2.862,20.365,2.424,9.813,7.3,17.338,16.139,22.239s20.8,4.813,28.394-1.858c5.27-4.631,9-9.862,9.786-16.833s1.565-19.317,1.615-26.331c.089-12.651.937-24.747.937-24.747l-36.144-6.54-20.567,12.229Z" transform="translate(7375.143 -1476.179)"/><path fill="#263238" d="M231.924,154.374c.054.257-2.788.96-6.333.56-3.548-.381-6.168-1.687-6.059-1.926.1-.278,2.778.56,6.17.919,3.39.387,6.182.154,6.223.447" transform="translate(7387.228 -1437.096)"/><path fill="url(#a)" d="M209.979,168.4c-1.059-9.516-1.746-20.4-3.233-30.429-.558-3.764-1.9-9.191-1.563-12.982.336-3.806.7-7.71,2.376-11.145a15.657,15.657,0,0,1,24.391-4.9,11.738,11.738,0,0,1,21.393,4.949,8.148,8.148,0,0,1,13.446,8.165,7.964,7.964,0,0,1,5.371,12.193c-1.676,2.578-4.695,4-6.541,6.456a9.246,9.246,0,0,0-.554,10" transform="translate(7373.636 -1483.542)"/><path fill="#455a64" d="M256.132,121.139a2.446,2.446,0,0,1-.4,1.04,7.341,7.341,0,0,1-2.1,2.362,7.557,7.557,0,0,1-4.7,1.489,8.064,8.064,0,0,1-5.793-2.716l.764-.208a7.53,7.53,0,0,1-4.835,5.544,8.628,8.628,0,0,1-8.147-1.026,12.229,12.229,0,0,1-4.586-6.009l.877.1a10.18,10.18,0,0,1-8.186,4.489,9.4,9.4,0,0,1-6.886-2.813,9.556,9.556,0,0,1-2.49-4.238,4.12,4.12,0,0,1-.212-1.757c.076-.01.154.608.533,1.654a10.019,10.019,0,0,0,2.6,3.888A8.876,8.876,0,0,0,219,125.354a9.39,9.39,0,0,0,7.385-4.168l.535-.83.342.929a11.392,11.392,0,0,0,4.224,5.5,7.687,7.687,0,0,0,7.23.956,6.678,6.678,0,0,0,4.327-4.786l.163-.919.6.712a7.391,7.391,0,0,0,5.157,2.568,7.2,7.2,0,0,0,4.378-1.194,10.338,10.338,0,0,0,2.794-2.982" transform="translate(7377.674 -1470.66)"/><path fill="#455a64" d="M246.423,124.8a10.044,10.044,0,0,0-1.543-4.034,6.606,6.606,0,0,0-3.8-2.556,6.869,6.869,0,0,0-5.511,1.054l-.879.632.091-1.085a8.348,8.348,0,0,0-.369-3.184,8.69,8.69,0,0,0-4.446-5.173,8.5,8.5,0,0,0-5.636-.5c-3.281.853-4.572,2.817-4.7,2.65-.043-.031.206-.525.9-1.232a8.8,8.8,0,0,1,3.61-2.107,8.957,8.957,0,0,1,6.213.338,9.431,9.431,0,0,1,5.021,5.711,9.116,9.116,0,0,1,.4,3.59l-.785-.453a7.626,7.626,0,0,1,6.308-1.091,7.08,7.08,0,0,1,4.121,3.033,6.954,6.954,0,0,1,1.106,3.19c.056.791-.049,1.217-.1,1.213" transform="translate(7387.32 -1478.712)"/><path fill="#455a64" d="M223.706,121.383c-.14-.06.029-.632-.029-1.522a7.226,7.226,0,0,0-1.131-3.274,35.055,35.055,0,0,0-2.088-2.937,1.07,1.07,0,0,0-1.155-.227c-.056-.019-.058-.247.239-.445a1.243,1.243,0,0,1,1.359.111,8.01,8.01,0,0,1,1.248,1.264,13.009,13.009,0,0,1,1.264,1.713,6.077,6.077,0,0,1,.98,3.82c-.136,1.044-.579,1.561-.686,1.5" transform="translate(7386.987 -1474.974)"/><path fill="#455a64" d="M210.544,112.219c-.115-.041,0-.863.675-2.022a5.4,5.4,0,0,1,1.649-1.736,4.312,4.312,0,0,1,2.939-.643,7.037,7.037,0,0,1,4.388,2.751c.809,1.023,1.176,1.726,1.075,1.812s-.692-.465-1.6-1.324a7.57,7.57,0,0,0-3.995-2.234,4.223,4.223,0,0,0-3.87,1.786c-.762.951-1.118,1.67-1.26,1.61" transform="translate(7378.71 -1479.741)"/><path fill="#455a64" d="M215.977,141.512c-.214.148-2.372-2.821-3.818-7.068-1.474-4.24-1.6-7.908-1.339-7.922.3-.037.865,3.48,2.3,7.593,1.4,4.121,3.118,7.243,2.862,7.4" transform="translate(7378.906 -1462.045)"/><path fill="#455a64" d="M217.892,140.741c-.245.121-1.569-2.082-2.681-5.035s-1.58-5.48-1.318-5.55,1.164,2.29,2.265,5.192,1.991,5.268,1.734,5.393" transform="translate(7381.84 -1458.616)"/><path fill="#455a64" d="M234.866,135.988c.239-.054.745,4.543-1.25,9.741-1.944,5.216-5.362,8.33-5.505,8.128-.243-.2,2.7-3.489,4.559-8.487,1.915-4.971,1.882-9.391,2.2-9.382" transform="translate(7395.316 -1453.109)"/><path fill="#455a64" d="M235.567,131.832c.224-.117,1.631,3.837.706,8.773-.873,4.945-3.583,8.147-3.752,7.961-.268-.163,1.938-3.456,2.757-8.143.885-4.671-.017-8.532.29-8.59" transform="translate(7399.471 -1457.034)"/><path fill="url(#cf)" d="M266.083,323.783l10.643,102.57,7.636,154.466h40.763l1.1-328.756-116.7,8.322L185.34,432.872l20.946,150.966h44.723L240.537,440.294Z" transform="translate(7354.955 -1343.539)"/><path fill="#455a64" d="M234.908,288.961c.187.208-3.363,3.709-7.929,7.819s-8.419,7.276-8.606,7.068,3.361-3.707,7.929-7.821,8.419-7.274,8.606-7.066" transform="translate(7386.13 -1308.717)"/><path fill="#455a64" d="M226.875,300.678c-.276-.023-.043-5.908.214-13.166.282-7.261.484-13.147.762-13.149s.531,5.906.251,13.186c-.259,7.278-.947,13.155-1.227,13.13" transform="translate(7394.046 -1322.487)"/><path fill="#455a64" d="M233.752,269.054a2.886,2.886,0,0,1,.653-.072c.54-.031,1.2-.072,2.016-.121,1.9-.091,4.5-.22,7.733-.377l27.634-1.155.472-.019v.476c.016,8.621.033,18.38.051,28.689v.9l-.319.126-17.976,7.2-.169.068-.169-.06-15.894-5.521-.249-.086-.033-.257c-1.163-8.95-2.131-16.409-2.825-21.761-.3-2.494-.548-4.494-.729-5.984a17.79,17.79,0,0,1-.2-2.047,3.343,3.343,0,0,1,.126.583c.076.443.165.976.274,1.617.237,1.507.558,3.53.956,6.056.8,5.266,1.9,12.609,3.231,21.419l-.282-.34,15.933,5.406-.336.01,17.96-7.245-.317.47v-.554c.017-10.309.035-20.068.049-28.689l.472.455-27.334.678c-3.283.058-5.919.107-7.854.142-.851.006-1.547.012-2.113.018a5.366,5.366,0,0,1-.766-.025" transform="translate(7400.647 -1329.145)"/><path fill="#455a64" d="M204.052,268.925a2.25,2.25,0,0,1,.589-.06l1.812-.078,6.994-.218,25.206-.585.465-.01-.016.468c-.272,8.515-.587,18.33-.923,28.78l-.008.26-.222.146c-.925.6-1.919,1.252-2.916,1.905-5.12,3.34-10.079,6.573-14.78,9.636l-.257.169-.264-.159-16.644-10.142-.214-.128.008-.243c.315-8.94.575-16.388.762-21.732.109-2.49.194-4.487.26-5.972a16.138,16.138,0,0,1,.148-2.039,3.553,3.553,0,0,1,.033.587c0,.445,0,.98.008,1.623-.012,1.511-.025,3.538-.043,6.071-.08,5.282-.192,12.644-.327,21.483l-.2-.371c5.066,3.04,10.688,6.411,16.716,10.027l-.519.01c4.693-3.075,9.644-6.318,14.759-9.667,1-.651,1.991-1.3,2.918-1.905l-.231.406c.385-10.449.743-20.262,1.052-28.777l.449.457c-10.219.056-18.79.1-24.937.138l-7.09-.016-1.9-.025a3.827,3.827,0,0,1-.686-.041" transform="translate(7371.506 -1328.518)"/><path fill="#455a64" d="M269.464,294.738c-.012.136-2.123.08-5.525-.173s-8.091-.717-13.252-1.386-9.815-1.419-13.168-2.043-5.41-1.106-5.387-1.242,2.121.1,5.5.537l13.188,1.746c4.98.634,9.487,1.205,13.194,1.676,3.379.435,5.466.745,5.453.886" transform="translate(7399.125 -1307.865)"/><path fill="#455a64" d="M264.258,361.943c.043.02-.167.589-.964,1.293a6.459,6.459,0,0,1-4.17,1.415,9.854,9.854,0,0,1-6.089-2.335,42.07,42.07,0,0,1-5.55-5.614,76.706,76.706,0,0,1-8.254-11.613c-1.81-3.169-2.692-5.249-2.578-5.307.134-.07,1.238,1.888,3.188,4.936a102.194,102.194,0,0,0,8.412,11.326,46.8,46.8,0,0,0,5.358,5.54,9.431,9.431,0,0,0,5.525,2.352,6.509,6.509,0,0,0,3.919-1.013c.809-.556,1.129-1.034,1.2-.98" transform="translate(7403.384 -1260.736)"/><path fill="#455a64" d="M221.98,358.446a2.773,2.773,0,0,1-.55,1.31,8.376,8.376,0,0,1-2.817,2.679,10.773,10.773,0,0,1-5.593,1.468,13.209,13.209,0,0,1-6.738-2.136c-4.318-2.739-6.646-6.847-8.1-9.662-1.439-2.889-2.129-4.749-2.016-4.8.138-.07,1.063,1.7,2.644,4.461,1.6,2.708,3.96,6.584,8.015,9.146a12.843,12.843,0,0,0,6.223,2.063,10.609,10.609,0,0,0,5.22-1.161c2.788-1.468,3.556-3.491,3.717-3.365" transform="translate(7365.159 -1253.638)"/><path fill="#455a64" d="M223.04,345.084c.058.1-1.141.99-3.349,1.948a26.448,26.448,0,0,1-18.411.76c-2.28-.772-3.548-1.563-3.5-1.666.1-.319,5.542,2.28,12.731,1.928,7.191-.241,12.406-3.281,12.527-2.97" transform="translate(7366.698 -1255.75)"/><path fill="url(#bz)" d="M317.235,183.654H257.8s-8.073-4.65-11.979-3.868-7.292,4.947-7.292,4.947l7.863,65.486,19.251-14.247,71.643-7.463a22.791,22.791,0,0,0,22.416-25.5l-13.252-70.422-27.188.9-1.073,17.873Z" transform="translate(7405.165 -1456.315)"/><path fill="url(#bz)" d="M222.385,167.35a36.414,36.414,0,0,0-14.352,16.679c-3.466,8.318-27.134,49.869-39.608,71.61a20.547,20.547,0,0,0,2.974,24.432c7.581,7.926,16.638,4.835,27.7,1.236,4.957-1.613,27.264-35.853,27.264-35.853Z" transform="translate(7336.413 -1423.504)"/><path fill="url(#bz)" d="M206.789,324.45,193.168,207.2l3.285-31.245,34.688-14.786,44.929-2.941,42.781,4.71L308.843,283.2l10.948,67.821L199.97,356.438Z" transform="translate(7362.344 -1432.112)"/><path fill="#263238" d="M206.741,300.171c-.278.033-3.54-26.078-7.284-58.313s-6.559-58.4-6.281-58.438,3.54,26.074,7.286,58.321,6.557,58.4,6.279,58.43" transform="translate(7362.334 -1408.335)"/><path fill="#263238" d="M261.975,174.189a4.221,4.221,0,0,1-.027,1.058l-.27,3.011c-.282,2.757-.663,6.5-1.126,11.055-.951,9.469-2.239,22.3-3.662,36.477-1.357,14.253-2.461,27.167-3.159,36.521-.329,4.57-.6,8.32-.8,11.083-.1,1.213-.177,2.21-.241,3.011a4.211,4.211,0,0,1-.152,1.048,4.081,4.081,0,0,1-.051-1.056c.014-.8.029-1.8.051-3.023.053-2.626.231-6.421.478-11.11.515-9.374,1.507-22.309,2.865-36.572s2.815-27.144,3.958-36.459c.577-4.658,1.069-8.423,1.444-11.022.187-1.205.338-2.193.461-2.99a4.158,4.158,0,0,1,.229-1.032" transform="translate(7418.341 -1417.048)"/><path fill="#263238" d="M280.352,234.238a17.051,17.051,0,0,1-1.9,2.319,26.785,26.785,0,0,1-2.434,2.539,44.6,44.6,0,0,1-3.462,3.124,49.9,49.9,0,0,1-4.506,3.419c-1.637,1.215-3.536,2.28-5.505,3.449a68.443,68.443,0,0,1-28.337,8.458c-2.288.1-4.461.253-6.5.132a49.4,49.4,0,0,1-5.643-.389,44.286,44.286,0,0,1-4.607-.715,26.731,26.731,0,0,1-3.427-.789,16.561,16.561,0,0,1-2.858-.9c.054-.224,4.146,1.054,10.966,1.691a52.322,52.322,0,0,0,5.583.262c2.012.084,4.154-.1,6.409-.222a70.969,70.969,0,0,0,27.962-8.347c1.954-1.131,3.845-2.154,5.482-3.326a52.751,52.751,0,0,0,4.527-3.279c5.352-4.271,8.075-7.583,8.244-7.426" transform="translate(7379.345 -1360.37)"/><g><g clip-path="url(#cj)" transform="translate(7591.149 -1134.127)"><path d="M216.7,260.007c-5.828-1.672-6.16-7.162-3.913-9.529s5.927-2.661,9.158-2.2,6.423,1.536,9.681,1.314c5.326-.36,9.8-4.067,13.5-7.922s7.21-8.159,12.072-10.369,11.633-1.433,14.193,3.256c1.625,2.98,1.114,6.786-.581,9.732a22.706,22.706,0,0,1-7.216,7.068c-13.544,9.209-31.014,12.653-46.892,8.647" transform="translate(-211.5 -230.122)"/></g></g><path fill="#263238" d="M250.632,160.1c.045-.249,4.485,1.557,7.8,6.2,3.365,4.607,3.68,9.389,3.431,9.354-.309.078-1.05-4.4-4.251-8.763-3.134-4.413-7.148-6.526-6.975-6.794" transform="translate(7416.583 -1430.369)"/><path fill="#fafafa" d="M300.894,159.937a7.033,7.033,0,0,0-.989-.591,5.051,5.051,0,0,0-3.225-.2,8.991,8.991,0,0,0-4.419,2.632c-1.468,1.415-2.8,3.39-4.9,4.98a14.449,14.449,0,0,1-8.048,2.477c-3.06.15-6.3-.169-9.712-.257a191.387,191.387,0,0,0-22.194.484,142.46,142.46,0,0,0-39.272,8.666,122.04,122.04,0,0,0-11.174,4.961l-2.943,1.549c-.677.35-1.042.517-1.042.517s.338-.214,1-.587l2.912-1.619a112.64,112.64,0,0,1,11.141-5.089,139.665,139.665,0,0,1,39.342-8.8,187.267,187.267,0,0,1,22.243-.453c3.419.1,6.662.43,9.683.294a14.181,14.181,0,0,0,7.894-2.372c2.055-1.53,3.412-3.493,4.91-4.91a9.084,9.084,0,0,1,4.541-2.624,5.052,5.052,0,0,1,3.3.278,3.125,3.125,0,0,1,.954.665" transform="translate(7362.164 -1431.531)"/><path fill="#fafafa" d="M313.2,172.044c-.008.029-.41-.122-1.205-.26a12.576,12.576,0,0,0-3.511-.113,19.575,19.575,0,0,0-5.373,1.423,64.867,64.867,0,0,0-6.586,3.388,36.668,36.668,0,0,1-8.277,3.559,52.757,52.757,0,0,1-10.212,1.652c-7.272.453-15.26.566-23.629,1.213-16.747,1.153-31.821,3.184-42.674,4.953-5.429.869-9.8,1.7-12.83,2.243-1.425.272-2.58.49-3.48.661-.8.146-1.219.2-1.219.2s.412-.111,1.2-.282l3.466-.735c3.017-.6,7.385-1.466,12.813-2.374,10.847-1.843,25.929-3.919,42.693-5.072,8.371-.649,16.386-.752,23.629-1.184a52.821,52.821,0,0,0,10.149-1.6,36.673,36.673,0,0,0,8.229-3.489,63.445,63.445,0,0,1,6.639-3.344,19.2,19.2,0,0,1,5.443-1.37,11.942,11.942,0,0,1,3.542.189,6.438,6.438,0,0,1,1.19.34" transform="translate(7363.323 -1419.621)"/><path fill="#fafafa" d="M312.5,188.771s-1.508.7-4.308,1.806-6.909,2.556-12.088,4.022a181.7,181.7,0,0,1-41.494,6.2,381.218,381.218,0,0,1-42-1l-12.694-.988c-1.409-.122-2.552-.224-3.449-.3-.789-.074-1.2-.132-1.2-.132s.418,0,1.207.051l3.454.229c3.13.21,7.436.5,12.7.857a403.907,403.907,0,0,0,41.966.879,186.419,186.419,0,0,0,41.436-6.071c5.177-1.429,9.3-2.832,12.107-3.892,1.417-.5,2.488-.968,3.231-1.242s1.133-.418,1.133-.418" transform="translate(7364.319 -1403.283)"/><path fill="#fafafa" d="M306.1,208.4s-1.409.616-4.038,1.518a80.468,80.468,0,0,1-11.4,2.914,116.027,116.027,0,0,1-17.356,1.777c-6.569.226-13.8.012-21.36-.441-15.122-1-28.806-2.07-38.734-1.717-4.957.128-8.962.447-11.718.774-1.38.13-2.444.313-3.171.393s-1.108.119-1.108.119a101.07,101.07,0,0,1,15.989-1.573c9.943-.428,23.656.6,38.767,1.6,7.556.451,14.768.677,21.323.472a118.966,118.966,0,0,0,17.317-1.685,85.938,85.938,0,0,0,11.4-2.782c1.332-.389,2.329-.8,3.025-1.024s1.061-.344,1.061-.344" transform="translate(7366.166 -1384.756)"/><path fill="#fafafa" d="M300.848,223.588s-5.486,1.808-14.582,3.9c-4.543,1.058-10,2.1-16.1,3.044-6.1.894-12.846,1.66-19.951,2.109-7.111.41-13.9.463-20.066.309-6.164-.2-11.71-.579-16.349-1.083-9.279-.976-14.943-2.109-14.943-2.109s.362.027,1.042.117l2.972.414c2.576.389,6.322.844,10.958,1.293,4.634.467,10.175.815,16.331,1,6.157.13,12.931.068,20.029-.342,7.094-.447,13.826-1.2,19.922-2.074,6.088-.921,11.545-1.934,16.09-2.955,4.549-1.005,8.211-1.907,10.723-2.6,1.168-.311,2.127-.566,2.9-.77.665-.173,1.021-.243,1.021-.243" transform="translate(7367.718 -1370.417)"/><path fill="#fafafa" d="M303.558,229.137s-.346.146-1.017.383c-.774.282-1.742.63-2.924,1.059-2.533.937-6.155,2.4-10.571,4.358s-9.632,4.388-15.546,6.823a101.178,101.178,0,0,1-19.877,6.075c-14.547,2.8-28.032,2.418-37.66,2.08-4.831-.2-8.732-.453-11.431-.624l-3.1-.22c-.71-.056-1.081-.1-1.081-.1s.375-.006,1.085.023c.824.037,1.851.086,3.108.144l11.431.5c9.625.264,23.085.6,37.573-2.193a102.22,102.22,0,0,0,19.813-6.022c5.91-2.411,11.131-4.833,15.573-6.738,4.434-1.924,8.079-3.353,10.632-4.248s3.995-1.293,3.995-1.293" transform="translate(7369.123 -1365.179)"/><path fill="#fafafa" d="M311.284,245.692s-1.332.914-3.869,2.354a77.284,77.284,0,0,1-11.225,5.138c-9.759,3.738-24.1,6.483-40.024,6.767s-30.3-.974-40.7-1.413c-5.2-.255-9.417-.4-12.331-.465l-3.353-.066c-.768-.017-1.17-.047-1.17-.047s.4-.027,1.17-.035c.877,0,1.989-.006,3.355-.01,2.916.012,7.132.117,12.34.336,10.414.365,24.788,1.582,40.683,1.295s30.184-2.976,39.935-6.631a81.686,81.686,0,0,0,11.248-5.008c1.3-.659,2.245-1.285,2.92-1.65.665-.383,1.025-.566,1.025-.566" transform="translate(7367.479 -1349.552)"/><path fill="#fafafa" d="M266.236,208.037a2.378,2.378,0,0,1,.1-.49c.113-.426.233-.879.367-1.38.342-1.19.766-2.933,1.219-5.1a78.443,78.443,0,0,0-.515-34.3c-.517-2.152-1-3.882-1.372-5.062-.148-.5-.282-.947-.408-1.369a2.244,2.244,0,0,1-.117-.486,2.377,2.377,0,0,1,.192.461c.15.414.307.857.484,1.345.422,1.168.945,2.891,1.5,5.043a74.252,74.252,0,0,1,.517,34.432c-.49,2.168-.958,3.905-1.347,5.085-.161.494-.305.941-.441,1.359a2.227,2.227,0,0,1-.181.467" transform="translate(7430.634 -1430.588)"/><path fill="#fafafa" d="M285.327,201.331a1.836,1.836,0,0,1-.01-.445c.016-.4.033-.816.051-1.269.064-1.1.1-2.7.076-4.664a72.1,72.1,0,0,0-6.786-29.758c-.834-1.783-1.555-3.206-2.092-4.168l-.595-1.122a1.882,1.882,0,0,1-.185-.406,1.749,1.749,0,0,1,.255.364c.208.342.428.7.663,1.087.579.941,1.341,2.348,2.212,4.123a67.655,67.655,0,0,1,6.816,29.881c-.015,1.975-.093,3.575-.206,4.673-.045.453-.087.869-.126,1.266a1.8,1.8,0,0,1-.072.439" transform="translate(7440.332 -1430.916)"/><path fill="#fafafa" d="M321.078,188.66a2.752,2.752,0,0,1-.366-.389l-.988-1.161c-.84-1.021-2.105-2.457-3.721-4.181a93.651,93.651,0,0,0-29.822-21.353c-2.154-.974-3.921-1.709-5.157-2.175-.521-.2-.986-.389-1.417-.56a2.639,2.639,0,0,1-.486-.222,2.726,2.726,0,0,1,.511.146c.441.148.916.309,1.446.488,1.256.422,3.044,1.118,5.22,2.061a88.419,88.419,0,0,1,29.918,21.419c1.592,1.755,2.828,3.225,3.631,4.279.34.443.645.842.929,1.209a2.645,2.645,0,0,1,.3.439" transform="translate(7443.481 -1431.747)"/><path fill="#fafafa" d="M311.426,145.97a7.424,7.424,0,0,1-1.238.025c-1.04-.018-2.154-.041-3.369-.06-2.844-.049-6.773-.084-11.11-.01s-8.266.247-11.106.395l-3.365.175a7.593,7.593,0,0,1-1.236.019,7.025,7.025,0,0,1,1.225-.177c.791-.089,1.938-.192,3.359-.3,2.838-.222,6.769-.439,11.116-.515s8.281.008,11.125.13c1.423.062,2.574.126,3.369.189a7.554,7.554,0,0,1,1.231.132" transform="translate(7444.313 -1444.139)"/><path fill="#fafafa" d="M182.879,185.424a5.385,5.385,0,0,1,.731.77c.443.515,1.112,1.24,1.961,2.105a50.923,50.923,0,0,0,7.284,6.063,94.348,94.348,0,0,0,8.124,4.932l2.531,1.382a5.233,5.233,0,0,1,.91.546,5.329,5.329,0,0,1-.98-.406c-.62-.284-1.509-.715-2.6-1.269a73.632,73.632,0,0,1-8.219-4.852,44.516,44.516,0,0,1-7.261-6.2,28.172,28.172,0,0,1-1.876-2.2,5.412,5.412,0,0,1-.61-.869" transform="translate(7352.63 -1406.443)"/><path fill="#fafafa" d="M187.1,177.422c.06-.031.447.667,1.372,1.555a29.164,29.164,0,0,0,3.927,3.106c1.627,1.094,3.161,2,4.3,2.6s1.862.931,1.841.988a21.937,21.937,0,0,1-6.365-3.258,22.426,22.426,0,0,1-3.905-3.243,4.615,4.615,0,0,1-1.166-1.753" transform="translate(7356.61 -1413.997)"/><path fill="#fafafa" d="M209.981,226.757a2.149,2.149,0,0,1-.424-.191l-1.182-.616c-1.024-.54-2.475-1.382-4.211-2.51A86.986,86.986,0,0,1,191.5,213.4a80.4,80.4,0,0,1-10.558-12.239,48.7,48.7,0,0,1-2.617-4.145c-.229-.42-.439-.8-.638-1.17a1.967,1.967,0,0,1-.2-.42,1.961,1.961,0,0,1,.268.381l.7,1.129c.6.986,1.509,2.389,2.716,4.061a87.354,87.354,0,0,0,10.6,12.109,95.072,95.072,0,0,0,12.539,10.1c1.709,1.155,3.134,2.029,4.131,2.611.41.245.785.47,1.143.682a2.064,2.064,0,0,1,.385.262" transform="translate(7347.547 -1397.005)"/><path fill="#263238" d="M166.7,246.842a9.571,9.571,0,0,1-.36-2.222,36.758,36.758,0,0,1-.13-6.155,39.6,39.6,0,0,1,6.45-19.107c4.18-6.685,8.011-12.708,10.826-17.039q2-3.018,3.379-5.1a9.7,9.7,0,0,1,1.355-1.8,9.556,9.556,0,0,1-1.023,2.008q-1.263,2.146-3.1,5.272c-2.659,4.426-6.392,10.5-10.569,17.187a41.332,41.332,0,0,0-6.6,18.635c-.451,5.1,0,8.309-.224,8.318" transform="translate(7336.826 -1397.007)"/><path fill="#fafafa" d="M198.482,240.471a25.269,25.269,0,0,1-6.716-1,31.486,31.486,0,0,1-22.258-22.26,25.314,25.314,0,0,1-1-6.716,2.1,2.1,0,0,1,.08.465c.047.307.072.76.165,1.337a33.587,33.587,0,0,0,1.028,4.837,31.99,31.99,0,0,0,22.06,22.062,33.368,33.368,0,0,0,4.835,1.03c.577.1,1.032.119,1.337.165a2.136,2.136,0,0,1,.467.08" transform="translate(7339.066 -1382.777)"/><path fill="#fafafa" d="M185.867,191.779a1.638,1.638,0,0,1-.34.239c-.321.194-.653.4-1.011.616-.886.513-2.134,1.322-3.627,2.385a51.735,51.735,0,0,0-17.64,22.081c-.706,1.691-1.219,3.087-1.524,4.067-.134.4-.257.766-.377,1.122a1.659,1.659,0,0,1-.157.383,1.541,1.541,0,0,1,.08-.406c.1-.364.2-.741.3-1.145a38.376,38.376,0,0,1,1.411-4.127,49.186,49.186,0,0,1,17.739-22.21,38.69,38.69,0,0,1,3.715-2.288l1.05-.55a1.614,1.614,0,0,1,.379-.167" transform="translate(7332.156 -1400.446)"/><path fill="#fafafa" d="M179.4,184.379a6.5,6.5,0,0,1-1.1.393c-.721.214-1.748.581-2.99,1.087a34.786,34.786,0,0,0-8.927,5.4,50.9,50.9,0,0,0-7.232,7.574c-.83,1.058-1.487,1.926-1.93,2.537a6.52,6.52,0,0,1-.731.916,6.345,6.345,0,0,1,.6-1.007c.4-.638,1.028-1.534,1.833-2.62a45.507,45.507,0,0,1,7.2-7.712,32.371,32.371,0,0,1,9.08-5.356,25.851,25.851,0,0,1,3.05-.972,6.554,6.554,0,0,1,1.149-.241" transform="translate(7327.718 -1407.434)"/><rect width="826.175" height="856.477" fill="none" transform="translate(7180 -1581.477)"/></g></svg>