
<svg xmlns="http://www.w3.org/2000/svg" xmlns:xlink="http://www.w3.org/1999/xlink" width="795.326" height="592.691" viewBox="0 0 795.326 592.691">
  <defs>
    <linearGradient id="linear-gradient" x1="0.5" x2="0.5" y2="1" gradientUnits="objectBoundingBox">
      <stop offset="0" stop-color="#1db27b"/>
      <stop offset="1" stop-color="#0f593e"/>
    </linearGradient>
    <linearGradient id="linear-gradient-2" x1="0.5" x2="0.5" y2="1" gradientUnits="objectBoundingBox">
      <stop offset="0" stop-color="#383838"/>
      <stop offset="1" stop-color="#020202"/>
    </linearGradient>
    <clipPath id="clip-path">
      <rect id="Rectangle_13573" data-name="Rectangle 13573" width="220.022" height="10.476" fill="none"/>
    </clipPath>
    <clipPath id="clip-path-7">
      <rect id="Rectangle_13603" data-name="Rectangle 13603" width="220.023" height="10.476" fill="none"/>
    </clipPath>
    <clipPath id="clip-path-11">
      <rect id="Rectangle_13607" data-name="Rectangle 13607" width="220.023" height="10.478" fill="none"/>
    </clipPath>
    <clipPath id="clip-path-13">
      <rect id="Rectangle_13614" data-name="Rectangle 13614" width="385.479" height="260.46" fill="url(#linear-gradient)"/>
    </clipPath>
    <linearGradient id="linear-gradient-7" x1="0.5" x2="0.5" y2="1" gradientUnits="objectBoundingBox">
      <stop offset="0" stop-color="#62cbac"/>
      <stop offset="1" stop-color="#316656"/>
    </linearGradient>
    <clipPath id="clip-path-14">
      <rect id="Rectangle_13615" data-name="Rectangle 13615" width="13.861" height="15.904" fill="none"/>
    </clipPath>
    <clipPath id="clip-path-15">
      <rect id="Rectangle_13616" data-name="Rectangle 13616" width="46.799" height="281.917" fill="#e8ecee"/>
    </clipPath>
    <clipPath id="clip-path-16">
      <rect id="Rectangle_13617" data-name="Rectangle 13617" width="11.712" height="99.117" fill="none"/>
    </clipPath>
    <clipPath id="clip-path-17">
      <rect id="Rectangle_13619" data-name="Rectangle 13619" width="19.161" height="20.005" fill="none"/>
    </clipPath>
    <clipPath id="clip-path-18">
      <rect id="Rectangle_13620" data-name="Rectangle 13620" width="70.79" height="261.509" fill="#e8ecee"/>
    </clipPath>
    <clipPath id="clip-path-19">
      <rect id="Rectangle_13623" data-name="Rectangle 13623" width="59.088" height="6.008" fill="none"/>
    </clipPath>
    <linearGradient id="linear-gradient-16" x1="0.5" x2="0.5" y2="1" gradientUnits="objectBoundingBox">
      <stop offset="0" stop-color="#fefefe"/>
      <stop offset="1" stop-color="#e4e4e4"/>
    </linearGradient>
  </defs>
  <g id="Group_11755" data-name="Group 11755" transform="translate(-862 -730)">
    <g id="Group_11347" data-name="Group 11347" transform="translate(862 730)">
      <rect id="Rectangle_13560" data-name="Rectangle 13560" width="795.326" height="0.398" transform="translate(0 520.853)" fill="#ebebeb"/>
      <rect id="Rectangle_13561" data-name="Rectangle 13561" width="52.686" height="0.398" transform="translate(662.951 546.456)" fill="#ebebeb"/>
      <rect id="Rectangle_13562" data-name="Rectangle 13562" width="13.828" height="0.398" transform="translate(513.029 550.773)" fill="#ebebeb"/>
      <rect id="Rectangle_13563" data-name="Rectangle 13563" width="30.528" height="0.398" transform="translate(630.83 531.685)" fill="#ebebeb"/>
      <rect id="Rectangle_13564" data-name="Rectangle 13564" width="68.705" height="0.398" transform="translate(83.444 534.357)" fill="#ebebeb"/>
      <rect id="Rectangle_13565" data-name="Rectangle 13565" width="10.074" height="0.398" transform="translate(166.312 534.357)" fill="#ebebeb"/>
      <rect id="Rectangle_13566" data-name="Rectangle 13566" width="149.006" height="0.398" transform="translate(209.124 541.073)" fill="#ebebeb"/>
      <path id="Path_32866" data-name="Path 32866" d="M354.44,449.911H47.286a9.09,9.09,0,0,1-9.079-9.079V9.079A9.091,9.091,0,0,1,47.286,0H354.44a9.09,9.09,0,0,1,9.078,9.079V440.832a9.089,9.089,0,0,1-9.078,9.079M47.286.4A8.691,8.691,0,0,0,38.6,9.079V440.832a8.691,8.691,0,0,0,8.682,8.682H354.44a8.691,8.691,0,0,0,8.68-8.682V9.079A8.691,8.691,0,0,0,354.44.4Z" transform="translate(22.567)" fill="#ebebeb"/>
      <path id="Path_32867" data-name="Path 32867" d="M570.736,449.911H263.583a9.088,9.088,0,0,1-9.078-9.079V9.079A9.089,9.089,0,0,1,263.583,0H570.736a9.091,9.091,0,0,1,9.079,9.079V440.832a9.09,9.09,0,0,1-9.079,9.079M263.583.4a8.69,8.69,0,0,0-8.68,8.682V440.832a8.69,8.69,0,0,0,8.68,8.682H570.736a8.692,8.692,0,0,0,8.682-8.682V9.079A8.692,8.692,0,0,0,570.736.4Z" transform="translate(150.324)" fill="#ebebeb"/>
      <rect id="Rectangle_13567" data-name="Rectangle 13567" width="219.162" height="143.52" transform="translate(460.798 45.936)" fill="#e6e6e6"/>
      <rect id="Rectangle_13568" data-name="Rectangle 13568" width="222.725" height="143.52" transform="translate(454.111 45.936)" fill="#f0f0f0" stroke="#707070" stroke-width="1"/>
      <rect id="Rectangle_13569" data-name="Rectangle 13569" width="219.162" height="28.167" transform="translate(460.798 189.456)" fill="#e6e6e6"/>
      <rect id="Rectangle_13570" data-name="Rectangle 13570" width="222.725" height="28.167" transform="translate(442.97 189.456)" fill="#f0f0f0"/>
      <rect id="Rectangle_13571" data-name="Rectangle 13571" width="203.999" height="124.796" transform="translate(463.473 55.299)" fill="#fafafa"/>
      <path id="Path_32868" data-name="Path 32868" d="M415.476,159.562l-26.057-124.8H348.76l26.056,124.8Z" transform="translate(205.996 20.534)" fill="#fff"/>
      <path id="Path_32869" data-name="Path 32869" d="M417.146,148.23a.669.669,0,0,0,.67-.668V38.842a.67.67,0,0,0-1.339,0V147.562a.669.669,0,0,0,.67.668" transform="translate(245.992 22.548)" fill="#f0f0f0"/>
      <path id="Path_32870" data-name="Path 32870" d="M375.212,159.562l-26.057-124.8H333.3l26.056,124.8Z" transform="translate(196.867 20.534)" fill="#fff"/>
      <rect id="Rectangle_13572" data-name="Rectangle 13572" width="1.188" height="124.796" transform="translate(463.473 55.299)" fill="#e6e6e6"/>
      <g id="Group_11283" data-name="Group 11283" transform="translate(451.896 58.938)">
        <g id="Group_11282" data-name="Group 11282" transform="translate(0 0)" clip-path="url(#clip-path)">
          <path id="Path_32871" data-name="Path 32871" d="M284.095,47.529H503.256l.862-10.476H284.957Z" transform="translate(-284.095 -37.053)" fill="#ebebeb"/>
        </g>
      </g>
      <g id="Group_11286" data-name="Group 11286" transform="translate(451.896 76.121)">
        <g id="Group_11285" data-name="Group 11285" transform="translate(0 0)" clip-path="url(#clip-path)">
          <path id="Path_32872" data-name="Path 32872" d="M284.095,58.331H503.256l.862-10.476H284.957Z" transform="translate(-284.095 -47.855)" fill="#ebebeb"/>
        </g>
      </g>
      <g id="Group_11289" data-name="Group 11289" transform="translate(451.896 93.303)">
        <g id="Group_11288" data-name="Group 11288" transform="translate(0 0)" clip-path="url(#clip-path)">
          <path id="Path_32873" data-name="Path 32873" d="M284.095,69.133H503.256l.862-10.476H284.957Z" transform="translate(-284.095 -58.657)" fill="#ebebeb"/>
        </g>
      </g>
      <g id="Group_11292" data-name="Group 11292" transform="translate(451.896 110.485)">
        <g id="Group_11291" data-name="Group 11291" transform="translate(0 0)" clip-path="url(#clip-path)">
          <path id="Path_32874" data-name="Path 32874" d="M284.095,79.935H503.256l.862-10.476H284.957Z" transform="translate(-284.095 -69.459)" fill="#ebebeb"/>
        </g>
      </g>
      <g id="Group_11295" data-name="Group 11295" transform="translate(451.896 127.667)">
        <g id="Group_11294" data-name="Group 11294" transform="translate(0 0)" clip-path="url(#clip-path)">
          <path id="Path_32875" data-name="Path 32875" d="M284.095,90.737H503.256l.862-10.476H284.957Z" transform="translate(-284.095 -80.261)" fill="#ebebeb"/>
        </g>
      </g>
      <g id="Group_11298" data-name="Group 11298" transform="translate(451.896 144.85)">
        <g id="Group_11297" data-name="Group 11297" transform="translate(0 0)" clip-path="url(#clip-path)">
          <path id="Path_32876" data-name="Path 32876" d="M284.095,101.539H503.256l.862-10.476H284.957Z" transform="translate(-284.095 -91.063)" fill="#ebebeb"/>
        </g>
      </g>
      <rect id="Rectangle_13579" data-name="Rectangle 13579" width="45.952" height="9.06" transform="translate(602.537 416.479)" fill="#e6e6e6"/>
      <rect id="Rectangle_13580" data-name="Rectangle 13580" width="8.483" height="208.479" transform="translate(515.859 312.374)" fill="#e6e6e6"/>
      <rect id="Rectangle_13581" data-name="Rectangle 13581" width="116.059" height="9.06" transform="translate(486.478 416.479)" fill="#f5f5f5" stroke="#707070" stroke-width="1"/>
      <rect id="Rectangle_13582" data-name="Rectangle 13582" width="45.952" height="9.06" transform="translate(602.537 466.053)" fill="#e6e6e6"/>
      <rect id="Rectangle_13583" data-name="Rectangle 13583" width="116.059" height="9.06" transform="translate(486.478 466.053)" fill="#f5f5f5" stroke="#707070" stroke-width="1"/>
      <rect id="Rectangle_13584" data-name="Rectangle 13584" width="45.952" height="9.06" transform="translate(602.537 317.327)" fill="#e6e6e6"/>
      <rect id="Rectangle_13585" data-name="Rectangle 13585" width="116.059" height="9.06" transform="translate(486.478 317.327)" fill="#f5f5f5" stroke="#707070" stroke-width="1"/>
      <rect id="Rectangle_13586" data-name="Rectangle 13586" width="45.952" height="9.06" transform="translate(602.537 366.903)" fill="#e6e6e6"/>
      <rect id="Rectangle_13587" data-name="Rectangle 13587" width="116.059" height="9.06" transform="translate(486.478 366.903)" fill="#f5f5f5" stroke="#707070" stroke-width="1"/>
      <rect id="Rectangle_13588" data-name="Rectangle 13588" width="8.483" height="208.479" transform="translate(631.921 312.374)" fill="#e6e6e6"/>
      <rect id="Rectangle_13589" data-name="Rectangle 13589" width="8.483" height="208.479" transform="translate(594.054 312.374)" fill="#f5f5f5" stroke="#707070" stroke-width="1"/>
      <rect id="Rectangle_13590" data-name="Rectangle 13590" width="8.483" height="208.479" transform="translate(486.478 312.374)" fill="#f5f5f5" stroke="#707070" stroke-width="1"/>
      <rect id="Rectangle_13591" data-name="Rectangle 13591" width="86.815" height="168.437" transform="translate(103.987 352.417)" fill="#e6e6e6"/>
      <path id="Path_32877" data-name="Path 32877" d="M88.556,336.081H65.374V312.829h47.489Z" transform="translate(38.613 184.773)" fill="#fafafa"/>
      <rect id="Rectangle_13592" data-name="Rectangle 13592" width="86.815" height="168.437" transform="translate(340.691 352.417)" fill="#e6e6e6"/>
      <rect id="Rectangle_13593" data-name="Rectangle 13593" width="256.936" height="160.435" transform="translate(103.987 352.415)" fill="#fafafa" stroke="#707070" stroke-width="1"/>
      <path id="Path_32878" data-name="Path 32878" d="M221.354,336.081h23.182V312.829H197.048Z" transform="translate(116.387 184.773)" fill="#fafafa"/>
      <rect id="Rectangle_13594" data-name="Rectangle 13594" width="220.969" height="40.15" transform="translate(121.971 412.198)" fill="#f0f0f0"/>
      <rect id="Rectangle_13595" data-name="Rectangle 13595" width="220.969" height="40.15" transform="translate(121.971 460.93)" fill="#f0f0f0"/>
      <path id="Path_32879" data-name="Path 32879" d="M105.787,264.722H242.755a7.28,7.28,0,0,0,7.28-7.279v-.491H98.508v.491a7.279,7.279,0,0,0,7.279,7.279" transform="translate(58.184 151.769)" fill="#fafafa"/>
      <rect id="Rectangle_13596" data-name="Rectangle 13596" width="220.969" height="40.15" transform="translate(121.971 363.469)" fill="#f0f0f0"/>
      <path id="Path_32880" data-name="Path 32880" d="M105.787,234.087H242.755a7.28,7.28,0,0,0,7.28-7.279v-.492H98.508v.492a7.279,7.279,0,0,0,7.279,7.279" transform="translate(58.184 133.674)" fill="#fafafa"/>
      <path id="Path_32881" data-name="Path 32881" d="M105.787,295.358H242.755a7.28,7.28,0,0,0,7.28-7.279v-.491H98.508v.491a7.279,7.279,0,0,0,7.279,7.279" transform="translate(58.184 169.864)" fill="#fafafa"/>
      <rect id="Rectangle_13597" data-name="Rectangle 13597" width="219.162" height="143.52" transform="translate(117.817 45.936)" fill="#e6e6e6"/>
      <rect id="Rectangle_13598" data-name="Rectangle 13598" width="222.725" height="143.52" transform="translate(111.13 45.936)" fill="#f0f0f0" stroke="#707070" stroke-width="1"/>
      <rect id="Rectangle_13599" data-name="Rectangle 13599" width="219.162" height="28.167" transform="translate(117.817 189.456)" fill="#e6e6e6"/>
      <rect id="Rectangle_13600" data-name="Rectangle 13600" width="222.723" height="28.167" transform="translate(99.99 189.456)" fill="#f0f0f0"/>
      <rect id="Rectangle_13601" data-name="Rectangle 13601" width="204.001" height="124.796" transform="translate(120.49 55.299)" fill="#fafafa"/>
      <path id="Path_32882" data-name="Path 32882" d="M199.853,159.562,173.8,34.765H133.138l26.056,124.8Z" transform="translate(78.638 20.534)" fill="#fff"/>
      <path id="Path_32883" data-name="Path 32883" d="M201.523,148.23a.668.668,0,0,0,.668-.668V38.842a.669.669,0,0,0-1.338,0V147.562a.669.669,0,0,0,.67.668" transform="translate(118.634 22.548)" fill="#f0f0f0"/>
      <path id="Path_32884" data-name="Path 32884" d="M159.589,159.562l-26.056-124.8H117.682l26.056,124.8Z" transform="translate(69.509 20.534)" fill="#fff"/>
      <rect id="Rectangle_13602" data-name="Rectangle 13602" width="1.188" height="124.796" transform="translate(120.492 55.299)" fill="#e6e6e6"/>
      <g id="Group_11301" data-name="Group 11301" transform="translate(108.916 58.938)">
        <g id="Group_11300" data-name="Group 11300" transform="translate(0 0)" clip-path="url(#clip-path-7)">
          <path id="Path_32885" data-name="Path 32885" d="M68.472,47.529H287.634l.861-10.476H69.334Z" transform="translate(-68.472 -37.053)" fill="#ebebeb"/>
        </g>
      </g>
      <g id="Group_11304" data-name="Group 11304" transform="translate(108.916 64.848)">
        <g id="Group_11303" data-name="Group 11303" transform="translate(0 0)" clip-path="url(#clip-path-7)">
          <path id="Path_32886" data-name="Path 32886" d="M68.472,51.244H287.634l.861-10.476H69.334Z" transform="translate(-68.472 -40.768)" fill="#ebebeb"/>
        </g>
      </g>
      <g id="Group_11307" data-name="Group 11307" transform="translate(108.916 70.759)">
        <g id="Group_11306" data-name="Group 11306" transform="translate(0 0)" clip-path="url(#clip-path-7)">
          <path id="Path_32887" data-name="Path 32887" d="M68.472,54.96H287.634l.861-10.476H69.334Z" transform="translate(-68.472 -44.484)" fill="#ebebeb"/>
        </g>
      </g>
      <g id="Group_11310" data-name="Group 11310" transform="translate(108.916 76.668)">
        <g id="Group_11309" data-name="Group 11309" transform="translate(0 0)" clip-path="url(#clip-path-7)">
          <path id="Path_32888" data-name="Path 32888" d="M68.472,58.675H287.634l.861-10.476H69.334Z" transform="translate(-68.472 -48.199)" fill="#ebebeb"/>
        </g>
      </g>
      <g id="Group_11313" data-name="Group 11313" transform="translate(108.916 82.577)">
        <g id="Group_11312" data-name="Group 11312" transform="translate(0 0)" clip-path="url(#clip-path-11)">
          <path id="Path_32889" data-name="Path 32889" d="M68.472,62.391H287.634l.861-10.476H69.334Z" transform="translate(-68.472 -51.914)" fill="#ebebeb"/>
        </g>
      </g>
      <g id="Group_11316" data-name="Group 11316" transform="translate(108.916 88.488)">
        <g id="Group_11315" data-name="Group 11315" transform="translate(0 0)" clip-path="url(#clip-path-7)">
          <path id="Path_32890" data-name="Path 32890" d="M68.472,66.106H287.634l.861-10.476H69.334Z" transform="translate(-68.472 -55.63)" fill="#ebebeb"/>
        </g>
      </g>
      <rect id="Rectangle_13609" data-name="Rectangle 13609" width="7.576" height="84.451" transform="translate(152.723 262.819)" fill="#f5f5f5"/>
      <rect id="Rectangle_13610" data-name="Rectangle 13610" width="2.141" height="84.451" transform="translate(153.7 262.76)" fill="#fafafa"/>
      <rect id="Rectangle_13611" data-name="Rectangle 13611" width="0.838" height="84.451" transform="translate(156.737 262.76)" fill="#fafafa"/>
      <path id="Path_32891" data-name="Path 32891" d="M80.763,224.179h56.093a7.067,7.067,0,0,0-7.067-7.067H87.83A7.067,7.067,0,0,0,80.763,224.179Z" transform="translate(47.703 128.238)" fill="#f0f0f0"/>
      <path id="Path_32892" data-name="Path 32892" d="M90.644,220.365h0a2.186,2.186,0,0,0,2.179-2.179V162.815a2.179,2.179,0,0,0-4.358,0v55.371a2.186,2.186,0,0,0,2.179,2.179" transform="translate(52.252 94.88)" fill="#f0f0f0"/>
      <path id="Path_32893" data-name="Path 32893" d="M77.074,195.447H144.9l-7.8-47.4H84.876Z" transform="translate(45.524 87.444)" fill="#e0e0e0"/>
      <rect id="Rectangle_13612" data-name="Rectangle 13612" width="1.59" height="29.41" transform="translate(164.028 234.588) rotate(-4.119)" fill="#407bff"/>
      <rect id="Rectangle_13613" data-name="Rectangle 13613" width="1.591" height="11.063" transform="translate(167.23 279.07) rotate(-4.123)" fill="#407bff"/>
      <path id="Path_32894" data-name="Path 32894" d="M476.009,356.924H135.358a15.346,15.346,0,0,1-15.017-14.009L103.6,110.473a12.9,12.9,0,0,1,13-14.007H457.253a15.346,15.346,0,0,1,15.017,14.007l16.738,232.442a12.9,12.9,0,0,1-13,14.009" transform="translate(61.172 56.978)" fill="#407bff"/>
      <path id="Path_32895" data-name="Path 32895" d="M476.83,356.924H136.179a15.346,15.346,0,0,1-15.017-14.009L104.425,110.473a12.9,12.9,0,0,1,13-14.007H458.074a15.346,15.346,0,0,1,15.017,14.007L489.83,342.915a12.9,12.9,0,0,1-13,14.009" transform="translate(61.657 56.978)" fill="#407bff"/>
      <g id="Group_11319" data-name="Group 11319" transform="translate(166.045 153.442)">
        <g id="Group_11318" data-name="Group 11318" transform="translate(0 0)" clip-path="url(#clip-path-13)">
          <path id="Path_32896" data-name="Path 32896" d="M476.83,356.924H136.179a15.346,15.346,0,0,1-15.017-14.009L104.425,110.473a12.9,12.9,0,0,1,13-14.007H458.074a15.346,15.346,0,0,1,15.017,14.007L489.83,342.915a12.9,12.9,0,0,1-13,14.009" transform="translate(-104.388 -96.464)" fill="url(#linear-gradient)"/>
        </g>
      </g>
      <path id="Path_32897" data-name="Path 32897" d="M456.092,100.869H115.441q-.577,0-1.141.046c-8.709.717-6.929,13.963,1.859,13.963H457.391c8.788,0,8.66-13.245-.151-13.963q-.57-.045-1.148-.046" transform="translate(64.144 59.578)" fill="url(#linear-gradient-2)"/>
      <path id="Path_32898" data-name="Path 32898" d="M120.866,106.465a2.948,2.948,0,0,1-2.981,3.212,3.507,3.507,0,0,1-3.442-3.212,2.949,2.949,0,0,1,2.981-3.212,3.507,3.507,0,0,1,3.442,3.212" transform="translate(67.591 60.987)" fill="#fafafa"/>
      <path id="Path_32899" data-name="Path 32899" d="M127.734,106.465a2.948,2.948,0,0,1-2.981,3.212,3.507,3.507,0,0,1-3.442-3.212,2.948,2.948,0,0,1,2.981-3.212,3.507,3.507,0,0,1,3.442,3.212" transform="translate(71.648 60.987)" fill="#fafafa"/>
      <path id="Path_32900" data-name="Path 32900" d="M134.6,106.465a2.949,2.949,0,0,1-2.981,3.212,3.507,3.507,0,0,1-3.442-3.212,2.949,2.949,0,0,1,2.981-3.212,3.507,3.507,0,0,1,3.442,3.212" transform="translate(75.704 60.987)" fill="#fafafa"/>
      <path id="Path_32917" data-name="Path 32917" d="M353.688,142.173c1.422-.713,3.116-1.634,4.683-2.494,1.6-.876,3.183-1.791,4.747-2.742,3.116-1.918,6.256-3.814,9.239-5.92a122.664,122.664,0,0,0,16.723-13.764c.663-.608,1.23-1.282,1.844-1.923l.907-.975.455-.485.227-.245c.059-.064.046-.049.018-.013l-.051.078c-.227.423-.038.3.049-.115a8.685,8.685,0,0,0,.224-1.735,47.742,47.742,0,0,0-1.16-10.05c-1.416-7.136-3.56-14.472-5.68-21.661l6.181-2.71a130.386,130.386,0,0,1,9.722,21.63,50.682,50.682,0,0,1,2.734,12.555,19.436,19.436,0,0,1-.132,3.994,12.1,12.1,0,0,1-1.945,5.222l-.264.367-.205.267-.245.3-.49.595-.983,1.193c-.663.784-1.292,1.615-2,2.349a113.172,113.172,0,0,1-18.1,16.148c-3.24,2.368-6.553,4.618-9.994,6.665q-2.57,1.556-5.213,3c-1.786.994-3.485,1.858-5.515,2.809Z" transform="translate(208.906 45.727)" fill="#ffb573"/>
      <path id="Path_32918" data-name="Path 32918" d="M345.941,354.48a16.161,16.161,0,0,0,3.517-.477.315.315,0,0,0,.1-.569c-.456-.3-4.5-2.912-6.052-2.211a1.076,1.076,0,0,0-.628.888,1.794,1.794,0,0,0,.523,1.677,3.811,3.811,0,0,0,2.539.694m2.625-.927c-2.319.463-4.064.383-4.739-.232a1.191,1.191,0,0,1-.323-1.123.448.448,0,0,1,.262-.4c.818-.369,3.15.757,4.8,1.754" transform="translate(202.506 207.38)" fill="url(#linear-gradient-7)"/>
      <path id="Path_32919" data-name="Path 32919" d="M348.287,355.171a.3.3,0,0,0,.159-.043.313.313,0,0,0,.157-.272c0-.162-.019-4-1.467-5.281a1.639,1.639,0,0,0-1.336-.422,1.1,1.1,0,0,0-1.063.88c-.3,1.5,2.122,4.376,3.393,5.1a.32.32,0,0,0,.156.04m-2.267-5.4a1.019,1.019,0,0,1,.7.277c.864.765,1.161,2.919,1.234,4.2-1.268-1.012-2.779-3.172-2.6-4.086.03-.15.116-.329.52-.377a1.108,1.108,0,0,1,.143-.01" transform="translate(203.605 206.22)" fill="url(#linear-gradient-7)"/>
      <path id="Path_32920" data-name="Path 32920" d="M355.9,93.114c-1.549,7.906-4.816,23.919.716,29.195,0,0-2.162,8.02-16.853,8.02-16.153,0-7.719-8.02-7.719-8.02,8.817-2.1,8.59-8.645,7.053-14.788Z" transform="translate(194.821 54.998)" fill="#ffb573"/>
      <path id="Path_32921" data-name="Path 32921" d="M329.725,116.819c-2.535.344-.379-6.226.652-6.905,2.38-1.573,33.167-3.8,32.966-.065-.127,1.608-.883,4.746-2.228,5.812s-9.256-2.155-31.39,1.158" transform="translate(194.051 63.675)" fill="#263238"/>
      <path id="Path_32922" data-name="Path 32922" d="M333.036,116.7c-2.014.681-1.823-5.938-1.137-6.735,1.588-1.842,26.507-8.244,27.248-4.621.285,1.564.422,4.688-.434,5.9s-8.176-.794-25.676,5.456" transform="translate(195.755 61.579)" fill="#263238"/>
      <path id="Path_32923" data-name="Path 32923" d="M328.595,85.437a.629.629,0,0,1-.526-.231,5.025,5.025,0,0,0-4.12-1.953A.631.631,0,0,1,323.812,82a6.26,6.26,0,0,1,5.233,2.41.631.631,0,0,1-.45,1.029" transform="translate(190.928 48.424)" fill="#263238"/>
      <path id="Path_32924" data-name="Path 32924" d="M325.839,89.049s-1.362,4.783-3.142,7.2c1.541,1.179,3.883.34,3.883.34Z" transform="translate(190.602 52.597)" fill="#ff5652"/>
      <path id="Path_32925" data-name="Path 32925" d="M326.106,88.508c.1,1.069-.377,1.991-1.075,2.061s-1.352-.743-1.457-1.813.377-1.992,1.075-2.06,1.352.743,1.457,1.812" transform="translate(191.111 51.205)" fill="#263238"/>
      <path id="Path_32926" data-name="Path 32926" d="M325.424,86.894l-2.642-.488s1.516,1.877,2.642.488" transform="translate(190.652 51.036)" fill="#263238"/>
      <path id="Path_32927" data-name="Path 32927" d="M361.648,364.19H348.324l1.045-30.855h13.323Z" transform="translate(205.738 196.885)" fill="#ffb573"/>
      <path id="Path_32928" data-name="Path 32928" d="M354.781,351.763h14.968a1.055,1.055,0,0,1,1.064.91l1.705,11.844a2.14,2.14,0,0,1-2.136,2.368c-5.219-.089-7.734-.4-14.316-.4-4.05,0-9.967.422-15.56.422-5.469,0-5.89-5.531-3.561-6.032,10.443-2.246,12.091-5.343,15.609-8.3a3.479,3.479,0,0,1,2.227-.819" transform="translate(198.226 207.769)" fill="#263238"/>
      <g id="Group_11322" data-name="Group 11322" transform="translate(554.573 530.229)">
        <g id="Group_11321" data-name="Group 11321" transform="translate(0 0)" clip-path="url(#clip-path-14)">
          <path id="Path_32929" data-name="Path 32929" d="M362.506,333.341h-13.33l-.531,15.9h13.328Z" transform="translate(-348.645 -333.341)"/>
        </g>
      </g>
      <path id="Path_32930" data-name="Path 32930" d="M344.615,147.906a261.105,261.105,0,0,1-23.941-10.743,144.284,144.284,0,0,1-22.912-13.956,52.478,52.478,0,0,1-5.443-4.883c-.442-.477-.888-.919-1.323-1.467a20.773,20.773,0,0,1-1.4-1.8,12.694,12.694,0,0,1-2.131-5.741,12.969,12.969,0,0,1,.781-5.758,17.529,17.529,0,0,1,2.238-4.148,29.68,29.68,0,0,1,5.392-5.6A66.58,66.58,0,0,1,307.5,86.39c1.972-1.048,3.981-1.991,6.019-2.86s4.043-1.7,6.211-2.45l2.825,6.129c-6.938,4.373-14.125,9.178-19.409,14.569a21.859,21.859,0,0,0-3.113,3.961c-.757,1.252-.748,2.19-.619,2.117.065,0,.04-.029.226.156l.632.679c.239.283.574.576.876.867a40.529,40.529,0,0,0,4.292,3.45,102.311,102.311,0,0,0,10.234,6.315c3.585,1.991,7.274,3.9,11.031,5.7,7.5,3.59,15.267,7.045,22.891,10.2Z" transform="translate(169.76 47.89)" fill="#ffb573"/>
      <path id="Path_32931" data-name="Path 32931" d="M315.324,85.266l2.2-4.778-10.015-3.477s-3.119,9.388.6,13.721a9.609,9.609,0,0,0,7.212-5.465" transform="translate(180.91 45.487)" fill="#ffb573"/>
      <path id="Path_32932" data-name="Path 32932" d="M317.073,73.56l-8.006-2.308-2.009,9.161,10.015,3.477Z" transform="translate(181.365 42.085)" fill="#ffb573"/>
      <path id="Path_32933" data-name="Path 32933" d="M381.749,83.635l1.168-11.166L372.6,74.895s-.153,10.466,5.308,12.135Z" transform="translate(220.074 42.804)" fill="#ffb573"/>
      <path id="Path_32934" data-name="Path 32934" d="M378.455,67.555l-6.724,3.14,1.374,7.1,10.32-2.426Z" transform="translate(219.563 39.901)" fill="#ffb573"/>
      <path id="Path_32935" data-name="Path 32935" d="M361.331,89.847c.485,13.214.973,18.8-5,26.192-8.981,11.122-25.318,8.828-29.742-3.975-3.983-11.523-4.107-31.2,8.236-37.689a18.035,18.035,0,0,1,26.5,15.472" transform="translate(191.484 42.658)" fill="#ffb573"/>
      <path id="Path_32936" data-name="Path 32936" d="M356.043,119.525c12.972-5.605,21.5-17.426,17.9-35.907-3.447-17.682-15.383-19.43-20.314-15.76s-17.222-1.8-24.6,4.408c-12.779,10.754-.7,22.349,5.6,29.219,3.759,7.727,8.683,23.542,21.413,18.041" transform="translate(191.016 39.147)" fill="#263238"/>
      <path id="Path_32937" data-name="Path 32937" d="M341.5,83.048c4.377,6.339,12.773,8.128,18.754,4s7.28-12.615,2.9-18.954-12.773-8.128-18.754-4-7.28,12.615-2.9,18.954" transform="translate(200.175 36.544)" fill="url(#linear-gradient-7)"/>
      <path id="Path_32938" data-name="Path 32938" d="M342.735,73.959c-1.872-10.653,8.209-18.868,21.69-14.9s6.35,15.921,3.585,25.465,4.49,18.633,7.522,11.365-2.065-9.512-2.065-9.512,14.314,3.711,1.016,19.848-25.334-1.681-22.08-12.2c2.631-8.5-7.9-10-9.67-20.071" transform="translate(202.305 34.284)" fill="#263238"/>
      <path id="Path_32939" data-name="Path 32939" d="M343.255,71.649c-6.154-3.21-16.576-5.806-22.508,4.172-2.8,4.719-1.718,11.117-1.718,11.117l18.116,1.206Z" transform="translate(188.313 40.62)" fill="#263238"/>
      <path id="Path_32940" data-name="Path 32940" d="M317.76,84.077h-.025a.4.4,0,0,1-.372-.422c.017-.272.455-6.671,4.317-10.684,9.336-9.7,20.281-1.654,23.413,1.043a.4.4,0,0,1-.519.6c-3-2.582-13.47-10.292-22.32-1.094-3.659,3.8-4.093,10.118-4.1,10.182a.4.4,0,0,1-.4.372" transform="translate(187.45 40.352)" fill="#263238"/>
      <path id="Path_32941" data-name="Path 32941" d="M334.865,89.505a11.026,11.026,0,0,1-2.634,6.8c-2.2,2.57-4.716,1.3-5.3-1.546-.52-2.566,0-6.994,2.774-8.547,2.737-1.53,5.178.347,5.157,3.289" transform="translate(192.998 50.601)" fill="#ffb573"/>
      <path id="Path_32942" data-name="Path 32942" d="M330.053,164.169s.849,92.487,8.873,144.026c6.48,41.627,18.472,137.892,18.472,137.892h18.17s1.775-92.934-1.514-134.1C365.73,207.8,387.21,188.32,369.877,164.169Z" transform="translate(194.946 96.967)" fill="#263238"/>
      <g id="Group_11325" data-name="Group 11325" transform="translate(524.999 261.136)">
        <g id="Group_11324" data-name="Group 11324" transform="translate(0 0)" clip-path="url(#clip-path-15)">
          <path id="Path_32943" data-name="Path 32943" d="M330.053,164.169s.849,92.487,8.873,144.026c6.48,41.627,18.472,137.892,18.472,137.892h18.17s1.775-92.934-1.514-134.1C365.73,207.8,387.21,188.32,369.877,164.169Z" transform="translate(-330.053 -164.169)" fill="#e8ecee"/>
        </g>
      </g>
      <g id="Group_11328" data-name="Group 11328" transform="translate(525.881 295.217)">
        <g id="Group_11327" data-name="Group 11327" transform="translate(0 0)" clip-path="url(#clip-path-16)">
          <path id="Path_32944" data-name="Path 32944" d="M339.276,193.473c6.378,27.916,1.288,71.882-2.2,91.24-3.69-29.4-5.551-67.491-6.474-95.407,3.293-5.345,6.41-5.695,8.669,4.168" transform="translate(-330.607 -185.595)"/>
        </g>
      </g>
      <path id="Path_32945" data-name="Path 32945" d="M345.731,344.952h23.142l1.215-8.119L345.6,336Z" transform="translate(204.128 198.462)" fill="url(#linear-gradient-7)"/>
      <path id="Path_32946" data-name="Path 32946" d="M350.485,117.7c2.176-4.328,13.878-7.051,20.274-7.042l4.788,21.259S362.8,150.834,357.5,148.828c-6.261-2.365-11.683-21.851-7.02-31.124" transform="translate(205.978 65.363)" fill="#407bff"/>
      <path id="Union_1" data-name="Union 1" d="M17.6,90.359c-3.912-24.054-6.019-40.92-7.062-52.742A94.494,94.494,0,0,1,0,25.081L3.353,0c5.662,1.285,15.5,4.347,20.909,7.689,3.052-.449,6.336-.871,9.494-1.159,3.357-.306,6.62-.432,9.948-.444h1.012c4.288.014,8.711.208,13.612.444,4.2.2,8.363.654,11.966,1.147A43.949,43.949,0,0,1,83.336,5.25h.293l4.787,21.258S80.458,38.316,74.5,42.282c-3.634,21.2-3.433,32.538-2.792,48.077Z" transform="translate(493.108 170.777)" stroke="rgba(0,0,0,0)" stroke-miterlimit="10" stroke-width="1" fill="url(#linear-gradient-2)"/>
      <path id="Path_32948" data-name="Path 32948" d="M344.237,338.539a.315.315,0,0,0,.011-.313.319.319,0,0,0-.326-.164c-.67.1-6.557,1.036-7.354,2.717a1.016,1.016,0,0,0,.062.994,1.75,1.75,0,0,0,1.365.907c1.929.2,4.716-2.478,6.205-4.091a.26.26,0,0,0,.037-.049m-7.062,2.445c.544-.892,3.589-1.715,5.913-2.143-2.1,2.135-3.946,3.323-5.026,3.21a1.133,1.133,0,0,1-.889-.6.394.394,0,0,1-.032-.4.628.628,0,0,1,.035-.064" transform="translate(198.735 199.675)" fill="url(#linear-gradient-7)"/>
      <path id="Path_32949" data-name="Path 32949" d="M343.929,339.606a.29.29,0,0,0,.029-.064.313.313,0,0,0-.059-.307c-.1-.116-2.459-2.835-4.634-2.976a2.285,2.285,0,0,0-1.734.587c-.654.587-.6,1.1-.434,1.419.69,1.365,4.921,1.84,6.627,1.486a.321.321,0,0,0,.205-.145m-6.227-2a1.322,1.322,0,0,1,.251-.286,1.647,1.647,0,0,1,1.271-.428c1.43.094,3.053,1.572,3.791,2.324-1.885.159-4.939-.414-5.354-1.233a.353.353,0,0,1,.041-.377" transform="translate(199.044 198.608)" fill="url(#linear-gradient-7)"/>
      <path id="Path_32950" data-name="Path 32950" d="M359.568,345.147l-12.186,5.413-5.43-11.3-7.1-14.8-.832-1.721,12.172-5.421.942,1.936,6.88,14.332Z" transform="translate(197.292 187.424)" fill="#ffb573"/>
      <g id="Group_11334" data-name="Group 11334" transform="translate(532.148 506.677)">
        <g id="Group_11333" data-name="Group 11333" transform="translate(0 0)" clip-path="url(#clip-path-17)">
          <path id="Path_32951" data-name="Path 32951" d="M353.708,332.866l-12.065,5.674-7.1-14.8,12.281-5.2Z" transform="translate(-334.547 -318.534)"/>
        </g>
      </g>
      <path id="Path_32952" data-name="Path 32952" d="M332.28,164.169S293.35,260.936,303.9,306.5c9.536,41.182,51.7,119.173,51.7,119.173l16.3-8.184s-26.069-94.147-28.9-114.6c-5.5-39.8,29.866-95.97,29.866-138.724Z" transform="translate(178.429 96.967)" fill="#263238"/>
      <g id="Group_11337" data-name="Group 11337" transform="translate(480.518 261.136)">
        <g id="Group_11336" data-name="Group 11336" transform="translate(0 0)" clip-path="url(#clip-path-18)">
          <path id="Path_32953" data-name="Path 32953" d="M332.28,164.169S293.35,260.936,303.9,306.5c9.536,41.182,51.7,119.173,51.7,119.173l16.3-8.184s-26.069-94.147-28.9-114.6c-5.5-39.8,29.866-95.97,29.866-138.724Z" transform="translate(-302.089 -164.169)" fill="#e8ecee"/>
        </g>
      </g>
      <path id="Path_32954" data-name="Path 32954" d="M345.3,340.5l12.1-8.809a1.059,1.059,0,0,1,1.4.11l8.348,8.572a2.142,2.142,0,0,1-.332,3.173c-4.272,3-6.487,4.231-11.809,8.1-3.274,2.383-9.8,7.653-14.321,10.944-4.422,3.218-8.017-1.005-6.429-2.78,7.121-7.96,8.621-12.883,9.727-17.341A3.479,3.479,0,0,1,345.3,340.5" transform="translate(197.201 195.789)" fill="#263238"/>
      <path id="Path_32955" data-name="Path 32955" d="M336.63,337.5l21.044-9.625-2.7-8.577-22.536,10.28Z" transform="translate(196.355 188.594)" fill="url(#linear-gradient-7)"/>
      <path id="Union_2" data-name="Union 2" d="M17.6,90.359C13.689,66.3,11.582,49.44,10.538,37.618A94.47,94.47,0,0,1,0,25.081L3.353,0c5.662,1.285,15.5,4.347,20.908,7.688,3.052-.449,6.337-.871,9.495-1.159,8.005-.73,15.465-.439,24.572,0a159.7,159.7,0,0,1,22.98,3.028c-10.528,45.2-10.5,58.777-9.594,80.8Z" transform="translate(493.108 170.777)" stroke="rgba(0,0,0,0)" stroke-miterlimit="10" stroke-width="1" fill="url(#linear-gradient-2)"/>
      <path id="Path_32960" data-name="Path 32960" d="M376.616,162.324l2.44,4.844c.189.375-.256.759-.881.759h-56.75c-.487,0-.891-.239-.923-.546l-.488-4.844c-.033-.336.39-.619.923-.619h54.8a.983.983,0,0,1,.881.406" transform="translate(189.016 95.637)" fill="#407bff"/>
      <g id="Group_11346" data-name="Group 11346" transform="translate(509.029 257.555)">
        <g id="Group_11345" data-name="Group 11345" transform="translate(0 0)" clip-path="url(#clip-path-19)">
          <path id="Path_32961" data-name="Path 32961" d="M376.616,162.324l2.44,4.844c.189.375-.256.759-.881.759h-56.75c-.487,0-.891-.239-.923-.546l-.488-4.844c-.033-.336.39-.619.923-.619h54.8a.983.983,0,0,1,.881.406" transform="translate(-320.013 -161.918)" fill="#fff"/>
        </g>
      </g>
      <path id="Path_32962" data-name="Path 32962" d="M351.438,168.61h1.468c.291,0,.514-.151.495-.334l-.689-6.294c-.021-.185-.275-.334-.568-.334h-1.468c-.293,0-.514.15-.495.334l.689,6.294c.021.183.275.334.568.334" transform="translate(206.835 95.478)" fill="#263238"/>
      <path id="Path_32963" data-name="Path 32963" d="M329.075,168.61h1.467c.293,0,.514-.151.495-.334l-.687-6.294c-.021-.185-.275-.334-.569-.334h-1.467c-.294,0-.515.15-.495.334l.687,6.294c.021.183.275.334.569.334" transform="translate(193.626 95.478)" fill="#263238"/>
      <rect id="Rectangle_13624" data-name="Rectangle 13624" width="795.326" height="592.691" fill="none"/>
      <rect id="Rectangle_13625" data-name="Rectangle 13625" width="795.326" height="592.691" fill="none"/>
    </g>
    <path id="Path_33187" data-name="Path 33187" d="M635.444,251.569H504.056a6.633,6.633,0,0,1-6.634-6.634V168.549a6.633,6.633,0,0,1,6.634-6.634H635.444a6.633,6.633,0,0,1,6.633,6.634v76.387a6.633,6.633,0,0,1-6.633,6.634" transform="translate(708.286 801.204)" fill="#e0e0e0" opacity="0.14"/>
    <path id="Path_33188" data-name="Path 33188" d="M592.168,214.474a11.019,11.019,0,1,1-11.019-11.019,11.02,11.02,0,0,1,11.019,11.019" transform="translate(696.888 794.691)" fill="#ebebeb"/>
    <path id="Path_33189" data-name="Path 33189" d="M580.048,219.06v-6.5a.414.414,0,0,1,.617-.36l5.811,3.276a.413.413,0,0,1,0,.722l-5.811,3.226a.414.414,0,0,1-.615-.362" transform="translate(695.332 793.329)" fill="#fff"/>
    <path id="Path_33190" data-name="Path 33190" d="M507.016,255.79v.233h-1.089v-.184l.587-.558c.143-.137.169-.223.169-.305,0-.135-.094-.213-.275-.213a.416.416,0,0,0-.346.154l-.192-.148a.681.681,0,0,1,.562-.245c.321,0,.528.162.528.424a.59.59,0,0,1-.245.466l-.4.376Z" transform="translate(706.963 786.684)" fill="#fff"/>
    <path id="Path_33191" data-name="Path 33191" d="M507.4,255.123a.173.173,0,1,1,.346,0,.173.173,0,1,1-.346,0m0,.8a.173.173,0,1,1,.346,0,.173.173,0,1,1-.346,0" transform="translate(706.721 786.618)" fill="#fff"/>
    <path id="Path_33192" data-name="Path 33192" d="M508.52,254.548v1.478h-.274v-1.248h-.313v-.23Z" transform="translate(706.639 786.68)" fill="#fff"/>
    <path id="Path_33193" data-name="Path 33193" d="M510.289,255.69h-.261v.336h-.266v-.336h-.811v-.19l.728-.953h.294l-.686.91h.484v-.3h.258v.3h.261Z" transform="translate(706.479 786.681)" fill="#fff"/>
    <rect id="Rectangle_13807" data-name="Rectangle 13807" width="112.032" height="0.593" transform="translate(1219.179 1041.74)" fill="#fff"/>
    <rect id="Rectangle_13808" data-name="Rectangle 13808" width="35.011" height="1.582" transform="translate(1219.095 1041.12)" fill="#ebebeb"/>
    <path id="Path_33194" data-name="Path 33194" d="M555.524,255.189a1.7,1.7,0,1,1-1.7-1.7,1.7,1.7,0,0,1,1.7,1.7" transform="translate(699.712 786.847)" fill="#ebebeb"/>
    <path id="Path_33195" data-name="Path 33195" d="M649.387,255.293a.492.492,0,0,1-.54.479c-.4,0-.64-.26-.64-.734a.7.7,0,0,1,.724-.785.736.736,0,0,1,.388.094l-.1.207a.5.5,0,0,0-.281-.072c-.279,0-.453.173-.453.508v0a.5.5,0,0,1,.394-.153.461.461,0,0,1,.509.454m-.266.013c0-.154-.116-.251-.3-.251a.269.269,0,0,0-.3.254c0,.139.109.249.306.249a.257.257,0,0,0,.29-.251" transform="translate(684.646 786.727)" fill="#fff"/>
    <path id="Path_33196" data-name="Path 33196" d="M649.763,254.852a.173.173,0,1,1,.174.175.172.172,0,0,1-.174-.175m0,.8a.173.173,0,1,1,.347,0,.173.173,0,1,1-.347,0" transform="translate(684.403 786.66)" fill="#fff"/>
    <path id="Path_33197" data-name="Path 33197" d="M650.383,255.012c0-.486.266-.76.617-.76s.619.274.619.76-.266.76-.619.76-.617-.274-.617-.76m.96,0c0-.357-.14-.521-.342-.521s-.34.164-.34.521.139.521.34.521.342-.164.342-.521" transform="translate(684.305 786.727)" fill="#fff"/>
    <path id="Path_33198" data-name="Path 33198" d="M652.065,255.012c0-.486.266-.76.617-.76s.619.274.619.76-.266.76-.619.76-.617-.274-.617-.76m.96,0c0-.357-.14-.521-.342-.521s-.34.164-.34.521.139.521.34.521.342-.164.342-.521" transform="translate(684.042 786.727)" fill="#fff"/>
    <path id="Path_33199" data-name="Path 33199" d="M656.3,254.764H655.7V253.25h1.51v.593H656.3Z" transform="translate(683.472 786.884)" fill="#fff"/>
    <path id="Path_33200" data-name="Path 33200" d="M657.215,257.092H655.7v-1.511h.593v.917h.921Z" transform="translate(683.471 786.518)" fill="#fff"/>
    <path id="Path_33201" data-name="Path 33201" d="M660.046,257.092h-1.511V256.5h.918v-.92h.593Z" transform="translate(683.027 786.519)" fill="#fff"/>
    <path id="Path_33202" data-name="Path 33202" d="M660.047,254.76h-.594v-.917h-.92v-.594h1.514Z" transform="translate(683.028 786.884)" fill="#fff"/>
    <path id="Path_33203" data-name="Path 33203" d="M637.635,172.219a23.58,23.58,0,0,1,3.047-.166l.164,0,0,.17c.012,1.155.025,2.461.04,3.871l0,.5-.355-.355-.406-.406-1.033-1.038.278.008-1.621,1.424-.307.27.006-.4c.018-1.2.058-2.19.092-2.862a4.7,4.7,0,0,1,.089-1.009,7.852,7.852,0,0,1,.089,1.124c.034.685.074,1.628.092,2.747l-.3-.134,1.592-1.458.14-.129.138.137,1.038,1.033.406.406-.351.146c.015-1.41.028-2.716.04-3.871l.166.165a29.682,29.682,0,0,1-3.047-.165" transform="translate(686.333 799.615)" fill="#fff"/>
    <path id="Path_33204" data-name="Path 33204" d="M650.05,172.783a10.658,10.658,0,0,1-.738.942c-.5.62-1.249,1.546-2.163,2.577l-.341.384,0-.516c0-.605-.006-1.251-.009-1.919v-.188l.063.148-1.35-1.315-.352-.342.488.007c1.338.019,2.488.089,3.255.135a10.044,10.044,0,0,1,1.148.087c-.04.018-.541.034-1.331.072s-1.846.094-3.074.1l.137-.336,1.364,1.3.063.06v.277c0,.669-.006,1.314-.009,1.919l-.342-.132c.855-.935,1.63-1.7,2.211-2.285s.941-.952.982-.971" transform="translate(685.124 799.535)" fill="#fff"/>
    <path id="Path_33205" data-name="Path 33205" d="M650.392,172.819c.044.105-.6.476-1.444.831s-1.56.555-1.6.449.6-.476,1.445-.829a3.519,3.519,0,0,1,1.6-.451" transform="translate(684.781 799.498)" fill="#fff"/>
    <path id="Path_33206" data-name="Path 33206" d="M657,172.244c0-.021.193-.069.546-.01a2.148,2.148,0,0,1,1.284.774,2.291,2.291,0,0,1,.374,2.193,2.336,2.336,0,0,1-4.41,0,2.29,2.29,0,0,1,.374-2.193,2.145,2.145,0,0,1,1.284-.774c.353-.059.548-.011.546.01s-.191.044-.508.145a2.163,2.163,0,0,0-1.092.8,2.023,2.023,0,0,0-.249,1.888,1.974,1.974,0,0,0,3.7,0,2.023,2.023,0,0,0-.249-1.888,2.163,2.163,0,0,0-1.092-.8c-.316-.1-.509-.11-.508-.145" transform="translate(683.633 799.59)" fill="#fff"/>
    <path id="Path_33207" data-name="Path 33207" d="M658.1,175.483c-.08.08-.556-.266-1.065-.773l-.06-.061v-.1c0-.724.092-1.312.206-1.312s.206.588.206,1.312v.013l-.06-.146c.508.509.853.985.773,1.065" transform="translate(683.272 799.428)" fill="#fff"/>
    <path id="Path_33208" data-name="Path 33208" d="M582.952,175.694c0,.114-14.867.206-33.2.206s-33.2-.092-33.2-.206,14.863-.206,33.2-.206,33.2.092,33.2.206" transform="translate(705.289 799.076)" fill="#fff"/>
    <path id="Path_33209" data-name="Path 33209" d="M511.855,175.245a2.619,2.619,0,1,1-2.618-2.618,2.618,2.618,0,0,1,2.618,2.618" transform="translate(706.846 799.524)" fill="#fff"/>
    <path id="Path_33213" data-name="Path 33213" d="M512.029,312.224s-.01-.417-.015-1.219S512,309.01,512,307.451c-.008-3.128-.021-7.735-.037-13.688-.019-11.9-.047-29.165-.082-50.684l.15.151c-46.012.016-112.232.041-185.712.069H326.3l.22-.22c0,24.135-.006,47.486-.008,69.145l-.212-.212,133.066.1,38.695.059,10.363.026c1.176.007,2.072.011,2.681.013s.919.014.919.014-.3.009-.893.014l-2.656.013-10.319.027-38.646.059-133.21.1h-.211v-.212c0-21.659-.006-45.009-.008-69.145v-.22h.232l185.712.071h.15v.149c-.035,21.558-.062,38.856-.082,50.774-.016,5.939-.029,10.534-.037,13.654-.007,1.547-.012,2.728-.016,3.528s-.015,1.188-.015,1.188" transform="translate(735.149 788.513)" fill="#fff"/>
    <path id="Path_33214" data-name="Path 33214" d="M0,0H46.656V50.292H0Z" transform="matrix(0.161, -0.987, 0.987, 0.161, 1044.782, 960.771)" fill="#f5f5f5" opacity="0.15"/>
    <path id="Path_33215" data-name="Path 33215" d="M53.792,333.726a3.473,3.473,0,1,0,3.012,4.008,3.547,3.547,0,0,0-3.012-4.008" transform="translate(1026.84 596.283)" fill="#e0e0e0"/>
    <path id="Path_33216" data-name="Path 33216" d="M55.117,323.3,13.19,316.416c.054-.043-.522.359-.279.194l0,.01,0,.02-.007.041-.013.082-.027.165-.054.328-.107.656-.214,1.307q-.214,1.306-.425,2.6-.422,2.587-.837,5.126-.826,5.076-1.615,9.923c-1.046,6.45-2.035,12.548-2.945,18.157l-.033.2.206.033,30.47,4.877,8.514,1.338,2.232.342.568.081a1.1,1.1,0,0,0,.185.019,1.549,1.549,0,0,0-.2-.045l-.586-.107-2.265-.394-8.544-1.449-9.363-1.563,20.975,3.428a1,1,0,0,0-.012.13.786.786,0,0,0,.039-.165c.024-.132.056-.3.1-.514q.125-.72.356-2.031c.308-1.813.756-4.436,1.323-7.767l4.669-27.909.033-.194ZM41.386,343.536l-8.138,6.927-8.755-16.98L7.155,354.61c.9-5.474,1.879-11.4,2.91-17.666q.794-4.838,1.628-9.921.416-2.537.839-5.126l.425-2.6.214-1.307.107-.656.054-.328.016-.1,41.5,6.75c-1.823,11.419-3.341,20.933-4.409,27.624-.526,3.357-.94,6-1.226,7.828q-.2,1.339-.315,2.076c-.032.224-.056.4-.077.539,0,.02,0,.029-.005.045Z" transform="translate(1042.384 602.525)" fill="#e0e0e0"/>
    <path id="Path_33217" data-name="Path 33217" d="M0,0H134.621V76.5H0Z" transform="translate(1104.731 913.991)" opacity="0.19" fill="url(#linear-gradient-16)"/>
    <path id="Path_33218" data-name="Path 33218" d="M228.434,385.068s-.009-.47-.013-1.373-.008-2.245-.014-4c-.008-3.508-.018-8.668-.033-15.3-.016-13.245-.039-32.354-.068-55.833l.128.128-134.611.038h-.01l.167-.166c0,27.062-.008,52.933-.011,76.5l-.155-.155,96.843.075,27.8.042,7.407.019,1.913.01c.43,0,.654.009.654.009s-.211.006-.636.01l-1.895.009-7.376.019-27.769.042-96.946.075h-.155v-.155c0-23.565-.008-49.436-.011-76.5V308.4h.176l134.611.038h.128v.128c-.029,23.512-.052,42.648-.068,55.912-.014,6.616-.025,11.766-.033,15.267-.006,1.742-.011,3.073-.014,3.973s-.013,1.346-.013,1.346" transform="translate(1010.917 605.421)" fill="#263238"/>
    <path id="Path_33219" data-name="Path 33219" d="M156.321,328.119c0,.092-9.148.167-20.429.167s-20.43-.075-20.43-.167,9.146-.166,20.43-.166,20.429.074,20.429.166" transform="translate(1003.029 598.352)" fill="#ebebeb"/>
    <path id="Path_33220" data-name="Path 33220" d="M189.82,339.6c0,.092-9.148.166-20.429.166s-20.431-.074-20.431-.166,9.146-.166,20.431-.166,20.429.074,20.429.166" transform="translate(990.917 594.199)" fill="#ebebeb"/>
    <path id="Path_33221" data-name="Path 33221" d="M259.526,328.119c0,.092-9.147.167-20.429.167s-20.431-.075-20.431-.167,9.146-.166,20.431-.166,20.429.074,20.429.166" transform="translate(965.71 598.352)" fill="#ebebeb"/>
    <path id="Path_33222" data-name="Path 33222" d="M200.408,328.11a45.928,45.928,0,0,1-5.516.166,45.919,45.919,0,0,1-5.516-.166,45.9,45.9,0,0,1,5.516-.166,45.9,45.9,0,0,1,5.516.166" transform="translate(976.301 598.355)" fill="#ebebeb"/>
    <path id="Path_33223" data-name="Path 33223" d="M128.371,339.6a45.911,45.911,0,0,1-5.516.166,45.889,45.889,0,0,1-5.515-.166,45.881,45.881,0,0,1,5.515-.166,45.9,45.9,0,0,1,5.516.166" transform="translate(1002.35 594.199)" fill="#ebebeb"/>
    <path id="Path_33224" data-name="Path 33224" d="M231.859,339.119a42.511,42.511,0,0,1-5.308.166,42.507,42.507,0,0,1-5.308-.166,42.525,42.525,0,0,1,5.308-.166,42.529,42.529,0,0,1,5.308.166" transform="translate(964.779 594.375)" fill="#ebebeb"/>
    <path id="Path_33225" data-name="Path 33225" d="M156.321,354.418c0,.092-9.148.166-20.429.166s-20.43-.074-20.43-.166,9.146-.166,20.43-.166,20.429.074,20.429.166" transform="translate(1003.029 588.842)" fill="#ebebeb"/>
    <path id="Path_33226" data-name="Path 33226" d="M189.82,365.9c0,.092-9.148.167-20.429.167s-20.431-.074-20.431-.167,9.146-.165,20.431-.165,20.429.074,20.429.165" transform="translate(990.917 584.689)" fill="#ebebeb"/>
    <path id="Path_33227" data-name="Path 33227" d="M259.526,354.418c0,.092-9.147.166-20.429.166s-20.431-.074-20.431-.166,9.146-.166,20.431-.166,20.429.074,20.429.166" transform="translate(965.71 588.842)" fill="#ebebeb"/>
    <path id="Path_33228" data-name="Path 33228" d="M200.408,354.409a45.908,45.908,0,0,1-5.516.166,45.9,45.9,0,0,1-5.516-.166,45.9,45.9,0,0,1,5.516-.166,45.912,45.912,0,0,1,5.516.166" transform="translate(976.301 588.845)" fill="#ebebeb"/>
    <path id="Path_33229" data-name="Path 33229" d="M128.371,365.9a45.692,45.692,0,0,1-5.516.167,45.67,45.67,0,0,1-5.515-.167,46.141,46.141,0,0,1,5.515-.165,46.163,46.163,0,0,1,5.516.165" transform="translate(1002.35 584.689)" fill="#ebebeb"/>
    <path id="Path_33230" data-name="Path 33230" d="M231.859,365.417a42.543,42.543,0,0,1-5.308.166,42.54,42.54,0,0,1-5.308-.166,42.5,42.5,0,0,1,5.308-.166,42.5,42.5,0,0,1,5.308.166" transform="translate(964.779 584.865)" fill="#ebebeb"/>
    <path id="Path_33231" data-name="Path 33231" d="M156.916,400.014c0,.092-9.148.166-20.429.166s-20.43-.074-20.43-.166,9.146-.166,20.43-.166,20.429.074,20.429.166" transform="translate(1002.815 572.354)" fill="#ebebeb"/>
    <path id="Path_33232" data-name="Path 33232" d="M190.415,411.5c0,.092-9.148.166-20.429.166s-20.43-.074-20.43-.166,9.146-.166,20.43-.166,20.429.074,20.429.166" transform="translate(990.701 568.201)" fill="#ebebeb"/>
    <path id="Path_33233" data-name="Path 33233" d="M260.121,400.014c0,.092-9.147.166-20.429.166s-20.43-.074-20.43-.166,9.146-.166,20.43-.166,20.429.074,20.429.166" transform="translate(965.495 572.354)" fill="#ebebeb"/>
    <path id="Path_33234" data-name="Path 33234" d="M201,400.005a45.917,45.917,0,0,1-5.516.166,45.908,45.908,0,0,1-5.516-.166,45.911,45.911,0,0,1,5.516-.166,45.919,45.919,0,0,1,5.516.166" transform="translate(976.087 572.357)" fill="#ebebeb"/>
    <path id="Path_33235" data-name="Path 33235" d="M128.966,411.5a45.912,45.912,0,0,1-5.516.166,45.9,45.9,0,0,1-5.516-.166,45.9,45.9,0,0,1,5.516-.166,45.912,45.912,0,0,1,5.516.166" transform="translate(1002.135 568.201)" fill="#ebebeb"/>
    <path id="Path_33236" data-name="Path 33236" d="M232.454,411.014a42.509,42.509,0,0,1-5.308.166,42.506,42.506,0,0,1-5.308-.166,42.528,42.528,0,0,1,5.308-.166,42.531,42.531,0,0,1,5.308.166" transform="translate(964.563 568.377)" fill="#ebebeb"/>
    <path id="Path_33237" data-name="Path 33237" d="M156.321,379.146c0,.092-9.148.166-20.429.166s-20.43-.074-20.43-.166,9.146-.166,20.43-.166,20.429.074,20.429.166" transform="translate(1003.029 579.9)" fill="#ebebeb"/>
    <path id="Path_33238" data-name="Path 33238" d="M189.82,390.63c0,.092-9.148.167-20.429.167s-20.431-.075-20.431-.167,9.146-.165,20.431-.165,20.429.074,20.429.165" transform="translate(990.917 575.747)" fill="#ebebeb"/>
    <path id="Path_33239" data-name="Path 33239" d="M259.526,379.146c0,.092-9.147.166-20.429.166s-20.431-.074-20.431-.166,9.146-.166,20.431-.166,20.429.074,20.429.166" transform="translate(965.71 579.9)" fill="#ebebeb"/>
    <path id="Path_33240" data-name="Path 33240" d="M200.408,379.136a45.673,45.673,0,0,1-5.516.167,45.664,45.664,0,0,1-5.516-.167,46.137,46.137,0,0,1,5.516-.165,46.146,46.146,0,0,1,5.516.165" transform="translate(976.301 579.904)" fill="#ebebeb"/>
    <path id="Path_33241" data-name="Path 33241" d="M128.371,390.63a45.828,45.828,0,0,1-5.516.167,45.806,45.806,0,0,1-5.515-.167,46.177,46.177,0,0,1,5.515-.165,46.2,46.2,0,0,1,5.516.165" transform="translate(1002.35 575.747)" fill="#ebebeb"/>
    <path id="Path_33242" data-name="Path 33242" d="M231.859,390.145a42.51,42.51,0,0,1-5.308.166,42.507,42.507,0,0,1-5.308-.166,42.529,42.529,0,0,1,5.308-.166,42.532,42.532,0,0,1,5.308.166" transform="translate(964.779 575.923)" fill="#ebebeb"/>
    <path id="Path_33243" data-name="Path 33243" d="M249.387,407.744a1.336,1.336,0,0,0,.251-.551,4,4,0,0,0,.131-1.651,2.15,2.15,0,0,0-.131-.56.692.692,0,0,0-.546-.441.491.491,0,0,0-.406.139.664.664,0,0,0-.169.375,4.157,4.157,0,0,0,.013.7c.036.464.036.907.11,1.445a.874.874,0,0,0,.568.687,1.745,1.745,0,0,0,.859.034,6.814,6.814,0,0,0,1.5-.444,7.087,7.087,0,0,0,.669-.331,1.955,1.955,0,0,0,.607-.459.645.645,0,0,0,.016-.818.772.772,0,0,0-.729-.175,4.49,4.49,0,0,0-1.076.444,5.854,5.854,0,0,0-1.325.981c-.273.277-.395.456-.378.471a11.616,11.616,0,0,1,1.82-1.224,4.623,4.623,0,0,1,1.01-.375.487.487,0,0,1,.44.089.326.326,0,0,1-.041.4,1.7,1.7,0,0,1-.511.361,6.87,6.87,0,0,1-.638.306,6.7,6.7,0,0,1-1.427.414,1.41,1.41,0,0,1-.677-.017.511.511,0,0,1-.342-.421c-.064-.44-.082-.954-.124-1.395a4.3,4.3,0,0,1-.03-.629c.021-.183.1-.267.231-.258.3.02.4.419.453.74a5.793,5.793,0,0,1-.129,2.164" transform="translate(954.92 570.659)" fill="#263238"/>
    <path id="Path_33244" data-name="Path 33244" d="M291.316,367.518a1.345,1.345,0,0,0-.018-.605,4.016,4.016,0,0,0-.612-1.539,2.168,2.168,0,0,0-.364-.444.691.691,0,0,0-.685-.154.487.487,0,0,0-.3.3.652.652,0,0,0,.014.411,4.15,4.15,0,0,0,.319.617c.238.4.433.8.737,1.248a.874.874,0,0,0,.813.366,1.746,1.746,0,0,0,.785-.348,6.758,6.758,0,0,0,1.608-1.655,1.948,1.948,0,0,0,.342-.679.644.644,0,0,0-.347-.741.772.772,0,0,0-.731.165,4.512,4.512,0,0,0-.77.873,5.838,5.838,0,0,0-.755,1.466,1.505,1.505,0,0,0-.132.589,11.607,11.607,0,0,1,1.092-1.9,4.606,4.606,0,0,1,.741-.782.487.487,0,0,1,.434-.115.326.326,0,0,1,.141.381,1.71,1.71,0,0,1-.3.549,6.9,6.9,0,0,1-.439.557,6.736,6.736,0,0,1-1.1,1,1.432,1.432,0,0,1-.615.284.511.511,0,0,1-.493-.227c-.252-.367-.494-.82-.727-1.2a4.323,4.323,0,0,1-.305-.552c-.061-.173-.027-.285.093-.333.276-.114.546.2.734.464a5.794,5.794,0,0,1,.839,2" transform="translate(940.167 585.224)" fill="#263238"/>
    <path id="Path_33245" data-name="Path 33245" d="M232.608,409.171a1.24,1.24,0,0,0-1.385.905,1.193,1.193,0,0,0,.885,1.382,1.309,1.309,0,0,0,1.462-.967,1.237,1.237,0,0,0-1.08-1.334" transform="translate(961.179 568.989)" fill="#e0e0e0"/>
    <rect id="Rectangle_13809" data-name="Rectangle 13809" width="27.556" height="15.314" transform="translate(1184.856 982.832)" fill="none"/>
    <path id="Path_33246" data-name="Path 33246" d="M244.754,417.206c-.068.132-.766-.128-1.63-.013-.867.091-1.484.508-1.582.4-.111-.086.472-.789,1.521-.909s1.78.418,1.692.526" transform="translate(957.444 566.275)" fill="#263238"/>
    <path id="Path_33247" data-name="Path 33247" d="M248.631,421.4c-.031.144-.719.094-1.445.442-.736.327-1.143.884-1.274.813-.136-.039.147-.866,1.057-1.282s1.72-.1,1.662.027" transform="translate(955.87 564.648)" fill="#263238"/>
    <path id="Path_33248" data-name="Path 33248" d="M250.135,427.093c-.135-.03,0-.787.694-1.355s1.459-.56,1.463-.421c.023.146-.571.345-1.134.82s-.883,1.007-1.022.956" transform="translate(954.348 563.173)" fill="#263238"/>
    <path id="Path_33249" data-name="Path 33249" d="M246.974,411.494c-.114.1-.64-.384-1.42-.695-.774-.327-1.484-.356-1.5-.5-.031-.133.78-.354,1.694.026s1.341,1.1,1.224,1.172" transform="translate(956.529 568.643)" fill="#263238"/>
    <rect id="Rectangle_13810" data-name="Rectangle 13810" width="30.382" height="2.462" transform="translate(1216.945 964.8)" fill="none"/>
    <path id="Path_33250" data-name="Path 33250" d="M291.441,377.886c0,.148-.744.223-1.469.707-.737.465-1.108,1.111-1.244,1.054-.137-.027.075-.916.963-1.487s1.781-.411,1.751-.274" transform="translate(940.389 580.344)" fill="#263238"/>
    <path id="Path_33251" data-name="Path 33251" d="M296.88,379.941c.035.143-.6.4-1.1,1.034-.516.618-.636,1.3-.784,1.293-.139.024-.25-.843.383-1.618s1.5-.85,1.5-.709" transform="translate(938.148 579.574)" fill="#263238"/>
    <path id="Path_33252" data-name="Path 33252" d="M300.8,384.461c-.134.033-.349-.705.024-1.521s1.063-1.147,1.127-1.023c.086.121-.361.561-.656,1.236-.312.667-.347,1.293-.495,1.309" transform="translate(936.078 578.848)" fill="#263238"/>
    <path id="Path_33253" data-name="Path 33253" d="M290.735,372.064c-.061.136-.743-.062-1.581,0-.84.048-1.489.336-1.567.209-.087-.106.545-.661,1.532-.725s1.687.394,1.616.511" transform="translate(940.791 582.589)" fill="#263238"/>
    <path id="Path_33254" data-name="Path 33254" d="M0,50.292H46.656V0H0Z" transform="translate(1222.833 1107.83) rotate(-99.282)" fill="#f5f5f5" opacity="0.15"/>
    <path id="Path_33255" data-name="Path 33255" d="M52.672,333.726a3.473,3.473,0,1,1-3.012,4.008,3.547,3.547,0,0,1,3.012-4.008" transform="translate(1183.944 735.231)" fill="#e0e0e0"/>
    <path id="Path_33256" data-name="Path 33256" d="M6.835,323.3l41.927-6.886c-.054-.043.522.359.279.194l0,.01,0,.02.007.041.013.082.027.165.054.328.107.656.214,1.307q.214,1.306.425,2.6.422,2.587.837,5.126.826,5.076,1.615,9.923c1.046,6.45,2.035,12.548,2.945,18.157l.033.2-.206.033-30.47,4.877-8.514,1.338-2.232.342-.568.081a1.1,1.1,0,0,1-.185.019,1.549,1.549,0,0,1,.2-.045l.586-.107,2.265-.394,8.544-1.449,9.363-1.563-20.975,3.428a1,1,0,0,1,.012.13.786.786,0,0,1-.039-.165c-.024-.132-.056-.3-.1-.514q-.125-.72-.356-2.031c-.308-1.813-.756-4.436-1.323-7.767L6.664,323.53l-.033-.194Zm13.731,20.234,8.138,6.927,8.755-16.98L54.8,354.61c-.9-5.474-1.879-11.4-2.91-17.666q-.794-4.838-1.628-9.921-.416-2.537-.839-5.126l-.425-2.6-.214-1.307-.107-.656-.054-.328-.016-.1-41.5,6.75c1.823,11.419,3.341,20.933,4.409,27.624.526,3.357.94,6,1.226,7.828q.2,1.339.315,2.076c.032.224.056.4.077.539,0,.02,0,.029.005.045Z" transform="translate(1212.912 741.473)" fill="#e0e0e0"/>
    <path id="Path_33257" data-name="Path 33257" d="M134.622,0H0V76.5H134.622Z" transform="translate(1077.895 1052.939)" opacity="0.19" fill="url(#linear-gradient-16)"/>
    <path id="Path_33258" data-name="Path 33258" d="M93.775,385.068s.009-.47.013-1.373.008-2.245.014-4c.008-3.508.018-8.668.033-15.3.016-13.245.039-32.354.068-55.833l-.128.128,134.611.038h.01l-.167-.166c0,27.062.008,52.933.011,76.5l.155-.155-96.843.075-27.8.042-7.407.019-1.913.01c-.43,0-.654.009-.654.009s.211.006.636.01l1.895.009,7.376.019,27.769.042,96.946.075h.155v-.155c0-23.565.008-49.436.011-76.5V308.4h-.176l-134.611.038h-.128v.128c.029,23.512.052,42.648.068,55.912.014,6.616.025,11.766.033,15.267.006,1.742.011,3.073.014,3.973s.013,1.346.013,1.346" transform="translate(984.122 744.369)" fill="#263238"/>
    <path id="Path_33259" data-name="Path 33259" d="M115.462,328.119c0,.092,9.148.167,20.429.167s20.431-.075,20.431-.167-9.146-.166-20.431-.166-20.429.074-20.429.166" transform="translate(1042.437 737.3)" fill="#ebebeb"/>
    <path id="Path_33260" data-name="Path 33260" d="M148.961,339.6c0,.092,9.148.166,20.429.166s20.431-.074,20.431-.166-9.146-.166-20.431-.166-20.429.074-20.429.166" transform="translate(987.551 733.147)" fill="#ebebeb"/>
    <path id="Path_33261" data-name="Path 33261" d="M218.667,328.119c0,.092,9.148.167,20.429.167s20.431-.075,20.431-.167-9.146-.166-20.431-.166-20.429.074-20.429.166" transform="translate(873.345 737.3)" fill="#ebebeb"/>
    <path id="Path_33262" data-name="Path 33262" d="M189.377,328.11a45.928,45.928,0,0,0,5.516.166,45.919,45.919,0,0,0,5.516-.166,45.9,45.9,0,0,0-5.516-.166,45.9,45.9,0,0,0-5.516.166" transform="translate(951.161 737.303)" fill="#ebebeb"/>
    <path id="Path_33263" data-name="Path 33263" d="M117.34,339.6a45.911,45.911,0,0,0,5.516.166,45.889,45.889,0,0,0,5.515-.166,45.881,45.881,0,0,0-5.515-.166,45.9,45.9,0,0,0-5.516.166" transform="translate(1069.186 733.147)" fill="#ebebeb"/>
    <path id="Path_33264" data-name="Path 33264" d="M221.243,339.119a42.509,42.509,0,0,0,5.308.166,42.508,42.508,0,0,0,5.308-.166,42.526,42.526,0,0,0-5.308-.166,42.527,42.527,0,0,0-5.308.166" transform="translate(899.367 733.322)" fill="#ebebeb"/>
    <path id="Path_33265" data-name="Path 33265" d="M115.462,354.418c0,.092,9.148.166,20.429.166s20.431-.074,20.431-.166-9.146-.166-20.431-.166-20.429.074-20.429.166" transform="translate(1042.437 727.79)" fill="#ebebeb"/>
    <path id="Path_33266" data-name="Path 33266" d="M148.961,365.9c0,.093,9.148.167,20.429.167s20.431-.074,20.431-.167-9.146-.165-20.431-.165-20.429.074-20.429.165" transform="translate(987.551 723.637)" fill="#ebebeb"/>
    <path id="Path_33267" data-name="Path 33267" d="M218.667,354.418c0,.092,9.148.166,20.429.166s20.431-.074,20.431-.166-9.146-.166-20.431-.166-20.429.074-20.429.166" transform="translate(873.345 727.79)" fill="#ebebeb"/>
    <path id="Path_33268" data-name="Path 33268" d="M189.377,354.409a45.9,45.9,0,0,0,5.516.166,45.891,45.891,0,0,0,5.516-.166,45.907,45.907,0,0,0-5.516-.166,45.916,45.916,0,0,0-5.516.166" transform="translate(951.161 727.793)" fill="#ebebeb"/>
    <path id="Path_33269" data-name="Path 33269" d="M117.34,365.9a45.68,45.68,0,0,0,5.516.167,45.658,45.658,0,0,0,5.515-.167,46.161,46.161,0,0,0-5.515-.165,46.184,46.184,0,0,0-5.516.165" transform="translate(1069.186 723.637)" fill="#ebebeb"/>
    <path id="Path_33270" data-name="Path 33270" d="M221.243,365.417a42.517,42.517,0,0,0,5.308.166,42.516,42.516,0,0,0,5.308-.166,42.529,42.529,0,0,0-5.308-.166,42.531,42.531,0,0,0-5.308.166" transform="translate(899.367 723.813)" fill="#ebebeb"/>
    <path id="Path_33271" data-name="Path 33271" d="M116.057,400.014c0,.092,9.148.166,20.429.166s20.431-.074,20.431-.166-9.146-.166-20.431-.166-20.429.074-20.429.166" transform="translate(1041.46 711.302)" fill="#ebebeb"/>
    <path id="Path_33272" data-name="Path 33272" d="M149.556,411.5c0,.092,9.148.166,20.429.166s20.431-.074,20.431-.166-9.146-.166-20.431-.166-20.429.074-20.429.166" transform="translate(986.576 707.149)" fill="#ebebeb"/>
    <path id="Path_33273" data-name="Path 33273" d="M219.262,400.014c0,.092,9.148.166,20.429.166s20.431-.074,20.431-.166-9.146-.166-20.431-.166-20.429.074-20.429.166" transform="translate(872.37 711.302)" fill="#ebebeb"/>
    <path id="Path_33274" data-name="Path 33274" d="M189.972,400.005a45.918,45.918,0,0,0,5.516.166,45.907,45.907,0,0,0,5.516-.166,45.91,45.91,0,0,0-5.516-.166,45.92,45.92,0,0,0-5.516.166" transform="translate(950.186 711.305)" fill="#ebebeb"/>
    <path id="Path_33275" data-name="Path 33275" d="M117.935,411.5a45.913,45.913,0,0,0,5.516.166,45.9,45.9,0,0,0,5.516-.166,45.9,45.9,0,0,0-5.516-.166,45.913,45.913,0,0,0-5.516.166" transform="translate(1068.212 707.149)" fill="#ebebeb"/>
    <path id="Path_33276" data-name="Path 33276" d="M221.838,411.014a42.509,42.509,0,0,0,5.308.166,42.507,42.507,0,0,0,5.308-.166,42.529,42.529,0,0,0-5.308-.166,42.53,42.53,0,0,0-5.308.166" transform="translate(898.393 707.324)" fill="#ebebeb"/>
    <path id="Path_33277" data-name="Path 33277" d="M115.462,379.146c0,.092,9.148.166,20.429.166s20.431-.074,20.431-.166-9.146-.166-20.431-.166-20.429.074-20.429.166" transform="translate(1042.437 718.848)" fill="#ebebeb"/>
    <path id="Path_33278" data-name="Path 33278" d="M148.961,390.63c0,.092,9.148.167,20.429.167s20.431-.075,20.431-.167-9.146-.165-20.431-.165-20.429.074-20.429.165" transform="translate(987.551 714.695)" fill="#ebebeb"/>
    <path id="Path_33279" data-name="Path 33279" d="M218.667,379.146c0,.092,9.148.166,20.429.166s20.431-.074,20.431-.166-9.146-.166-20.431-.166-20.429.074-20.429.166" transform="translate(873.345 718.848)" fill="#ebebeb"/>
    <path id="Path_33280" data-name="Path 33280" d="M189.377,379.136a45.674,45.674,0,0,0,5.516.167,45.665,45.665,0,0,0,5.516-.167,46.137,46.137,0,0,0-5.516-.165,46.146,46.146,0,0,0-5.516.165" transform="translate(951.161 718.851)" fill="#ebebeb"/>
    <path id="Path_33281" data-name="Path 33281" d="M117.34,390.63a45.828,45.828,0,0,0,5.516.167,45.805,45.805,0,0,0,5.515-.167,46.177,46.177,0,0,0-5.515-.165,46.2,46.2,0,0,0-5.516.165" transform="translate(1069.186 714.695)" fill="#ebebeb"/>
    <path id="Path_33282" data-name="Path 33282" d="M221.243,390.145a42.509,42.509,0,0,0,5.308.166,42.507,42.507,0,0,0,5.308-.166,42.53,42.53,0,0,0-5.308-.166,42.531,42.531,0,0,0-5.308.166" transform="translate(899.367 714.871)" fill="#ebebeb"/>
    <path id="Path_33283" data-name="Path 33283" d="M252.12,407.744a1.336,1.336,0,0,1-.251-.551,4,4,0,0,1-.131-1.651,2.149,2.149,0,0,1,.131-.56.692.692,0,0,1,.546-.441.491.491,0,0,1,.406.139.663.663,0,0,1,.169.375,4.157,4.157,0,0,1-.013.7c-.036.464-.036.907-.11,1.445a.875.875,0,0,1-.568.687,1.745,1.745,0,0,1-.859.034,6.815,6.815,0,0,1-1.5-.444,7.087,7.087,0,0,1-.669-.331,1.955,1.955,0,0,1-.607-.459.645.645,0,0,1-.016-.818.772.772,0,0,1,.729-.175,4.49,4.49,0,0,1,1.076.444,5.854,5.854,0,0,1,1.325.981c.273.277.395.456.378.471a11.614,11.614,0,0,0-1.82-1.224,4.624,4.624,0,0,0-1.01-.375.487.487,0,0,0-.44.089.326.326,0,0,0,.041.4,1.7,1.7,0,0,0,.511.361,6.87,6.87,0,0,0,.638.306,6.7,6.7,0,0,0,1.427.414,1.41,1.41,0,0,0,.677-.017.511.511,0,0,0,.342-.421c.064-.44.082-.954.124-1.395a4.3,4.3,0,0,0,.03-.629c-.021-.183-.1-.267-.231-.258-.3.02-.4.419-.453.74a5.793,5.793,0,0,0,.129,2.164" transform="translate(860.821 709.606)" fill="#263238"/>
    <path id="Path_33284" data-name="Path 33284" d="M291.958,367.518a1.345,1.345,0,0,1,.018-.605,4.017,4.017,0,0,1,.612-1.539,2.165,2.165,0,0,1,.364-.444.691.691,0,0,1,.685-.154.488.488,0,0,1,.3.3.652.652,0,0,1-.014.411,4.141,4.141,0,0,1-.319.617c-.238.4-.433.8-.737,1.248a.874.874,0,0,1-.813.366,1.745,1.745,0,0,1-.785-.348,6.755,6.755,0,0,1-1.608-1.655,1.947,1.947,0,0,1-.342-.679.644.644,0,0,1,.347-.741.772.772,0,0,1,.731.165,4.509,4.509,0,0,1,.77.873,5.839,5.839,0,0,1,.755,1.466,1.506,1.506,0,0,1,.132.589,11.615,11.615,0,0,0-1.092-1.9,4.607,4.607,0,0,0-.741-.782.486.486,0,0,0-.434-.115.326.326,0,0,0-.141.381,1.711,1.711,0,0,0,.3.549,6.911,6.911,0,0,0,.438.557,6.739,6.739,0,0,0,1.1,1,1.432,1.432,0,0,0,.615.284.511.511,0,0,0,.493-.227c.252-.367.494-.82.727-1.2a4.316,4.316,0,0,0,.305-.552c.061-.173.027-.285-.093-.333-.276-.114-.546.2-.734.464a5.8,5.8,0,0,0-.839,2" transform="translate(793.807 724.171)" fill="#263238"/>
    <path id="Path_33285" data-name="Path 33285" d="M232.166,409.171a1.24,1.24,0,0,1,1.385.905,1.193,1.193,0,0,1-.885,1.382,1.309,1.309,0,0,1-1.462-.967,1.237,1.237,0,0,1,1.08-1.334" transform="translate(891.296 707.937)" fill="#e0e0e0"/>
    <rect id="Rectangle_13811" data-name="Rectangle 13811" width="27.556" height="15.314" transform="translate(1104.835 1121.78)" fill="none"/>
    <path id="Path_33286" data-name="Path 33286" d="M241.535,417.206c.068.132.766-.128,1.63-.013.867.091,1.484.508,1.582.4.11-.086-.472-.789-1.521-.909s-1.78.417-1.692.526" transform="translate(873.514 705.223)" fill="#263238"/>
    <path id="Path_33287" data-name="Path 33287" d="M245.882,421.4c.031.144.719.094,1.445.442.735.327,1.143.883,1.274.813.136-.039-.147-.866-1.057-1.282s-1.72-.1-1.662.027" transform="translate(866.865 703.595)" fill="#263238"/>
    <path id="Path_33288" data-name="Path 33288" d="M252.245,427.093c.135-.03,0-.787-.694-1.355s-1.459-.56-1.463-.421c-.023.146.571.345,1.134.82s.883,1.007,1.022.956" transform="translate(860.518 702.121)" fill="#263238"/>
    <path id="Path_33289" data-name="Path 33289" d="M244.074,411.494c.114.1.64-.384,1.42-.695.774-.327,1.484-.356,1.5-.5.031-.133-.78-.354-1.694.026s-1.341,1.1-1.224,1.172" transform="translate(869.672 707.591)" fill="#263238"/>
    <rect id="Rectangle_13812" data-name="Rectangle 13812" width="30.382" height="2.462" transform="translate(1069.922 1103.748)" fill="none"/>
    <path id="Path_33290" data-name="Path 33290" d="M288.69,377.886c0,.148.744.223,1.469.707.737.465,1.108,1.111,1.244,1.054.137-.027-.075-.916-.963-1.487s-1.781-.411-1.751-.274" transform="translate(796.729 719.292)" fill="#263238"/>
    <path id="Path_33291" data-name="Path 33291" d="M294.888,379.941c-.035.143.6.4,1.1,1.034.516.618.636,1.3.784,1.293.139.024.25-.843-.383-1.618s-1.5-.85-1.5-.709" transform="translate(787.333 718.522)" fill="#263238"/>
    <path id="Path_33292" data-name="Path 33292" d="M301.777,384.461c.134.033.349-.705-.024-1.521s-1.063-1.147-1.127-1.023c-.086.121.361.561.656,1.236.312.667.347,1.293.495,1.309" transform="translate(778.593 717.795)" fill="#263238"/>
    <path id="Path_33293" data-name="Path 33293" d="M287.585,372.064c.061.136.743-.062,1.581,0,.839.048,1.489.336,1.567.209.087-.106-.545-.661-1.532-.725s-1.687.394-1.616.511" transform="translate(798.136 721.536)" fill="#263238"/>
  </g>
</svg>
