<svg xmlns="http://www.w3.org/2000/svg" xmlns:xlink="http://www.w3.org/1999/xlink" width="974.756" height="674.095" viewBox="0 0 974.756 674.095"><defs><linearGradient id="linear-gradient" x1=".5" x2=".5" y2="1" gradientUnits="objectBoundingBox"><stop offset="0" stop-color="#202020"/><stop offset="1" stop-color="#2e2e2e"/></linearGradient><linearGradient id="linear-gradient-2" x1=".5" x2=".5" y2="1" gradientUnits="objectBoundingBox"><stop offset="0" stop-color="#1db27b"/><stop offset="1" stop-color="#0f593e"/></linearGradient></defs><g id="blockchain" transform="translate(0 0)"><path id="Path_36451" fill="url(#linear-gradient)" d="M200.719,407.361C182.673,422.126,212.2,551.729,212.2,551.729s6.562,197.686,20.507,206.709,45.115-.82,57.419-2.461S291.769,632.116,273.723,587s-4.1-110.737-4.1-110.737l97.612,18.866s-59.06,50.037-56.6,60.7,65.622,46.755,77.106,48.4,33.631-65.622,53.318-111.557S306.534,417.2,306.534,417.2l-21.327-40.193S218.765,392.6,200.719,407.361Z" data-name="Path 36451" transform="translate(-112.622 -112.953)"/><path id="Path_36452" fill="url(#linear-gradient-2)" d="M249.71,761.841s-5.952,20.833,0,20.833,16.865,5.952,33.73,3.968,11.9-22.817,0-25.794-8.928-26.786-8.928-26.786c-3.968-7.936-22.817,1.984-22.817,1.984Z" data-name="Path 36452" transform="translate(-112.622 -112.953)"/><path id="Path_36453" fill="url(#linear-gradient-2)" d="M334.216,596.174S324,615.283,329.823,616.539s15.23,9.375,32.135,10.992,16.449-19.794,5.439-25.214-3.079-28.066-3.079-28.066c-2.205-8.595-22.723-2.872-22.723-2.872Z" data-name="Path 36453" transform="translate(-112.622 -112.953)"/><path id="Path_36454" fill="#ffb9b9" d="M211.793,229.772c1.641,3.281-5.742,44.295-5.742,44.295l6.562,11.484s37.733-14.765,31.991-17.226-4.922-32.811-4.922-32.811S210.152,226.491,211.793,229.772Z" data-name="Path 36454" transform="translate(-112.622 -112.953)"/><circle id="Ellipse_640" cx="50.294" cy="50.294" r="50.294" fill="url(#linear-gradient)" data-name="Ellipse 640" transform="translate(63.079 28.874)"/><circle id="Ellipse_641" cx="20.811" cy="20.811" r="20.811" fill="url(#linear-gradient)" data-name="Ellipse 641" transform="translate(89.093 11.273)"/><path id="Path_36455" fill="url(#linear-gradient)" d="M231.631,154.463a21.051,21.051,0,0,0,2.168.113,20.811,20.811,0,0,0,0-41.623,21.042,21.042,0,0,0-2.168.113,20.812,20.812,0,0,1,0,41.4Z" data-name="Path 36455" transform="translate(-112.622 -112.953)"/><circle id="Ellipse_642" cx="34.451" cy="34.451" r="34.451" fill="#ffb9b9" data-name="Ellipse 642" transform="translate(80.305 69.244)"/><path id="Path_36456" fill="url(#linear-gradient-2)" d="M177.751,269.555c-10.664,2.461-28.71,28.71-28.71,28.71l28.71,28.71s20.507,77.106,22.968,80.387c16.122,21.5,88.589-26.249,88.589-26.249s-2.871-23.378-1.23-34.862c1.578-11.045-6.152-33.221-6.152-33.221s27.069-11.484,21.327-22.968-41.014-37.732-55.779-28.71-44.295,0-44.295,0S188.415,267.094,177.751,269.555Z" data-name="Path 36456" transform="translate(-112.622 -112.953)"/><path id="Path_36457" fill="#ffb9b9" d="M387.331,434.84s46.755,40.193,58.239,31.991-44.295-36.912-44.295-36.912Z" data-name="Path 36457" transform="translate(-112.622 -112.953)"/><path id="Path_36458" fill="#ffb9b9" d="M177.341,420.895c6.562,7.382,37.733-11.484,33.736-19.862s-28.815,8.378-28.815,8.378S170.779,413.513,177.341,420.895Z" data-name="Path 36458" transform="translate(-112.622 -112.953)"/><path id="Path_36459" fill="url(#linear-gradient-2)" d="M177.751,309.748,143.3,373.729s39.373,32.811,44.295,33.631-9.843,22.147-9.843,22.147-44.295-31.17-61.52-46.755,32.811-84.488,32.811-84.488l14.765-9.023Z" data-name="Path 36459" transform="translate(-112.622 -112.953)"/><path id="Path_36460" fill="url(#linear-gradient-2)" d="M277.825,307.288l40.193,62.34s61.52,68.9,69.723,72.184,18.046-12.3,18.046-12.3L331.963,340.1l-27.889-50.037-10.664-4.1Z" data-name="Path 36460" transform="translate(-112.622 -112.953)"/><ellipse id="Ellipse_643" cx="34.686" cy="20.811" fill="url(#linear-gradient)" data-name="Ellipse 643" rx="34.686" ry="20.811" transform="translate(78.688 41.951)"/><path id="Path_36461" fill="#e6e6e6" d="M323.3,624.742a4.293,4.293,0,0,0-4.288,4.288V775.274a4.293,4.293,0,0,0,4.288,4.288H821.968a4.293,4.293,0,0,0,4.288-4.288V629.03a4.293,4.293,0,0,0-4.288-4.288Z" data-name="Path 36461" transform="translate(-112.622 -112.953)"/><path id="Path_36462" fill="url(#linear-gradient)" d="M329.757,768.817H815.51V635.487H329.757Z" data-name="Path 36462" transform="translate(-112.622 -112.953)"/><path id="Path_36463" fill="#189366" d="M754.2,741.157a7.1,7.1,0,1,0,0,14.205h28.411a7.1,7.1,0,0,0,0-14.205Z" data-name="Path 36463" transform="translate(-112.622 -112.953)"/><rect id="Rectangle_13657" width="327.965" height="1.869" fill="#fdfdfd" data-name="Rectangle 13657" transform="translate(349.122 614.428)"/><circle id="Ellipse_644" cx="41.369" cy="41.369" r="41.369" fill="url(#linear-gradient-2)" data-name="Ellipse 644" transform="translate(239.198 547.831)"/><path id="Path_36464" fill="#fdfdfd" d="M349.64,603.993l-1.036-1.555,34.08-22.721,23.37,11.218,33.615-21.476,66.868,28.524,53.25-26.158,51.708,20.963,64.973-57.547,1.239,1.4-65.84,58.316L559.86,573.871l-53.269,26.167-66.748-28.473-33.659,21.506-23.349-11.207Z" data-name="Path 36464"/><path id="Path_36465" fill="#fdfdfd" d="M467.818,742.134a6.073,6.073,0,1,0,0,12.147h63.537a6.073,6.073,0,0,0,0-12.147Z" data-name="Path 36465" transform="translate(-112.622 -112.953)"/><path id="Path_36466" fill="#fff" d="M408.989,683.645h6.464L402,696.956a12.558,12.558,0,0,1-17.631,0l-13.449-13.311h6.464L387.6,693.757a7.954,7.954,0,0,0,11.167,0ZM377.3,720.659h-6.464l13.533-13.393a12.558,12.558,0,0,1,17.631,0l13.533,13.393h-6.464l-10.3-10.194a7.954,7.954,0,0,0-11.167,0Z" data-name="Path 36466" transform="translate(-112.622 -112.953)"/><path id="Path_36467" fill="#e6e6e6" d="M388.234,156.307a4.293,4.293,0,0,0-4.288,4.288V306.839a4.293,4.293,0,0,0,4.288,4.288H886.9a4.293,4.293,0,0,0,4.288-4.288V160.6a4.293,4.293,0,0,0-4.288-4.288Z" data-name="Path 36467" transform="translate(-112.622 -112.953)"/><path id="Path_36468" fill="url(#linear-gradient)" d="M394.692,300.382H880.446V167.052H394.692Z" data-name="Path 36468" transform="translate(-112.622 -112.953)"/><path id="Path_36469" fill="#189366" d="M819.132,272.722a7.1,7.1,0,0,0,0,14.205h28.411a7.1,7.1,0,1,0,0-14.205Z" data-name="Path 36469" transform="translate(-112.622 -112.953)"/><rect id="Rectangle_13658" width="327.965" height="1.869" fill="#fdfdfd" data-name="Rectangle 13658" transform="translate(414.057 145.993)"/><circle id="Ellipse_645" cx="41.369" cy="41.369" r="41.369" fill="#189366" data-name="Ellipse 645" transform="translate(304.133 79.395)"/><path id="Path_36470" fill="#fdfdfd" d="M414.575,135.557,413.539,134l34.08-22.72,23.37,11.218L504.6,101.024l.454.193,66.414,28.331,53.25-26.158,51.708,20.963L741.4,66.805l1.239,1.4L676.8,126.52l-52.007-21.084L571.527,131.6,504.779,103.13l-33.66,21.505L447.77,113.427Z" data-name="Path 36470"/><path id="Path_36471" fill="#fdfdfd" d="M532.753,273.7a6.073,6.073,0,0,0,0,12.147H596.29a6.073,6.073,0,0,0,0-12.147Z" data-name="Path 36471" transform="translate(-112.622 -112.953)"/><path id="Path_36472" fill="#fff" d="M474.769,228.888c.773-5.177-3.168-7.96-8.558-9.816l1.748-7.013L463.689,211l-1.7,6.828c-1.121-.28-2.274-.543-3.419-.8l1.714-6.873-4.266-1.064-1.75,7.01c-.929-.212-1.841-.421-2.726-.641l0-.022-5.887-1.47-1.136,4.559s3.167.726,3.1.771a2.27,2.27,0,0,1,1.989,2.483l-1.991,7.989a3.538,3.538,0,0,1,.444.142l-.45-.112-2.793,11.191A1.554,1.554,0,0,1,442.866,242c.043.062-3.1-.774-3.1-.774l-2.119,4.888,5.556,1.385c1.033.259,2.046.53,3.042.785l-1.767,7.094,4.264,1.064,1.751-7.018c1.164.316,2.294.608,3.4.883l-1.743,6.985,4.269,1.064,1.767-7.08c7.279,1.378,12.754.822,15.055-5.76,1.857-5.3-.091-8.359-3.921-10.354,2.789-.646,4.89-2.48,5.45-6.27Zm-9.754,13.677c-1.32,5.3-10.244,2.436-13.139,1.717l2.344-9.4c2.894.722,12.171,2.152,10.8,7.68Zm1.319-13.753c-1.2,4.822-8.632,2.372-11.043,1.771l2.125-8.523c2.411.6,10.173,1.722,8.918,6.752Z" data-name="Path 36472" transform="translate(-112.622 -112.953)"/><path id="Path_36473" fill="#e6e6e6" d="M584.421,390.524a4.293,4.293,0,0,0-4.288,4.288V541.057a4.293,4.293,0,0,0,4.288,4.288H1083.09a4.293,4.293,0,0,0,4.288-4.288V394.812a4.293,4.293,0,0,0-4.288-4.288Z" data-name="Path 36473" transform="translate(-112.622 -112.953)"/><path id="Path_36474" fill="#b0eedb" d="M590.878,534.6h485.754V401.27H590.878Z" data-name="Path 36474" transform="translate(-112.622 -112.953)"/><path id="Path_36475" fill="#189366" d="M1015.32,506.94a7.1,7.1,0,1,0,0,14.205h28.411a7.1,7.1,0,1,0,0-14.205H1015.32Z" data-name="Path 36475" transform="translate(-112.622 -112.953)"/><rect id="Rectangle_13659" width="327.965" height="1.869" fill="url(#linear-gradient)" data-name="Rectangle 13659" transform="translate(610.244 380.21)"/><circle id="Ellipse_646" cx="41.369" cy="41.369" r="41.369" fill="#189366" data-name="Ellipse 646" transform="translate(500.32 313.613)"/><path id="Path_36476" fill="url(#linear-gradient)" d="M610.762,369.775l-1.037-1.555L643.8,345.5l23.371,11.218,33.614-21.476.455.193,66.413,28.331,53.251-26.158,51.708,20.962,64.973-57.547,1.239,1.4-65.84,58.315-52.007-21.084-53.269,26.167-66.747-28.473L667.3,358.853l-23.348-11.207Z" data-name="Path 36476"/><path id="Path_36477" fill="url(#linear-gradient)" d="M728.939,507.917a6.073,6.073,0,0,0,0,12.147h63.537a6.073,6.073,0,0,0,0-12.147Z" data-name="Path 36477" transform="translate(-112.622 -112.953)"/><path id="Path_36478" fill="#fff" d="M541.684,382.247l16.747-23.585-16.747,9.888h0l-16.737-9.888,16.736,23.585h0Z" data-name="Path 36478"/><path id="Path_36479" fill="#fff" d="M541.683,365.381h0l16.737-9.893-16.737-27.771h0l-16.736,27.771Z" data-name="Path 36479"/></g></svg>