<svg xmlns="http://www.w3.org/2000/svg" xmlns:xlink="http://www.w3.org/1999/xlink" id="career" width="992.41" height="518.954" viewBox="0 0 992.41 518.954"><defs><linearGradient id="linear-gradient" x1=".5" x2=".5" y2="1" gradientUnits="objectBoundingBox"><stop offset="0" stop-color="#202020"/><stop offset="1" stop-color="#2e2e2e"/></linearGradient></defs><path id="Path_36480" fill="#b0eedb" d="M180.361,682.077C164.715,690.513,158,708.418,158,708.418s18.65,4.227,34.3-4.209,22.362-26.341,22.362-26.341S196.007,673.64,180.361,682.077Z" data-name="Path 36480" transform="translate(-103.795 -190.523)"/><path id="Path_36481" fill="#b0eedb" d="M185.509,687.875c-9.163,15.231-27.365,21.1-27.365,21.1s-3.344-18.828,5.819-34.059,27.365-21.1,27.365-21.1S194.672,672.644,185.509,687.875Z" data-name="Path 36481" transform="translate(-103.795 -190.523)"/><rect id="Rectangle_13660" width="450.806" height="2" fill="#cbcbcb" data-name="Rectangle 13660" transform="translate(488.774 11.422)"/><rect id="Rectangle_13661" width="2" height="63.563" fill="#cbcbcb" data-name="Rectangle 13661" transform="translate(549.181 12.175)"/><path id="Path_36482" fill="#cbcbcb" d="M715.205,126.123H612.156V12.113h2v112.01H715.205Z" data-name="Path 36482"/><rect id="Rectangle_13662" width="2" height="63.563" fill="#cbcbcb" data-name="Rectangle 13662" transform="translate(679.885 12.175)"/><rect id="Rectangle_13663" width="2" height="63.563" fill="#cbcbcb" data-name="Rectangle 13663" transform="translate(713.443 125.176)"/><rect id="Rectangle_13664" width="2" height="63.563" fill="#cbcbcb" data-name="Rectangle 13664" transform="translate(817.001 12.175)"/><rect id="Rectangle_13665" width="2" height="63.563" fill="#cbcbcb" data-name="Rectangle 13665" transform="translate(885.559 12.175)"/><rect id="Rectangle_13666" width="37.978" height="14.797" fill="#189366" data-name="Rectangle 13666" transform="translate(531.432 85.462)"/><rect id="Rectangle_13667" width="37.978" height="14.797" fill="url(#linear-gradient)" data-name="Rectangle 13667" transform="translate(661.432 85.462)"/><rect id="Rectangle_13668" width="37.978" height="14.797" fill="#b0eedb" data-name="Rectangle 13668" transform="translate(799.432 85.462)"/><rect id="Rectangle_13669" width="37.978" height="14.797" fill="#189366" data-name="Rectangle 13669" transform="translate(865.432 85.462)"/><rect id="Rectangle_13670" width="37.978" height="14.797" fill="url(#linear-gradient)" data-name="Rectangle 13670" transform="translate(954.432 5.462)"/><rect id="Rectangle_13671" width="37.978" height="14.797" fill="url(#linear-gradient)" data-name="Rectangle 13671" transform="translate(695.432 197.462)"/><rect id="Rectangle_13672" width="60.882" height="23.72" fill="#189366" data-name="Rectangle 13672" transform="translate(414.98)"/><path id="Path_36483" fill="#ffb7b7" d="M282.481,241.153l3.977,35.877,50.8.875-6.131-42.918Z" data-name="Path 36483"/><path id="Path_36484" fill="#ffb7b7" d="M363.388,511.473a8.213,8.213,0,0,0-2.229-12.4l2.358-18.62-10.966-4.193-2.961,26.342a8.258,8.258,0,0,0,13.8,8.866Z" data-name="Path 36484" transform="translate(-103.795 -190.523)"/><path id="Path_36485" fill="#ffb7b7" d="M351.976,507.436h10.739l5.108-41.419H351.974Z" data-name="Path 36485"/><path id="Path_36486" fill="url(#linear-gradient)" d="M453.032,694.454H474.18a13.477,13.477,0,0,1,13.477,13.476v.439H453.033Z" data-name="Path 36486" transform="translate(-103.795 -190.523)"/><path id="Path_36487" fill="#ffb7b7" d="M229.353,507.436h10.738l5.108-41.419H229.351Z" data-name="Path 36487"/><path id="Path_36488" fill="url(#linear-gradient)" d="M330.408,694.454h21.148a13.477,13.477,0,0,1,13.477,13.476v.439H330.409Z" data-name="Path 36488" transform="translate(-103.795 -190.523)"/><path id="Path_36489" fill="#189366" d="M348.605,496.935l4.723-54.636,13.779-49.9a18.848,18.848,0,0,1,16.272-13.665l.45-.043,2.448,37.454-17.62,36.206-5.824,43.437Z" data-name="Path 36489" transform="translate(-103.795 -190.523)"/><path id="Path_36490" fill="url(#linear-gradient)" d="M389.448,446.677,382.215,459.7s-28.209,28.517-30.379,72.571L325.648,682.207l24.271-.6L399.06,541.077,433.818,600.7,451.2,678.611l27.567-5.094-12.285-90.491-23.672-84.2-2.4-45.845Z" data-name="Path 36490" transform="translate(-103.795 -190.523)"/><circle id="Ellipse_647" cx="21.513" cy="21.513" r="21.513" fill="#ffb7b7" data-name="Ellipse 647" transform="translate(289.206 127.064)"/><path id="Path_36491" fill="url(#linear-gradient)" d="M329.6,387.962c4-7.807,5.361-16.672,8.437-24.885s8.665-16.362,17.138-18.626c4.806-1.284,9.914-.5,14.851-1.111,4.341-.537,9.015-2.754,10.677-6.609a27.228,27.228,0,0,1,1.4-11.3c3.1-8.8,10.482-15.745,19.091-19.336,6.993-2.917,15.047-3.741,22.189-1.208s13.137,8.724,14.42,16.192-2.833,15.807-9.931,18.46c-5.1,1.9-11.659,1.27-14.987,5.575-3.371,4.36-.955,10.715,2.107,15.3l-.209.213c-10,.117-20.81-1.815-27.7-9.066a21.941,21.941,0,0,1-2.058-2.532c-.211.338-.432.669-.67.984-3.468,4.606-8.9,7.219-14.072,9.764s-10.539,5.4-13.646,10.259c-5.615,8.777-1.929,20.6-5.14,30.51a22.538,22.538,0,0,1-42.388,1.375C317.853,402.651,325.6,395.769,329.6,387.962Z" data-name="Path 36491" transform="translate(-103.795 -190.523)"/><path id="Path_36492" fill="#ffb7b7" d="M467.354,510.759a8.213,8.213,0,0,0-7.709-9.959l-6.522-17.6-11.661,1.355,9.559,24.724a8.258,8.258,0,0,0,16.333,1.479Z" data-name="Path 36492" transform="translate(-103.795 -190.523)"/><path id="Path_36493" fill="#189366" d="M386.044,451.972l-6.225-29.949-1.956-22.813a53.714,53.714,0,0,1,10.18-36.318l1.99-2.718,33.5,11.908,16.334,21.532c9.968,10.022,2.164,19.617,1.076,20.853l-.334,30.263-.376.05Z" data-name="Path 36493" transform="translate(-103.795 -190.523)"/><path id="Path_36494" fill="#189366" d="M447.737,504.49l-24.916-57.412-3.62-52.6-.73-11.055a10.566,10.566,0,0,1,21.016-2.1l7.843,58.636,13.5,58.5Z" data-name="Path 36494" transform="translate(-103.795 -190.523)"/><path id="Path_36495" fill="#cbcbcb" d="M641.795,709.257h-537a1,1,0,0,1,0-2h537a1,1,0,0,1,0,2Z" data-name="Path 36495" transform="translate(-103.795 -190.523)"/></svg>