<svg xmlns="http://www.w3.org/2000/svg" xmlns:xlink="http://www.w3.org/1999/xlink" width="476.121" height="417.042" viewBox="0 0 476.121 417.042"><defs><linearGradient id="linear-gradient" x1=".5" x2=".5" y2="1" gradientUnits="objectBoundingBox"><stop offset="0" stop-color="#383838"/><stop offset="1" stop-color="#020202"/></linearGradient><linearGradient id="linear-gradient-2" x1=".5" x2=".5" y2="1" gradientUnits="objectBoundingBox"><stop offset="0" stop-color="#202020"/><stop offset="1" stop-color="#2e2e2e"/></linearGradient><linearGradient id="linear-gradient-4" x1=".5" x2=".5" y2="1" gradientUnits="objectBoundingBox"><stop offset="0" stop-color="#1db27b"/><stop offset="1" stop-color="#0f593e"/></linearGradient></defs><g id="Group_14917" data-name="Group 14917" transform="translate(8385.776 -926.857)"><g id="Group_14916" data-name="Group 14916" transform="translate(-43.397 -427.033)"><path id="Path_36169" fill="#b0eedb" d="M1272.966,678.8H1229.08c-4.928-3.816-4.64-9.246-4.117-14.5a89.126,89.126,0,0,1,5.031-21.228c.971-2.708,1.537-5.411.717-8.256,4.588-7.345,2.907-14.616-.282-21.858-2.617-5.941-6.336-11.3-9.037-17.205-4.086-8.923-3.347-18.1-1.368-27.307a6.755,6.755,0,0,1,2.76-4.587c1.564-.574,2.95.052,4.268.748,8.657,4.567,17.693,8.338,26.5,12.593,4.059,1.961,5.963,4.924,6.629,9.155q4.828,30.646,9.627,61.3c.259,1.667.718,3.526-.607,4.724-1.6,1.447-3.069-.277-4.421-.959-9.274-4.672-18.411-9.61-27.684-14.286,9.871,5.026,19.557,10.417,29.53,15.234,2.816,1.36,4.408,2.944,4.96,6.121.85,4.889,1.529,9.81,2.5,14.68C1274.479,675.125,1274.517,677.157,1272.966,678.8Z" data-name="Path 36169" transform="translate(-9184.316 1092.135)"/><path id="Path_36172" fill="#b0eedb" d="M1293.733,609.757c2.715,11.573,9.925,20.67,16.486,30.152,4.852,7.013,8.505,14.379,7.737,23.449-.5,5.915-3.484,10.528-6.091,15.439h-15.959c-.481-2.12,1.431-2.815,2.484-3.9,5.087-5.23,10.287-10.348,14.659-14.722-5.98,5.554-12.033,12.627-19.138,18.62h-18.95c-1.717-2.448-1.387-5.4-1.875-8.118-1.954-10.9-3.645-21.846-5.408-32.779-.31-1.919-.308-3.617,1.119-5.08,7.294-7.483,14.645-14.911,22.218-22.114A3.161,3.161,0,0,1,1293.733,609.757Z" data-name="Path 36172" transform="translate(-9184.316 1092.135)"/><path id="Path_36173" fill="url(#linear-gradient)" d="M1293.733,609.757c-7.881,7.86-15.734,15.749-23.667,23.556-1.6,1.577-1.824,3.038-1.441,5.294,2.27,13.37,4.255,26.788,6.336,40.19h-2c.041-7.516-2.177-14.721-3.021-22.114-.265-2.321-2.139-2.791-3.695-3.6-9.122-4.768-18.275-9.476-27.405-14.229-1.569-.817-3.076-1.754-4.612-2.636l.574-1.08,34.4,17.7c-1.293-8.434-2.435-16.047-3.632-23.651-2.188-13.891-4.531-27.758-6.546-41.674-.642-4.436-2.159-7.406-6.588-9.352-9.871-4.337-19.478-9.276-29.193-13.969-.469-1.036.2-1.436.983-1.78,2.5-.45,4.467.954,6.521,1.957,8.019,3.914,15.937,8.034,24.452,12.127.316-4.489-.731-8.416-1.379-12.349-3.312-20.1-6.4-40.224-9.466-60.357-.271-1.784-.784-3.6.27-5.323a1.416,1.416,0,0,1,1.412-.466c2.9,2.4,2.681,5.963,3.162,9.137,3.333,21.97,7.087,43.872,10.391,65.846a2.682,2.682,0,0,0,1.546,2.456c6.465-6.538,13.22-13.044,19.666-19.871,1.226-1.3,2.091-3.066,4.192-3.23q1.865-.144,1.72,1.72c-.165,2.43-2.095,3.682-3.571,5.181-6.169,6.262-12.4,12.462-18.635,18.661-2.115,2.1-3.567,4.465-3.038,7.517,2.541,14.672,4.531,29.437,7.407,45.3,5.594-5.885,10.852-10.74,15.61-16.18,2.573-2.943,4.395-7.179,9.284-7.3Q1293.752,608.5,1293.733,609.757Z" data-name="Path 36173" transform="translate(-9184.316 1092.135)"/><path id="Path_36174" fill="url(#linear-gradient-2)" d="M1293.912,678.8l23.461-21.372-.445-.5L1295.906,678.8Z" data-name="Path 36174" transform="translate(-9184.316 1092.135)"/><path id="Path_36181" fill="#b0eedb" d="M1293.771,607.234c-7.686,6.332-13.58,14.428-20.827,21.2-1.414,1.321-2.307,3.2-3.441,4.823l-1.661-.914c-.926-5.266-1.905-10.524-2.767-15.8-1.568-9.6-2.91-19.23-4.663-28.79-.814-4.439-.2-7.788,3.328-11.059,7.879-7.31,15.344-15.065,22.976-22.64,7.62,5.383,10.153,13.361,11.159,22.071,1.023,8.857-2.287,17.162-3.423,25.746C1294.215,603.658,1294,605.446,1293.771,607.234Z" data-name="Path 36181" transform="translate(-9184.316 1092.135)"/><path id="Path_36182" fill="#b0eedb" d="M1246.184,498.478l5.6-.311c10.175,1.686,15.67,8.263,17.187,20.512.424,3.417.809,6.847,1.443,10.228,1.376,7.34,4.527,13.708,10.368,18.627,1.61,1.355,3.349,2.727,4.212,4.8-7.484,9.553-16.7,17.421-25.678,26.95-1.846-11.4-3.538-21.893-5.243-32.379Q1250.135,522.689,1246.184,498.478Z" data-name="Path 36182" transform="translate(-9184.316 1092.135)"/><path id="Path_36198" fill="#b0eedb" d="M1224.113,563.089a33.216,33.216,0,0,1,2.266-4.887c6.132-9.133,6.865-18.926,4.349-29.4-1.34-5.575-2.542-11.275-.719-17.116,2.335-7.481,7.137-11.989,14.911-13.252,4.157,26.6,8.315,53.194,12.59,80.536Z" data-name="Path 36198" transform="translate(-9184.316 1092.135)"/></g><path id="Path_36204" fill="url(#linear-gradient-2)" d="M2224.743,693.617H1769.876a9.492,9.492,0,0,1-2.166-2.7c-10.695-22.94-16.481-46.9-12.3-72.178,4.608-27.877,20.881-46.8,47.158-57.155,8.839-.224,17.551,1.25,26.316,2,21.706,1.866,43.356,4.344,65.079,6.047a1.837,1.837,0,0,0,1.7-.764c-6.911-2.053-13.863-1.85-20.651-2.526-19.359-1.927-38.778-3.2-58.137-5.157a6.956,6.956,0,0,1-3.766-1.142c.205-3.976,3.482-3.166,5.857-3.766,13.1.283,26.077,2.167,39.123,3.193.859.132,1.674.444,2.52.624,10.866.167,21.623,1.723,32.434,2.59,2.33.187,4.587.359,6.79-.542a9.3,9.3,0,0,1,6.339.094c25.53,8.566,49.363,20.35,70.518,37.206a9.929,9.929,0,0,1,2.06,2.139c.939,1.341.291,3.539,2.332,4.294a342.758,342.758,0,0,1,29.1,21.294,44.638,44.638,0,0,0,5.163,3.826c1.43,1.085,3.206,1.6,4.589,2.762a191.893,191.893,0,0,0,38.386,22.182c4.131,1.814,7.4,3.782,6.929,8.991-.206,2.3,1.166,3.326,3.393,3.257,11.123-.35,22.237.451,33.391-.61a116.239,116.239,0,0,1,27.379.3,48.066,48.066,0,0,0,7.467.227,191.361,191.361,0,0,1,32.3,2.375c2.8.965,5.839.789,8.639,1.758a82.164,82.164,0,0,1,11.856,3.1c.968.267,1.863.743,2.84.99,9.85,3.224,19.005,7.973,28.021,12.985C2222.255,690.275,2224.72,690.851,2224.743,693.617Z" data-name="Path 36204" transform="translate(-10139.818 650.282)"/><path id="Path_36214" fill="url(#linear-gradient-4)" d="M2093.789,480.135c.449.216.891.448,1.347.646,9.6,4.17,9.56,4.138,2.67,12.388q-6.233,7.464-12.221,15.13c-1.879,2.416-3.523,2.913-6.7,1.779-7.794-2.786-15.1-6.967-23.362-8.428-1.7,1.35-3.216.252-4.771-.346-2.8-1.8-5.245-3.712-2.493-7.4,1.324-1.775.1-3.1-.979-4.3a33.03,33.03,0,0,0-6.873-6.249c-1.952-1.8-4.31-3.318-4.445-6.382a4.968,4.968,0,0,1,1.111-2.634,57.6,57.6,0,0,0,4.5-5.264c1.542-1.66,3.012-3.382,4.493-5.094,1.811-2.1,3.66-2.563,5.695-.33,3.778,2.23,7.934,3.536,12.056,4.926,1.64-.319,3.177-.358,4.033,1.472a8,8,0,0,0,4.818,1.7c1.727-.171,3.29.021,4.108,1.859a7.748,7.748,0,0,0,4.209,1.271c1.69.208,3.421.313,4.594,1.824a6.546,6.546,0,0,0,4.168,1.93C2091.414,478.277,2093,478.132,2093.789,480.135Z" data-name="Path 36214" transform="translate(-10139.818 650.282)"/><path id="Path_36215" fill="url(#linear-gradient-2)" d="M2041.878,449.005c-7.321-3.123-9.32-6.648-7.01-13.882,1.512-4.735-.162-7.963-3.371-11.063-3.267-3.156-6.143-6.562-5.984-11.55.19-5.941,4.419-9.159,10.1-7.428a30.014,30.014,0,0,1,5.881,2.66,37.163,37.163,0,0,0,18.528,5,13.951,13.951,0,0,1,8.786,3.014c2.647,2.068,3.88,4.816,2.624,7.895-1.768,4.337-1.528,8.75-1.556,13.23-.045,7.14-4.339,11.77-12.124,13.007-.213-1.828,1.61-3.3.99-5.071-1.563-1.453-2.726-3.358-4.8-4.232-1.565-.76-2.737-3.117-4.59-2.266a51.582,51.582,0,0,0-7.983,4.622c-1.24.867-.079,1.984.7,2.845C2043.075,446.89,2044.372,448.08,2041.878,449.005Z" data-name="Path 36215" transform="translate(-10139.818 650.282)"/><path id="Path_36216" fill="#b0eedb" d="M2113.8,364.718l2.993,4.07c0-5.257.011-9.616,0-13.974-.024-7.815.145-15.639-.207-23.44-.125-2.792,2.222-7.028-3.09-7.986,1.3-5.014-3.653-4.344-5.765-6.078-7.772-6.38-7.885-16.073.024-23.734.3.038.6.064.9.075.125.2.25.411.378.617-.122,2.135-1.76,3.531-2.61,5.313-2.614,5.477-1.294,11.885,3.222,15.359a11.541,11.541,0,0,0,14.736-.378c4.384-3.752,5.325-10.03,2.322-15.442-.876-1.58-2.225-2.953-2.189-4.939q.216-.291.435-.582c10.373,6.341,7.842,20.3-1.189,24.835a10.631,10.631,0,0,0-5.677,8.553c-.575,13.178-.246,26.4-.246,39.6l1.622.108q7.048-20.367,14.09-40.738,2.351-6.825,4.552-13.7c.572-1.8,2.327-3.636-.993-5.121-2.073-.927,2.971-2.374.463-4.123l.388-.43c5.731,2.9,11.389,3.164,17.335-1.044-1.848,2.762-2.862,4.212-4.279,3.882-4.361-1.015-6.3,3.243-9.784,3.993-.541.117-.973,1.3-1.235,2.062-6.337,18.483-12.644,36.977-19.161,56.069l3.581-2.551c.167,2.706-2.672,3.217-2.864,5.837,6.614-2.828,12.966-5.544,19.319-8.256,1.068-.457,1.6-1.064.931-2.279a7.541,7.541,0,0,1-.481-1.8c5.552-.185,1.69-4.16,2.309-6.222,1.306-4.344,2.071-8.774,6.974-10.671l.323.357c-7.006,7.687-7.392,15.939-1.005,21.478a13.146,13.146,0,0,0,21.287-13.844,51.443,51.443,0,0,0-2.128-4.943c6.494,4,5.611,15.822-1.683,20.658-5.516,3.657-11.069,4-17.186.65a13.637,13.637,0,0,0-12.407-.689c-5.287,2.4-10.63,4.674-15.968,6.959a7.275,7.275,0,0,0-4.415,4.978c-1.668,5.557-3.647,11.022-5.5,16.525-3.077,6.56-3.741,14.1-8.175,20.11-2.946,3.1-6.618,2.753-10.235,1.907-1.536-.359-3.464-1.331-.758-3.076a2.074,2.074,0,0,0,.8.166c3.689.292,6.976-1.458,10.489-2.064,4.042-11.548,8-23.129,12.172-34.628,1.629-4.483-1.977-7.029-3.232-10.447A1.358,1.358,0,0,1,2113.8,364.718Z" data-name="Path 36216" transform="translate(-10139.818 650.282)"/><path id="Subtraction_5" fill="#b0eedb" stroke="rgba(0,0,0,0)" stroke-miterlimit="10" stroke-width="1" d="M30.583,97.792A6.668,6.668,0,0,1,26.872,96.6,70.317,70.317,0,0,0,16.905,87c-.742-.626-1.507-1.271-2.253-1.911-1.979-1.7-3.7-2.492-5.427-2.492a5.942,5.942,0,0,0-2.719.691c-2.927,1.5-4.175,4.252-3.609,7.961a4.8,4.8,0,0,1-.149,2.445,1.693,1.693,0,0,1-1.08.86A1.488,1.488,0,0,1,.25,93.172L.227,92.92c-.4-4.431-.815-9.013,3.922-11.635a10.14,10.14,0,0,1,4.935-1.344,12.847,12.847,0,0,1,7.547,2.842c.063-.253.124-.509.183-.757.529-2.213,1.027-4.3,2.8-5.733A6.1,6.1,0,0,1,23.6,74.96a14.989,14.989,0,0,1,3.15.417,4.892,4.892,0,0,0,1.033.131,1.362,1.362,0,0,0,1.025-.343c.372-.381.431-1.038.407-2.043-.072-3.026-.119-6.1-.164-9.078Q29.026,62.121,29,60.2c.008-.9.023-1.812.038-2.7.034-2.061.069-4.19.022-6.283a7.071,7.071,0,0,0-1.35-3.191,3.606,3.606,0,0,1-.5-.91c-.452-3.37-2.823-4.494-5.116-5.582a10.242,10.242,0,0,1-3.864-2.6A16.491,16.491,0,0,1,14.913,29.1a13.711,13.711,0,0,1,3.245-9.461c3.265-3.6,6.831-5.426,10.6-5.426a14.963,14.963,0,0,1,8.869,3.306,22.968,22.968,0,0,0-8.437-1.876c-4.893,0-8.629,2.365-11.422,7.23-2.761,4.807-2.374,9.68,1.151,14.482,2.293,3.125,5.263,4.519,9.629,4.519a43.209,43.209,0,0,0,10.44-1.645C30.27,45.1,30.11,51.687,30.774,59.17A202.184,202.184,0,0,1,31.121,80.8C31.061,83.886,31,87.075,31,90.224c1.583-.36,1.808-1.384,2.027-2.374a7,7,0,0,1,.2-.764c4.131-11.987,8.317-24.18,12.365-35.972l.01-.03.02-.057Q48.238,43.4,50.86,35.762c1.087-3.165-.121-5.972-1.289-8.686-.134-.312-.273-.634-.406-.952a1.064,1.064,0,0,1,.05-.847,1.668,1.668,0,0,1,1.112-.564,6.393,6.393,0,0,1,2.73.88,11.724,11.724,0,0,0,1.427.636,12.719,12.719,0,0,0,4.124.678,12.019,12.019,0,0,0,10.022-5.02c3.323-5,2.64-11.05-1.739-15.405a10.923,10.923,0,0,0-7.82-3.506A13.181,13.181,0,0,0,52.393,5,16.715,16.715,0,0,0,51,5.96a8.747,8.747,0,0,1-2.837,1.585c-.461-.051-.914-.14-1.1-.447a1.015,1.015,0,0,1,.027-.9A18.741,18.741,0,0,1,52.559,1.56,12.65,12.65,0,0,1,58.592,0a14.407,14.407,0,0,1,6.593,1.706,16.81,16.81,0,0,1,4.573,3.337,12.6,12.6,0,0,1,2.709,4.365c1.178,3.235,1.124,7.222-.161,11.851a14.4,14.4,0,0,1-4.561,5.435,20.432,20.432,0,0,1-6.519,2.988c-5.424,1.532-8.564,4.487-10.182,9.581-3.717,11.708-7.833,23.5-11.812,34.914-1.865,5.347-3.794,10.875-5.657,16.324-.141.413-.305.831-.464,1.235a8.553,8.553,0,0,0-.876,4.511c.091.792-.283,1.263-1.21,1.53C30.878,97.787,30.729,97.792,30.583,97.792ZM23.7,76.218a5.232,5.232,0,0,0-4.552,2.837c-1.83,2.963-.4,5.143,1.416,7.058a50.578,50.578,0,0,0,9.121,7.626,24.337,24.337,0,0,0-.077-7.787,38.32,38.32,0,0,1-.343-3.913c-.065-3.343-1.385-5.1-4.282-5.685A6.479,6.479,0,0,0,23.7,76.218Z" data-name="Subtraction 5" transform="translate(-8293.092 1071.776)"/><path id="Path_36219" fill="#b0eedb" d="M2041.878,449.005c1.5-1.5.28-1.78-.929-2.2a2.819,2.819,0,0,1-2.015-3.479,3.028,3.028,0,0,1,2.711-2.522c1.376-.141,2.821-.4,3.591-1.407,3.445-4.5,6.452-2.962,9.445.437a1.408,1.408,0,0,1-.718,2.039c-2.293.6-4.608,1-4.552,3.78,1.265-.074.29-2.623,2.161-3.115,1.293,1.708,3.253,2.827,5.1,4.1-.066,3.8-3.559,3.735-5.984,5.2,4.629,3.569.556,7.854,1.078,11.8-2.214-.711-3.9-.435-5.4,1.732-1.189,1.711-2.331,3.661-4.355,4.678-1.838.367-2.833-.833-3.829-2.044a7.245,7.245,0,0,1-1.275-4.374,5.468,5.468,0,0,1,2.008-3.977C2040.243,456.206,2041.663,452.773,2041.878,449.005Z" data-name="Path 36219" transform="translate(-10139.818 650.282)"/><path id="Path_36221" fill="url(#linear-gradient)" d="M2067.851,470.046l-4.033-1.471c6.214-.957,7.015-7.692,11.472-10.732,4.761-3.246,8.776-7.586,13.118-11.446,5.19-4.615,10.381-9.228,16.1-14.316.126,3.749-.648,6.164-3.085,8.289C2090.171,450.188,2079.032,460.141,2067.851,470.046Z" data-name="Path 36221" transform="translate(-10139.818 650.282)"/><path id="Path_36222" fill="url(#linear-gradient)" d="M2102.825,421.828c1.272.056,2.791-.606,3.672.737.6.921.053,1.945-.66,2.7-.567.6-1.259,1.08-1.879,1.631-10.514,9.357-21.026,18.717-31.888,28.388-.584-3.978.819-6.26,3.2-8.422,9.205-8.348,18.994-16.055,27.6-25.063Z" data-name="Path 36222" transform="translate(-10139.818 650.282)"/><path id="Path_36223" fill="#b0eedb" d="M2092.751,412.671c-1.593,1.549-.215,1.85.936,2.037a21.758,21.758,0,0,0,10.058-.868l-.921,7.988.045-.029a7.9,7.9,0,0,0-5.044-.99,3.813,3.813,0,0,1-4.973-.959l-5.228-1c-1.975,1.058-3.762,1.247-5-1.083l1.164-6.025c-.036-2.746,1.945-2.645,3.814-2.7a14.613,14.613,0,0,0,2.374-.538c1.388-.559,2.846-1.3,4.045.055C2095.692,410.452,2093.23,411.3,2092.751,412.671Z" data-name="Path 36223" transform="translate(-10139.818 650.282)"/><path id="Path_36224" fill="url(#linear-gradient)" d="M2076.777,473.606c-1.394-.565-3.023-.612-4.108-1.86l28.822-25.943c.78,3.76-.417,6.009-2.861,8.143C2091.252,460.392,2084.049,467.038,2076.777,473.606Z" data-name="Path 36224" transform="translate(-10139.818 650.282)"/><path id="Path_36225" fill="url(#linear-gradient)" d="M2092.852,419.85l4.973.959c-7.5,6.9-15.007,13.8-22.92,21.076-.7-3.835.341-6.221,2.927-8.427C2082.97,429.075,2087.86,424.4,2092.852,419.85Z" data-name="Path 36225" transform="translate(-10139.818 650.282)"/><path id="Path_36226" fill="url(#linear-gradient)" d="M2085.58,476.7a6.271,6.271,0,0,1-4.593-1.824l18.438-16.25c.31,4.276-1.386,6.987-4.292,9.35C2091.792,470.692,2088.751,473.777,2085.58,476.7Z" data-name="Path 36226" transform="translate(-10139.818 650.282)"/><path id="Path_36227" fill="url(#linear-gradient)" d="M2082.621,417.765l5,1.083-10.205,9.645C2076.272,423.132,2079.846,420.65,2082.621,417.765Z" data-name="Path 36227" transform="translate(-10139.818 650.282)"/><path id="Path_36228" fill="url(#linear-gradient-2)" d="M2038.907,459.663q-.545,2.06-1.09,4.12c-1.544,2.315-2.67,5.114-6.087,5.273-1.413-.668-2.477-1.569-2.2-3.347,2.157-2,4.371-3.937,6.447-6.015C2037.054,458.614,2037.921,458.838,2038.907,459.663Z" data-name="Path 36228" transform="translate(-10139.818 650.282)"/><path id="Path_36229" fill="url(#linear-gradient-4)" d="M2056.668,446.639c-2.528.449-4.584.041-5.249-2.892-1.275,1.63-2.075,4.265-5.037,2.394a40.687,40.687,0,0,1,8.3-6.307c2.449.768,4.4,1.944,4.059,4.982A2.559,2.559,0,0,0,2056.668,446.639Z" data-name="Path 36229" transform="translate(-10139.818 650.282)"/><path id="Path_36230" fill="url(#linear-gradient-2)" d="M2023.8,459.451c1.475-1.3,3.046-2.518,4.4-3.939,1.444-1.517,2.746-.855,3.855.154,1.686,1.535-.331,2.1-1.044,2.84-1.359,1.417-2.878,2.682-4.331,4.01C2024.3,462.83,2023.263,461.878,2023.8,459.451Z" data-name="Path 36230" transform="translate(-10139.818 650.282)"/><path id="Path_36231" fill="#b0eedb" d="M2087.6,409.038l-3.814,2.7c-2.234-2.661.719-5.32.005-7.98,1.871,1.131,3.946,1.04,6.012,1.005l-.042-.042C2091.48,407.383,2088.066,407.473,2087.6,409.038Z" data-name="Path 36231" transform="translate(-10139.818 650.282)"/><path id="Path_36232" fill="#b0eedb" d="M1893.814,427.7l.9,1.016c.838,1.335.035,2.55-.386,3.719-1.323,3.677-.584,7.049,1.207,10.348.666,1.227,2.01,2.273,1.26,3.963l-.9.879c-6.422-5.815-6.272-12.588-2.89-19.831A3.817,3.817,0,0,0,1893.814,427.7Z" data-name="Path 36232" transform="translate(-10139.818 650.282)"/><path id="Path_36233" fill="#b0eedb" d="M2085.8,394.8c5.642.519,2.673,4.808,2.708,7.215.04,2.7-2.216,1.415-3.684.714Q2085.312,398.764,2085.8,394.8Z" data-name="Path 36233" transform="translate(-10139.818 650.282)"/><path id="Path_36235" fill="url(#linear-gradient)" d="M2093.789,480.135l-4.041-1.5c1.851-1.755,3.6-3.628,5.578-5.232,2.1-1.711,1.227.665,1.6,1.32C2095.981,476.583,2095.976,478.991,2093.789,480.135Z" data-name="Path 36235" transform="translate(-10139.818 650.282)"/><path id="Path_36236" fill="url(#linear-gradient-2)" d="M2018.033,453.275c2.312-1.185,4.072-5.565,7.536-.971-1.533,1.268-3.091,2.559-4.65,3.85C2018.955,456.2,2017.937,455.3,2018.033,453.275Z" data-name="Path 36236" transform="translate(-10139.818 650.282)"/><path id="Path_36238" fill="#b0eedb" d="M2109.834,291.82c5.227-1.027,10.508-2.514,15.109,1.781a3.821,3.821,0,0,0-.311.4,133.089,133.089,0,0,0-15.727-.016l-.254-.337Q2109.242,292.734,2109.834,291.82Z" data-name="Path 36238" transform="translate(-10139.818 650.282)"/><path id="Path_36241" fill="url(#linear-gradient-2)" d="M2015.5,450.067c-1.085-.9-2.259-1.728-2.743-3.153,1.484-1.177,2.989-3.158,4.817-.659C2019.362,448.7,2016.251,448.814,2015.5,450.067Z" data-name="Path 36241" transform="translate(-10139.818 650.282)"/><path id="Path_36245" fill="url(#linear-gradient-2)" d="M2010.031,443.992a6.8,6.8,0,0,1-2.809-3.052c1.665-1.718,3.03-.519,4.052.674C2012.481,443.021,2010.7,443.313,2010.031,443.992Z" data-name="Path 36245" transform="translate(-10139.818 650.282)"/><path id="Path_36247" fill="#b0eedb" d="M1887.266,442.491c4.988,5.156,4.811,12.345-.834,17.317C1889.843,453.591,1890.954,448.14,1887.266,442.491Z" data-name="Path 36247" transform="translate(-10139.818 650.282)"/><path id="Path_36248" fill="url(#linear-gradient-4)" d="M2072.817,513.781c11.167,8.073,22.218,16.315,33.549,24.151,6.04,4.177,8.954,9.3,8.63,16.763-.39,8.973-.077,17.978-.068,26.969,1.521,1.795,1.524,3.984,1.5,6.134-.155,12.413.718,24.856-1,37.222-.3,2.133.466,4.859-2.639,5.743-1.1-5.71-.6-11.491-.413-17.209.358-11.2.9-22.4.913-33.609.061-6.023-.127-12.056.1-18.075-.275,6-.048,12.015-.122,18.023.1,15.554-1.192,31.078-.952,46.629.051,3.3-1.438,4.606-4.418,4.466-3.007-.142-6.393,1.147-8.744-1.976-.808-7.39-.159-14.807-.368-22.206.652-14.485.5-28.981.51-42.734-.172-1.4-1.107-.435-.56-.815,1.2,10.385.277,20.8.463,31.2-.934,8.972-.161,17.968-.42,26.948-.072,2.491.239,5-.3,7.473a3.032,3.032,0,0,1-2.724,1.907c-9.26.147-18.541,1.158-27.762-.572-2.133-1.959-1.668-4.575-1.669-7.022-.008-15.638-.215-31.278.8-46.9.2-3.082.419-6.4-2.116-8.936-.721-.776-1.257-1.7-1.9-2.532-9.064-7.439-18.438-14.481-26.447-19.881,3.872,3.141,9.912,6.847,15.509,11.152a6.753,6.753,0,0,1,2.633,2.861c3.2,12.473-.5,22.975-8.292,32.891-9.336,11.882-17.715,24.5-26.683,36.675-1.292,1.753-2.191,4.432-5.342,3.277-11.27-8.764-22.722-17.28-34.53-25.311-2-2.254.181-3.79,1.182-5.188,8.477-11.833,16.722-23.843,25.447-35.482,3.752-5,2.756-10.025,2.468-15.133-.54-9.584-.485-19.188-1.2-28.762-.22-2.962,1.634-5.694,1.106-8.715a15.236,15.236,0,0,1,4.1-5.215,2.648,2.648,0,0,1,1.025-1.125,32.867,32.867,0,0,1,7.46-1.655c2.211-.21,4.355-1.029,6.618-.787a9.565,9.565,0,0,1,2.029.311c1.195.378,2.389.7,3.5-.248a10.162,10.162,0,0,1,5.515-2.184c.687-.166,1.357-.385,2.048-.543a11.462,11.462,0,0,1,2.958-.308c8.883,2.106,17.241,5.672,25.576,9.286C2071.133,511.325,2072.457,512.121,2072.817,513.781Z" data-name="Path 36248" transform="translate(-10139.818 650.282)"/><path id="Path_36250" fill="#fff" d="M1973.78,614.692c1.845-1.227,3.06.19,4.327,1.1q15,10.773,29.957,21.6c1.426,1.028,3.505,1.786,1.468,4.089-1.776,2.006.3,2.887,1.287,4.029,7.312,8.464,9.023,17.93,4.841,28.3-.747,1.851-1.273,4.266-3.888,4.761-.218-.032-.437-.063-.656-.09-2.165-1.084-3.98-2.714-6.093-3.883a8.413,8.413,0,0,1-1.095-.754,22.823,22.823,0,0,0-6.614-4.348,114.235,114.235,0,0,1-9.938-7.1,29.642,29.642,0,0,0-6.318-4.77,8.151,8.151,0,0,1-1.108-.756,22.709,22.709,0,0,0-6.676-4.381c-3.589-2.158-6.815-4.82-10.185-7.284a26.735,26.735,0,0,0-3.378-2.862c-2.575-1.73-3.246-4.006-1.74-6.81a144.025,144.025,0,0,1,10.008-14.3c2.133-1.74,3.26-4.322,5.188-6.236C1973.37,614.892,1973.575,614.792,1973.78,614.692Z" data-name="Path 36250" transform="translate(-10139.818 650.282)"/><path id="Path_36251" fill="url(#linear-gradient-4)" d="M1877.843,518.7l1.119-.955q16.884,1.553,33.767,3.109c5.585.521,5.571.536,3.4,5.675q-7.548,17.87-15.075,35.746c-1.375,4.079-4.673,2.231-7.128,2.048-11.318-.843-22.617-1.947-33.922-2.957-.859-4.729,1.411-8.207,4.528-11.35a12.734,12.734,0,0,1,3.466-.138c4.279-.2,7.938-1.67,9.595-5.911,1.6-4.1,1.5-8.154-1.629-11.7a12.593,12.593,0,0,1-2.694-3.57A12.68,12.68,0,0,1,1877.843,518.7Z" data-name="Path 36251" transform="translate(-10139.818 650.282)"/><path id="Union_11" fill="url(#linear-gradient-4)" stroke="rgba(0,0,0,0)" stroke-miterlimit="10" stroke-width="1" d="M0,43.187Q8.633,22.582,17.249,1.971C17.935.322,18.95-.164,20.721.046c2.462.29,4.963.248,7.448.348l1.123.972A16.023,16.023,0,0,0,32.648,3.2a5.884,5.884,0,0,1-1.741-1.9A108.955,108.955,0,0,1,50.921,2.972a4.9,4.9,0,0,1,1.527-.1c6.079,2.048,6.09,2.053,3.11,7.887-.588,1.154-.923,2.477-2.042,3.3-1.514.787-3.2.585-4.814.843-8.827,1.414-12.212,10.037-6.672,17,.914,1.149,2.1,2.1,2.551,3.583A29.094,29.094,0,0,1,39.835,46.7ZM43.416,4.181l-.6.111c1.533-.136,3.073-.347,4.614-.561q-.19-.008-.38-.008A19.787,19.787,0,0,0,43.416,4.181Z" data-name="Union 11" transform="translate(-8321.011 1164.553)"/><path id="Path_36254" fill="url(#linear-gradient-4)" d="M1801.585,562.838c-2.636-.353-5.274-.693-7.908-1.067-1.221-.174-2.787.224-2.771-1.914.017-2.242,1.453-2.307,3.039-2.185,6.3.486,12.589,1,18.883,1.5,13.416,1.177,26.835,2.329,40.25,3.538,14.383,1.3,28.759,2.68,43.146,3.926,1.855.161,2.672.627,2.6,2.628-.089,2.593-1.734,2.416-3.453,2.261-7.772-.7-15.545-1.389-23.313-2.13q-29.775-2.842-59.546-5.716C1808.878,563.337,1805.229,563.117,1801.585,562.838Z" data-name="Path 36254" transform="translate(-10139.818 650.282)"/><path id="Path_36255" fill="#eaeaee" d="M2020.777,631.2l-1.973,2.429a3.91,3.91,0,0,1-4.329-1.834c2.177-.208,2.87-2.1,3.909-3.535,9.462-13.05,18.681-26.284,28.4-39.136,5.941-7.852,8.9-16.191,7.394-26.006a31.527,31.527,0,0,1-.067-4.481c2.333-.708,2.954.767,3.306,2.588-.323,4.449-.052,8.9-.145,13.355-.72,3.042-1.239,6.163-3.3,8.7-2.276,5.715-6.241,10.279-10.147,14.883a76.658,76.658,0,0,1-5.066,7.524l.06-.073c-1.768,2.476-3.759,4.8-5.058,7.591l-2.944,2.881c-1.332,2.767-3.36,5.07-5.056,7.6l.059-.071C2024.065,626.091,2022.07,628.414,2020.777,631.2Z" data-name="Path 36255" transform="translate(-10139.818 650.282)"/><path id="Path_36256" fill="#dcdeea" d="M1964.275,644.671l9.36,6.91c2.394,1.707,4.831,3.353,7.234,5.047l-.062-.05a51.324,51.324,0,0,0,7.471,5.084l9.336,6.909c2.406,1.7,4.841,3.356,7.248,5.052l-.062-.052c2.218,1.871,4.735,3.326,7.06,5.048l-.088-.05c.139,3.064-1.315,1.779-2.549.911q-7.926-5.582-15.828-11.2c-12.306-8.717-24.561-17.508-36.955-26.1-2.627-1.821-3.121-3.035-1.055-5.777,5.384-7.143,10.383-14.575,15.593-21.85.843-1.177,2.077-4,2.8.133l.091-.051a49.853,49.853,0,0,0-5.083,7.494l-9.546,13.458c-2.906,2.284-2.457,4.451.455,6.179C1961.256,642.7,1962.49,644.124,1964.275,644.671Z" data-name="Path 36256" transform="translate(-10139.818 650.282)"/><path id="Path_36257" fill="url(#linear-gradient-2)" d="M2008.949,513.208c1.573,3.55-.47,7.007-.252,10.593.7,11.453.85,22.938,1.337,34.406a10.95,10.95,0,0,1-2.236,7.362c-8.7,11.968-17.257,24.046-25.811,36.122-1,1.417-2.731,2.622-2.042,4.8-2.306-.642-2.3-2.066-1.3-3.831,9.382-11.378,17.076-24,26.153-35.587,3.339-4.263,4.189-8.576,3.785-13.787-.768-9.929-1.028-19.9-1.441-29.853A29.661,29.661,0,0,1,2008.949,513.208Z" data-name="Path 36257" transform="translate(-10139.818 650.282)"/><path id="Path_36258" fill="#b0eedb" d="M1858.643,560.969c1.146-3.836,3.586-7.187,4.21-11.219a55.513,55.513,0,0,1,9.366-21.722l3.905-8.326c-1.56-2.173-4.2.146-5.424-1.923a2.148,2.148,0,0,1,1.132-.792,2.609,2.609,0,0,1,1.986.56l4.025,1.148c-1.141,3.479-3.306,6.57-3.894,10.258a57.661,57.661,0,0,1-9.2,21.683,47.022,47.022,0,0,0-4.743,10.725A.937.937,0,0,1,1858.643,560.969Z" data-name="Path 36258" transform="translate(-10139.818 650.282)"/><path id="Path_36259" fill="#b0eedb" d="M2145.6,338.634c.164-2.346,4.6-4.205.8-7,4.155-2.936-.218-5.385-.606-7.983-.888-5.954,1.556-12.428,6.513-15.613a14.88,14.88,0,0,1,22.207,16.882c-.482,1.514-.938,3.242-2.775,3.875-1.518-2.013.13-3.814.436-5.679a12.722,12.722,0,0,0-8.549-14.107c-5.4-1.728-11.637,1.163-14.142,6.555-2.111,4.542-1.115,9.336,2.753,13.242a11.76,11.76,0,0,0,13.783,2.363c1.877-.877,3.235-3.058,5.751-2.41-2.2,4.533-8,7.641-13.1,6.365-5.187-1.3-9.062.675-12.757,3.8Z" data-name="Path 36259" transform="translate(-10139.818 650.282)"/><path id="Path_36260" fill="#b0eedb" d="M2137.566,303.01c-6.35-4.153-8.2-13.684-3.81-19.66,5.4-7.361,14.792-8.956,21.406-3.638,6.694,5.382,7.718,14.447,1.816,21.121.88-4.594,3.648-8.1,2.161-12.622-1.946-5.924-5.854-9.1-11.651-10.2-4.585-.871-10.179,2.325-12.843,6.955-2.936,5.1-2.51,9.642,1.349,14.741.7.924,1.307,1.919,1.959,2.879C2137.825,302.723,2137.7,302.866,2137.566,303.01Z" data-name="Path 36260" transform="translate(-10139.818 650.282)"/><path id="Path_36261" fill="#b0eedb" d="M2150.6,341.6c5.373-4.3,11.892-4.071,16.616,1.024-5.388-3.514-10.825-3.4-16.3-.669Z" data-name="Path 36261" transform="translate(-10139.818 650.282)"/><path id="Path_36262" fill="#b0eedb" d="M2145.921,338.919c-.67,2.537-2.716,3.846-4.678,5.247.674-2.47,2.509-4.008,4.363-5.53Z" data-name="Path 36262" transform="translate(-10139.818 650.282)"/><path id="Path_36264" fill="#b0eedb" d="M2036.858,476.152c-.416,3.154,2.792,4.163,3.825,6.459-1.18,2.2-2.291,4.452-4.693,5.63-.332.292-.68.565-1.026.838-2.913,2.317-5.311,5.192-8.168,7.568-1.266,1.067-1.053,4.574-4.2,2.575a5.788,5.788,0,0,1-1.839-3.564l-1.977-2.792c-.91-1.645.458-2.587,1.146-3.743a6.2,6.2,0,0,1,1.61-1.328c3.848-2.108,6.427-5.588,9.359-8.688a6.531,6.531,0,0,1,1.6-1.282C2033.949,477.273,2035.121,475.971,2036.858,476.152Z" data-name="Path 36264" transform="translate(-10139.818 650.282)"/><path id="Path_36269" fill="#b0eedb" d="M2108.063,342.866c-.037,1.118-2.586,1.432-1.049,2.983.825.832,1.805,1.034.246,2.383-3.1,2.683,1.6,4.223,1.325,6.6a1.409,1.409,0,0,1-.833.986c-2.5-5.677-7.677-7.476-13.061-8.847-5.886-1.5-9.726-5.132-10.863-11.007-1.223-6.318.362-11.925,6.068-15.687,5.219-3.44,10.579-3.415,15.937-.258.221.13.271.553.6,1.283-3.685-.614-6.755-2.987-10.479-2.046-5.553,1.4-10.273,5.783-11.029,10.929-.782,5.324.706,10.039,5.222,13.156,5.56,3.837,11.246,3.226,16.7-.545A.7.7,0,0,1,2108.063,342.866Z" data-name="Path 36269" transform="translate(-10139.818 650.282)"/><path id="Path_36270" fill="#b0eedb" d="M2104.036,410.773c-2.963,3.4-6.531,3.709-10.488,2.063.149-.064.4-.092.437-.2C2096.336,406.6,2100.129,408.387,2104.036,410.773Z" data-name="Path 36270" transform="translate(-10139.818 650.282)"/><path id="Path_36271" fill="#b0eedb" d="M2098.979,400.53c-.649,2.28.945,5.083-2.046,5.822-1.64.406-2.367-1.44-1.931-2.666.9-2.518-.677-6.722,2.2-7.364C2100.052,395.685,2097.79,399.442,2098.979,400.53Z" data-name="Path 36271" transform="translate(-10139.818 650.282)"/><path id="Path_36272" fill="#b0eedb" d="M2089.8,404.765c.346-2.958.595-5.932,1.086-8.866.208-1.248,1.409-2.473,2.292-.83,1.37,2.547.8,5.541.341,8.278-.337,2.022-2.356,1.272-3.761,1.376Z" data-name="Path 36272" transform="translate(-10139.818 650.282)"/><path id="Path_36273" fill="#b0eedb" d="M2103.828,403.238c-.322,1.847.793,4.393-1.85,5.09-1.636.432-2.5-1.33-2.029-2.594.913-2.454-.615-6.422,2.592-7.137C2104.294,398.206,2103.473,401.575,2103.828,403.238Z" data-name="Path 36273" transform="translate(-10139.818 650.282)"/><path id="Path_36274" fill="#b0eedb" d="M2108.063,342.866l-1.22-.072c5.271-5.461,5.484-11.642,1.789-18.984C2114.6,329.119,2114.01,337.031,2108.063,342.866Z" data-name="Path 36274" transform="translate(-10139.818 650.282)"/><path id="Path_36275" fill="#b0eedb" d="M2107.752,355.816l.834-.986q2.6,4.944,5.212,9.888l-.823.98Q2110.365,360.757,2107.752,355.816Z" data-name="Path 36275" transform="translate(-10139.818 650.282)"/><path id="Path_36276" fill="url(#linear-gradient-2)" d="M2066.19,478.566a8.61,8.61,0,1,1-1.055,17.185,8.844,8.844,0,0,1-8.253-8.891A8.709,8.709,0,0,1,2066.19,478.566Z" data-name="Path 36276" transform="translate(-10139.818 650.282)"/><path id="Path_36278" fill="url(#linear-gradient-2)" d="M2038.994,468.064l3.007,1.993c-.68,2.248-2.76,3.215-4.289,4.686-2.247.382-2.923-1.063-3.312-2.845C2035.3,469.864,2036.477,468.161,2038.994,468.064Z" data-name="Path 36278" transform="translate(-10139.818 650.282)"/><path id="Path_36284" fill="#b0eedb" d="M1848.922,515.355a4.178,4.178,0,0,0,.792.215c5.057,2.588,10.546,1.6,15.877,1.893,1.309.071,3.009-1.16,3.487,1.223-7.254.783-14.952,4.622-20.978-3.048A2.2,2.2,0,0,0,1848.922,515.355Z" data-name="Path 36284" transform="translate(-10139.818 650.282)"/><path id="Path_36285" fill="url(#linear-gradient-2)" d="M1994.226,467.586a.418.418,0,0,0-.332-.4,4.626,4.626,0,0,1,1.855-5.054c5.314-4.479,10.465-9.15,15.68-13.747q1.367,1.5,2.733,3-7.647,6.795-15.3,13.59C1997.509,466.176,1996.3,467.656,1994.226,467.586Z" data-name="Path 36285" transform="translate(-10139.818 650.282)"/><path id="Path_36286" fill="url(#linear-gradient-2)" d="M2000.228,436.058l2.826,2.982c-5.166,4.673-10.286,9.4-15.537,13.973-1,.868-1.968,3.244-3.955,1.04-1.8-2,0-2.888,1.178-3.955Q1992.474,443.066,2000.228,436.058Z" data-name="Path 36286" transform="translate(-10139.818 650.282)"/><path id="Path_36287" fill="url(#linear-gradient-2)" d="M2005.916,442.445q1.421,1.51,2.843,3.019-8.2,7.182-16.4,14.358c-1,.869-1.727,2.45-3.443.55-1.571-1.74-.555-2.487.631-3.525Q1997.752,449.671,2005.916,442.445Z" data-name="Path 36287" transform="translate(-10139.818 650.282)"/><path id="Path_36288" fill="url(#linear-gradient-2)" d="M1991.031,432.865c1.836-.059,3.731-.453,5.31.941l-15.284,13.978C1980.093,439.185,1988.1,437.806,1991.031,432.865Z" data-name="Path 36288" transform="translate(-10139.818 650.282)"/><path id="Path_36290" fill="url(#linear-gradient-2)" d="M2025.014,463.694c-5.169,4.661-10.52,9.14-15.428,14.061-2.352,2.358-3.749,1.745-5.494-.246l18.383-16.873Z" data-name="Path 36290" transform="translate(-10139.818 650.282)"/><path id="Path_36291" fill="url(#linear-gradient-2)" d="M2016.874,454.6a6.275,6.275,0,0,1,2.765,3.04q-8.162,7.2-16.329,14.4c-1,.878-1.767,2.368-3.458.476-1.614-1.8-.422-2.492.709-3.489Q2008.73,461.829,2016.874,454.6Z" data-name="Path 36291" transform="translate(-10139.818 650.282)"/><path id="Path_36292" fill="#b0eedb" d="M2054.774,442.668c.9.041,1.69.445,1.637,1.355a1.563,1.563,0,0,1-1.649,1.433,1.58,1.58,0,0,1-1.63-1.46C2053.057,443.03,2053.941,442.77,2054.774,442.668Z" data-name="Path 36292" transform="translate(-10139.818 650.282)"/><path id="Path_36293" fill="url(#linear-gradient-2)" d="M2030.735,469.878q-8.128,7.259-16.253,14.521c-1.121,1.007-1.967,2.105-3.585.385-1.7-1.8-.319-2.458.764-3.422q8.139-7.245,16.26-14.509Z" data-name="Path 36293" transform="translate(-10139.818 650.282)"/><path id="Path_36294" fill="#e9edf3" d="M2065.14,565.923c2.926,1.386,3.611,3.649,3.537,6.846-.44,18.875-.637,37.756-.915,56.635a2.258,2.258,0,0,1-3.4.007c-1.252-9.581-.237-19.207-.566-28.808.784-10.678.439-21.374.523-32.062C2064.322,567.609,2063.99,566.517,2065.14,565.923Z" data-name="Path 36294" transform="translate(-10139.818 650.282)"/><path id="Path_36295" fill="url(#linear-gradient-2)" d="M2064.964,629.557l2.8-.153c10.051-.174,20.13.856,30.151-.679a1.015,1.015,0,0,1,1.745-.006c3.173,1.535,6.513.378,9.769.568,2.978.174,2.288-2.212,2.324-3.886.287-13.427.519-26.855.787-40.282.036-1.82.177-3.637.27-5.455q.4-.691.807,0c.458,17-.288,33.975-1.008,50.951-15.494.165-30.988.777-46.481.055-1.269-.06-3.253.787-3.187-1.793C2064.006,627.939,2064.3,629.3,2064.964,629.557Z" data-name="Path 36295" transform="translate(-10139.818 650.282)"/><path id="Path_36297" fill="#b0eedb" d="M2039.694,503.549c-3.925-1.469-6.146-4.765-8.555-7.889-.882-1.144-1.755-2.184-.25-3.354a2.254,2.254,0,0,1,3.475.614c2.237,3.233,5.7,5.668,6.5,9.848Z" data-name="Path 36297" transform="translate(-10139.818 650.282)"/><path id="Path_36298" fill="url(#linear-gradient-2)" d="M2099.658,628.719l-1.745.006c.1-11.4-.71-22.828.736-34.2,1.572,3.9-.163,8.063.974,12Q2099.641,617.618,2099.658,628.719Z" data-name="Path 36298" transform="translate(-10139.818 650.282)"/><path id="Path_36299" fill="url(#linear-gradient)" d="M2056.885,560.649a4.972,4.972,0,0,0-2.769-2.008l-21.4-15.863.755-1.068,30.289,22a.855.855,0,0,1-1.144.261c-1.9-.27-2.782-2.553-4.863-2.469A1.483,1.483,0,0,1,2056.885,560.649Z" data-name="Path 36299" transform="translate(-10139.818 650.282)"/><path id="Path_36300" fill="url(#linear-gradient-2)" d="M2099.623,606.518c-1.563-3.9.021-8.052-.974-12V561.313h.974Z" data-name="Path 36300" transform="translate(-10139.818 650.282)"/><path id="Path_36301" fill="#b0eedb" d="M2030.729,505.761c.771-2.306-1.451-2.913-2.505-3.994-1.716-1.761-2.758-3.575-2.416-6.056,5.139.963,7.257,3.608,8.016,10.012C2032.808,506.969,2031.776,507.015,2030.729,505.761Z" data-name="Path 36301" transform="translate(-10139.818 650.282)"/><path id="Path_36302" fill="url(#linear-gradient-2)" d="M2062.621,563.969l1.144-.261c1.071.358,1.042,1.4,1.375,2.215q-.255,17.283-.511,34.564c-2.508-1.619-1.181-3.834-.914-5.884.025-8.537.061-17.074.063-25.611C2063.779,567.243,2064.261,565.352,2062.621,563.969Z" data-name="Path 36302" transform="translate(-10139.818 650.282)"/><path id="Path_36303" fill="url(#linear-gradient-2)" d="M2113.615,579.662c-.269,0-.538,0-.807,0V561.423l.807,0Z" data-name="Path 36303" transform="translate(-10139.818 650.282)"/><path id="Path_36304" fill="url(#linear-gradient-2)" d="M2033.116,588.961a68.649,68.649,0,0,1-7.958,11.009c-.525.107-.771-.09-.693-.638a74.252,74.252,0,0,1,8.014-10.959C2032.993,588.242,2033.19,588.455,2033.116,588.961Z" data-name="Path 36304" transform="translate(-10139.818 650.282)"/><path id="Path_36305" fill="url(#linear-gradient-2)" d="M2025.158,599.97a75.239,75.239,0,0,1-7.995,11c-.542.123-.759-.108-.695-.642q4-5.5,8-10.992Q2024.807,599.656,2025.158,599.97Z" data-name="Path 36305" transform="translate(-10139.818 650.282)"/><path id="Path_36306" fill="url(#linear-gradient-2)" d="M2017.163,610.966c-2.323,3.787-4.794,7.457-8.734,10.025l8.039-10.666Q2016.81,610.65,2017.163,610.966Z" data-name="Path 36306" transform="translate(-10139.818 650.282)"/><path id="Path_36308" fill="url(#linear-gradient-2)" d="M2032.479,588.373c1.919-3.088,3.712-6.278,7.357-8.015l-6.72,8.6C2032.9,588.766,2032.69,588.57,2032.479,588.373Z" data-name="Path 36308" transform="translate(-10139.818 650.282)"/><path id="Path_36309" fill="#fefeff" d="M2126.32,642.669c1.426,1.546,3.145,2.862,3.894,4.941,4.6,4.2,5.655,9.766,6.051,15.6.142,2.088-.647,3.05-2.829,2.918-5.618-.339-11.212.392-16.823.5-7.116.241-14.251-.522-21.352.46-8.327.068-16.656-.162-24.972.108-3.761.122-5.4-.684-5.081-4.862.393-5.13.092-10.313.094-15.472q0-1.232,0-2.465c0-10.879,0-10.9,10.986-11.224,3.449-.1,6.9-.017,10.354-.016q11.538,0,23.072,0C2113.582,639.227,2121.074,638.988,2126.32,642.669Z" data-name="Path 36309" transform="translate(-10139.818 650.282)"/><path id="Path_36310" fill="url(#linear-gradient-2)" d="M2063.715,594.6q.457,2.943.914,5.885.167,14.534.334,29.069-1.011-.342-2.024-.684C2062.787,617.442,2062.211,606,2063.715,594.6Z" data-name="Path 36310" transform="translate(-10139.818 650.282)"/><path id="Path_36311" fill="url(#linear-gradient-2)" d="M2065.62,646.681c.073,5.139.381,10.288.14,15.411-.168,3.6.705,4.869,4.6,4.692,8.442-.383,16.911-.187,25.369-.227,1.095-.135,2.582-1.526,2.878.9-9.967.074-19.935.056-29.9.282-2.819.064-4.205-.294-4.017-3.647.324-5.8.146-11.617.179-17.428C2065.132,646.183,2065.383,646.164,2065.62,646.681Z" data-name="Path 36311" transform="translate(-10139.818 650.282)"/><path id="Path_36312" fill="url(#linear-gradient-2)" d="M2065.62,646.681h-.375l-.375-.02c-1.289-13.9-1.289-13.916,12.547-14.014,3.14-.022,6.282.106,9.423.164.294.193.387.376.277.55s-.211.252-.316.252c-5.768.234-11.536.66-17.3.624-3.12-.019-4.028,1.084-3.811,4.037C2065.892,641.061,2065.66,643.878,2065.62,646.681Z" data-name="Path 36312" transform="translate(-10139.818 650.282)"/><path id="Path_36313" fill="url(#linear-gradient-2)" d="M2116.925,665.807c4.982-.088,9.978-.438,14.942-.175,3.578.189,4.153-1.3,3.82-4.32-.563-5.1-2.708-9.511-5.472-13.7,4.246,2.341,8.285,13.237,6.779,17.836-.545,1.664-1.711,1.292-2.76,1.309-4.157.064-8.316.045-12.474.057C2120.124,666.591,2118.028,668.588,2116.925,665.807Z" data-name="Path 36313" transform="translate(-10139.818 650.282)"/><path id="Path_36314" fill="url(#linear-gradient-2)" d="M2116.925,665.807c1.425,1.232,3.332.15,4.835,1.006-7.689,1.3-15.426.843-23.155.642l-2.878-.9C2102.749,665.059,2109.847,665.706,2116.925,665.807Z" data-name="Path 36314" transform="translate(-10139.818 650.282)"/><path id="Path_36315" fill="url(#linear-gradient-2)" d="M2126.32,642.669c-4.868-.645-8.814-4.085-13.9-4.35-2.453-.129-1.342-2.93-1.775-4.547.055-.624.656-.662,1.022-.952.9,2.915,2.536,4.487,5.855,5.084C2120.751,638.486,2124.122,639.734,2126.32,642.669Z" data-name="Path 36315" transform="translate(-10139.818 650.282)"/><path id="Path_36316" fill="url(#linear-gradient-2)" d="M2111.663,632.82l-1.022.952-23.84-.158a3.72,3.72,0,0,0,.039-.8Z" data-name="Path 36316" transform="translate(-10139.818 650.282)"/><path id="Path_36317" fill="url(#linear-gradient-2)" d="M2056.885,560.649l.873.852q-.059,7.039-.117,14.082c-.254.371-.54.416-.862.082Z" data-name="Path 36317" transform="translate(-10139.818 650.282)"/><path id="Path_36318" fill="url(#linear-gradient-2)" d="M2056.779,575.665c.286-.041.573-.069.862-.082-.848,2.745-.182,6.21-3.66,7.7Q2055.381,579.475,2056.779,575.665Z" data-name="Path 36318" transform="translate(-10139.818 650.282)"/><path id="Path_36319" fill="url(#linear-gradient-2)" d="M2038.769,605.693c.664-3.2,2.931-5.316,5.066-7.523A10.7,10.7,0,0,1,2038.769,605.693Z" data-name="Path 36319" transform="translate(-10139.818 650.282)"/><path id="Path_36320" fill="url(#linear-gradient-2)" d="M2025.771,623.687c.621-3.24,3.005-5.306,5.056-7.594C2030.542,619.556,2028.417,621.794,2025.771,623.687Z" data-name="Path 36320" transform="translate(-10139.818 650.282)"/><path id="Path_36321" fill="url(#linear-gradient-2)" d="M2020.777,631.2c.26-3.478,2.378-5.718,5.053-7.588C2025.231,626.867,2022.851,628.934,2020.777,631.2Z" data-name="Path 36321" transform="translate(-10139.818 650.282)"/><path id="Path_36322" fill="url(#linear-gradient-2)" d="M2033.771,613.211c.313-3.445,2.356-5.737,5.058-7.591C2038.174,608.837,2035.818,610.921,2033.771,613.211Z" data-name="Path 36322" transform="translate(-10139.818 650.282)"/><path id="Path_36323" fill="url(#linear-gradient-2)" d="M1964.275,644.671c-3.223-.094-5.381-2.427-7.275-4.364-2.255-2.307.2-3.713,2.241-4.714-1.933,2.758-1.3,4.692,1.707,6.209A17.8,17.8,0,0,1,1964.275,644.671Z" data-name="Path 36323" transform="translate(-10139.818 650.282)"/><path id="Path_36324" fill="url(#linear-gradient-2)" d="M1968.788,622.135a10.978,10.978,0,0,1,5.083-7.494C1973.04,617.725,1971.058,620.027,1968.788,622.135Z" data-name="Path 36324" transform="translate(-10139.818 650.282)"/><path id="Path_36325" fill="url(#linear-gradient-2)" d="M1980.869,656.628a12.621,12.621,0,0,1-7.234-5.047A12.484,12.484,0,0,1,1980.869,656.628Z" data-name="Path 36325" transform="translate(-10139.818 650.282)"/><path id="Path_36326" fill="url(#linear-gradient-2)" d="M1988.278,661.662a11.115,11.115,0,0,1-7.471-5.084C1983.9,657.4,1986.2,659.364,1988.278,661.662Z" data-name="Path 36326" transform="translate(-10139.818 650.282)"/><path id="Path_36327" fill="url(#linear-gradient-2)" d="M2004.862,673.623a12.667,12.667,0,0,1-7.248-5.052A12.677,12.677,0,0,1,2004.862,673.623Z" data-name="Path 36327" transform="translate(-10139.818 650.282)"/><path id="Path_36328" fill="url(#linear-gradient-2)" d="M2011.86,678.619a11.688,11.688,0,0,1-7.06-5.048A12.616,12.616,0,0,1,2011.86,678.619Z" data-name="Path 36328" transform="translate(-10139.818 650.282)"/><path id="Union_10" fill="url(#linear-gradient)" stroke="rgba(0,0,0,0)" stroke-miterlimit="10" stroke-width="1" d="M8.141,22.83a182.53,182.53,0,0,1,9.2-21.683c5.853,4.036,7.781,9.648,5.255,15.3a10.807,10.807,0,0,1-10.61,6.784A20.1,20.1,0,0,1,8.141,22.83Zm-7.2-15.7c2.275-5.7,6.9-7.877,14.67-6.908A207.63,207.63,0,0,1,6.247,21.945C.514,17.929-1.321,12.8.942,7.131Z" data-name="Union 10" transform="translate(-8283.212 1178.088)"/><path id="Path_36333" fill="url(#linear-gradient-2)" d="M2033.656,473.149c4.266,3.42-1.616,3.865-1.758,5.993l-.059.074c-3.578,3.106-6.277,7.184-10.535,9.54l-.076.088c-2.39-.316-3.527,6.575-6.8,1.184Z" data-name="Path 36333" transform="translate(-10139.818 650.282)"/><path id="Path_36335" fill="#b0eedb" d="M2034.782,487.723c6.179.773,7.443,6.837,11.069,10.355.741.719.043,1.43-.761,1.907-.772.457-1.675.825-2.247.1-3.059-3.876-8.1-6.495-8.029-12.394Z" data-name="Path 36335" transform="translate(-10139.818 650.282)"/><path id="Path_36336" fill="#b0eedb" d="M2045.957,494.278c-2.305-2.45-5.56-4.415-6.922-7.9-.517-1.32.514-2.587,2.277-2.3,1.659.267,6.625,6.65,6.513,8.289C2047.757,493.348,2047.772,494.454,2045.957,494.278Z" data-name="Path 36336" transform="translate(-10139.818 650.282)"/></g></svg>