<svg xmlns="http://www.w3.org/2000/svg" xmlns:xlink="http://www.w3.org/1999/xlink" width="890" height="729.788" viewBox="0 0 890 729.788"><defs><linearGradient id="linear-gradient" x1=".5" x2=".5" y2="1" gradientUnits="objectBoundingBox"><stop offset="0" stop-color="#202020"/><stop offset="1" stop-color="#2e2e2e"/></linearGradient></defs><g id="contact" transform="translate(0 0)"><path id="Path_36496" fill="url(#linear-gradient)" d="M374.677,751.016l1.81,38.157v0a24.345,24.345,0,0,1-23.164,25.469l-.79.038-2.964-62.474Z" data-name="Path 36496" transform="translate(-155 -85.106)"/><path id="Path_36497" fill="#e6e6e6" d="M917.171,686.534C899,722,875.947,756.3,846.782,787.342c-.648.7-1.3,1.384-1.962,2.079l-69.1-32.713c.423-.7.886-1.491,1.385-2.353,29.683-50.787,208.865-360.591,203.2-430.758C980.966,329.384,1002.2,520.766,917.171,686.534Z" data-name="Path 36497" transform="translate(-155 -85.106)"/><path id="Path_36498" fill="#e6e6e6" d="M860.113,793.652c-.967.55-1.959,1.088-2.957,1.608L805.318,770.72c.725-.514,1.569-1.122,2.539-1.806,15.881-11.4,63.105-45.613,109.314-82.38,49.658-39.511,98.152-81.964,105.354-102.228C1021.06,588.952,975.611,730.2,860.113,793.652Z" data-name="Path 36498" transform="translate(-155 -85.106)"/><circle id="Ellipse_648" cx="80" cy="80" r="80" fill="#189366" data-name="Ellipse 648" transform="translate(6.23 568.051)"/><path id="Path_36499" fill="#fff" d="M273.275,699.586H209.184A10.694,10.694,0,0,0,198.5,710.268v45.779a10.694,10.694,0,0,0,10.682,10.682h64.091a10.694,10.694,0,0,0,10.682-10.682V710.268a10.694,10.694,0,0,0-10.682-10.682Zm0,6.1a4.556,4.556,0,0,1,1.134.148L241.237,732.3l-32.978-26.515a4.58,4.58,0,0,1,.925-.094Zm0,54.935H209.184a4.583,4.583,0,0,1-4.578-4.578V710.679l34.711,27.909a3.052,3.052,0,0,0,3.815.007l34.72-27.7v45.148a4.583,4.583,0,0,1-4.578,4.577Z" data-name="Path 36499" transform="translate(-155 -85.106)"/><path id="Path_36500" fill="#ffb8b8" d="M549.968,617.658l17.9.147a12.454,12.454,0,0,0,12.4-14.43h0a12.454,12.454,0,0,0-17.807-9.191l-16.881,8.329-57.737,12.876L463.107,590.1,448.9,613.5l33.378,25.788Z" data-name="Path 36500" transform="translate(-155 -85.106)"/><path id="Path_36501" fill="url(#linear-gradient)" d="M546.613,802.6l-21.089,4.056c-14.405-45.409-30.013-88.411-30.012-121.67-20.386,22.689-45.667,35.669-75.436,39.746l3.245-50.29,24.334-12.978L484.9,644.27a28.281,28.281,0,0,1,10.365-2.564h0a28.281,28.281,0,0,1,29.412,23.774Z" data-name="Path 36501" transform="translate(-155 -85.106)"/><path id="Path_36502" fill="url(#linear-gradient)" d="M445.627,718.644l-8.406,6.388a26.031,26.031,0,0,1-25.662,3.345h0c-24.075-18.047-41.179-12.723-56.681,14.516-18.594-20.985-23.182-51.295-6.587-82.651l92.064,2.028,18.656-5.678Z" data-name="Path 36502" transform="translate(-155 -85.106)"/><path id="Path_36503" fill="url(#linear-gradient)" d="M414.967,812.623h0a23.507,23.507,0,0,1-27.82-11.721c-8.274-7.287-15.254-17.721-21.309-30.409a235.352,235.352,0,0,1-11.167-28.683c-4.19-12.94,2.816-27.077,15.855-30.948q.582-.173,1.177-.326c17.406-4.469,35.281,5.571,41.231,22.528l17.3,49.308a23.507,23.507,0,0,1-14.4,29.964Q415.4,812.488,414.967,812.623Z" data-name="Path 36503" transform="translate(-155 -85.106)"/><path id="Path_36504" d="M362.891,764.878s20.278,22.712,24.334,35.69" data-name="Path 36504" opacity=".2" transform="translate(-155 -85.106)"/><path id="Path_36505" fill="#ffb8b8" d="M284.244,657.693l-6.787,16.564a12.454,12.454,0,0,0,8.791,16.872h0A12.454,12.454,0,0,0,301.4,678.012l-1.462-18.767,9.5-58.388,32.669-13.57L325.652,565.4l-36.343,21.409Z" data-name="Path 36505" transform="translate(-155 -85.106)"/><path id="Path_36506" fill="#189366" d="M446.438,660.242c-23.306,39.147-69.767,54.306-109.56,23.652,7-23,29.6-86.567,15-89-31,13-31.045-17.523-36.844-32.8L385.6,536.138l38.123,10.545,7.815,2.773a26.42,26.42,0,0,1,17.582,24.537C433.109,597.129,421.254,621.809,446.438,660.242Z" data-name="Path 36506" transform="translate(-155 -85.106)"/><path id="Path_36507" fill="#189366" d="M455.361,628.608l-27.984-23.117,9.328-53.94,38.123,40.557Z" data-name="Path 36507" transform="translate(-155 -85.106)"/><path id="b82a9922-ead1-40af-af3b-f133b244cde7" fill="url(#linear-gradient)" d="M919.705,258.051h-4V148.506a63.4,63.4,0,0,0-63.4-63.4H620.218a63.4,63.4,0,0,0-63.4,63.4V749.48a63.4,63.4,0,0,0,63.4,63.4H852.3a63.4,63.4,0,0,0,63.4-63.4V336.027h4Z" transform="translate(-155 -85.106)"/><path id="b2a7827b-2d2c-407d-93be-35e4c67116bc" fill="#fff" d="M854.862,101.6H824.567a22.495,22.495,0,0,1-20.828,30.994H670.78A22.5,22.5,0,0,1,649.953,101.6h-28.3A47.348,47.348,0,0,0,574.3,148.95V749.039a47.348,47.348,0,0,0,47.348,47.348h233.2A47.348,47.348,0,0,0,902.2,749.039h0V148.947A47.348,47.348,0,0,0,854.854,101.6h.009Z" transform="translate(-155 -85.106)"/><circle id="e6b07811-3d0f-4972-ba4c-46b0c6566e33" cx="26" cy="26" r="26" fill="#b0eedb" transform="translate(557.659 625.746)"/><path id="Path_36508" fill="#b0eedb" d="M633.182,496.4c-2.458,0-4.458,2.283-4.458,5.088s2,5.088,4.458,5.088H843.325c2.458,0,4.458-2.283,4.458-5.088s-2-5.088-4.458-5.088Z" data-name="Path 36508" transform="translate(-155 -85.106)"/><path id="Path_36509" fill="#b0eedb" d="M633.182,616.405c-2.458,0-4.458,2.283-4.458,5.088s2,5.088,4.458,5.088H843.325c2.458,0,4.458-2.283,4.458-5.088s-2-5.088-4.458-5.088Z" data-name="Path 36509" transform="translate(-155 -85.106)"/><path id="Path_36510" fill="#b0eedb" d="M633.182,526.932c-2.458,0-4.458,2.283-4.458,5.088s2,5.088,4.458,5.088h90.425c2.458,0,4.458-2.283,4.458-5.088s-2-5.088-4.458-5.088Z" data-name="Path 36510" transform="translate(-155 -85.106)"/><path id="Path_36511" fill="#b0eedb" d="M633.182,556.03c-2.458,0-4.458,2.283-4.458,5.088s2,5.088,4.458,5.088H843.325c2.458,0,4.458-2.283,4.458-5.088s-2-5.088-4.458-5.088Z" data-name="Path 36511" transform="translate(-155 -85.106)"/><path id="Path_36512" fill="#b0eedb" d="M633.182,586.558c-2.458,0-4.458,2.283-4.458,5.088s2,5.088,4.458,5.088h90.425c2.458,0,4.458-2.283,4.458-5.088s-2-5.088-4.458-5.088Z" data-name="Path 36512" transform="translate(-155 -85.106)"/><path id="Path_36513" fill="#189366" d="M672.853,264.733H803.667a5.457,5.457,0,0,1,5.451,5.451V406.421a5.457,5.457,0,0,1-5.451,5.451H672.853a5.457,5.457,0,0,1-5.451-5.451V270.184a5.457,5.457,0,0,1,5.451-5.451Z" data-name="Path 36513" transform="translate(-155 -85.106)"/><path id="Path_36514" fill="#fff" d="M775.793,383.777a3.7,3.7,0,1,0,0-7.4h-75.07a3.7,3.7,0,0,0,0,7.4Z" data-name="Path 36514" transform="translate(-155 -85.106)"/><path id="Path_36515" fill="#fff" d="M775.793,361.975a3.7,3.7,0,0,0,0-7.4H700.727a3.7,3.7,0,0,0,0,7.4Z" data-name="Path 36515" transform="translate(-155 -85.106)"/><path id="Path_36516" fill="#fff" d="M738.26,292.828a23.293,23.293,0,1,1-23.292,23.293h0A23.319,23.319,0,0,1,738.26,292.828Z" data-name="Path 36516" transform="translate(-155 -85.106)"/><path id="Path_36517" fill="#2f2e41" d="M441.064,529.077h-69.15a5.371,5.371,0,0,1-5.365-5.365V493.906a39.94,39.94,0,0,1,79.88,0v29.806a5.371,5.371,0,0,1-5.365,5.365Z" data-name="Path 36517" transform="translate(-155 -85.106)"/><circle id="Ellipse_649" cx="29.283" cy="29.283" r="29.283" fill="#ffb6b6" data-name="Ellipse 649" transform="translate(219.382 424.543) rotate(-61.337)"/><path id="Path_36518" fill="#2f2e41" d="M455.878,496.886H413.6l-.434-6.071-2.168,6.071h-6.511l-.859-12.032-4.3,12.032h-12.6v-.6A31.63,31.63,0,0,1,418.323,464.7h5.961a31.63,31.63,0,0,1,31.594,31.594Z" data-name="Path 36518" transform="translate(-155 -85.106)"/><path id="Path_36519" fill="#2f2e41" d="M413.249,534.64a5.479,5.479,0,0,1-.95-.084l-30.962-5.463v-51.17h34.083l-.844.984c-11.74,13.692-2.9,35.894,3.422,47.91a5.286,5.286,0,0,1-.42,5.612A5.344,5.344,0,0,1,413.249,534.64Z" data-name="Path 36519" transform="translate(-155 -85.106)"/><path id="Path_36520" fill="url(#linear-gradient)" d="M516.333,787.282l38.2,0h0a24.345,24.345,0,0,1,24.344,24.342v.793l-62.544,0Z" data-name="Path 36520" transform="translate(-155 -85.106)"/><path id="Path_36521" fill="#cacaca" d="M1044,814.894H156a1,1,0,0,1,0-2h888a1,1,0,0,1,0,2Z" data-name="Path 36521" transform="translate(-155 -85.106)"/></g></svg>