<svg xmlns="http://www.w3.org/2000/svg" xmlns:xlink="http://www.w3.org/1999/xlink" id="customizations" width="820.254" height="645.77" viewBox="0 0 820.254 645.77"><defs><linearGradient id="linear-gradient" x1=".5" x2=".5" y2="1" gradientUnits="objectBoundingBox"><stop offset="0" stop-color="#202020"/><stop offset="1" stop-color="#2e2e2e"/></linearGradient><linearGradient id="linear-gradient-6" x1=".5" x2=".5" y2="1" gradientUnits="objectBoundingBox"><stop offset="0" stop-color="#1db27b"/><stop offset="1" stop-color="#0f593e"/></linearGradient><linearGradient id="linear-gradient-10" x1=".5" x2=".5" y2="1" gradientUnits="objectBoundingBox"><stop offset="0" stop-color="#383838"/><stop offset="1" stop-color="#020202"/></linearGradient></defs><g id="Group_14936" data-name="Group 14936"><path id="Path_36522" fill="#3f3d56" d="M215.144,291.444a3.277,3.277,0,0,0-3.274,3.274v26.191a3.274,3.274,0,0,0,6.548,0V294.718A3.277,3.277,0,0,0,215.144,291.444Z" data-name="Path 36522"/><path id="Path_36523" fill="#fff" d="M587.537,0H293.04a60.469,60.469,0,0,0-60.469,60.469v520.4a60.469,60.469,0,0,0,60.469,60.469h294.5a60.469,60.469,0,0,0,60.469-60.469V60.469A60.469,60.469,0,0,0,587.538,0Z" data-name="Path 36523"/><path id="Path_36524" fill="url(#linear-gradient)" d="M587.538,645.769H293.04a61.971,61.971,0,0,1-61.9-61.9V63.469a61.971,61.971,0,0,1,61.9-61.9h294.5a61.972,61.972,0,0,1,61.9,61.9v520.4a61.971,61.971,0,0,1-61.9,61.9ZM293.04,4.432A59.1,59.1,0,0,0,234,63.469v520.4a59.1,59.1,0,0,0,59.037,59.036h294.5a59.1,59.1,0,0,0,59.037-59.036V63.469A59.1,59.1,0,0,0,587.538,4.432H293.04Z" data-name="Path 36524"/><path id="Path_36525" fill="#b0eedb" d="M608.87,126.8H490.5a9.106,9.106,0,1,1,0-18.211H608.87a9.106,9.106,0,0,1,0,18.211Z" data-name="Path 36525"/><path id="Path_36526" fill="#189366" d="M497.821,198.41H382.758a5.261,5.261,0,1,1,0-10.521H497.821a5.261,5.261,0,0,1,0,10.521Z" data-name="Path 36526"/><rect id="Rectangle_13673" width="66.581" height="8.536" fill="#b0eedb" data-name="Rectangle 13673" rx=".31" transform="translate(269.054 22.557)"/><circle id="Ellipse_650" cx="6.829" cy="6.829" r="6.829" fill="#b0eedb" data-name="Ellipse 650" transform="translate(549.634 17.435)"/><circle id="Ellipse_651" cx="6.829" cy="6.829" r="6.829" fill="#b0eedb" data-name="Ellipse 651" transform="translate(568.413 17.435)"/><circle id="Ellipse_652" cx="6.829" cy="6.829" r="6.829" fill="#b0eedb" data-name="Ellipse 652" transform="translate(587.192 17.435)"/><path id="Path_36527" fill="#3f3d56" d="M292.323,226.571a1.7,1.7,0,0,0,1.7,1.7H586.55a1.7,1.7,0,1,0,0-3.408H294.027a1.7,1.7,0,0,0-1.7,1.7Z" data-name="Path 36527"/><path id="Path_36528" fill="#272727" d="M524.323,467.571a1.7,1.7,0,0,0,1.7,1.7H818.55a1.7,1.7,0,0,0,0-3.408H526.027A1.7,1.7,0,0,0,524.323,467.571Z" data-name="Path 36528"/><path id="Path_36529" fill="#189366" d="M558.5,360.5H382.951a5.261,5.261,0,1,1,0-10.521H558.5a5.261,5.261,0,0,1,0,10.521Z" data-name="Path 36529"/><circle id="Ellipse_653" cx="12.887" cy="12.887" r="12.887" fill="#189366" data-name="Ellipse 653" transform="translate(316.819 341.7)"/><path id="Path_36530" fill="#3f3d56" d="M328.274,376.066V373.2a19.331,19.331,0,1,0,0-38.661v-2.864a22.194,22.194,0,1,1,0,44.389Z" data-name="Path 36530"/><path id="uuid-9e40be56-d004-4de8-84cd-e8041855938b-78" fill="#ffb6b6" d="M174.781,302.615c5.257-5.35,12.278-6.974,15.682-3.628s1.9,10.394-3.358,15.745a18.77,18.77,0,0,1-7.467,4.779L157.079,341.9,146.8,331.086l23.331-20.92a18.772,18.772,0,0,1,4.65-7.551Z"/><path id="Path_36531" fill="#e6e6e6" d="M102.633,284.137l23.653,52.473,37.77-20.445,13.517,7.174s-30.876,51.62-52.018,45.744-58.682-59.158-51.918-75.6,29-9.343,29-9.343Z" data-name="Path 36531"/><path id="Path_36532" fill="#222" d="M0,644.013a1.186,1.186,0,0,0,1.19,1.19H730.48a1.19,1.19,0,0,0,0-2.38H1.19A1.187,1.187,0,0,0,0,644.013Z" data-name="Path 36532"/><ellipse id="Ellipse_654" cx="64.899" cy="63.532" fill="#189366" data-name="Ellipse 654" rx="64.899" ry="63.532" transform="translate(153.423 260.415)"/><g id="Group_14925" data-name="Group 14925"><path id="Path_36533" fill="#ffb6b6" d="M92.261,633.848l17.247,0,8.2-66.524-25.455,0Z" data-name="Path 36533"/><path id="Path_36534" fill="url(#linear-gradient)" d="M151.351,633.457h0c.537.9.82,3.823.82,4.875h0a5.854,5.854,0,0,1-5.854,5.854H92.906a3.993,3.993,0,0,1-3.993-3.993v-2.224s-2.642-6.683,2.8-14.921c0,0,6.761,6.45,16.864-3.653l2.979-5.4,21.565,15.772,11.953,1.471c2.615.322,4.934-.05,6.279,2.216h0Z" data-name="Path 36534"/></g><path id="Path_36535" fill="#ffb6b6" d="M105.312,287.5l.349-23.262L91.316,255.3l-15.6,19.08Z" data-name="Path 36535"/><path id="Path_36536" d="M105.312,287.5l.929-22.682L91.316,255.3l5.071,28.07Z" data-name="Path 36536" opacity=".1"/><path id="Path_36537" fill="url(#linear-gradient)" d="M140.15,441.325,116.384,603.047H86.567l3.965-92.315,2.087-48.54-6.052-23.1a103.193,103.193,0,0,1-5.084-11.361c-2.62-7.025-4.689-15.448-1.617-19.441,1.13-1.472,4.069-2.562,8.063-3.374a83.438,83.438,0,0,1,8.347-1.188c17.633-1.745,42.714-.655,42.714-.655l.638,21.041.354,11.75.168,5.466Z" data-name="Path 36537"/><g id="Group_14926" data-name="Group 14926"><path id="Path_36538" fill="#ffb6b6" d="M61.88,625.939l17.064,2.507,17.794-64.624-25.184-3.7Z" data-name="Path 36538"/><path id="Path_36539" fill="url(#linear-gradient)" d="M120.4,634.147h0c.4.973.255,3.9.1,4.943h0a5.854,5.854,0,0,1-6.643,4.94l-52.844-7.769a3.993,3.993,0,0,1-3.37-4.532l.323-2.2s-1.642-7,4.938-14.355c0,0,5.751,7.365,17.216-1.161l3.733-4.906L102.9,627.847l11.612,3.194c2.541.7,4.889.668,5.89,3.105h0Z" data-name="Path 36539"/></g><path id="Path_36540" fill="url(#linear-gradient)" d="M140.524,414.354l-3.26,28.072-17.777,59.156L90.224,598.973l-29.5-4.335L87.2,456.163l-2.621-23.745s-.854-2.36-1.832-5.816c-1.942-6.836-4.378-17.969-1.7-23.647a6.638,6.638,0,0,1,1.378-1.984c1.054-1.022,3.2-1.643,6.067-1.972,12-1.356,36.706,2.522,47.7,4.426l4.329,10.929Z" data-name="Path 36540"/><path id="Path_36541" fill="url(#linear-gradient-6)" d="M79,269.459l28.982,13.912s30.721,91,30.721,95.642,8.695,7.535,3.478,12.752,9.71,9.635,1.667,13.8-58.217,26.961-63.8,24.9c-15.387-5.669.652-26.5.652-26.5s-11.559-9.309-9.82-13.946S60.448,296.7,60.448,296.7L79,269.459Z" data-name="Path 36541"/><g id="Group_14927" data-name="Group 14927"><path id="uuid-73aedec7-8a7b-498d-9bbc-62d5085a8040-79" fill="#ffb6b6" d="M167.309,349.648c7.193-2.125,14.12-.136,15.471,4.442S179.4,364.1,172.2,366.224a18.77,18.77,0,0,1-8.848.553l-30.59,8.619-3.739-14.441,30.553-6.964a18.772,18.772,0,0,1,7.731-4.344Z"/><path id="Path_36542" fill="url(#linear-gradient-6)" d="M113.2,298.469l-4.795,57.358,42.946.462,8.335,12.834s-52.053,30.14-67.684,14.739-22.585-80.207-8.688-91.3,29.885,5.907,29.885,5.907Z" data-name="Path 36542"/></g><g id="Group_14929" data-name="Group 14929"><circle id="Ellipse_655" cx="24.828" cy="24.828" r="24.828" fill="#ffb6b6" data-name="Ellipse 655" transform="translate(79.88 221.335)"/><path id="Path_36543" fill="url(#linear-gradient)" d="M91.317,246.261s3.91-6.451,6.06-9.775,2.15-8.192,2.15-8.192,19.94-.409,26.587,5.26,11.339-15.249,4.887-22.482c0,0-2.737,3.128-2.15,4.3l.586,1.173s-3.323-13.294-12.9-15.835c0,0-5.329,2.752-3.837,4.309s-11.411-9.391-15.321-2.94c0,0-9.579-.2-8.406,3.323l-.586,2.15s-8.211-2.541-8.8,3.519c0,0,2.932,0,4.5,1.564s-5.669,6.06-5.669,6.06-8.406,23.068,2.932,32.452c0,0,.1-11.241,4.594-8.5a36.971,36.971,0,0,1,5.376,3.617Z" data-name="Path 36543"/><g id="Group_14928" data-name="Group 14928"><path id="Path_36544" fill="#2f2e41" d="M114.944,260.923l-.892,2.346,6.686.195.446-2.15Z" data-name="Path 36544"/><path id="Path_36545" fill="url(#linear-gradient)" d="M121.63,252.517s-10.029-2.737-16.046,5.474l-1.337,1.564s-12.7-14.271-11.589-19.549l-2.674.2-2.674,13.684s8.469,14.662,20.28,15.249c0,0,11.366,2.737,13.817-1.955s6.672-11.61,6.672-11.61l-6.449-3.052Zm-1.824,13.1h-6.645c-1.56,0-5.572-5.669-5.572-5.669,2.229-3.519,8.914-3.714,8.914-3.714h7.261l.54,2.15-4.5,7.233Z" data-name="Path 36545"/></g></g><g id="Group_14930" data-name="Group 14930"><path id="Path_36546" fill="#a0616a" d="M605.6,635.737l-10.9-2.356,3.9-43.168,16.089,3.477Z" data-name="Path 36546"/><path id="Path_36547" fill="url(#linear-gradient-10)" d="M568.3,627.421h0a9.576,9.576,0,0,0-1.184,2.969h0a3.785,3.785,0,0,0,2.9,4.5l33.76,7.294a2.582,2.582,0,0,0,3.069-1.979l.3-1.406s2.583-3.864.269-9.813c0,0-5.154,3.154-10.16-4.612l-1.146-3.818-15.785,7.024-7.756-.7c-1.7-.154-3.112-.705-4.271.543h0Z" data-name="Path 36547"/></g><g id="Group_14931" data-name="Group 14931"><path id="Path_36548" fill="#a0616a" d="M586.1,632.435l-9.094-6.456,20.57-38.152L611,597.355Z" data-name="Path 36548"/><path id="Path_36549" fill="url(#linear-gradient-10)" d="M555.086,610.114h0a9.576,9.576,0,0,0-2.257,2.264h0a3.785,3.785,0,0,0,.9,5.278l28.167,19.989a2.582,2.582,0,0,0,3.6-.611l.832-1.173s3.895-2.536,4.109-8.916c0,0-5.979.871-7.526-8.237l.449-3.961-17.275.246-6.854-3.7c-1.5-.809-2.583-1.873-4.14-1.182h0Z" data-name="Path 36549"/></g><path id="Path_36550" fill="url(#linear-gradient-10)" d="M717.117,419.008s16.959,23.058-16.959,48.981L630.907,445.86l24.732-51.585,21.906-12.013,39.572,36.745Z" data-name="Path 36550"/><path id="Path_36551" fill="url(#linear-gradient)" d="M630.907,445.86l-26.852,52.291-16.96,108.823,21.2,1.413,21.2-103.169,37.451-55.825L640.8,437.38" data-name="Path 36551"/><path id="Path_36552" fill="url(#linear-gradient)" d="M700.158,451.563v16.425l-48.052,52.775s0,39.572-18.373,57.944l-21.2,32.505-18.373-9.893,26.852-94.69,48.052-62.184,31.092,7.116Z" data-name="Path 36552"/><path id="Path_36553" fill="#a0616a" d="M666.011,288.723l7.287,34.511,27.781-6.789s-13.732-28.562-11-39.877Z" data-name="Path 36553"/><path id="Path_36554" d="M666.011,288.723l7.287,34.511,27.781-6.789s-13.732-28.562-11-39.877Z" data-name="Path 36554" opacity=".1"/><path id="Path_36555" fill="url(#linear-gradient-6)" d="M692.385,293.933l-21.2,9.893s-10.906,6.666-11.106,11.106,1.213,25.639,1.213,25.639-8.48,8.48-2.827,25.439l-2.827,28.266,63.6,33.919-5.653-59.358,2.827-55.118-24.026-19.786Z" data-name="Path 36555"/><g id="Group_14932" data-name="Group 14932"><path id="uuid-8e851e4b-a66f-4616-8a31-24a5e3f3093d-80" fill="url(#linear-gradient-6)" d="M711.414,454.766c-2.482,5.695-7.432,9.03-11.057,7.45s-4.549-7.477-2.065-13.174a15.547,15.547,0,0,1,4.36-5.908l10.821-24,11.153,5.318-11.852,23.092a15.548,15.548,0,0,1-1.361,7.218Z"/><path id="Path_36556" fill="url(#linear-gradient-6)" d="M700.158,317.252s15.546-9.893,21.2,1.413,18.373,69.251,18.373,69.251l-18.373,55.118L704.4,435.967l14.839-59.319-19.079-59.4Z" data-name="Path 36556"/></g><g id="Group_14933" data-name="Group 14933"><path id="uuid-35301953-803a-439b-9845-5bf97a98fdf5-81" fill="url(#linear-gradient-6)" d="M620.481,445.869c-4.406,4.38-10.237,5.657-13.023,2.853s-1.474-8.627,2.933-13.008a15.547,15.547,0,0,1,6.23-3.886l18.9-18.322,8.409,9.053-19.526,17.1a15.548,15.548,0,0,1-3.924,6.209Z"/><path id="Path_36557" fill="url(#linear-gradient-6)" d="M660.677,313.88s27.1-1.108,28.194,11.485-17.438,68.787-17.438,68.787l-37.386,44.473-13.163-12.817,35.649-49.68,4.145-62.248Z" data-name="Path 36557"/></g><g id="Group_14934" data-name="Group 14934"><path id="Path_36558" fill="#189366" d="M738.935,463.127,565.627,435.174a5.261,5.261,0,1,1,1.675-10.387L740.61,452.74a5.261,5.261,0,0,1-1.675,10.387Z" data-name="Path 36558"/><circle id="Ellipse_656" cx="12.887" cy="12.887" r="12.887" fill="#189366" data-name="Ellipse 656" transform="translate(501.116 407.973)"/><path id="Path_36559" fill="#3f3d56" d="M509.169,441.837l.456-2.827a19.331,19.331,0,1,0,6.156-38.168l.456-2.827a22.194,22.194,0,0,1-7.068,43.823Z" data-name="Path 36559"/></g><g id="Group_14935" data-name="Group 14935"><circle id="Ellipse_657" cx="21.344" cy="21.344" r="21.344" fill="#a0616a" data-name="Ellipse 657" transform="translate(647.446 253.37)"/><path id="Path_36560" fill="#2f2e41" d="M681.4,274.714s-13.325-12.1-21.862-7.826A131.55,131.55,0,0,0,646.735,274s-7.115-10.672,3.557-19.921c0,0-21.722-9.49-5.881-24.311s30.071-9.129,30.071-9.129,19.21,8.538,5.692,25.613c0,0,19.693,12.49,9.491,32.925,0,0-.953-13-3.8-9.446a43.458,43.458,0,0,1-4.462,4.98Z" data-name="Path 36560"/></g><path id="Path_36561" fill="#fff" d="M240.62,347.867l-24.479-60.184a3.016,3.016,0,0,0-5.757,0,266.022,266.022,0,0,0-15.863,65.356c-.431,3.811,5.542,3.781,5.97,0a255.138,255.138,0,0,1,4.352-26.046,62.77,62.77,0,0,0,19.991-2.2l10.029,24.658c1.429,3.512,7.206,1.976,5.757-1.587ZM206.2,321.091q3.016-12.347,7.219-24.368l9.15,22.5a57.658,57.658,0,0,1-16.369,1.871Z" data-name="Path 36561"/></g><circle id="Ellipse_658" cx="6" cy="6" r="6" fill="#fff" data-name="Ellipse 658" transform="translate(246.127 340.885)"/><circle id="Ellipse_659" cx="6" cy="6" r="6" fill="#fff" data-name="Ellipse 659" transform="translate(183.127 287.885)"/></svg>