<svg xmlns="http://www.w3.org/2000/svg" xmlns:xlink="http://www.w3.org/1999/xlink" width="810.137" height="595.284" viewBox="0 0 810.137 595.284"><defs><linearGradient id="linear-gradient" x1=".5" x2=".5" y2="1" gradientUnits="objectBoundingBox"><stop offset="0" stop-color="#202020"/><stop offset="1" stop-color="#2e2e2e"/></linearGradient><linearGradient id="linear-gradient-2" x1=".5" x2=".5" y2="1" gradientUnits="objectBoundingBox"><stop offset="0" stop-color="#1db27b"/><stop offset="1" stop-color="#0f593e"/></linearGradient></defs><g id="design" transform="translate(0 0)"><path id="Path_36562" fill="#ffb6b6" d="M378.969,471.236l12.8-5.727-16.029-53.3-18.89,8.452Z" data-name="Path 36562"/><path id="Path_36563" fill="url(#linear-gradient)" d="M564.736,609.125l19.145-13.52,5.284,8.518,27,1.329a6.261,6.261,0,0,1,2.993,11.575L595.489,631.71l-9.307-5.895,3.634,9.414-8.924,5.536Z" data-name="Path 36563" transform="translate(-194.934 -152.357)"/><path id="Path_36564" fill="url(#linear-gradient-2)" d="M902.658,522.718c0-5.36-1.8-9.71-4.01-9.72H296.158c-2.22.01-4.01,4.36-4.02,9.72V743.361a2,2,0,0,1-1.809,1.994q-2.425.233-4.851.433c-.04,0-.08.01-.12.01-.88.08-1.76.14-2.64.21h-.01q-.679-1.255-1.342-2.533a2.011,2.011,0,0,1-.228-.929V510.108c0-1.48.06-2.97.16-4.44a56.879,56.879,0,0,1,.75-6.02c1.69-9.29,5.51-15.58,9.85-15.6h611a4.683,4.683,0,0,1,1.84.39,7.173,7.173,0,0,1,2.27,1.59,14.073,14.073,0,0,1,2.23,3.05c2.14,3.77,3.67,9.39,4.21,15.93,0,.06.01.12.01.18.14,1.62.21,3.27.2,4.92l.14,21.43.09,12.78.27,40.1.1,14.24.44,146.2h0a2,2,0,0,1-2,2h-8.04a2,2,0,0,1-2-2Z" data-name="Path 36564" transform="translate(-194.934 -152.357)"/><path id="Path_36565" fill="url(#linear-gradient)" d="M738.942,383.772H674.023a3.464,3.464,0,0,0-3.459,3.467V489.793H742.41V387.24a3.466,3.466,0,0,0-3.468-3.468ZM706.7,442.042a7.7,7.7,0,0,1-7.666-7.666V422.548a7.666,7.666,0,1,1,15.332,0v11.829a7.7,7.7,0,0,1-7.666,7.666Z" data-name="Path 36565" transform="translate(-194.934 -152.357)"/><path id="Path_36566" fill="#3f3d56" d="M670.341,486.513v9.894a1.938,1.938,0,0,0,1.934,1.934H740.7a1.944,1.944,0,0,0,1.934-1.934v-9.894Z" data-name="Path 36566" transform="translate(-194.934 -152.357)"/><path id="Path_36567" fill="#ffb6b6" d="M586.932,240.957a13.844,13.844,0,0,1-20.158,6.657l-91.638,63.839-2.53-25.44,90.1-58.376a13.919,13.919,0,0,1,24.224,13.32Z" data-name="Path 36567" transform="translate(-194.934 -152.357)"/><path id="Path_36568" fill="#189366" d="M381.76,281.208s-9.922,14.662,5.648,27.636,78.681,10.393,88.865,10.282,56.913-48.45,56.913-48.45l-.306-27.917-56.418,33.476Z" data-name="Path 36568" transform="translate(-194.934 -152.357)"/><path id="Path_36569" fill="#ffb6b6" d="M376.142,378.55l1,19s-2.952,16.831-.524,20.462c2.409,3.614,68.568,8.99,68.568,8.99s-2.074-28.336,1.667-48.833Z" data-name="Path 36569" transform="translate(-194.934 -152.357)"/><path id="Path_36570" fill="url(#linear-gradient)" d="M579.186,572,553.719,594.3,503.806,492.215c-49.5,8.512-96.19,11.239-136.579.942-13.675-3.438-22.034-17.558-18.67-31.538q.236-.98.545-1.94c4.834-14.748,17.487-25.183,27.456-41.4l72.817,1.106-8.133,28.062,70.737-9.154c14.225-1.841,27.217,8.456,29.018,23q.143,1.152.186,2.313Z" data-name="Path 36570" transform="translate(-194.934 -152.357)"/><circle id="Ellipse_660" cx="29.568" cy="29.568" r="29.568" fill="#ffb6b6" data-name="Ellipse 660" transform="translate(180.072 39.194)"/><path id="Path_36571" fill="#189366" d="M387.24,261.362l27.111,3.19a5.532,5.532,0,0,1,4.758,4.313l4.311,19.729L450.3,320.244s9.651,18.1,6.032,38.6A145.273,145.273,0,0,1,445.12,394.6s-66.1,27.032-68.509,23.413-3.2-20.058-3.2-20.058l-8.5-94.6a33.944,33.944,0,0,1,9.756-27.275c2.145-2.11,4.263-3.588,5.986-3.588C384.546,272.354,384.047,263.592,387.24,261.362Z" data-name="Path 36571" transform="translate(-194.934 -152.357)"/><path id="Path_36572" fill="#ffb6b6" d="M250.479,510.874l12.581,6.162,30.287-46.676-18.569-9.095Z" data-name="Path 36572"/><path id="Path_36573" fill="url(#linear-gradient)" d="M475.551,652.682,449.7,642.869l35.474-106.546c-48.194-14.13-84.546-36.889-116.286-63.905-10.768-9.1-18.843-20.795-9.672-31.869q.643-.777,1.343-1.5c10.829-11.118,38.312-8.979,54.4-19.16L450.944,458.3l-2.254,10.291,67.551,22.9c13.585,4.605,20.722,19.567,15.941,33.419q-.379,1.1-.85,2.159Z" data-name="Path 36573" transform="translate(-194.934 -152.357)"/><path id="Path_36574" fill="url(#linear-gradient)" d="M444.984,655.794l21.625,9.039-4.41,9,13.217,23.581A6.261,6.261,0,0,1,467.2,706.1l-25.014-12.254.05-11.016-6.045,8.079-9.431-4.62Z" data-name="Path 36574" transform="translate(-194.934 -152.357)"/><path id="Path_36575" fill="#ffb6b6" d="M402.7,492.659a13.844,13.844,0,0,1-2.534-21.077L355.735,369.117l25.438,2.558,39.378,99.877A13.919,13.919,0,0,1,402.7,492.659Z" data-name="Path 36575" transform="translate(-194.934 -152.357)"/><path id="Path_36576" fill="#189366" d="M403.871,283.579s-12.407-12.629-28.207.064-25.769,75.065-27.676,85.07,36.221,65.38,36.221,65.38l27.425,5.228-21.641-61.93Z" data-name="Path 36576" transform="translate(-194.934 -152.357)"/><path id="Path_36577" fill="url(#linear-gradient)" d="M846.443,223.726H568.938a9.008,9.008,0,0,0-8.994,8.994V419.982a9,9,0,0,0,8.994,8.994H846.443a9,9,0,0,0,8.994-8.994V232.72a9.008,9.008,0,0,0-8.994-8.994Z" data-name="Path 36577" transform="translate(-194.934 -152.357)"/><path id="Path_36578" fill="#fff" d="M844.126,230.223H571.256a4.821,4.821,0,0,0-4.81,4.82v182.62a4.818,4.818,0,0,0,4.81,4.81h272.87a4.818,4.818,0,0,0,4.81-4.81V235.043a4.82,4.82,0,0,0-4.81-4.82Z" data-name="Path 36578" transform="translate(-194.934 -152.357)"/><path id="Path_36579" fill="url(#linear-gradient)" d="M790.976,501.785H628.633a2.986,2.986,0,0,1-2.922-3.6l2.519-11.964a3,3,0,0,1,2.922-2.371H788.457a3,3,0,0,1,2.922,2.371l2.519,11.964a2.987,2.987,0,0,1-2.922,3.6Z" data-name="Path 36579" transform="translate(-194.934 -152.357)"/><rect id="Rectangle_13674" width="5" height="3" fill="url(#linear-gradient-2)" data-name="Rectangle 13674" rx=".488" transform="translate(437.37 333.645)"/><rect id="Rectangle_13675" width="5" height="3" fill="url(#linear-gradient-2)" data-name="Rectangle 13675" rx=".488" transform="translate(447.37 333.645)"/><rect id="Rectangle_13676" width="5" height="3" fill="url(#linear-gradient-2)" data-name="Rectangle 13676" rx=".488" transform="translate(457.37 333.645)"/><rect id="Rectangle_13677" width="5" height="3" fill="url(#linear-gradient-2)" data-name="Rectangle 13677" rx=".488" transform="translate(467.37 333.645)"/><rect id="Rectangle_13678" width="5" height="3" fill="url(#linear-gradient-2)" data-name="Rectangle 13678" rx=".488" transform="translate(477.37 333.645)"/><rect id="Rectangle_13679" width="5" height="3" fill="url(#linear-gradient-2)" data-name="Rectangle 13679" rx=".488" transform="translate(487.37 333.645)"/><rect id="Rectangle_13680" width="5" height="3" fill="url(#linear-gradient-2)" data-name="Rectangle 13680" rx=".488" transform="translate(497.37 333.645)"/><rect id="Rectangle_13681" width="5" height="3" fill="url(#linear-gradient-2)" data-name="Rectangle 13681" rx=".488" transform="translate(507.37 333.645)"/><rect id="Rectangle_13682" width="5" height="3" fill="url(#linear-gradient-2)" data-name="Rectangle 13682" rx=".488" transform="translate(517.37 333.645)"/><rect id="Rectangle_13683" width="5" height="3" fill="url(#linear-gradient-2)" data-name="Rectangle 13683" rx=".488" transform="translate(527.37 333.645)"/><rect id="Rectangle_13684" width="5" height="3" fill="url(#linear-gradient-2)" data-name="Rectangle 13684" rx=".488" transform="translate(537.37 333.645)"/><rect id="Rectangle_13685" width="5" height="3" fill="url(#linear-gradient-2)" data-name="Rectangle 13685" rx=".488" transform="translate(547.37 333.645)"/><rect id="Rectangle_13686" width="5" height="3" fill="url(#linear-gradient-2)" data-name="Rectangle 13686" rx=".488" transform="translate(557.37 333.645)"/><rect id="Rectangle_13687" width="5" height="3" fill="url(#linear-gradient-2)" data-name="Rectangle 13687" rx=".488" transform="translate(567.37 333.645)"/><rect id="Rectangle_13688" width="5" height="3" fill="url(#linear-gradient-2)" data-name="Rectangle 13688" rx=".488" transform="translate(577.37 333.645)"/><rect id="Rectangle_13689" width="5" height="3" fill="url(#linear-gradient-2)" data-name="Rectangle 13689" rx=".488" transform="translate(587.37 333.645)"/><rect id="Rectangle_13690" width="5" height="3" fill="url(#linear-gradient-2)" data-name="Rectangle 13690" rx=".488" transform="translate(437.252 338.645)"/><rect id="Rectangle_13691" width="5" height="3" fill="url(#linear-gradient-2)" data-name="Rectangle 13691" rx=".488" transform="translate(447.252 338.645)"/><rect id="Rectangle_13692" width="5" height="3" fill="url(#linear-gradient-2)" data-name="Rectangle 13692" rx=".488" transform="translate(457.252 338.645)"/><rect id="Rectangle_13693" width="5" height="3" fill="url(#linear-gradient-2)" data-name="Rectangle 13693" rx=".488" transform="translate(467.252 338.645)"/><rect id="Rectangle_13694" width="5" height="3" fill="url(#linear-gradient-2)" data-name="Rectangle 13694" rx=".488" transform="translate(477.252 338.645)"/><rect id="Rectangle_13695" width="5" height="3" fill="url(#linear-gradient-2)" data-name="Rectangle 13695" rx=".488" transform="translate(487.252 338.645)"/><rect id="Rectangle_13696" width="5" height="3" fill="url(#linear-gradient-2)" data-name="Rectangle 13696" rx=".488" transform="translate(497.252 338.645)"/><rect id="Rectangle_13697" width="5" height="3" fill="url(#linear-gradient-2)" data-name="Rectangle 13697" rx=".488" transform="translate(507.252 338.645)"/><rect id="Rectangle_13698" width="5" height="3" fill="url(#linear-gradient-2)" data-name="Rectangle 13698" rx=".488" transform="translate(517.252 338.645)"/><rect id="Rectangle_13699" width="5" height="3" fill="url(#linear-gradient-2)" data-name="Rectangle 13699" rx=".488" transform="translate(527.252 338.645)"/><rect id="Rectangle_13700" width="5" height="3" fill="url(#linear-gradient-2)" data-name="Rectangle 13700" rx=".488" transform="translate(537.252 338.645)"/><rect id="Rectangle_13701" width="5" height="3" fill="url(#linear-gradient-2)" data-name="Rectangle 13701" rx=".488" transform="translate(547.252 338.645)"/><rect id="Rectangle_13702" width="5" height="3" fill="url(#linear-gradient-2)" data-name="Rectangle 13702" rx=".488" transform="translate(557.252 338.645)"/><rect id="Rectangle_13703" width="5" height="3" fill="url(#linear-gradient-2)" data-name="Rectangle 13703" rx=".488" transform="translate(567.252 338.645)"/><rect id="Rectangle_13704" width="5" height="3" fill="url(#linear-gradient-2)" data-name="Rectangle 13704" rx=".488" transform="translate(577.252 338.645)"/><rect id="Rectangle_13705" width="5" height="3" fill="url(#linear-gradient-2)" data-name="Rectangle 13705" rx=".488" transform="translate(587.252 338.645)"/><rect id="Rectangle_13706" width="40" height="3" fill="url(#linear-gradient-2)" data-name="Rectangle 13706" rx=".488" transform="translate(485.252 344.645)"/><path id="Path_36580" fill="#b0eedb" d="M825.334,730.02l-7.71-12.39-1.54,7.08c-.27,1.24-.54,2.5-.79,3.75-2.19-1.87-4.52-3.6-6.8-5.26q-10.5-7.62-20.99-15.26l2.19,12.7c1.35,7.82,2.76,15.8,6.1,22.95.37.81.77,1.61,1.2,2.39h32.54a10.493,10.493,0,0,0,.54-2.24.776.776,0,0,0,.01-.15C830.594,738.74,827.914,734.17,825.334,730.02Z" data-name="Path 36580" transform="translate(-194.934 -152.357)"/><path id="Path_36581" fill="#b0eedb" d="M385.334,730.02l-7.71-12.39-1.54,7.08c-.27,1.24-.54,2.5-.79,3.75-2.19-1.87-4.52-3.6-6.8-5.26q-10.5-7.62-20.99-15.26l2.19,12.7c1.35,7.82,2.76,15.8,6.1,22.95.37.81.77,1.61,1.2,2.39h32.54a10.487,10.487,0,0,0,.54-2.24.777.777,0,0,0,.01-.15C390.594,738.74,387.914,734.17,385.334,730.02Z" data-name="Path 36581" transform="translate(-194.934 -152.357)"/><path id="Path_36582" fill="#cacaca" d="M1003.88,747.335l-275.75.307a1.191,1.191,0,0,1,0-2.381l275.75-.307a1.191,1.191,0,0,1,0,2.381Z" data-name="Path 36582" transform="translate(-194.934 -152.357)"/><path id="Path_36583" fill="#cacaca" d="M471.875,747.335l-275.75.307a1.191,1.191,0,0,1,0-2.381l275.75-.307a1.191,1.191,0,1,1,0,2.381Z" data-name="Path 36583" transform="translate(-194.934 -152.357)"/><path id="Path_36584" fill="url(#linear-gradient)" d="M373.306,194.763c-4.77,1.42-9.22-2.57-12.54-6.35l1.18,1.4c-7.81,5.5-12.48,14.46-15.51,23.53s-4.72,18.55-8.14,27.48-8.94,17.55-17.39,22c-11.32,5.96-25.19,3.25-37.23-1.05-.16-.06-.31-.11-.47-.17a76.722,76.722,0,0,0,8.78-29.4,69.759,69.759,0,0,1-20.86,24.47,160.141,160.141,0,0,1-22.62-12.58c-4.65-3.11-9.55-7.13-10.09-12.7-.55-5.53,3.58-10.58,8.45-13.24s10.47-3.56,15.79-5.16,10.73-4.2,13.52-9c6.43-11.04-4.39-26.61,2.51-37.37,3.4-5.29,10-7.41,16.12-8.88a213.119,213.119,0,0,1,28.38-4.79c8.39-.84,17.06-1.15,25.04,1.55s15.22,8.97,16.93,17.23c4.66,2.45,9.59,5.16,12.09,9.81S378.356,193.263,373.306,194.763Z" data-name="Path 36584" transform="translate(-194.934 -152.357)"/><path id="Path_36585" fill="url(#linear-gradient)" d="M366.186,192.9c-4.568,5.722-7.054,11.91-7.054,15.615-9.489,17.342,4.08,32.238,21.423,41.727a35.53,35.53,0,0,0,22.7,3.958l.726-3.1.983,2.79s11.291,37.293,15.016,39.481c-1.413-6.637-3.032-37.367-3.819-43.844-1.089-8.816,2.708-21.94,5.447-29.922a47.112,47.112,0,0,0,2.579-15.289v-.228l2.667,8.567,9.709-4.142c-1.806-10.361,0-22.123-21.656-21.1-11.713-8.055-22.027-9.282-30.5-7-1.093-1.69-7.4,1.476-9.22.586" data-name="Path 36585" transform="translate(-194.934 -152.357)"/><path id="Path_36586" fill="#189366" d="M848.936,235.043v182.62a4.818,4.818,0,0,1-4.81,4.81h-96.22a118.076,118.076,0,0,1-25.76-34.66q-.63-1.26-1.2-2.55a117.03,117.03,0,0,1-10.4-40.03c-.07-.85-.13-1.7-.17-2.56-.13-2.2-.19-4.43-.19-6.67a117.535,117.535,0,0,1,8.29-43.51c.33-.86.68-1.71,1.04-2.56a118.4,118.4,0,0,1,56.35-59.71h68.26a4.821,4.821,0,0,1,4.81,4.82Z" data-name="Path 36586" transform="translate(-194.934 -152.357)"/><path id="Path_36587" fill="#cacaca" d="M830.41,255.383H575.086a1.015,1.015,0,1,1,0-2.031H830.41a1.015,1.015,0,1,1,0,2.031Z" data-name="Path 36587" transform="translate(-194.934 -152.357)"/><ellipse id="Ellipse_661" cx="5.95" cy="6.083" fill="url(#linear-gradient)" data-name="Ellipse 661" rx="5.95" ry="6.083" transform="translate(391.582 83.645)"/><ellipse id="Ellipse_662" cx="5.95" cy="6.083" fill="url(#linear-gradient)" data-name="Ellipse 662" rx="5.95" ry="6.083" transform="translate(412.138 83.645)"/><ellipse id="Ellipse_663" cx="5.95" cy="6.083" fill="url(#linear-gradient)" data-name="Ellipse 663" rx="5.95" ry="6.083" transform="translate(432.694 83.645)"/><path id="Path_36588" fill="url(#linear-gradient)" d="M818.033,237.51h-14.6a1.106,1.106,0,1,0,0,2.211h14.6a1.106,1.106,0,1,0,0-2.211Z" data-name="Path 36588" transform="translate(-194.934 -152.357)"/><path id="Path_36589" fill="url(#linear-gradient)" d="M818.033,241.66h-14.6a1.106,1.106,0,1,0,0,2.211h14.6a1.106,1.106,0,1,0,0-2.211Z" data-name="Path 36589" transform="translate(-194.934 -152.357)"/><path id="Path_36590" fill="url(#linear-gradient)" d="M818.033,245.8h-14.6a1.106,1.106,0,1,0,0,2.211h14.6a1.106,1.106,0,1,0,0-2.211Z" data-name="Path 36590" transform="translate(-194.934 -152.357)"/><rect id="Rectangle_13707" width="40.582" height="8.678" fill="#189366" data-name="Rectangle 13707" rx="4.339" transform="translate(420.185 162.344)"/><rect id="Rectangle_13708" width="81.802" height="8.678" fill="#b0eedb" data-name="Rectangle 13708" rx="4.339" transform="translate(399.575 179.7)"/><rect id="Rectangle_13709" width="81.802" height="8.678" fill="#b0eedb" data-name="Rectangle 13709" rx="4.339" transform="translate(399.575 197.056)"/><path id="Path_36591" fill="#189366" d="M601.186,412a29.815,29.815,0,0,1-1.88,10.47h-28.05a4.818,4.818,0,0,1-4.81-4.81v-35.28a29.632,29.632,0,0,1,4.74-.38,30,30,0,0,1,30,30Z" data-name="Path 36591" transform="translate(-194.934 -152.357)"/><path id="Path_36592" d="M849.186,292.493v-2.56h-42.91v-29.67h-2.55v29.67h-49.18v-29.67H752v29.67h-32.48c-.36.85-.71,1.7-1.04,2.56H752v50.18h-41.62c.04.86.1,1.71.17,2.56H752v40.03h-31.05q.57,1.29,1.2,2.55H752v33.65h2.55v-33.65h49.18v33.65h2.55v-33.65h42.91v-2.55h-42.91v-40.03h42.91v-2.56h-42.91v-50.18Zm-45.46,92.77h-49.18v-40.03h49.18Zm0-42.59h-49.18v-50.18h49.18Z" data-name="Path 36592" opacity=".2" transform="translate(-194.934 -152.357)"/><path id="Path_36593" fill="url(#linear-gradient)" d="M814.637,403.526a2.672,2.672,0,0,1-1.937-4.632l.183-.728-.073-.175a7.176,7.176,0,0,0-13.237.049c-2.165,5.214-4.922,10.438-5.6,15.951a21.227,21.227,0,0,0,.373,7.3,85.115,85.115,0,0,1-7.743-35.351,82.165,82.165,0,0,1,.51-9.165q.422-3.742,1.171-7.431a86.1,86.1,0,0,1,17.075-36.492,22.914,22.914,0,0,0,9.53-9.887,17.477,17.477,0,0,0,1.59-4.776c-.464.061-.936.1-1.4.129l-.441.023-.055,0a2.648,2.648,0,0,1-2.174-4.313l.6-.739c.3-.38.616-.753.92-1.133a1.327,1.327,0,0,0,.1-.114c.35-.434.7-.859,1.05-1.293a7.657,7.657,0,0,0-2.51-2.426c-3.506-2.054-8.343-.631-10.876,2.54s-3.019,7.621-2.137,11.583a30.684,30.684,0,0,0,4.244,9.461c-.19.243-.388.479-.578.723a86.656,86.656,0,0,0-9.045,14.329,36.025,36.025,0,0,0-2.151-16.733c-2.059-4.966-5.917-9.149-9.315-13.442-4.081-5.157-12.451-2.906-13.17,3.631q-.01.095-.02.19.757.427,1.482.907a3.625,3.625,0,0,1-1.461,6.6l-.074.011a36.071,36.071,0,0,0,.951,5.392,37.134,37.134,0,0,0,18.489,23.273c.3.152.586.3.882.449a88.454,88.454,0,0,0-4.761,22.406,83.9,83.9,0,0,0,.061,13.546l-.023-.16a22.168,22.168,0,0,0-7.568-12.8c-5.824-4.784-14.052-6.546-20.334-10.391a4.16,4.16,0,0,0-6.372,4.047q.013.084.026.168a24.34,24.34,0,0,1,2.73,1.316q.757.427,1.482.907a3.625,3.625,0,0,1-1.461,6.6l-.074.011-.152.023a36.1,36.1,0,0,0,6.64,10.4,37.167,37.167,0,0,0,26.955,11.827h.008a88.423,88.423,0,0,0,5.94,17.341h21.22c.076-.236.145-.479.213-.715a24.11,24.11,0,0,1-5.872-.35c1.574-1.932,3.149-3.879,4.723-5.811a1.312,1.312,0,0,0,.1-.114c.8-.989,1.6-1.97,2.4-2.959h0a35.315,35.315,0,0,0-1.035-9Zm-24.3-47.8.011-.015-.011.03Zm-4.7,42.371-.183-.411c.008-.3.008-.593,0-.9,0-.084-.015-.167-.015-.251.068.525.129,1.05.205,1.574Z" data-name="Path 36593" transform="translate(-194.934 -152.357)"/></g></svg>