<svg xmlns="http://www.w3.org/2000/svg" width="52.246" height="52.251"><defs><linearGradient id="a" x1=".5" x2=".5" y2="1" gradientUnits="objectBoundingBox"><stop offset="0" stop-color="#fff"/><stop offset="1" stop-color="#bbb"/></linearGradient><clipPath id="b"><path fill="url(#a)" d="M48.5 46.057a1.975 1.975 0 0 1 1.95-1.888v-.012a1.973 1.973 0 0 1 1.907 1.931 1.933 1.933 0 0 1-1.929 1.94h-.021a1.936 1.936 0 0 1-1.907-1.971M68.652 46v-.012a1.93 1.93 0 0 1 3.857.129 1.941 1.941 0 0 1-2 1.882 1.934 1.934 0 0 1-1.856-2m-.734-14.514c.125-1.5.239-3 .356-4.5 0-.068.024-.134.028-.2.11-.937.11-.937 1.095-.937v-.012h5.951c-.242 1.108-.41 2.194-.723 3.235a3.992 3.992 0 0 1-3.7 2.756c-.5.022-1 .019-1.509.016-.394 0-.79 0-1.184.006-.312 0-.312-.125-.312-.359m-19.3-5.661h3.46c.178 0 .365-.049.388.25q.192 2.682.413 5.364c.012.33-.043.419-.37.419v-.012q-3.355-.024-6.71 0c-.276 0-.353-.068-.382-.355q-.263-2.6-.587-5.191c-.048-.37.03-.487.434-.475.373.01.746.013 1.118.013.746 0 1.491-.013 2.235-.013m8.36 5.571q-.2-2.658-.434-5.315c-.033-.333.174-.258.343-.258h6.98c.29.009.42.04.385.416v-.012c-.154 1.6-.272 3.206-.391 4.812-.058.795-.043.795-.811.795h-5.587c-.35 0-.459-.105-.484-.437m-12.36-9.634c-.2 0-.29-.05-.31-.276-.214-2.1-.447-4.2-.677-6.34h7.384c.417 0 .587.08.619.524.085 1.4.214 2.8.31 4.2.042.526.07 1.05.116 1.571.018.218 0 .336-.273.333q-3.58-.009-7.169 0zm15.809-6.623h4.224c.325.01.477.04.443.438v-.012c-.18 1.951-.333 3.909-.484 5.868-.018.248-.083.336-.353.336q-3.865-.02-7.729 0c-.288 0-.31-.116-.345-.348-.117-1.5-.245-3-.367-4.5-.04-.471-.058-.931-.114-1.415-.034-.31.073-.364.353-.364.486.006.971.007 1.457.007.973 0 1.944-.007 2.915-.007M31.481 0a1.772 1.772 0 0 0-1.2.676 2.368 2.368 0 0 0-.217 2.33 1.988 1.988 0 0 0 1.953 1.218 6.892 6.892 0 0 1 6.832 6.251c.431 3.774.826 7.547 1.242 11.324.551 5.036 1.089 10.075 1.657 15.107a8.2 8.2 0 0 0 2.946 5.531c.475.4.481.394.2.962a6.072 6.072 0 0 0 1.031 6.9c1.807 1.969 3.839 2.33 6.49 1.622a6.055 6.055 0 0 0 4.086-6.944c-.125-.622-.125-.622.549-.622h6.924c.668 0 .652 0 .547.646a6.108 6.108 0 0 0 2.226 5.942 5.726 5.726 0 0 0 4.066 1.257 5.621 5.621 0 0 0 5.015-2.859 6.023 6.023 0 0 0-.238-6.832 5.821 5.821 0 0 0-5.067-2.544c-6.634-.019-13.265 0-19.9 0h-.661a3.928 3.928 0 0 1-3.726-2.935c-.217-.87-.177-.931.72-.931h23.87a6.635 6.635 0 0 0 1.014-.053A8.376 8.376 0 0 0 79 29.212c.31-1.463.6-2.921.9-4.384a5.382 5.382 0 0 0 .1-1.112 1.922 1.922 0 0 0-.711-1.512 2.379 2.379 0 0 0-1.646-.561h-7.989c-.726 0-.8-.077-.729-.786.154-1.637.282-3.272.4-4.911.036-.5.119-.6.622-.6h6.87c.391 0 .555.149.549.538a1.787 1.787 0 0 0 .431 1.27 2.132 2.132 0 0 0 2.134.786 2.172 2.172 0 0 0 1.7-1.58 15.736 15.736 0 0 0 .466-2.688V12.63a1.806 1.806 0 0 0-.976-1.412 2.775 2.775 0 0 0-1.478-.285H44.167c-.829 0-.818 0-.93-.839A11.24 11.24 0 0 0 36.119.621 9.249 9.249 0 0 0 33.211 0z" data-name="Path 1049" transform="translate(-29.85)"/></clipPath></defs><g clip-path="url(#b)" data-name="Group 127"><path fill="url(#a)" d="M0 0h52.379v52.625H0z" data-name="Rectangle 81" transform="translate(-.133)"/></g></svg>