<svg xmlns="http://www.w3.org/2000/svg" xmlns:xlink="http://www.w3.org/1999/xlink" id="ecommerce" width="879.124" height="631.484" viewBox="0 0 879.124 631.484"><defs><linearGradient id="linear-gradient" x1=".5" x2=".5" y2="1" gradientUnits="objectBoundingBox"><stop offset="0" stop-color="#202020"/><stop offset="1" stop-color="#2e2e2e"/></linearGradient><linearGradient id="linear-gradient-9" x1=".5" x2=".5" y2="1" gradientUnits="objectBoundingBox"><stop offset="0" stop-color="#1db27b"/><stop offset="1" stop-color="#0f593e"/></linearGradient><linearGradient id="linear-gradient-11" x1=".5" x2=".5" y2="1" gradientUnits="objectBoundingBox"><stop offset="0" stop-color="#383838"/><stop offset="1" stop-color="#020202"/></linearGradient></defs><path id="Rectangle_338" fill="url(#linear-gradient)" d="M0,0H644.725V412.91H0Z" data-name="Rectangle 338" transform="translate(0.275 0.365)"/><rect id="Rectangle_339" width="607.853" height="336.693" fill="#fff" data-name="Rectangle 339" transform="translate(18.711 52.154)"/><rect id="Rectangle_340" width="644.725" height="27.39" fill="#189366" data-name="Rectangle 340"/><circle id="Ellipse_513" cx="5.077" cy="5.077" r="5.077" fill="#fff" data-name="Ellipse 513" transform="translate(15.278 8.927)"/><circle id="Ellipse_514" cx="5.077" cy="5.077" r="5.077" fill="#fff" data-name="Ellipse 514" transform="translate(34.547 8.927)"/><circle id="Ellipse_515" cx="5.077" cy="5.077" r="5.077" fill="#fff" data-name="Ellipse 515" transform="translate(53.816 8.927)"/><rect id="Rectangle_341" width="118.887" height="128.982" fill="#b0eedb" data-name="Rectangle 341" transform="translate(93.5 79.848)"/><rect id="Rectangle_342" width="118.887" height="128.982" fill="#e6e6e6" data-name="Rectangle 342" transform="translate(263.193 79.848)"/><rect id="Rectangle_343" width="118.887" height="128.982" fill="#b0eedb" data-name="Rectangle 343" transform="translate(432.885 79.848)"/><rect id="Rectangle_344" width="118.887" height="128.982" fill="#e6e6e6" data-name="Rectangle 344" transform="translate(93.5 232.176)"/><rect id="Rectangle_345" width="118.887" height="128.982" fill="#b0eedb" data-name="Rectangle 345" transform="translate(263.193 232.176)"/><rect id="Rectangle_346" width="118.887" height="128.982" fill="#e6e6e6" data-name="Rectangle 346" transform="translate(432.885 232.176)"/><path id="Path_2643" fill="#fff" d="M452.366,399.583l21.722-8.588,2.526,42.939s4.546,13.134,3.031,18.186c0,0,1.01,8.588-1.516,9.093s-9.6,1.516-10.1,1.01-.505-2.021-.505-2.021-5.052,3.536-5.557,7.577c0,0-21.217,6.567-21.722.505s10.608-11.114,10.608-11.114l8.588-13.134Z" data-name="Path 2643" transform="translate(-160.437 -134.258)"/><path id="Path_2644" fill="#fff" d="M498.337,399.583l21.719-8.588,2.526,42.939s4.546,13.134,3.031,18.186c0,0,1.01,8.588-1.516,9.093s-9.6,1.516-10.1,1.01-.505-2.021-.505-2.021-5.052,3.536-5.557,7.577c0,0-21.217,6.567-21.722.505s10.608-11.114,10.608-11.114l8.588-13.134Z" data-name="Path 2644" transform="translate(-160.437 -134.258)"/><path id="Path_2645" fill="url(#linear-gradient)" d="M500.46,233.768s-4.625,12.924.734,18.752l-4.468,15.353S512.6,315.5,508.065,322.147c0,0-16.932,8.466-50.8-3.024l13.757-53.367-1.965-22.526,2.721-10.583,6.047-.6s-3.628,13.606,3.024,15.723,13.141-15.383,13.141-15.383Z" data-name="Path 2645" transform="translate(-160.437 -134.258)"/><path id="Path_2646" fill="#fff" d="M286.858,317.2l5.837,2.388,27.858-36.613,8.755,42.98,5.837-1.061c3.744-37.055,6.8-74.85,3.051-92.726l-21.623-.929-9.816,31.311-4.776,21.225Z" data-name="Path 2646" transform="translate(-160.437 -134.258)"/><path id="Path_2647" fill="#fff" d="M641.115,231.87s-7.966,11.074-7.577,15.543,5.44,77.327,5.44,77.327l11.852.583-3.5-52.458,2.914-14.183,7.189,66.058,14.572.389-13.017-85.681-2.526-7.577Z" data-name="Path 2647" transform="translate(-160.437 -134.258)"/><path id="Path_2648" fill="url(#linear-gradient)" d="M686.138,410.276c-2.115-2.538-5.751-3.91-9.242-4.652.1-.317-10.618-2.532-10.8-2.076l-4.041-3.219-12.417,6.447-6.977-4.75-3.241,1.15c.132-.572-10.061,1.194-10.061,1.194-1.947.07-4.434.192-7.218.406-9.749.75-10.5,26-10.5,26a39.85,39.85,0,0,1,14.113-2.955l2.635,30.2c13.553-1.162,27.767.19,42.5,3.5l6.909-23.74,16.089-6.257S691.138,416.275,686.138,410.276Z" data-name="Path 2648" transform="translate(-160.437 -134.258)"/><path id="Path_2649" fill="#292929" d="M340.879,395.895c-1.743-2.091-4.738-3.222-7.615-3.833.086-.262-8.749-2.086-8.9-1.71l-3.33-2.652-10.229,5.312-5.749-3.913-2.67.948c.109-.471-8.29.983-8.29.983-1.6.058-3.654.158-5.947.335-8.033.618-8.651,21.421-8.651,21.421a32.837,32.837,0,0,1,11.629-2.435l2.171,60.914c11.167-.958,22.879.157,35.015,2.884L334,418.559l13.257-5.155S345,400.84,340.879,395.895Z" data-name="Path 2649" transform="translate(-160.437 -134.258)"/><path id="Path_2682" fill="url(#linear-gradient)" d="M909.888,412.109h57v-30.5a28.5,28.5,0,0,0-57,0Z" data-name="Path 2682" transform="translate(-160.437 -134.258)"/><path id="Path_2683" fill="#ffb6b6" d="M884.443,751.453H872.184l-5.833-47.292h18.094Z" data-name="Path 2683" transform="translate(-160.437 -134.258)"/><path id="Path_2684" fill="url(#linear-gradient)" d="M887.57,747.45H863.425a15.387,15.387,0,0,0-15.386,15.384v.5H887.57Z" data-name="Path 2684" transform="translate(-160.437 -134.258)"/><path id="Path_2685" fill="#ffb6b6" d="M1031,735.092l-10.676,6.027L992,702.808l15.757-8.9Z" data-name="Path 2685" transform="translate(-160.437 -134.258)"/><path id="Path_2686" fill="url(#linear-gradient)" d="M1031.75,730.069l-21.025,11.866h0a15.387,15.387,0,0,0-5.834,20.963l.246.435,34.424-19.433Z" data-name="Path 2686" transform="translate(-160.437 -134.258)"/><path id="Path_2687" fill="url(#linear-gradient)" d="M952.643,538.782l.946,4.73s2.838,2.838,1.419,4.257-.946,8.042-.946,8.042c.794,12.076,16.573,79.936,19.4,93.189,0,0,21.76,14.191,38.789,42.1s17.5,35.005,17.5,35.005l-18.918,8.043-47.3-57.238s-13.245-8.042-17.976-15.137-34.064-80.418-34.064-80.418l-16.56,76.633s.946,27.909-3.311,45.885a192.52,192.52,0,0,0-4.73,34.532l-22.233-2.365s1.419-67.172,3.784-74.268c0,0-9.934-81.836,9.934-114.476l16.012-42.687,15.682-6.036Z" data-name="Path 2687" transform="translate(-160.437 -134.258)"/><path id="Path_2688" fill="#ffb8b8" d="M938.682,360.565c-29.847.51-29.842,44.907,0,45.412C968.527,405.467,968.523,361.07,938.682,360.565Z" data-name="Path 2688" transform="translate(-160.437 -134.258)"/><path id="Path_2689" fill="url(#linear-gradient)" d="M915.711,382.093h5.073l1.381-3.454-.691,3.454h27.745l-.9-7.227,6.744,7.227h6.727v-3.916a23.038,23.038,0,1,0-46.076-.033v.033Z" data-name="Path 2689" transform="translate(-160.437 -134.258)"/><path id="Path_2690" fill="url(#linear-gradient-9)" d="M907.9,419.235l56.4.457L952.388,540.609s-65.959-3.481-66-23.614l6.179-17.891Z" data-name="Path 2690" transform="translate(-160.437 -134.258)"/><path id="Path_2693" fill="#ffb6b6" d="M966.727,552.3a9.377,9.377,0,0,1,2.7-14.122l-2.451-21.287,12.573-4.645,3.039,30.111a9.428,9.428,0,0,1-15.861,9.943Z" data-name="Path 2693" transform="translate(-160.437 -134.258)"/><path id="Path_2694" fill="url(#linear-gradient-9)" d="M956.888,430.109l7.421-10.373s5.079-1.127,11.079,5.873,9.5,94.5,9.5,94.5l-22,5-13-62Z" data-name="Path 2694" transform="translate(-160.437 -134.258)"/><path id="Path_36594" fill="#fff" d="M672.135,390.739l1.636,77.737,50.325,26.6L815.744,478.7l2.251-80.806-58.1-20.458Z" data-name="Path 36594"/><path id="Path_36595" fill="url(#linear-gradient-11)" d="M884.4,630.168l-50.987-26.945-1.661-78.916,88.658-13.433.189.066,58.652,20.653-2.285,82.046ZM835,602.244l49.662,26.245,90.732-16.2,2.216-79.566-57.357-20.2L833.39,525.685Z" data-name="Path 36595" transform="translate(-160.437 -134.258)"/><path id="Path_36596" fill="url(#linear-gradient-11)" d="M722.973,411.816l-.2-.078-50.938-20.253.593-1.493,50.742,20.174L817.885,397.1l.22,1.592Z" data-name="Path 36596"/><rect id="Rectangle_13710" width="1.607" height="84.086" fill="url(#linear-gradient-11)" data-name="Rectangle 13710" transform="translate(722.271 411.007) rotate(-0.697)"/><path id="Path_36597" fill="#b0eedb" d="M716.536,407.792l-18.362-7.444,88.395-14.085,18.362,7.443Z" data-name="Path 36597"/><rect id="Rectangle_13711" width="1.607" height="23.186" fill="url(#linear-gradient-11)" data-name="Rectangle 13711" transform="translate(671.817 414.771) rotate(-66.705)"/><rect id="Rectangle_13712" width="1.607" height="23.186" fill="#189366" data-name="Rectangle 13712" transform="translate(681.461 441.292) rotate(-66.705)"/><path id="Path_36598" fill="#fff" d="M392.135,498.739l1.636,77.737L444.1,603.071l91.648-16.366,2.251-80.806-58.1-20.458Z" data-name="Path 36598"/><path id="Path_36599" fill="url(#linear-gradient)" d="M604.4,738.168l-50.987-26.945-1.661-78.916,88.658-13.433.189.066,58.652,20.653-2.285,82.046ZM555,710.244l49.662,26.245,90.732-16.2,2.216-79.566-57.357-20.2L553.39,633.685Z" data-name="Path 36599" transform="translate(-160.437 -134.258)"/><path id="Path_36600" fill="url(#linear-gradient)" d="M442.973,519.816l-.2-.078-50.938-20.253.593-1.493,50.742,20.174L537.885,505.1l.22,1.592Z" data-name="Path 36600"/><rect id="Rectangle_13713" width="1.607" height="84.086" fill="url(#linear-gradient-11)" data-name="Rectangle 13713" transform="translate(442.269 519.006) rotate(-0.697)"/><path id="Path_36601" fill="#b0eedb" d="M432.088,513.962l-13.914-5.614,88.395-14.085,13.913,5.614Z" data-name="Path 36601"/><rect id="Rectangle_13714" width="1.607" height="23.186" fill="url(#linear-gradient)" data-name="Rectangle 13714" transform="translate(391.816 522.77) rotate(-66.705)"/><rect id="Rectangle_13715" width="1.607" height="23.186" fill="#189366" data-name="Rectangle 13715" transform="translate(401.459 549.291) rotate(-66.705)"/><path id="Path_36602" fill="#189366" d="M479.563,509.4l1.9,90.241,58.419,30.872,106.389-19,2.612-93.8L581.44,493.961Z" data-name="Path 36602"/><path id="Path_36603" fill="#2c2c2c" d="M700.167,765.742l-59.188-31.278-1.929-91.609,102.918-15.594.219.077,68.084,23.974-2.652,95.242Zm-57.346-32.415,57.65,30.466L805.8,744.984l2.572-92.364-66.582-23.445L640.951,644.454Z" data-name="Path 36603" transform="translate(-160.437 -134.258)"/><path id="Path_36604" fill="url(#linear-gradient)" d="M538.578,533.865l-.228-.091-59.132-23.51.689-1.734,58.9,23.419,109.945-15.164.255,1.848Z" data-name="Path 36604"/><rect id="Rectangle_13716" width="1.866" height="97.61" fill="url(#linear-gradient)" data-name="Rectangle 13716" transform="translate(537.761 532.923) rotate(-0.697)"/><path id="Path_36605" fill="url(#linear-gradient)" d="M526.888,527.112l-17.1-6.559L612.4,504.2l17.1,6.559Z" data-name="Path 36605"/><rect id="Rectangle_13717" width="1.866" height="26.916" fill="url(#linear-gradient)" data-name="Rectangle 13717" transform="translate(479.193 537.294) rotate(-66.705)"/><rect id="Rectangle_13718" width="1.866" height="26.916" fill="#fff" data-name="Rectangle 13718" transform="translate(490.387 568.079) rotate(-66.705)"/><path id="Path_2691" fill="#ffb6b6" d="M861.1,537.851a9.377,9.377,0,0,0,3.673-13.9l11.422-18.13-9.324-9.628L851.1,522.022a9.428,9.428,0,0,0,10,15.83Z" data-name="Path 2691" transform="translate(-160.437 -134.258)"/><path id="Path_2692" fill="url(#linear-gradient-9)" d="M916.57,424l-8.183-5.392s-6.315,1.416-13.031,14.334-33.8,70.672-33.8,70.672l11.133,11.3,29.7-45.309Z" data-name="Path 2692" transform="translate(-160.437 -134.258)"/></svg>