<svg xmlns="http://www.w3.org/2000/svg" xmlns:xlink="http://www.w3.org/1999/xlink" id="Group_129" width="41.007" height="45.509" data-name="Group 129" viewBox="0 0 41.007 45.509"><defs><linearGradient id="linear-gradient" x1=".5" x2=".5" y2="1" gradientUnits="objectBoundingBox"><stop offset="0" stop-color="#fff"/><stop offset="1" stop-color="#bbb"/></linearGradient><clipPath id="clip-path"><path id="Path_1132" fill="url(#linear-gradient)" d="M189.869,109.523a1.772,1.772,0,0,0-.631-1.505Z" data-name="Path 1132" transform="translate(-189.238 -108.018)"/></clipPath><clipPath id="clip-path-2"><path id="Path_1133" fill="url(#linear-gradient)" d="M190.74,112.94a9.174,9.174,0,0,1-4.65-1.323,17.528,17.528,0,0,1-6.773-7.061,4.619,4.619,0,0,1-.51-3.468,2.667,2.667,0,0,1,1.3-1.658c.383-.217.768-.435,1.161-.631a.923.923,0,0,1,1.2.2c.888.972,1.766,1.949,2.646,2.929.316.348.244.647-.194.826s-.969.351-1.447.542-.6.47-.417.977a2.3,2.3,0,0,0,.452.8c.925,1.017,1.786,2.093,2.8,3.023.067.059.134.119.2.176,1.223,1.04,1.516,1.069,2.874.263.127-.077.251-.159.378-.231a.945.945,0,0,1,1.243.186c.882.974,1.765,1.95,2.638,2.934.289.345.243.656-.177.8a9.14,9.14,0,0,1-2.548.718c-.062,0-.124,0-.184-.008M173.472,97.274a.839.839,0,0,1-.152.082,2.548,2.548,0,0,0-1.932,2.23,2.4,2.4,0,0,1-.107.472c-1.874,4.873-3.663,9.771-5.607,14.625-.05.127-.171.251-.059.443a3.075,3.075,0,0,1,2.476-.818q15.845.018,31.689,0h3.327a2.54,2.54,0,0,1,1.738.664c.057.05.1.149.207.1.054-.107-.025-.207-.064-.283-.813-1.907-1.511-3.862-2.253-5.8-1.127-2.937-2.238-5.885-3.372-8.826-.154-.406-.13-.835-.289-1.241a2.927,2.927,0,0,0-1.892-1.646Z" data-name="Path 1133" transform="translate(-165.568 -97.274)"/></clipPath><clipPath id="clip-path-3"><path id="Path_1134" fill="url(#linear-gradient)" d="M194.148,115.99a13,13,0,0,0,0-1.327c0-.244.079-.293.315-.289h6.512c.271,0,.316.105.316.336-.017.43-.023.856,0,1.283.015.288-.092.343-.353.34h-6.423c-.291,0-.381-.062-.366-.343m-26.161-7.036a2.65,2.65,0,0,0-2.837,2.837v7.144a2.638,2.638,0,0,0,2.8,2.814h15.4c.314,0,.39.077.386.386-.015,1.867,0,3.729,0,5.594,0,.283-.064.386-.366.373-.587-.022-1.181,0-1.773,0a3.383,3.383,0,0,0-2.765,1.261.782.782,0,0,1-.7.314q-6.04,0-12.076-.015c-.366,0-.508.05-.488.467.038.917.032,1.833,0,2.75-.017.4.09.512.5.508,4.038-.015,8.076,0,12.118,0a.661.661,0,0,1,.611.246,3.256,3.256,0,0,0,2.69,1.29H189.7a3.2,3.2,0,0,0,2.568-1.171.986.986,0,0,1,.865-.368h12.031c.375,0,.47-.1.46-.465-.025-.948-.028-1.867,0-2.8,0-.368-.082-.463-.453-.46-4.068.015-8.141,0-12.21,0a.654.654,0,0,1-.59-.274,3.212,3.212,0,0,0-2.257-1.261,19.653,19.653,0,0,0-2.307-.035c-.314,0-.395-.065-.391-.383,0-1.85.02-3.7,0-5.549,0-.366.112-.428.442-.428h15.406a2.66,2.66,0,0,0,2.891-2.9v-6.972a2.661,2.661,0,0,0-2.922-2.909Z" data-name="Path 1134" transform="translate(-165.15 -108.954)"/></clipPath></defs><g id="Group_321" clip-path="url(#clip-path)" data-name="Group 321" transform="translate(40.294 17.972)"><rect id="Rectangle_174" width=".677" height="1.505" fill="url(#linear-gradient)" data-name="Rectangle 174" transform="translate(0 0)"/></g><g id="Group_323" clip-path="url(#clip-path-2)" data-name="Group 323" transform="translate(0.7 0)"><rect id="Rectangle_175" width="39.603" height="17.852" fill="url(#linear-gradient)" data-name="Rectangle 175" transform="translate(-0.066 0)"/></g><g id="Group_325" clip-path="url(#clip-path-3)" data-name="Group 325" transform="translate(0 19.538)"><rect id="Rectangle_176" width="41.007" height="26" fill="url(#linear-gradient)" data-name="Rectangle 176" transform="translate(0 0)"/></g></svg>