<svg xmlns="http://www.w3.org/2000/svg" xmlns:xlink="http://www.w3.org/1999/xlink" width="399.137" height="324.915" viewBox="0 0 399.137 324.915"><defs><linearGradient id="linear-gradient" x1=".5" x2=".5" y2="1" gradientUnits="objectBoundingBox"><stop offset="0" stop-color="#383838"/><stop offset="1" stop-color="#020202"/></linearGradient><linearGradient id="linear-gradient-2" x1=".5" x2=".5" y2="1" gradientUnits="objectBoundingBox"><stop offset="0" stop-color="#1db27b"/><stop offset="1" stop-color="#0f593e"/></linearGradient><linearGradient id="linear-gradient-4" x1=".5" x2=".5" y2="1" gradientUnits="objectBoundingBox"><stop offset="0" stop-color="#202020"/><stop offset="1" stop-color="#2e2e2e"/></linearGradient></defs><g id="Group_14922" data-name="Group 14922" transform="translate(8464.918 -1619.339)"><g id="Group_14921" data-name="Group 14921"><g id="Group_14919" data-name="Group 14919" transform="translate(-10903.272 1274.025)"><path id="Path_36343" fill="url(#linear-gradient)" d="M2805.5,670.229H2439.583c-1.661-4.808.5-9.934-1.228-14.735v-29.47c4.017-9.517,12.157-15.621,18.912-22.874,5.386-5.561,11.5-10.285,17.455-15.193a263.244,263.244,0,0,1,51.764-35.317,49.65,49.65,0,0,1,11.361-4.369c2.438-.564,4.852-1.413,7.4-.625,1.871.678,2.876,2.24,3.76,3.855,5.8,10.6,15.218,16.625,25.99,21.24,20.892,8.95,16.208,3.868,21.911,25.3,3.515,13.212,6.093,26.659,9.686,39.856,1.666,6.118,1.809,6.257,7.941,4.019,8.56-3.125,16.276-7.507,21.685-15.173.945-1.339,1.982-2.648,3.882-2.6,2.52-.4,1.345,4.7,4.663,3.123a19.115,19.115,0,0,0,3.972-1.359c8.331-3.269,16.926-5.756,25.35-8.737a12.918,12.918,0,0,1,10.049.652c11.841,5.349,23.953,10.091,35.614,15.837a10.081,10.081,0,0,1,4.3,3.314c4.626,5.441,4.667,5.437,9.54.573,11.714-11.691,23.377-23.431,35.139-35.072,1.938-1.918,3.579-4.718,7.113-3.831,5.118,4.187,4.649,10.227,4.668,15.773a85.071,85.071,0,0,1-1.106,13.969c-1.843,11.286,1.476,18.048,11.175,24.008,5.346,3.286,11.164,6.091,14.032,12.235C2805.438,666.4,2807.049,668.071,2805.5,670.229Z" data-name="Path 36343"/><path id="Path_36352" fill="url(#linear-gradient-2)" d="M2787.1,519.566c-2.928-2.081-5.414-4.835-9.338-5.285-11.045-1.265-18.761,7.482-16.03,18.421a62.179,62.179,0,0,0,2.786,8.033c2.46,6.121,2.885,12.388.3,18.417-4.21,9.84-3.823,19.3,1.12,28.677-5.187,4.271-11.79,5.289-17.814,7.563-10.673,4.029-21.763,6.9-32.3,11.307-2.281,1.293-1.82,3.283-1.527,5.369a58.8,58.8,0,0,0,4.536,16.41c.891,1.953,2.447,3.933.755,6.243-12.149-5.212-24.335-10.344-36.423-15.7a10.7,10.7,0,0,0-8.675-.427c-8.733,3.175-17.6,5.993-26.407,8.953-2.455-.421-3.053-2.469-3.792-4.367-3.412-8.769-6.328-17.711-9.356-26.615-1.429-4.2-.869-6.576,3.935-8.233,31.237-10.774,62.414-21.723,93.726-32.279,5.365-1.809,10.435-4.362,14.18-5.235-20.141,7.17-42.17,14.506-64.041,22.287-13.833,4.92-27.922,9.1-41.572,14.551-6.7,2.674-8.511,1.8-10.849-5.183-3.051-9.114-6.654-18.03-9.521-27.21-2.81-9-2.655-9.351,5.982-12.394,34.327-12.089,68.984-23.2,103.423-34.954q17.412-5.943,34.79-11.993a57.694,57.694,0,0,1,22.964-2.842c3.5.221,6.952.708,9.43,3.648a4.01,4.01,0,0,1,.391,3.54C2794.624,506.924,2792.746,514.293,2787.1,519.566Z" data-name="Path 36352"/><path id="Path_36354" fill="url(#linear-gradient-2)" d="M2547.143,513.02c5.518-11.8,13.281-18.859,26.427-23.494-2,7.232-7,13.375-4.788,20.853,3.312,2.439,2.627,6.738,4.586,9.807a31.894,31.894,0,0,0,35.166,16.494c1.768-.39,3.469-1.149,5.347-.766a10.291,10.291,0,0,1,5.006,8.807c-.419,5.726,2.3,10.709,4.141,15.789,6.284,17.393,11.858,35.022,17.877,52.5,1.256,3.647,2.99,7.112,3.968,10.873.417,1.6,1.14,3.078-.047,4.611-3.909,1.561-3.277-2.148-4.414-3.8a8.358,8.358,0,0,1-2.549-3.722c-7.884-22.824-15.041-45.893-23.215-68.608a22.983,22.983,0,0,0-1.068-2.208c-1.438-1.793-3.457-.366-5.121-.9-3.471-1.517-6.98-2.941-10.777-4.451-5.246-2.086-10.8-4.222-16.262-6.56,7.865,4.109,16.864,5.61,24.237,10.84-1.226,2.965-4.229,2.6-6.552,3.368-2.814.927-5.836,1.25-8.262,3.176-2.7,1.1-3.518,2.854-2.749,5.809a115.3,115.3,0,0,1,2.974,12.471c.645,4.469-.459,5.528-4.4,4-8.15-3.162-16.446-6.16-23.848-10.844C2546.562,556.77,2536.721,532.842,2547.143,513.02Z" data-name="Path 36354"/><path id="Path_36355" fill="url(#linear-gradient-4)" d="M2644.826,628.5q-6.14-18.181-12.275-36.363-7.579-22.52-15.087-45.062c-.212-.638.216-1.489.346-2.241,4.131-4.591,10.449-4.051,15.452-6.6a106.464,106.464,0,0,1,15.017-5.351c4.212-1.225,5.978-3.631,5.817-8.025-.117-3.179-.795-6.591,1.444-9.471,3.332.283,2.609,3.018,2.976,5.03.467,2.555-.672,5.3.935,7.695,7.955-.3,14.8-4.336,22.215-6.408,12.176-4.03,24.4-7.892,36.442-12.317,13.491-3.975,26.663-8.883,39.89-13.643,11.723-4.419,23.615-7.332,36.2-4.056a5.868,5.868,0,0,1,2.808,1.3,2.656,2.656,0,0,1-.217,3.744c-9.832-3.381-19.584-3.067-29.405.256q-71.454,24.173-142.968,48.166c-3.489,1.17-4.821,2.3-3.283,6.363,4.1,10.848,7.742,21.881,11.306,32.924,1.186,3.674,2.733,3.972,6.219,2.752q54.768-19.172,109.67-37.96c2-.687,3.93-2.244,6.657-1.224-1.03,2.614-3.511,2.461-5.364,3.1q-54.807,19.068-109.678,37.952c-4.152,1.419-5.369,2.83-3.517,7.159,4.383,10.246,6.457,21.373,11.665,31.331C2647.254,628.743,2646.022,628.559,2644.826,628.5Z" data-name="Path 36355"/><path id="Path_36356" fill="url(#linear-gradient-4)" d="M2639.481,621.58q.467,1.559.933,3.114c-7.1,8.907-15.652,15.62-26.625,19.41-5.368,1.853-7.337,1.078-8.6-4.68-3.776-17.271-8.342-34.368-12.213-51.62-1.171-5.217-3.905-7.963-8.744-9.68-5.366-1.9-10.454-4.577-15.753-6.687-11.063-4.406-17.429-13.562-23.6-22.953-2.747-10.287-4.84-20.6-1.027-31.094.634-1.745.38-4.287,3.289-4.37-1.811,8.5-4.323,16.791-2.216,25.8,2.856,12.214,9.059,21.93,19.9,28.026,7.9,4.443,16.47,7.712,25.7,11.946-1.527-6.551-2.421-12.146-4.191-17.448-1.583-4.742.217-6.366,4.476-6.826,7.883-2.641,15.65-5.776,24.172-5.711l.544,2.139c-2.222,3.315-6.013,2.9-9.219,3.8-4.468,1.252-9.017,2.21-13.47,3.483-.817.486-2.419.518-2.234,1.669,1.141,7.074.892,14.651,6.737,20.162,1.02,1.174,1.676,2.446,1.094,4.046-2.022,1.788-1.565,3.96-1.024,6.2,3.465,14.352,6.75,28.75,10.549,43.315.115.443.3,1.163.495,1.882.58,2.191.326,6.043,4.74,4.139,9.163-3.66,17.824-7.987,23.354-16.738C2637.135,621.99,2637.957,620.792,2639.481,621.58Z" data-name="Path 36356"/><path id="Path_36357" fill="url(#linear-gradient-4)" d="M2712.708,611.642c-.09-2.239-2.012-5.5,2.226-6.381,1.36,1.493,1.2,3.407,1.4,5.2,1.069,9.322,4.134,17.827,10.217,25.1,2.143,4.209,4.3,2.278,6.522.051,11.415-11.413,22.793-22.864,34.275-34.209,1.786-1.765,3.189-4.472,6.468-3.86l1.033,1.432q-20.433,20.157-40.861,40.319c-5.847,5.78-5.865,5.833-10.621-.756C2722.289,637.044,2713.041,619.884,2712.708,611.642Z" data-name="Path 36357"/><path id="Path_36358" fill="url(#linear-gradient-4)" d="M2678.925,368.175c-.217-2.437,2.1-4.743.145-7.358-.7-.934-.061-3.009,1.024-3.068,6.279-.345,7.934-6.749,12.533-9.2,8.391-4.049,16.78-4.682,25.013.315,6.349,3.853,7.4,8.267,2.953,14.041-1.921,2.491-1.162,3.792.492,5.621a24.535,24.535,0,0,1,6.04,14.368c.65,1.494.192,3.211.948,4.684.523,6.387-3.133,10.977-6.7,15.611-12.583,10.375-22.326,10.856-36.379,1.824a4.921,4.921,0,0,1-1.306-1.273c-2.767-5.011-6.672-8.376-12.616-8.869-.374-4.76.183-9.065,5.416-11.08,1.877-1.7.988-4.173,1.719-6.194C2677.542,374.388,2680.738,371.472,2678.925,368.175Z" data-name="Path 36358"/><path id="Path_36362" fill="#fefefe" d="M2725.76,636.708c-8.215-8.9-11.277-19.567-10.826-31.447,16.758-6.531,33.937-11.827,51.011-17.432,2.717,1.206,3.351,4.167,5.165,6.133.1,2.739-1.668,4.483-3.382,6.208-11.435,11.507-22.877,23.01-34.445,34.383C2731.311,636.492,2729.3,639.658,2725.76,636.708Z" data-name="Path 36362"/><path id="Path_36369" fill="url(#linear-gradient-2)" d="M2743.28,416.248a39.9,39.9,0,0,1,30.277-.19c10.877,6.374,17.515,15.708,19.667,28.172.828,13.779.815,27.622,3.4,41.269.483,2.557.133,5.27.167,7.912l-2.331,0c-3.274-4.006-.669-9.087-2.463-13.363a33.633,33.633,0,0,1-.521-7.374c-.345-4.447-1.569-8.818-1.207-13.326-.095-3.946-1.414-7.771-1.2-11.745-.18-4.587-1.6-8.88-3.168-13.132-2.177-5.56-6.793-9.006-11.067-12.744-10.719-6.821-21.428-6.561-32.127.02a22.7,22.7,0,0,0-11.022,12.472c-1.73,4.224-3.166,8.511-3.1,13.159-.188,3.978.84,7.828,1.211,11.746-.143,4.489,1.074,8.849,1.268,13.3-.154,4.209.764,8.314,1.205,12.468-.4,4.229,1.687,8.579-.6,12.72-7.067,2.048-14.379,2.329-21.634,2.5-11.981.292-23.975.074-35.963.084a63.181,63.181,0,0,0-6.7.227c-8.107.871-8.861,1.83-7.876,10.031a64.714,64.714,0,0,1,.413,12.217c.186,3.016.02,5.972-1.525,8.683-2.8-2.61-.96-5.979-1.445-8.967-.371-2.288.687-4.788-1.026-6.882-2.22-1.753-2.056-4.475-2.8-6.835-.393-4.045-1.3-8.142,1.114-11.923,7.668-2.421,15.665-2.392,23.545-2.655,13.065-.436,26.157.15,39.229-.244,8.77-.265,9.115-.835,9.368-9.6-.1-3.881-1.315-7.649-1.2-11.551-.374-4.481-1.592-8.89-1.209-13.438.171-4.064-1.342-7.971-1.163-12.036.073-4.608,1.349-8.964,2.808-13.28a40.657,40.657,0,0,1,8.947-12.318A17.426,17.426,0,0,1,2743.28,416.248Z" data-name="Path 36369"/><path id="Path_36370" fill="url(#linear-gradient-4)" d="M2614.116,536.356c-17,6.192-35.554-.616-41.877-15.364-.582-3.873-3.061-7.52-1.4-11.662-.108-5.816,1.965-11.156,3.878-16.464,9.626-26.709,19.4-53.364,29.1-80.045,3.06-8.416,3.028-8.417,11.427-5.624a16.14,16.14,0,0,0,2.4.424c13.546,2.343,25.874,8.344,38.693,12.876,8.209,3.153,8.376,3.514,5.442,11.679-2.078,4.717-3.3,9.737-5.066,14.565a98.689,98.689,0,0,0-4.586,12.623c-1.515,4.524-3.589,8.842-4.925,13.432a94,94,0,0,0-3.995,10.828c-1.317,2.651-1.191,6.069-4.144,7.857a2.788,2.788,0,0,1-1.808-.189,3.14,3.14,0,0,1-.917-1.577c-.311-2.212.6-4.194,1.166-6.243,1.23-3.342,2.208-6.777,3.618-10.057,2.058-4.948,3.363-10.174,5.561-15.069,1.432-3.937,2.57-7.978,4.2-11.842,1.941-4.322,2.928-8.994,4.855-13.319,2.5-4.311,1.374-7.062-3.413-8.6-2.667-.857-5.322-1.777-7.991-2.651-9.466-3.785-19.293-6.608-28.687-10.544-4.758-1.994-7.227-1.041-8.272,4.01a28.874,28.874,0,0,1-2.109,5.732c-1.664,4.144-3.129,8.361-4.725,12.528-1.71,4.492-2.931,9.157-4.765,13.606-1.6,3.53-2.6,7.289-4.06,10.871-1.521,4.839-3.43,9.542-5,14.365a65.266,65.266,0,0,0-3.694,10.04c-1.675,5.175-3.9,10.153-5.532,15.341-1.245,3.723-2.68,7.4-2.446,11.442a20.981,20.981,0,0,0,3.236,12.929c6.893,10.662,16.866,13.862,28.936,11.951,1.994-.316,3.944-1.181,5.976-.932C2615.531,533.557,2616.046,534.667,2614.116,536.356Z" data-name="Path 36370"/><path id="Union_12" fill="url(#linear-gradient-2)" stroke="rgba(0,0,0,0)" stroke-miterlimit="10" stroke-width="1" d="M10911.608-1237.516c-9.76-4.176-9.652-4.14-6.228-14.447.94-2.834,2.994-5.356,2.694-8.58,1.3-.478,1.941.41,2.274,1.347,1.3,3.651,3.565,5.3,7.684,5.614a16.392,16.392,0,0,1,5.111,1.389,3.686,3.686,0,0,1-1.172-4.424c1.6-4.352,3.091-8.748,4.789-13.059.7-1.79,1.287-4.429,3.9-3.827,2.355.547,3.423,2.689,3.747,5.408-1.9,5.078-3.676,10.208-5.76,15.212a2.885,2.885,0,0,1-2.766,1.97c1.084.537,2.147,1.08,3.188,1.549,6.175,2.79,13.172,3.995,18.607,8.424-.4,5.573-1.7,10.75-6.379,14.431C10930.677-1228.22,10920.593-1231.385,10911.608-1237.516Zm32.273-6.541c-1.54-1-2.849-2.265-1.941-4.561,1.716-4.349,3.226-8.778,4.889-13.147.816-2.147,1.7-4.281,4.775-3.456,2.846.761,2.477,3.225,2.985,5.342-1.187,5.108-3.788,9.724-6.034,14.461a3.154,3.154,0,0,1-2.813,1.955A3.423,3.423,0,0,1,10943.882-1244.056Zm-9.691-3.629c-2.463-1.273-3.181-3.217-1.93-6.12,2.326-5.4,4.25-10.983,6.263-16.517.641-1.76,1.05-3.588,3.64-3.7,2.6.943,4.69,2.76,3.7,5.826-1.941,5.982-4.3,11.835-6.62,17.686-.665,1.672-1.645,3.3-3.337,3.3A3.744,3.744,0,0,1,10934.19-1247.685Zm-20.146-7.544c-2.026-.9-2.49-2.483-2.1-5.652,1-2.686,2.288-6.516,3.86-10.224.607-1.441,1.8-3.109,3.659-2.562a4.191,4.191,0,0,1,3.241,4.589,28.937,28.937,0,0,1-4.91,12.847,2.825,2.825,0,0,1-2.337,1.332A3.467,3.467,0,0,1,10914.044-1255.229Z" data-name="Union 12" transform="translate(-8281.831 1644.753)"/><path id="Union_13" fill="url(#linear-gradient-4)" stroke="rgba(0,0,0,0)" stroke-miterlimit="10" stroke-width="1" d="M10927.589-1183.417c-3.222-1.11-4.767-3.1-3.443-6.59q1.67-3.836,3.344-7.673,2.055-5.626,4.116-11.251,2.461-6.684,4.918-13.372a48.265,48.265,0,0,1,4.518-12.483q2.47-7.091,4.943-14.185h0l0,0a2.07,2.07,0,0,1,.13-.578c3.261-5.743,1.564-9.032-4.921-9.962l.011,0-.014,0q-18.958-7.067-37.92-14.127,6.066-.191,12.129-.382,14.855,5.281,29.713,10.565a34.46,34.46,0,0,1,27.344-1.8,4.5,4.5,0,0,1-.152,5.1,26.636,26.636,0,0,0,12.234,12.12h10.57c5.395-3.09,10.3-6.632,11.942-13.128h0q.36-2,.717-4.008l21.136.163q-3.754,2.832-7.513,5.666h-.008l0,0c-3.629,3.33-6.013,7.6-8.747,11.614q-1.354,6.589-2.71,13.181l0,0h0q.561,6.128,1.118,12.259.631,6.73,1.266,13.457l0,0h0l1.146,11.4h0c.982,11.31.985,11.382-10.142,11.661-20.994.531-42.011.213-62.978,1.749a12.521,12.521,0,0,1-6.468,1.742A20.283,20.283,0,0,1,10927.589-1183.417Z" data-name="Union 13" transform="translate(-8285.623 1681.263)"/><path id="Path_36374" fill="url(#linear-gradient-2)" d="M2678.925,368.175c2.235.573,4.725.838,2.022,4.079-1.254,1.5-1.851,3.555-2.743,5.351C2676.467,374.306,2674.809,371.021,2678.925,368.175Z" data-name="Path 36374"/><path id="Path_36377" fill="#fff" d="M2591.775,557.135l23.76-6.189q11.973,35.316,23.946,70.634c-6.3,9.293-14.5,16.048-25.468,19.129-2.814,1.526-3.871-.638-4.308-2.525-4.028-17.413-9.379-34.515-12.286-52.188a3.158,3.158,0,0,1,.464-1.744,2.594,2.594,0,0,0-1.04-3.016C2593.463,573.558,2590.468,565.8,2591.775,557.135Z" data-name="Path 36377"/><path id="Path_36378" fill="#b0eedb" d="M2614.116,536.356c1.606-4.314-1.085-1.9-2.415-1.527-12.706,3.545-23.962,1.59-32.953-8.759a15.78,15.78,0,0,1-1.683-3.136c1.882-2.057,4.425-1.771,6.818-1.822,5.071-.107,10.148-.147,15.217-.006,4.994.139,9.593.423,11.323-6.089.859-3.235,4.546-3.532,7.662-3.915,2.2-.27,4.337-1.033,6.591-.966,3.214.444,8.646-1.324,8.823,2.747.2,4.5-5.363,2.6-8.454,3.271-2.758.6-5.643.627-9.219,2.355,4.5,2.254,8.543.864,12.3,1.412,3.329.486,9.021-1.6,9.059,3.136.032,3.914-5.584,2.443-8.829,2.781-3.538.369-7.236-.57-11.314,1.249,2.989,2.011,5.69,1.234,8.218,1.372,2.032.112,4.09-.126,6.111.071,2.683.261,6.941-.775,7.168,2.718.252,3.888-4.113,2.858-6.7,3.193-3.542.459-7.1.676-11.3,2.23,4.662,2.875,9.882-1.9,13.089,2.836l-15.815,5.323C2618.878,541,2614.049,539.747,2614.116,536.356Z" data-name="Path 36378"/><path id="Path_36379" fill="url(#linear-gradient-4)" d="M2604.864,549.094l-27.275-11.155.684-1.7c10.38,3.252,20.326,7.684,30.266,12.132C2607.544,549.77,2606.256,549.7,2604.864,549.094Z" data-name="Path 36379"/><path id="Path_36381" fill="url(#linear-gradient-2)" d="M2633.625,539.507c-3.689-1.539-7.224.312-10.836.482-2.35.111-4.775-.019-5.087-3.043-.374-3.616,2.506-2.9,4.62-3.123a149.437,149.437,0,0,0,15.452-2.158c-3.415-2.258-7.216-1.175-10.822-1.378-2.848-.161-5.715.029-8.573.006-1.994-.016-4.448.423-4.384-2.722.052-2.564,1.813-3.435,4.146-3.44,4.288-.009,8.579.077,12.862-.07,1.863-.065,4.025.786,6.087-1.69-5.079-1.586-9.856-.55-14.521-.737-2.038-.081-4.085.04-6.123-.043-1.794-.073-3.3-.867-3.444-2.8-.165-2.3,1.425-3.155,3.491-3.355a151.3,151.3,0,0,0,16.525-2.232c-2.475-1.907-5.31-1.043-7.941-1.387-.73-1.849.988-2.44,1.782-3.509,4.143-3.472,1.3-7.726,1.3-11.664-.486-7.764,1.661-9.967,7.936-8.172-.633,4.742.121,7.671,5.627,10,4.82,2.035,8.678,6.942,12.785,10.778,2.552,1.618.48,4.28,1.416,6.263-.783,5.581,2.654,12.529-1.267,16.458-3.476,3.485-10.038,3.9-15.242,5.649C2637.487,538.267,2635.553,538.879,2633.625,539.507Z" data-name="Path 36381"/><path id="Path_36382" fill="#b0eedb" d="M2657.587,510.64c-.192-.351-.525-.689-.556-1.053-.893-10.306-.89-10.359,9.246-10.739,21.776-.817,43.592-.183,65.344-1.845,8.782-2.834,17.538-3.35,26.246.3a399.466,399.466,0,0,1-39.436,13.252c-7.683,2.354-15.594,2.1-23.488,2.072-9.539-.027-19.078,0-28.617-.013C2663.262,512.608,2660.216,512.556,2657.587,510.64Z" data-name="Path 36382"/><path id="Path_36383" fill="#b0eedb" d="M2757.867,497.3l-26.246-.3q-.441-6.208-.881-12.418c2.639-2.146,5.812-1.656,8.83-1.669q21.465-.1,42.93.008c3.977.025,7.712-.46,11.06-2.744,1.358,4.338.836,8.8.9,13.228a48.645,48.645,0,0,0-30.216,2.14A57.438,57.438,0,0,1,2757.867,497.3Z" data-name="Path 36383"/><path id="Path_36384" fill="#b0eedb" d="M2657.587,510.64l60.843-.085a372.654,372.654,0,0,1-36.787,12.519c-5.51.966-11,2.074-16.649,1.741-2.4-.141-4.84-.1-6.766-1.9Q2657.907,516.777,2657.587,510.64Z" data-name="Path 36384"/><path id="Path_36385" fill="#f2f5fa" d="M2658.228,522.913l23.416.16-23.255,8.288Q2658.308,527.137,2658.228,522.913Z" data-name="Path 36385"/><path id="Path_36387" fill="url(#linear-gradient-2)" d="M2591.775,557.135c1.405,8.093,4.724,15.785,5.068,24.1-2.867-.427-3.957-2.457-4.558-4.978-1.219-5.113-2.334-10.257-3.761-15.312C2587.612,557.713,2588.926,556.9,2591.775,557.135Z" data-name="Path 36387"/><path id="Path_36388" fill="#fdfdfe" d="M2719.735,384.771a17.468,17.468,0,1,1-17.242-17.73A17.555,17.555,0,0,1,2719.735,384.771Z" data-name="Path 36388"/><path id="Path_36389" fill="url(#linear-gradient-2)" d="M2686.572,420.873q-.168-2.391-.336-4.782c-1.87-4.105-3.887-8.2-.833-12.628,13.567,8.726,22.25,8.456,34.861-1.082q.939,6.855,1.881,13.7a4.315,4.315,0,0,1,.783,3.631c-1.821,7.483-6.648,12.143-13.775,14.649a23.23,23.23,0,0,1-9.664.066C2693.254,431.756,2687.314,428.787,2686.572,420.873Z" data-name="Path 36389"/><path id="Path_36390" fill="#e4edf8" d="M2685.4,403.463q.417,6.313.834,12.628c-8.974-.294-17.923-.214-26.752,1.711,2.836-4.29,3.915-9.325,5.914-13.971,3.833-1.827,4.6-5.83,6.448-9.072C2680.332,391.483,2681.508,399.59,2685.4,403.463Z" data-name="Path 36390"/><path id="Path_36398" fill="#b0eedb" d="M2791.608,459.028q.648,6.711,1.3,13.422c-2.061,2.211-4.824,2.019-7.448,2.033q-24.235.126-48.473.009c-2.65-.012-5.37.04-7.471-2.056-.638-4.429-1.653-8.823-1.226-13.35,2.11-2.08,4.831-2,7.472-2.01q24.19-.1,48.381.007C2786.755,457.1,2789.514,456.871,2791.608,459.028Z" data-name="Path 36398"/><path id="Path_36399" fill="#b0eedb" d="M2727.134,446.758a21.9,21.9,0,0,1,3.479-13.3c2.041-2.137,4.728-2.159,7.374-2.172q20.727-.105,41.454-.014c2.685.008,5.285.294,7.476,2.072a27.285,27.285,0,0,1,3.479,13.382c-2.075,2.184-4.835,1.956-7.447,1.97q-24.17.128-48.34,0C2731.987,448.684,2729.244,448.868,2727.134,446.758Z" data-name="Path 36399"/><path id="Path_36400" fill="#b0eedb" d="M2727.134,446.758l63.263-.035q.6,6.15,1.211,12.3l-63.321.058C2727.423,455.022,2726.687,450.945,2727.134,446.758Z" data-name="Path 36400"/><path id="Path_36401" fill="#b0eedb" d="M2729.513,472.436l63.393.016q.326,3.857.653,7.723c.2,3.817-1.807,4.6-5.3,4.572-19.173-.176-38.349-.129-57.524-.16A36.214,36.214,0,0,1,2729.513,472.436Z" data-name="Path 36401"/><path id="Path_36402" fill="#b0eedb" d="M2786.917,433.34q-28.151.054-56.3.112a22.347,22.347,0,0,1,11.094-12.647,72.507,72.507,0,0,1,33.936-.072A24.929,24.929,0,0,1,2786.917,433.34Z" data-name="Path 36402"/><path id="Path_36404" fill="url(#linear-gradient-4)" d="M2775.644,420.733q-16.969.036-33.937.072C2753.174,413.171,2764.855,413.146,2775.644,420.733Z" data-name="Path 36404"/><path id="Path_36405" fill="#b0eedb" d="M2640.744,496.995l13.973.249q-.107,6-.214,12.006a22.258,22.258,0,0,1-9.437-6.22c-1.849-1.965-3.543-3.664-6.589-4.351-4.606-1.039-5.252-4.617-2.358-9.071q.405-.709.89-.053l.348,1.183C2637.629,493.288,2638.241,495.653,2640.744,496.995Z" data-name="Path 36405"/><path id="Path_36406" fill="#b0eedb" d="M2647.871,459.055q-2.676,7.245-5.351,14.491c-3.123,1.188-6.387.975-9.63.973-12.993-.007-25.987.062-38.98-.047-2.958-.025-6.2.541-8.458-2.272q2.484-7.043,4.97-14.086a18.2,18.2,0,0,1,7.2-1.046c13.858.02,27.717-.039,41.575.045C2642.19,457.131,2645.391,456.6,2647.871,459.055Z" data-name="Path 36406"/><path id="Path_36407" fill="#afeedb" d="M2656.9,433.292A57.482,57.482,0,0,1,2652,446.8c-2.178,1.884-4.847,1.9-7.489,1.91-14.2.051-28.4.078-42.6-.021-2.595-.018-5.35.2-7.355-2.068q2.453-6.705,4.9-13.41c2.122-2.032,4.831-1.916,7.451-1.929q21.3-.1,42.6.008C2652.1,431.31,2654.842,431.125,2656.9,433.292Z" data-name="Path 36407"/><path id="Path_36408" fill="#b0eedb" d="M2637.009,489.555l-.443.061-.447-.007c-5.658-1.654-7.187.019-6.635,7.259-1.614,1.943-3.889,2.1-6.13,2.124q-20.455.216-40.911.005c-2.222-.02-4.525-.055-6.215-1.925q2.636-7.3,5.272-14.612c5.789-1.57,11.7-.75,17.557-.819q15.819-.184,31.642.01c2.773.031,5.776-.373,7.875,2.218Z" data-name="Path 36408"/><path id="Path_36409" fill="#b0eedb" d="M2594.549,446.625,2652,446.8l-4.125,12.25c-16.977-.007-33.953.011-50.929-.056-2.183-.008-4.523.672-6.52-.886Z" data-name="Path 36409"/><path id="Path_36410" fill="#b0eedb" d="M2576.228,497.072l53.259-.2c.252,4.426,4.194,9.518-2.3,12.725-10.191,2.588-20.589,1.56-30.914,1.741q-8.224.144-16.453-.037c-2.24-.052-4.5-.144-6.274-1.83C2572.942,505.011,2574.646,501.055,2576.228,497.072Z" data-name="Path 36410"/><path id="Path_36411" fill="#b0eedb" d="M2656.9,433.292l-57.448-.077q2.3-6.243,4.591-12.485c2.071-1.546,4.491-1.758,6.939-1.724,11.3.159,22.659-.933,33.84,1.641,2.835.934,5.688,1.815,8.5,2.812C2660.382,425.962,2660.374,425.983,2656.9,433.292Z" data-name="Path 36411"/><path id="Path_36412" fill="#b0eedb" d="M2638.574,483.869c-16.708-.021-33.415-.015-50.122-.1-2.358-.011-4.949.761-6.951-1.314q1.974-5.127,3.95-10.258c16.9.037,33.8.05,50.705.14,2.158.011,4.532-.7,6.362,1.209Q2640.549,478.706,2638.574,483.869Z" data-name="Path 36412"/><path id="Path_36413" fill="#b0eedb" d="M2573.545,509.467l53.642.124-2.11,2.229c-3.03.361-6.053.8-9.091,1.063-3.784.327-6.072,2.826-5.316,6.037,1.141,4.847-1.755,3.875-4.239,3.891-9.789.066-19.578.085-29.367.122A18.386,18.386,0,0,1,2573.545,509.467Z" data-name="Path 36413"/><path id="Path_36415" fill="#b0eedb" d="M2644.823,420.647l-40.78.085c3.992-13.775,4-13.794,16.915-9.024C2628.926,414.651,2636.869,417.665,2644.823,420.647Z" data-name="Path 36415"/><path id="Path_36416" fill="url(#linear-gradient-2)" d="M2640.744,496.995c-3.6-.748-5.38-2.48-3.387-6.256l1.164.516Z" data-name="Path 36416"/><path id="Path_36421" fill="url(#linear-gradient)" d="M2711.405,385.233c-.346,2.865-.782,6.322-4.846,6.145-3.514-.154-4.319-3.21-4.355-6.251-.039-3.323.909-6.462,4.787-6.371C2710.529,378.84,2711.236,381.955,2711.405,385.233Z" data-name="Path 36421"/></g><g id="Group_14920" data-name="Group 14920" transform="translate(-189.397 191.699)"><path id="Path_36169" fill="#b0eedb" d="M1267.423,667.093H1228c-4.427-3.428-4.169-8.306-3.7-13.026a80.064,80.064,0,0,1,4.52-19.071,11.754,11.754,0,0,0,.644-7.417c4.122-6.6,2.612-13.131-.254-19.637-2.351-5.337-5.692-10.156-8.119-15.457-3.671-8.016-3.007-16.258-1.229-24.532a6.068,6.068,0,0,1,2.479-4.121,4.565,4.565,0,0,1,3.834.672c7.777,4.1,15.895,7.491,23.806,11.313a10.064,10.064,0,0,1,5.955,8.225q4.338,27.532,8.649,55.069c.233,1.5.645,3.168-.545,4.244-1.437,1.3-2.757-.249-3.972-.862-8.332-4.2-16.54-8.633-24.871-12.834,8.868,4.515,17.569,9.358,26.529,13.686,2.53,1.222,3.96,2.645,4.456,5.5.764,4.392,1.374,8.813,2.248,13.188C1268.783,663.794,1268.817,665.62,1267.423,667.093Z" data-name="Path 36169" transform="translate(-9184.316 1085.461)"/><path id="Path_36172" fill="#b0eedb" d="M1291.068,609.753c2.439,10.4,8.916,18.569,14.811,27.088,4.359,6.3,7.641,12.918,6.951,21.066-.449,5.314-3.13,9.458-5.472,13.87h-14.337c-.432-1.9,1.286-2.529,2.232-3.5,4.57-4.7,9.242-9.3,13.169-13.226-5.372,4.99-10.81,11.344-17.193,16.728H1274.2c-1.543-2.2-1.246-4.849-1.684-7.293-1.755-9.792-3.275-19.626-4.859-29.448-.278-1.724-.277-3.249,1.005-4.564,6.553-6.723,13.157-13.4,19.96-19.867A2.84,2.84,0,0,1,1291.068,609.753Z" data-name="Path 36172" transform="translate(-9189.305 1080.777)"/><path id="Path_36173" fill="url(#linear-gradient)" d="M1286.554,598.4c-7.08,7.061-14.135,14.149-21.262,21.162-1.439,1.417-1.639,2.729-1.295,4.756,2.039,12.011,3.823,24.066,5.692,36.106H1267.9c.037-6.752-1.956-13.225-2.714-19.867-.238-2.085-1.922-2.507-3.319-3.239-8.195-4.283-16.418-8.513-24.62-12.783-1.41-.734-2.763-1.576-4.143-2.368l.516-.97,30.9,15.9c-1.161-7.577-2.187-14.416-3.263-21.248-1.966-12.479-4.071-24.937-5.881-37.439-.577-3.985-1.94-6.653-5.919-8.4-8.868-3.9-17.5-8.333-26.226-12.549-.421-.931.183-1.29.883-1.6,2.246-.4,4.013.857,5.858,1.758,7.2,3.516,14.317,7.218,21.967,10.895.284-4.033-.657-7.561-1.239-11.094-2.975-18.053-5.75-36.136-8.5-54.223-.244-1.6-.7-3.232.243-4.782a1.272,1.272,0,0,1,1.269-.419c2.6,2.154,2.409,5.357,2.841,8.208,2.994,19.737,6.367,39.413,9.335,59.154a2.409,2.409,0,0,0,1.389,2.206c5.808-5.874,11.877-11.718,17.667-17.852,1.1-1.167,1.878-2.754,3.766-2.9q1.675-.129,1.545,1.545c-.148,2.183-1.882,3.308-3.208,4.655-5.542,5.626-11.142,11.2-16.741,16.765-1.9,1.89-3.2,4.011-2.729,6.753,2.283,13.181,4.071,26.446,6.654,40.7,5.026-5.287,9.749-9.649,14.024-14.536,2.312-2.644,3.948-6.449,8.34-6.56Q1286.57,597.263,1286.554,598.4Z" data-name="Path 36173" transform="translate(-9184.79 1092.135)"/><path id="Path_36174" fill="url(#linear-gradient-4)" d="M1293.912,676.575l21.077-19.2-.4-.446L1295.7,676.575Z" data-name="Path 36174" transform="translate(-9191.987 1075.98)"/><path id="Path_36181" fill="#b0eedb" d="M1290.348,601.83c-6.9,5.688-12.2,12.962-18.71,19.047a26.165,26.165,0,0,0-3.091,4.333l-1.492-.821c-.832-4.731-1.711-9.455-2.486-14.2-1.409-8.62-2.614-17.276-4.189-25.864-.731-3.988-.176-7,2.99-9.935,7.078-6.567,13.785-13.534,20.641-20.339,6.846,4.836,9.121,12,10.025,19.828.919,7.957-2.055,15.418-3.075,23.13C1290.747,598.617,1290.552,600.223,1290.348,601.83Z" data-name="Path 36181" transform="translate(-9188.551 1086.435)"/><path id="Path_36182" fill="#b0eedb" d="M1246.184,498.446l5.031-.279c9.141,1.515,14.078,7.423,15.44,18.427.381,3.07.727,6.151,1.3,9.189,1.236,6.594,4.067,12.315,9.314,16.734,1.446,1.217,3.009,2.45,3.784,4.311-6.723,8.582-15,15.651-23.068,24.211-1.658-10.245-3.178-19.668-4.71-29.089Q1249.734,520.2,1246.184,498.446Z" data-name="Path 36182" transform="translate(-9187.137 1092.114)"/><path id="Path_36198" fill="#b0eedb" d="M1224.113,556.518a29.826,29.826,0,0,1,2.036-4.39c5.509-8.2,6.167-17,3.907-26.411-1.2-5.008-2.284-10.129-.646-15.377,2.1-6.721,6.412-10.771,13.4-11.905,3.735,23.894,7.47,47.788,11.311,72.352Z" data-name="Path 36198" transform="translate(-9184.895 1092.087)"/></g></g></g></svg>