<svg xmlns="http://www.w3.org/2000/svg" width="81.107" height="65.088" data-name="Group 132"><defs><linearGradient id="a" x1=".5" x2=".5" y2="1" gradientUnits="objectBoundingBox"><stop offset="0" stop-color="#fff"/><stop offset="1" stop-color="#bbb"/></linearGradient><clipPath id="b"><path fill="url(#a)" d="M0 0h81.107v65.088H0z" data-name="Rectangle 7136"/></clipPath></defs><g fill="url(#a)" clip-path="url(#b)" data-name="Group 10461"><path d="M22.226 34.823c-1.726-1.788-3.169-3.534-4.869-4.977a5.781 5.781 0 0 1-2.257-5.611c.134-.964-.01-1.964.033-2.945a1.6 1.6 0 0 0-1.249-1.746 6.589 6.589 0 0 0-.645 1.645c-.1.971-.009 1.963-.029 2.945a11.807 11.807 0 0 1-.184 1.3c-2-2-3.829-3.848-5.691-5.667-.534-.522-1.157-1.506-1.953-.651-.735.789.269 1.321.761 1.844s1.022 1.019 1.788 1.778c-1.1.215-1.953.361-2.8.556-.609.141-1.609-.139-1.524.933.083 1.057 1.027.691 1.652.694a28.222 28.222 0 0 0 3.274-.15 2.655 2.655 0 0 1 2.328.862c1.372 1.342 2.83 2.6 4.252 3.886l-.269.466a9.275 9.275 0 0 1-.974.109c-1.165.013-2.33-.01-3.495.009-.566.009-1.266-.094-1.295.777-.031.958.745.857 1.327.867 1.856.032 3.714 0 5.57.024a1.733 1.733 0 0 1 1.108.283c1.286 1.305 2.507 2.675 3.779 4.054-.2.045-.528.13-.863.2a23.223 23.223 0 0 1-9.334-.219c-4.73-.994-8.28-3.55-9.619-8.509a22.857 22.857 0 0 1-.723-10.443 7.4 7.4 0 0 0 .095-.758c.185-2.075.191-2.164 2.24-2.223a64.524 64.524 0 0 1 8.057.032c4.309.416 7.956 2.17 10.13 6.193a18.583 18.583 0 0 1 1.891 8.755c.024 1.526-.1 3.054-.177 4.58a6.187 6.187 0 0 1-.335 1.106" data-name="Path 8514"/><path d="M44.836 33.648c2.046 1.274 4.04 2.645 6.153 3.8a10.564 10.564 0 0 1 4.242 4.929 13.742 13.742 0 0 1 .776 2.135c.266.854-.1 1.2-.974 1.2-2.291-.012-4.582.028-6.873.03q-9.873.009-19.747 0c-.291 0-.583 0-.872-.025-.75-.064-.988-.4-.752-1.171a13.106 13.106 0 0 1 6.928-8.23c1.338-.673 2.5-1.7 3.781-2.49a1.481 1.481 0 0 1 1.193-.138 6.261 6.261 0 0 0 5.655-.1 2.4 2.4 0 0 1 .411-.146.815.815 0 0 1 .212 0z" data-name="Path 8515"/><path d="M61.749 24.764c.036-1.821.32-3.381 2.182-4.215a4.531 4.531 0 0 1 3.38-.055 13.319 13.319 0 0 0 3.98.917 14.982 14.982 0 0 0 4.409-.952c1.564-.519 3.624-.367 4.471.969a5.985 5.985 0 0 1 .913 3.547 19.128 19.128 0 0 1-3.718 9.488 3.1 3.1 0 0 1-3.467 1.292 17.2 17.2 0 0 0-5.172.087 2.7 2.7 0 0 1-2.641-.821 17.014 17.014 0 0 1-3.487-6.69c-.326-1.177-.57-2.378-.851-3.568" data-name="Path 8516"/><path d="M32.105 22.075c.975-.071 1.8-.068 2.6-.2a26.134 26.134 0 0 0 9.733-3.595 1.7 1.7 0 0 1 1.41.241c.817.522 1.479 1.3 2.317 1.771a3.919 3.919 0 0 0 2.046.442c.841-.046 1.107.286.977.988-.25 1.354-.5 2.686-1.993 3.394-.508.24-.783.989-1.145 1.519a41.235 41.235 0 0 1-3 4.357 4.519 4.519 0 0 1-7.213-.038 54.923 54.923 0 0 1-3.3-4.929 4.462 4.462 0 0 0-1.246-1.138 2.532 2.532 0 0 1-1.186-2.811" data-name="Path 8517"/><path d="M50.079 17.31c0 .218.01.437 0 .655-.058 1.042-.541 1.349-1.4.734a11.385 11.385 0 0 1-2.4-2.191c-.737-.948-1.29-.716-2.082-.149a21.085 21.085 0 0 1-9.924 3.83c-1.365.162-1.721-.121-1.634-1.452.3-4.563 2.293-8.191 6.976-9.767a6.641 6.641 0 0 1 5.9 1.126c1.1.728 2.421 1.108 3.148 2.366a10.079 10.079 0 0 1 1.423 4.848" data-name="Path 8518"/><path d="M18.922 14.646c-2.109-1.038-1.918-.961-.705-2.693a27 27 0 0 1 10.247-8.888A56.32 56.32 0 0 1 35.078.683c2.715-.938 5.53-.632 8.322-.649a23.459 23.459 0 0 1 8.548 1.879 27.066 27.066 0 0 1 12.93 10.219 59.439 59.439 0 0 1 2.951 5.182c.3.55.186.915-.579.8a2.567 2.567 0 0 1-2.119-1.564A26.67 26.67 0 0 0 52.376 4.261a25.364 25.364 0 0 0-14.912-2.008 26.093 26.093 0 0 0-18.542 12.393" data-name="Path 8519"/><path d="M30.797 57.884c0-1.782-.012-3.563.006-5.345.014-1.388.314-1.668 1.668-1.664.8 0 1.6.034 2.4-.009a1.222 1.222 0 0 1 1.449 1.358q.035 5.726 0 11.453a1.245 1.245 0 0 1-1.506 1.405c-.8-.054-1.6 0-2.4-.011-1.272-.012-1.595-.317-1.61-1.624-.022-1.854-.005-3.708 0-5.563" data-name="Path 8520"/><path d="M46.564 57.903c0-1.927.025-3.854-.013-5.781-.017-.876.307-1.277 1.2-1.248 1.017.033 2.036.005 3.054.02a1 1 0 0 1 1.123 1.143q-.021 5.944 0 11.889a1.012 1.012 0 0 1-1.144 1.134c-1.018.016-2.036-.011-3.054.011-.82.017-1.182-.328-1.17-1.171.029-2 .009-4 .008-6" data-name="Path 8521"/><path d="M53.311 58.187c0-1.455-.013-2.911 0-4.365.012-1.1.377-1.43 1.563-1.456 1.59-.034 1.945.158 1.962 1.346q.065 4.583 0 9.167c-.013 1.1-.454 1.352-1.908 1.31-1.192-.035-1.6-.38-1.616-1.418-.017-1.528 0-3.056-.006-4.584" data-name="Path 8522"/><path d="M29.343 58.341c0 1.452.019 2.9-.006 4.356-.02 1.206-.386 1.5-1.743 1.493s-1.737-.315-1.741-1.492q-.016-4.41 0-8.821c0-1.235.321-1.5 1.7-1.512 1.5-.009 1.777.207 1.8 1.511.023 1.488.005 2.976.005 4.465z" data-name="Path 8523"/><path d="M56.817 49.96a26.015 26.015 0 0 0 6.774-7.086c.865-1.373 1.6-2.833 2.342-4.278.493-.956 1.208-.233 1.814-.315.037.388.225.844.087 1.154a29.647 29.647 0 0 1-7.756 10.61c-1.539 1.321-1.525 1.337-3.26-.085" data-name="Path 8524"/><path d="M25.963 50.095a3.718 3.718 0 0 1-1.031.653 1.654 1.654 0 0 1-1.258-.108 27.468 27.468 0 0 1-7.83-9.858c-.046-.1-.084-.2-.132-.3-.245-.5-1.011-1.011-.195-1.532.717-.458 1.72.071 2.182.857a38.014 38.014 0 0 0 3.1 4.944c1.546 1.884 3.387 3.527 5.168 5.343" data-name="Path 8525"/><path d="M70.664 17.733c-.273-2.5 1.637-4.247 4.118-4.524.77-.086 1.252.191 1.324 1.045.158 1.874.126 3.7-1.724 4.806a7.663 7.663 0 0 1-2.316.873 1.075 1.075 0 0 1-1.4-1.111c-.023-.362 0-.726 0-1.089" data-name="Path 8526"/><path d="M41.44 57.032c1.015 0 2.031.029 3.045-.01.7-.027.935.3.834.922-.1.6.351 1.543-.792 1.56q-3.208.049-6.416-.012c-1.142-.022-.681-.967-.786-1.561-.116-.654.193-.915.854-.9 1.087.031 2.175.009 3.263.009v-.011" data-name="Path 8527"/><path d="m57.644 58.057.959-1.021c.341.408.953.82.948 1.225s-.612.823-.956 1.234l-.952-1.437" data-name="Path 8528"/><path d="m24.965 58.034-.8 1.432c-.324-.414-.871-.811-.9-1.246-.027-.363.548-.772.856-1.161l.849.975" data-name="Path 8529"/></g></svg>