<svg xmlns="http://www.w3.org/2000/svg" xmlns:xlink="http://www.w3.org/1999/xlink" viewBox="0 0 305.46 157.95"><defs><linearGradient id="linear-gradient" x1="-1739.88" x2="-1640.29" y1="-751.72" y2="-751.72" gradientTransform="rotate(90 -1232.11 542.6)" gradientUnits="userSpaceOnUse"><stop offset="0" stop-color="#5fc2a4"/><stop offset="1" stop-color="#397462"/></linearGradient><linearGradient id="linear-gradient-2" x1="-1714.16" x2="-1624.46" y1="-771.94" y2="-771.94" gradientTransform="rotate(90 -1232.11 542.6)" gradientUnits="userSpaceOnUse"><stop offset="0" stop-color="#e6e7e8"/><stop offset="1" stop-color="#a7a9ac"/></linearGradient><linearGradient id="linear-gradient-3" x1="-1708.17" x2="-1708.17" y1="-692.58" y2="-751.57" xlink:href="#linear-gradient-2"/><linearGradient id="linear-gradient-4" x1="-1669.6" x2="-1617.36" y1="-806.53" y2="-806.53" xlink:href="#linear-gradient"/><linearGradient id="linear-gradient-5" x1="-1676.54" x2="-1616.77" y1="-770.3" y2="-770.3" xlink:href="#linear-gradient"/><linearGradient id="linear-gradient-6" x1="-1649.82" x2="-1623.21" y1="-811.35" y2="-811.35" xlink:href="#linear-gradient-2"/><linearGradient id="linear-gradient-7" x1="-1773.42" x2="-1751.5" y1="-719.83" y2="-719.83" xlink:href="#linear-gradient-2"/><linearGradient id="linear-gradient-8" x1="-1774.71" x2="-1701.31" y1="-725" y2="-725" xlink:href="#linear-gradient"/><linearGradient id="linear-gradient-9" x1="-1774.71" x2="-1701.31" y1="-689.51" y2="-689.51" xlink:href="#linear-gradient"/><style>.cls-1{fill:#4a9d86}.cls-2{fill:#fff}</style></defs><g id="Layer_2" data-name="Layer 2"><g id="Layer_1-2" data-name="Layer 1"><path d="M209.58 79.55h2.27V86a9.08 9.08 0 0 1-2.85 1.56 10.76 10.76 0 0 1-3.4.54 9.27 9.27 0 0 1-4.51-1.1 8.1 8.1 0 0 1-3.15-3 8.76 8.76 0 0 1 0-8.68 8 8 0 0 1 3.16-3 9.5 9.5 0 0 1 4.55-1.09 9.65 9.65 0 0 1 3.6.65 7.5 7.5 0 0 1 2.75 1.9l-1.47 1.47a6.63 6.63 0 0 0-4.79-1.91 7 7 0 0 0-3.39.81 6 6 0 0 0-2.35 2.23 6.66 6.66 0 0 0 0 6.51 6.06 6.06 0 0 0 2.35 2.28 6.87 6.87 0 0 0 3.37.83 7.06 7.06 0 0 0 3.87-1.06zM218.17 71.38h2.36v14.48h8.95v2h-11.31zM236.66 87a8.05 8.05 0 0 1-3.15-3 8.69 8.69 0 0 1 0-8.64 8.08 8.08 0 0 1 3.15-3 9.75 9.75 0 0 1 9 0 8.14 8.14 0 0 1 3.14 3 8.88 8.88 0 0 1 0 8.67 8.14 8.14 0 0 1-3.14 3 9.75 9.75 0 0 1-9 0zm7.78-1.83a6 6 0 0 0 2.29-2.28 6.69 6.69 0 0 0 0-6.49 6 6 0 0 0-2.29-2.28 6.51 6.51 0 0 0-3.27-.82 6.61 6.61 0 0 0-3.29.82 6 6 0 0 0-2.32 2.28 6.69 6.69 0 0 0 0 6.49 6 6 0 0 0 2.32 2.28 6.62 6.62 0 0 0 3.29.83 6.52 6.52 0 0 0 3.27-.83zM268.75 80.79a4.18 4.18 0 0 1 .82 2.66 3.81 3.81 0 0 1-1.62 3.3 8 8 0 0 1-4.71 1.16h-7.88V71.38h7.41a7.27 7.27 0 0 1 4.38 1.14 3.67 3.67 0 0 1 1.55 3.14 4.1 4.1 0 0 1-.6 2.24 3.89 3.89 0 0 1-1.62 1.44 4.29 4.29 0 0 1 2.27 1.45zm-11-7.49v5.28h4.84a4.93 4.93 0 0 0 2.8-.67 2.47 2.47 0 0 0 0-3.94 4.93 4.93 0 0 0-2.8-.67zm8.45 12a2.3 2.3 0 0 0 1-2.08q0-2.76-4-2.76h-5.43V86h5.43a5.57 5.57 0 0 0 2.97-.66zM285.58 83.78h-8.78l-1.8 4.13h-2.43L280 71.38h2.34l7.51 16.53h-2.45zm-.83-1.89-3.56-8.1-3.57 8.1zM294.15 71.38h2.36v14.48h8.95v2h-11.31z" class="cls-1"/><path d="M164.45 30.59h15.13a21.28 21.28 0 0 1 9.59 2.07 15.51 15.51 0 0 1 6.47 5.83 16.35 16.35 0 0 1 2.36 8.75 16.41 16.41 0 0 1-2.36 8.76 15.56 15.56 0 0 1-6.47 5.82 21.28 21.28 0 0 1-9.59 2.07h-15.13zm14.75 27a11.17 11.17 0 0 0 8-2.79 9.83 9.83 0 0 0 3-7.54 9.84 9.84 0 0 0-3-7.54 11.21 11.21 0 0 0-8-2.78h-7v20.63zM207.06 63.39a17.89 17.89 0 0 1-5.93-2.78l2.62-5.8a18.06 18.06 0 0 0 5.09 2.52 19.25 19.25 0 0 0 5.9 1 9.29 9.29 0 0 0 4.85-1 2.92 2.92 0 0 0 1.57-2.59 2.47 2.47 0 0 0-.93-2 6.74 6.74 0 0 0-2.37-1.26q-1.46-.48-3.93-1a52.19 52.19 0 0 1-6.23-1.81 10 10 0 0 1-4.16-2.9 7.83 7.83 0 0 1-1.74-5.33 9.26 9.26 0 0 1 1.57-5.26 10.56 10.56 0 0 1 4.73-3.73 19.33 19.33 0 0 1 7.73-1.45 25.51 25.51 0 0 1 6.24.76 18.44 18.44 0 0 1 5.32 2.24L225 38.82a18.65 18.65 0 0 0-9.23-2.62 8.68 8.68 0 0 0-4.79 1 3.2 3.2 0 0 0-1.52 2.8 2.71 2.71 0 0 0 1.78 2.55 28.55 28.55 0 0 0 5.45 1.64 51.64 51.64 0 0 1 6.23 1.81 10.31 10.31 0 0 1 4.17 2.85 7.69 7.69 0 0 1 1.73 5.28 9.12 9.12 0 0 1-1.59 5.21 10.7 10.7 0 0 1-4.78 3.73 19.51 19.51 0 0 1-7.76 1.38 27 27 0 0 1-7.63-1.06zM264.41 63.89l-.05-20-9.8 16.46h-3.47l-9.76-16v19.54h-7.23v-33.3h6.38l12.46 20.7 12.28-20.7h6.32l.1 33.3zM305.32 57.71v6.18h-25.78v-33.3h25.17v6.19H287.2V44h15.46v6H287.2v7.71z" class="cls-2"/><path d="M25.72 134.42c-9.4-10.25-10.78-21.43-6.39-33.68 3.52-9.82 9.4-18.19 16.32-25.81C52.33 56.55 72.17 43 96.14 35.81a17 17 0 0 1 4-1 6.56 6.56 0 0 1 6.54 3.77c1.41 2.88.84 5.62-1.07 8.08-1.65 2.13-4.1 2.94-6.52 3.83-24.47 9.11-45.28 23.31-60.65 44.7C30.38 106.41 25 118.72 26 133a7.47 7.47 0 0 1-.28 1.42z" style="fill:url(#linear-gradient)"/><path d="M49.73 150.25c-11.44-6.91-14.95-19.38-9.25-32.43 4.68-10.71 12.4-19.07 21.06-26.61C78.22 76.71 97 66 118.61 60.79c3.5-.85 6.87.62 8 3.47s-.08 6.19-3.73 7.75c-4.17 1.78-8.63 2.86-12.87 4.49-21.29 8.22-39.67 20.5-53.1 39.31-5.44 7.62-9.32 15.95-9.14 25.68.05 3 1.1 5.76 1.96 8.76z" style="fill:url(#linear-gradient-2)"/><path d="M5.91 104.91c-4.26-11-3.53-21.27.94-31.33 5.29-11.9 14.05-21 23.71-29.42A175 175 0 0 1 48.8 30.62a12.72 12.72 0 0 1 8.11-2.41 5.28 5.28 0 0 1 4.52 7.85c-1.07 2.21-3 3.58-5 4.87C41.64 50.54 28.57 62 18.48 76.68c-5.55 8-10 16.64-11.81 26.37a13.79 13.79 0 0 1-.76 1.86z" style="fill:url(#linear-gradient-3)"/><path d="M102.35 156.1c-5 1.41-10 1.86-15 .12C82 154.37 79.72 150.46 81 145c1.81-7.78 7-13.4 12.63-18.46a86.14 86.14 0 0 1 38-20.22c5.21-1.23 10.5-1.78 15.81-.43a7.75 7.75 0 0 1 2.1.7c2.14 1.27 4.48 2.7 3.72 5.65s-3.18 3.81-5.8 3.38a40 40 0 0 0-20.74 1.79c-12.94 4.82-24.41 11.71-32.81 23a19 19 0 0 0-2 3.59c-3 6.66-.38 11.13 6.85 11.91 1.16.09 2.38.09 3.59.19z" style="fill:url(#linear-gradient-4)"/><path d="M78.56 157.92a34.88 34.88 0 0 1-11.39-1.39c-5-1.46-7.63-5.15-8-10.4-.45-6.19 1.36-11.8 4.32-17.1 7-12.55 17.42-21.74 29.29-29.43 3.55-2.3 7-1.74 8.78 1s.94 6.5-2.5 8.8c-8.86 5.9-17 12.58-23.2 21.34a36 36 0 0 0-4.56 8.4c-3.2 8.66-1.3 14.01 7.26 18.78z" style="fill:url(#linear-gradient-5)"/><path d="M104.47 142.07c-.35 3.65 1.87 3.87 4.38 3.63a26.86 26.86 0 0 0 8.77-2.7c6.3-2.95 12.27-6.42 16.85-11.82 2.86-3.37 2.41-4.72-2.19-5.79 2.43-.16 4.35-.74 6.37-.39 3.35.59 4.28 2.26 2.92 5.44s-3.75 5.44-6.28 7.55c-7.67 6.42-16.17 11.28-26.13 13.2a12.35 12.35 0 0 1-1.89.29c-2 .09-4 0-5.19-1.78s0-3.64.89-5.3c.43-.81 1.03-1.55 1.5-2.33z" style="fill:url(#linear-gradient-6)"/><path d="M17.29 23.22a69.25 69.25 0 0 1 21.93-21 7.12 7.12 0 0 1 2.08-.77c.61-.14 1.39-.26 1.8.29a1.48 1.48 0 0 1-.34 2A19.42 19.42 0 0 1 40 6.28a161.34 161.34 0 0 0-21.7 16.3 6.92 6.92 0 0 1-1.01.64z" style="fill:url(#linear-gradient-7)"/><path d="M0 72.55c.51-2.22 3-9.13 14.84-22.8q3.63-4.32 7.55-8.24c12.13-12.08 26.39-21.47 42-29.09a14.38 14.38 0 0 0 4.33-2.65c2-2.09 3-4.47 1.5-7.22C68.93.07 66.24-.74 63 .74 45 9 27.89 18.78 14.49 33.79A52.53 52.53 0 0 0 1.34 60.26C1.15 61.6.45 66.62.15 70.33c-.02.74-.05 1.48-.15 2.22z" style="fill:url(#linear-gradient-8)"/><path d="M0 72.59z" style="fill:url(#linear-gradient-9)"/><path d="M22.39 41.53z" class="cls-2"/></g></g></svg>