<svg xmlns="http://www.w3.org/2000/svg" xmlns:xlink="http://www.w3.org/1999/xlink" width="837.75" height="601.894" viewBox="0 0 837.75 601.894"><defs><linearGradient id="linear-gradient" x1=".5" x2=".5" y2="1" gradientUnits="objectBoundingBox"><stop offset="0" stop-color="#202020"/><stop offset="1" stop-color="#2e2e2e"/></linearGradient><linearGradient id="linear-gradient-11" x1=".5" x2=".5" y2="1" gradientUnits="objectBoundingBox"><stop offset="0" stop-color="#383838"/><stop offset="1" stop-color="#020202"/></linearGradient><linearGradient id="linear-gradient-13" x1=".5" x2=".5" y2="1" gradientUnits="objectBoundingBox"><stop offset="0" stop-color="#1db27b"/><stop offset="1" stop-color="#0f593e"/></linearGradient></defs><g id="meet" transform="translate(0 0)"><path id="Path_36644" fill="#b0eedb" d="M294.9,748.847c-.01.03-.01.07-.02.1h-64.81c-1.22-.77-2.42-1.57-3.6-2.38a121.651,121.651,0,0,1-20.07-17.04,96.69,96.69,0,0,1-16.99-25.01c-8.55-18.24-11.18-38.99-4.56-57.74a.009.009,0,0,1,0-.007.01.01,0,0,1,.007,0c.16-.47.34-.95.52-1.43.27.47.53.93.81,1.39l.01.01a135.342,135.342,0,0,0,12.6,17.77v.01c.36.43.72.86,1.09,1.28a.01.01,0,0,0,.01.01,141.093,141.093,0,0,0,40.41,32.56c.05.03.09.05.14.08a1.2,1.2,0,0,0,.16.08c.01.01.02.01.03.02,3.41,1.84,6.91,3.52,10.47,5.04v.01c2.8,1.21,5.65,2.31,8.52,3.33,6.12,2.15,12.72,4.11,18.58,6.94,5.7,2.75,10.72,6.32,13.99,11.69.25.44.5.87.73,1.31l-1.91,13.22,3.81-.02-.36,6.5-.1,1.88Z" data-name="Path 36644" transform="translate(-181.125 -149.053)"/><path id="Path_36645" fill="url(#linear-gradient)" d="M278.9,748.947h-1.37c-.13-.8-.26-1.59-.41-2.38a50.96,50.96,0,0,0-1.58-6.39c-.3-.94-.64-1.86-1.03-2.77-2.21-5.18-6.01-9.73-11.63-11.25a21.4,21.4,0,0,0-5.01-.71c-3.35-.14-6.75.29-10.08.47-.82.04-1.65.07-2.45.06h-.02a30.018,30.018,0,0,1-12.59-2.54,47.5,47.5,0,0,1-13.18-9.36,101.921,101.921,0,0,1-7.13-7.56v-.01c-.3-.33-.59-.67-.88-1.02a120.981,120.981,0,0,1-13.81-20.56,115.344,115.344,0,0,1-5.33-11.38.532.532,0,0,1-.05-.11,121.339,121.339,0,0,1-7.5-26.66.01.01,0,0,1,0-.007.01.01,0,0,1,.007,0c-.08-.41-.14-.83-.2-1.24-.13-.85,1.22-.89,1.34-.04.06.42.12.82.19,1.24l.01.01a120.524,120.524,0,0,0,7.1,25.56v.01c.17.42.34.83.51,1.24a119.5,119.5,0,0,0,19.05,31.4l.01.02c.08.1.17.19.26.29a.037.037,0,0,1,.01.03c.01-.01.01,0,.01,0,1.85,2.19,3.79,4.29,5.81,6.33a51.788,51.788,0,0,0,12.84,9.88,28.558,28.558,0,0,0,12.87,3.14c.45,0,.9.01,1.35,0q.54,0,1.08-.03c3.39-.16,6.83-.59,10.24-.53a27.644,27.644,0,0,1,4.62.48,18.159,18.159,0,0,1,11.98,8.78,31.728,31.728,0,0,1,3.02,6.83c.25.78.46,1.57.67,2.37v.01c.32,1.28.6,2.58.84,3.89a.584.584,0,0,1,.02.13C278.638,747.357,278.768,748.157,278.9,748.947Z" data-name="Path 36645" transform="translate(-181.125 -149.053)"/><path id="Path_36646" fill="url(#linear-gradient)" d="M212.931,706.142a18.018,18.018,0,0,1-23.284-1.494c-.62-.6.288-1.595.909-.991A16.684,16.684,0,0,0,212.218,705c.691-.52,1.4.622.713,1.139Z" data-name="Path 36646" transform="translate(-181.125 -149.053)"/><path id="Path_36647" fill="url(#linear-gradient)" d="M244.612,725.05a34.729,34.729,0,0,0-5.493-24.706c-.483-.718.656-1.43,1.139-.713a36.123,36.123,0,0,1,5.663,25.72c-.136.856-1.445.55-1.31-.3Z" data-name="Path 36647" transform="translate(-181.125 -149.053)"/><path id="Path_36648" fill="url(#linear-gradient)" d="M192.936,672.486a10.2,10.2,0,0,0,5.793-7.752c.125-.857,1.434-.55,1.31.3a11.429,11.429,0,0,1-6.39,8.59.7.7,0,0,1-.926-.213.675.675,0,0,1,.213-.926Z" data-name="Path 36648" transform="translate(-181.125 -149.053)"/><path id="Path_36649" fill="#b0eedb" d="M304.678,704.957l-.55,5.07-8.75-.13-1.32,9.14-.23,1.57v.01l-.9,6.25-1.91,13.22,3.81-.02-.36,6.5-.1,1.88.53.4.12.1.04.03c-.11.22-.23.44-.35.67.07-.24.12-.46.17-.7h-25.32c-.47-.79-.93-1.58-1.38-2.38a174.535,174.535,0,0,1-10.31-21.12c-.18-.45-.37-.9-.53-1.36v-.01a131.368,131.368,0,0,1-6.23-20.48v-.01a114.021,114.021,0,0,1-1.87-11.58,96.489,96.489,0,0,1,1.49-30.11,1.137,1.137,0,0,0,.04-.15c3.99-18.89,13.72-36.35,29.13-47.41.64-.48,1.3-.93,1.97-1.37.01-.01.01-.01.02-.01a.01.01,0,0,0,.01-.01c.42-.27.83-.54,1.25-.81-.06.54-.13,1.08-.18,1.62a132.9,132.9,0,0,0-.64,21.76v.02c.01.56.04,1.12.08,1.69v.02a141.586,141.586,0,0,0,12.71,50.4.617.617,0,0,0,.05.12c.02.05.04.09.06.14a134.907,134.907,0,0,0,9.45,17.05Z" data-name="Path 36649" transform="translate(-181.125 -149.053)"/><path id="Path_36650" fill="url(#linear-gradient)" d="M283.566,612.63c-.2.369-.409.75-.6,1.128q-2.24,4.236-4.124,8.653a117.986,117.986,0,0,0-5.586,16.028c-.12.426-.237.863-.345,1.3a119.263,119.263,0,0,0-3.7,36.594c0,.122.009.232.02.352q.239,4.312.827,8.594a51.784,51.784,0,0,0,4.3,15.618c.314.646.646,1.279.994,1.889a27.341,27.341,0,0,0,3.005,4.2,27.919,27.919,0,0,0,2.632,2.683c.565.512,1.148,1.01,1.757,1.484.352.274.713.547,1.074.82.3.2.589.416.888.619,3.1,2.125,6.453,4.015,9.347,6.45l-.227,1.571c-2.821-2.539-6.225-4.46-9.356-6.56a37.9,37.9,0,0,1-5.487-4.415c-.221-.226-.453-.45-.666-.687a26.744,26.744,0,0,1-3.082-3.823c-.462-.682-.9-1.388-1.309-2.129a47.893,47.893,0,0,1-4.878-15.4,103.418,103.418,0,0,1-1.149-10.345c-.037-.45-.062-.892-.079-1.346a122.589,122.589,0,0,1,10.141-54.829q1.8-4.13,3.929-8.133c.181-.366.373-.724.573-1.093C282.876,611.094,283.974,611.87,283.566,612.63Z" data-name="Path 36650" transform="translate(-181.125 -149.053)"/><path id="Path_36651" fill="url(#linear-gradient)" d="M268.543,677.274a18.018,18.018,0,0,1-17.691-15.211c-.132-.855,1.19-1.1,1.322-.244a16.684,16.684,0,0,0,16.485,14.116c.865,0,.744,1.34-.116,1.339Z" data-name="Path 36651" transform="translate(-181.125 -149.053)"/><path id="Path_36652" fill="url(#linear-gradient)" d="M282.454,711.444a34.728,34.728,0,0,0,10.489-23.033c.046-.864,1.385-.747,1.339.116a36.123,36.123,0,0,1-10.964,23.946c-.624.6-1.485-.431-.865-1.029Z" data-name="Path 36652" transform="translate(-181.125 -149.053)"/><path id="Path_36653" fill="url(#linear-gradient)" d="M272.841,638.363a10.2,10.2,0,0,0,9.293-2.7c.616-.609,1.476.424.865,1.029a11.429,11.429,0,0,1-10.274,3.012.7.7,0,0,1-.611-.728.676.676,0,0,1,.728-.611Z" data-name="Path 36653" transform="translate(-181.125 -149.053)"/><path id="Path_36654" fill="#ccc" d="M479.758,749.757a1.186,1.186,0,0,1-1.19,1.19H198.278a1.19,1.19,0,1,1,0-2.38h280.29a1.186,1.186,0,0,1,1.19,1.19Z" data-name="Path 36654" transform="translate(-181.125 -149.053)"/><path id="Path_36655" fill="#189366" d="M964.83,259.971H783.614a5.91,5.91,0,0,1,0-11.82H964.83a5.91,5.91,0,0,1,0,11.82Z" data-name="Path 36655" transform="translate(-181.125 -149.053)"/><path id="Path_36656" fill="#189366" d="M964.83,283.325H783.614a5.91,5.91,0,0,1,0-11.821H964.83a5.91,5.91,0,0,1,0,11.821Z" data-name="Path 36656" transform="translate(-181.125 -149.053)"/><path id="Path_36657" fill="#189366" d="M862.167,306.678H783.614a5.91,5.91,0,0,1,0-11.821h78.553a5.91,5.91,0,0,1,0,11.821Z" data-name="Path 36657" transform="translate(-181.125 -149.053)"/><path id="Path_36658" fill="#b0eedb" d="M964.83,392.785H783.614a5.91,5.91,0,1,1,0-11.82H964.83a5.91,5.91,0,0,1,0,11.82Z" data-name="Path 36658" transform="translate(-181.125 -149.053)"/><path id="Path_36659" fill="#b0eedb" d="M964.83,416.138H783.614a5.91,5.91,0,0,1,0-11.821H964.83a5.91,5.91,0,0,1,0,11.821Z" data-name="Path 36659" transform="translate(-181.125 -149.053)"/><path id="Path_36660" fill="#b0eedb" d="M862.167,439.492H783.614a5.91,5.91,0,0,1,0-11.821h78.553a5.91,5.91,0,0,1,0,11.821Z" data-name="Path 36660" transform="translate(-181.125 -149.053)"/><path id="Path_36661" fill="#b0eedb" d="M964.83,532.9H783.614a5.91,5.91,0,0,1,0-11.82H964.83a5.91,5.91,0,0,1,0,11.82Z" data-name="Path 36661" transform="translate(-181.125 -149.053)"/><path id="Path_36662" fill="#b0eedb" d="M964.83,556.254H783.614a5.91,5.91,0,0,1,0-11.821H964.83a5.91,5.91,0,1,1,0,11.821Z" data-name="Path 36662" transform="translate(-181.125 -149.053)"/><path id="Path_36663" fill="#b0eedb" d="M862.167,579.608H783.614a5.91,5.91,0,1,1,0-11.821h78.553a5.91,5.91,0,1,1,0,11.821Z" data-name="Path 36663" transform="translate(-181.125 -149.053)"/><path id="Path_36664" fill="url(#linear-gradient)" d="M711.318,457.041h-109.1a11.04,11.04,0,0,1-11.028-11.028V374.444a11.04,11.04,0,0,1,11.028-11.028h109.1a11.04,11.04,0,0,1,11.028,11.028v71.57A11.04,11.04,0,0,1,711.318,457.041Z" data-name="Path 36664" transform="translate(-181.125 -149.053)"/><path id="Path_36665" fill="#fff" d="M703.651,372.359H609.892A10.054,10.054,0,0,0,599.848,382.4v55.658A10.058,10.058,0,0,0,609.892,448.1h59.787a44.055,44.055,0,0,0,44.011-44.011V382.4a10.05,10.05,0,0,0-10.039-10.039Z" data-name="Path 36665" transform="translate(-181.125 -149.053)"/><path id="Path_36666" fill="#2f2e41" d="M677.155,391.175h0l-.28.505c2.494-6.147.226-13.721-4.223-18.356s-10.634-6.754-16.725-7.594c-4.521-.624-9.214-.606-13.513,1.05-6.226,2.4-10.982,7.95-14.953,13.725-1.817,2.642-3.6,5.653-3.422,8.955.168,3.064,1.987,5.664,3.476,8.264s2.733,5.825,1.664,8.662c-.637,1.691-1.983,2.908-3.076,4.292s-1.991,3.253-1.463,4.988a4.069,4.069,0,0,0,3.032,2.635,10.721,10.721,0,0,0,4.028-.1l34.716-5.245a14.8,14.8,0,0,0,10.739-21.785Z" data-name="Path 36666" transform="translate(-181.125 -149.053)"/><circle id="Ellipse_666" cx="16.973" cy="16.973" r="16.973" fill="#ffb9b9" data-name="Ellipse 666" transform="translate(453.235 229.719)"/><path id="Path_36667" fill="#189366" d="M695.624,439.619A43.761,43.761,0,0,1,669.68,448.1H617.6c-.1-.085-.2-.17-.31-.26l4.857-13.554a14.576,14.576,0,0,1,12.381-8.5l3.09-.19,7.368-6.355s19.854-.709,19.56-1.048l12.026,7.234-.01-.05,4.728.29a14.569,14.569,0,0,1,12.381,8.5Z" data-name="Path 36667" transform="translate(-181.125 -149.053)"/><path id="Path_36668" fill="#2f2e41" d="M667.432,379.992c-.438-2.318-2.8-3.378-4.828-3.892a46.5,46.5,0,0,0-17.99-.988c-4.377.624-8.857,2-12.033,5.417a16.183,16.183,0,0,0-4.092,10.422,12.412,12.412,0,0,0,1.485,6.621,6.136,6.136,0,0,0,5.1,3.288l.2.708c8.522-1.187,16.438-6.49,21.423-14.35a18.384,18.384,0,0,1-5.371,8.677,33.464,33.464,0,0,0,14.446-11.133C666.787,383.424,667.765,381.755,667.432,379.992Z" data-name="Path 36668" transform="translate(-181.125 -149.053)"/><path id="Path_36669" fill="#b0eedb" d="M711.318,324.227h-109.1A11.04,11.04,0,0,1,591.194,313.2V241.63A11.04,11.04,0,0,1,602.222,230.6h109.1a11.04,11.04,0,0,1,11.028,11.028V313.2a11.04,11.04,0,0,1-11.028,11.027Z" data-name="Path 36669" transform="translate(-181.125 -149.053)"/><path id="Path_36670" fill="#fff" d="M703.651,239.545H609.892a10.056,10.056,0,0,0-10.044,10.039v55.658a10.058,10.058,0,0,0,10.044,10.044h59.787a44.047,44.047,0,0,0,44.011-44.011V249.584a10.05,10.05,0,0,0-10.039-10.039Z" data-name="Path 36670" transform="translate(-181.125 -149.053)"/><circle id="Ellipse_667" cx="7.995" cy="7.995" r="7.995" fill="#2f2e41" data-name="Ellipse 667" transform="translate(445.116 85.299)"/><circle id="Ellipse_668" cx="20.255" cy="20.255" r="20.255" fill="#2f2e41" data-name="Ellipse 668" transform="translate(445.649 91.162)"/><circle id="Ellipse_669" cx="16.459" cy="16.459" r="16.459" fill="#9e616a" data-name="Ellipse 669" transform="translate(451.121 98.748)"/><path id="Path_36671" fill="#2f2e41" d="M659.883,247.482a18.854,18.854,0,0,0-28.665,16.454c8.387,2.106,17.2,3.717,26.142.5l2.112-5.169,1.245,5.173c2.724,1.113,5.455,2.055,8.185-.011a19.251,19.251,0,0,0-9.02-16.951Z" data-name="Path 36671" transform="translate(-181.125 -149.053)"/><path id="Path_36672" fill="#2f2e41" d="M626.792,220.642a16.354,16.354,0,0,0-17.069,2.63,18.5,18.5,0,0,0-5.9,16.462c.907,6.138,4.638,11.424,8.078,16.588s6.8,10.823,6.8,17.028a16.879,16.879,0,0,1-16.846,16.869c5.245,2.258,10.72,4.56,16.424,4.293s11.683-3.935,12.614-9.569c.67-4.06-1.321-8.018-2.982-11.783a83.344,83.344,0,0,1-5.825-19.175c-.555-3.151-.916-6.464.111-9.494a11.149,11.149,0,0,1,11.076-7.316l1.885-1.7a14.673,14.673,0,0,0-8.358-14.836Z" data-name="Path 36672" transform="translate(-181.125 -149.053)"/><path id="Path_36673" fill="#189366" d="M692.244,309.046a43.692,43.692,0,0,1-22.565,6.24H613.258l-.09-.075,4.857-13.559a14.571,14.571,0,0,1,12.381-8.5l3.09-.19,7.368-6.355s19.854-.714,19.56-1.053l12.026,7.234-.01-.045,4.728.29a14.555,14.555,0,0,1,12.381,8.5Z" data-name="Path 36673" transform="translate(-181.125 -149.053)"/><path id="Path_36674" fill="url(#linear-gradient)" d="M711.318,597.157h-109.1a11.04,11.04,0,0,1-11.028-11.028V514.56a11.04,11.04,0,0,1,11.028-11.028h109.1a11.04,11.04,0,0,1,11.028,11.028v71.57a11.04,11.04,0,0,1-11.028,11.028Z" data-name="Path 36674" transform="translate(-181.125 -149.053)"/><path id="Path_36675" fill="#fff" d="M703.651,512.475H609.893a10.054,10.054,0,0,0-10.044,10.039v55.658a10.058,10.058,0,0,0,10.044,10.044H669.68a44.055,44.055,0,0,0,44.011-44.011V522.514a10.05,10.05,0,0,0-10.04-10.039Z" data-name="Path 36675" transform="translate(-181.125 -149.053)"/><circle id="Ellipse_670" cx="22.583" cy="22.583" r="22.583" fill="#2f2e41" data-name="Ellipse 670" transform="translate(452.981 353.663)"/><circle id="Ellipse_671" cx="20.174" cy="20.174" r="20.174" fill="#ffb8b8" data-name="Ellipse 671" transform="translate(455.399 361.447)"/><path id="Path_36676" fill="#189366" d="M697.052,578.646a43.808,43.808,0,0,1-27.372,9.57H619.368l4.773-13.314a14.576,14.576,0,0,1,12.381-8.5l3.09-.19,7.368-6.355s19.854-.709,19.56-1.048l12.026,7.234-.01-.05,4.728.29a14.569,14.569,0,0,1,12.381,8.5Z" data-name="Path 36676" transform="translate(-181.125 -149.053)"/><path id="Path_36677" fill="#2f2e41" d="M677.982,523.6a44.641,44.641,0,0,0,.194-4.531,21.329,21.329,0,0,0-1.609-8.734,13.42,13.42,0,0,0-7.022-6.784,12.813,12.813,0,0,0-9.606.008,19.349,19.349,0,0,0-9.124-3.322,10.205,10.205,0,0,0-8.7,3.692,14.2,14.2,0,0,1-1.52,1.974c-1.612,1.493-4.061,1.277-6.2.972l2.883,2.471-3.49.912,4.072,2.47c-3.94,2.365-5.732,7.527-5.258,12.216.448,4.439,2.591,8.5,5.152,12.106,1.022-2.157.8-4.737.785-7.166a16.212,16.212,0,0,1,.144-2.356c8.658,2.075,17.7,3.407,26.878.111l1.841-4.506c.258.027.517.052.775.079l1.067,4.431c2.418.988,4.841,1.852,7.266.945.118.684.189,1.383.244,2.054.208-.8.389-1.612.551-2.424a7.169,7.169,0,0,0,.918-.586,19.724,19.724,0,0,0-.239-4.031Z" data-name="Path 36677" transform="translate(-181.125 -149.053)"/><path id="Path_36678" fill="url(#linear-gradient-11)" d="M1016.24,169.828H545.7a2.639,2.639,0,0,1-2.636-2.636v-15.5a2.639,2.639,0,0,1,2.636-2.636h470.543a2.639,2.639,0,0,1,2.636,2.636v15.5A2.639,2.639,0,0,1,1016.24,169.828Z" data-name="Path 36678" transform="translate(-181.125 -149.053)"/><circle id="Ellipse_90" cx="3.742" cy="3.742" r="3.742" fill="#fff" data-name="Ellipse 90" transform="translate(373.489 5.889)"/><circle id="Ellipse_91" cx="3.742" cy="3.742" r="3.742" fill="#fff" data-name="Ellipse 91" transform="translate(387.692 5.889)"/><circle id="Ellipse_92" cx="3.742" cy="3.742" r="3.742" fill="#fff" data-name="Ellipse 92" transform="translate(401.896 5.889)"/><path id="Path_36679" fill="#fff" d="M1002.32,156.109H985.967a1.212,1.212,0,0,1,0-2.423h16.356a1.212,1.212,0,1,1,0,2.423Z" data-name="Path 36679" transform="translate(-181.125 -149.053)"/><path id="Path_36680" fill="#fff" d="M1002.32,160.652H985.967a1.212,1.212,0,0,1,0-2.423h16.356a1.212,1.212,0,1,1,0,2.423Z" data-name="Path 36680" transform="translate(-181.125 -149.053)"/><path id="Path_36681" fill="#fff" d="M1002.32,165.2H985.967a1.212,1.212,0,0,1,0-2.423h16.356a1.212,1.212,0,1,1,0,2.423Z" data-name="Path 36681" transform="translate(-181.125 -149.053)"/><circle id="Ellipse_672" cx="6.767" cy="6.767" r="6.767" fill="#189366" data-name="Ellipse 672" transform="translate(732.289 145.7)"/><circle id="Ellipse_673" cx="6.767" cy="6.767" r="6.767" fill="#189366" data-name="Ellipse 673" transform="translate(754.266 145.7)"/><circle id="Ellipse_674" cx="6.767" cy="6.767" r="6.767" fill="#189366" data-name="Ellipse 674" transform="translate(776.242 145.7)"/><circle id="Ellipse_675" cx="6.767" cy="6.767" r="6.767" fill="#e6e6e6" data-name="Ellipse 675" transform="translate(732.289 277.557)"/><circle id="Ellipse_676" cx="6.767" cy="6.767" r="6.767" fill="#b0eedb" data-name="Ellipse 676" transform="translate(754.266 277.557)"/><circle id="Ellipse_677" cx="6.767" cy="6.767" r="6.767" fill="#b0eedb" data-name="Ellipse 677" transform="translate(776.242 277.557)"/><circle id="Ellipse_678" cx="6.767" cy="6.767" r="6.767" fill="#b0eedb" data-name="Ellipse 678" transform="translate(732.289 417.921)"/><circle id="Ellipse_679" cx="6.767" cy="6.767" r="6.767" fill="#b0eedb" data-name="Ellipse 679" transform="translate(754.266 417.921)"/><circle id="Ellipse_680" cx="6.767" cy="6.767" r="6.767" fill="#b0eedb" data-name="Ellipse 680" transform="translate(776.242 417.921)"/><path id="Path_36682" fill="url(#linear-gradient)" d="M727.561,307.358l-34.882-22.086a4.385,4.385,0,0,0-6.731,3.745l.343,38.081a4.385,4.385,0,0,0,8.441,1.628l4.538-11.039,12.655,24.947a5,5,0,0,0,8.918-4.524L707.9,312.6l16.586,2.792a4.386,4.386,0,0,0,3.073-8.03Z" data-name="Path 36682" transform="translate(-181.125 -149.053)"/><path id="Path_36683" fill="#ffb8b8" d="M285.9,544.462a8.566,8.566,0,0,0-1.708-13.024l7.02-29.621-14.858,5.429-4.389,27.3a8.613,8.613,0,0,0,13.935,9.92Z" data-name="Path 36683" transform="translate(-181.125 -149.053)"/><path id="Path_36684" fill="url(#linear-gradient-13)" d="M321.633,420.335l-5.963,15.334s2.556,15.334-1.7,18.741-2.556,3.408-2.556,5.963a13.1,13.1,0,0,1-5.111,9.371c-3.408,2.556-18.741,54.52-18.741,54.52H272.225a48.043,48.043,0,0,0,0-11.926c-.852-5.963,2.556-21.3,4.259-23.853s0-5.963,0-11.074,3.408-7.667,3.408-16.186,10.223-74.965,9.371-82.632,8.519-14.482,8.519-14.482H306.3Z" data-name="Path 36684" transform="translate(-181.125 -149.053)"/><path id="Path_36685" fill="#ffb6b6" d="M109.39,581.98h11.037l5.253-42.574H109.389Z" data-name="Path 36685"/><path id="Path_36686" fill="url(#linear-gradient-11)" d="M286.913,723.473l17.634-1.052v7.555l16.765,11.579a4.719,4.719,0,0,1-2.682,8.6H297.636l-3.619-7.473-1.413,7.473h-7.916Z" data-name="Path 36686" transform="translate(-181.125 -149.053)"/><path id="Path_36687" fill="#ffb6b6" d="M171.39,581.98h11.037l5.253-42.574H171.389Z" data-name="Path 36687"/><path id="Path_36688" fill="url(#linear-gradient)" d="M348.913,723.473l17.634-1.052v7.555l16.765,11.579a4.719,4.719,0,0,1-2.682,8.6H359.636l-3.619-7.473-1.413,7.473h-7.916Z" data-name="Path 36688" transform="translate(-181.125 -149.053)"/><path id="Path_36689" fill="url(#linear-gradient)" d="M285.752,694.319h.12l6.123-69.223a18.1,18.1,0,0,1,.237-17.105l.3-.55-.788-3.653a23.266,23.266,0,0,1,1.33-14l-2.02-64.572c-7.075-45.851,26.642-75.754,26.642-75.754h50.508l10.844,37.256c4.071,39.666,16.8,81.387,15.117,119.841-1.283,29.252-15.71,55.506-20.624,83.994l.31.157c1.117.385,1.6,1.932,1.07,3.455s-1.857,2.445-2.974,2.059l-26.674-.928c-1.117-.385-1.6-1.932-1.07-3.455s1.857-2.445,2.974-2.059l1.814.917,13.132-69.8.429-12.2-.884-13.842-21.089-59.261-15.476,76.563L309.3,695.09a2.908,2.908,0,0,1-1.961,5.063H285.752a2.917,2.917,0,1,1,0-5.834Z" data-name="Path 36689" transform="translate(-181.125 -149.053)"/><path id="Path_36690" fill="url(#linear-gradient-13)" d="M281.567,480.6c-1.658,0-2.6-.325-2.965-1.022-.535-1.023.394-2.36,1.469-3.909a11.958,11.958,0,0,0,1.863-3.356c.643-2.572,4.983-67.547,2.387-80.529-.6-3-.083-6.854,1.536-11.444,4.424-12.535,10.463-16.388,22.494-24.061q1.465-.935,3.051-1.952c1.368-.879,1.292-3.793,1.211-6.879-.089-3.43-.182-6.977,1.5-9.193l.109-.145.176-.041c4.064-.939,17.732-2.684,25.827.013l.112.038.083.083c1.923,1.923,2.1,5.647,2.268,9.249.139,2.957.27,5.749,1.358,6.962,8.317,9.271,17.75,9.09,17.845,9.088l.467-.014.046.465c3.618,36.8,9.45,92.338,10.689,94.523a.652.652,0,0,1,.021.676C371.294,462.55,287.817,480.6,281.567,480.6ZM372.256,459.022Z" data-name="Path 36690" transform="translate(-181.125 -149.053)"/><circle id="Ellipse_681" cx="24.667" cy="24.667" r="24.667" fill="#ffb8b8" data-name="Ellipse 681" transform="translate(130.098 129.264)"/><path id="Path_36691" fill="url(#linear-gradient)" d="M268.128,291.971c4.171-4.864,6.154-11.316,9.488-16.839s9.136-10.466,15.266-9.181c4.225.886,7.491,4.615,9.144,8.771s1.963,8.741,2.252,13.232c-.1-9.229,5.978-18.176,14.354-21.121s18.4.34,23.662,7.754a12.789,12.789,0,0,1,16.986-.357c4.707,4.207,5.749,12.216,2.287,17.582a12.877,12.877,0,0,1-16.462,4.389l-1.945,1.789a8.433,8.433,0,0,1-4.6,9.794c-2.894,1.169-6.98.974-8.063,4.012-.757,2.122.658,4.387,2.163,6.018s3.291,3.315,3.472,5.571c.273,3.4-3.246,5.79-6.444,6.508a20.092,20.092,0,0,1-20.716-8.646q-.128-.2-.279-.394a29.783,29.783,0,0,1-5.991-22.773c.25-1.573,0-2.743-1.087-3.116-4.688-1.61-17.823,1.769-21.8,4.824s-7.158,7.1-10.987,10.349-8.708,5.76-13.57,4.874c-3.894-.709-7.206-3.536-9.434-6.946a41.814,41.814,0,0,1-4.659-11.334C249.779,301.708,261.563,299.626,268.128,291.971Z" data-name="Path 36691" transform="translate(-181.125 -149.053)"/><path id="Path_36692" fill="#ffb8b8" d="M375.436,544.462a8.566,8.566,0,0,1,1.708-13.024l-7.02-29.621,14.858,5.428,4.389,27.3a8.613,8.613,0,0,1-13.935,9.92Z" data-name="Path 36692" transform="translate(-181.125 -149.053)"/><path id="Path_36693" fill="url(#linear-gradient-13)" d="M339.7,420.335l5.963,15.334s-2.556,15.334,1.7,18.741,2.556,3.408,2.556,5.963a13.1,13.1,0,0,0,5.111,9.371c3.407,2.556,18.741,54.52,18.741,54.52h15.334a48.044,48.044,0,0,1,0-11.926c.852-5.963-2.556-21.3-4.259-23.853s0-5.963,0-11.074-3.408-7.667-3.408-16.186-10.223-74.965-9.371-82.632-8.519-14.482-8.519-14.482h-8.519Z" data-name="Path 36693" transform="translate(-181.125 -149.053)"/></g></svg>