<svg xmlns="http://www.w3.org/2000/svg" xmlns:xlink="http://www.w3.org/1999/xlink" id="mobile" width="405.67" height="457.176" viewBox="0 0 405.67 457.176"><defs><linearGradient id="linear-gradient" x1=".5" x2=".5" y2="1" gradientUnits="objectBoundingBox"><stop offset="0" stop-color="#202020"/><stop offset="1" stop-color="#2e2e2e"/></linearGradient></defs><g id="Group_14939" data-name="Group 14939"><path id="Path_36694" fill="#ffb6b6" d="M155.533,279.994c2.305,4.463,1.872,9.27-.968,10.737s-7.011-.961-9.316-5.424a12.572,12.572,0,0,1-1.481-5.749l-9.531-19.032,9.026-4.282,8.438,19.216a12.572,12.572,0,0,1,3.832,4.535Z" data-name="Path 36694"/><g id="Group_14937" data-name="Group 14937"><path id="Path_36695" fill="#ffb6b6" d="M84.605,451.718h8.126L96.6,420.372H84.6Z" data-name="Path 36695"/><path id="Path_36696" fill="#2f2e41" d="M112.447,451.533h0a6.977,6.977,0,0,1,.387,2.3h0a2.758,2.758,0,0,1-2.758,2.758H84.909a1.882,1.882,0,0,1-1.882-1.882v-1.048s-1.245-3.149,1.318-7.03c0,0,3.186,3.039,7.946-1.721l1.4-2.543,10.161,7.431,5.632.693c1.232.152,2.325-.024,2.958,1.044Z" data-name="Path 36696"/></g><g id="Group_14938" data-name="Group 14938"><path id="Path_36697" fill="#ffb6b6" d="M46.481,451.718h8.126l3.866-31.345H46.479Z" data-name="Path 36697"/><path id="Path_36698" fill="#2f2e41" d="M74.323,451.533h0a6.977,6.977,0,0,1,.387,2.3h0a2.758,2.758,0,0,1-2.758,2.758H46.785a1.882,1.882,0,0,1-1.882-1.882v-1.048s-1.245-3.149,1.318-7.03c0,0,3.186,3.039,7.946-1.721l1.4-2.543L65.732,449.8l5.632.693c1.232.152,2.325-.024,2.958,1.044Z" data-name="Path 36698"/></g><path id="Path_36699" fill="url(#linear-gradient)" d="M34.979,266.777,31.555,287.7l10.651,67.708,2.663,81.782H59.248l7.3-77.218L65.789,309,82.906,437.948H97.849l1.414-161.661Z" data-name="Path 36699"/><path id="Path_36700" fill="#189366" d="M52.856,158.369h26.92l23.29,13.694c-3.625-.921-6.425,32.708-6.52,62.423-.006,1.975-1.963,4.245-1.945,6.173.016,1.662,2,2.989,2.037,4.6q.048,2.26.122,4.439c.041,1.2-2.213,2.8-2.159,3.959.068,1.481,2.446,2.509,2.535,3.9.543,8.566,1.479,15.352,2.887,18.726,0,0-60.1,16.737-64.665-9.129,0,0,.261-9.3.224-22.136,0-1.139-.973-2.172-.982-3.363-.006-.885.951-1.918.941-2.828-.008-.748-.931-1.409-.941-2.172-.006-.455.9-1.007.9-1.466-.365-24.414-2-55.181-7.745-63.13l25.105-13.694Z" data-name="Path 36700"/><path id="Path_36701" fill="#189366" d="M79.483,158.369s17.444,6.339,22.979,11.389c2.941,2.684,22.667,53.275,22.667,53.275l27.4,47.714-14.241,5.41-29.132-43.995L96.22,203.254,79.483,158.369Z" data-name="Path 36701"/><path id="Path_36702" fill="#ffb6b6" d="M43.3,281.8c2.544,4.331,2.373,9.154-.383,10.773s-7.053-.579-9.6-4.91A12.572,12.572,0,0,1,31.53,282L20.98,263.516l8.781-4.766,9.469,18.73A12.572,12.572,0,0,1,43.3,281.8Z" data-name="Path 36702"/><path id="Path_36703" fill="#189366" d="M49.053,181.953l-7.608-17.5s-17.878,5.706-17.878,14.074c0,0-10.651,63.9-9.129,79.88l9.89,17.5L38.4,264.876l-8.749-20.16,19.4-62.763Z" data-name="Path 36703"/><path id="Path_36704" fill="#2f2e41" d="M33.407,295.629l8.974-17.821,10.476,14.455-9.428,9.129Z" data-name="Path 36704"/><circle id="Ellipse_682" cx="17.411" cy="17.411" r="17.411" fill="#ffb6b6" data-name="Ellipse 682" transform="translate(48.652 118.521)"/><path id="Path_36705" fill="#2f2e41" d="M79.639,116.483c-3.026-.969-4.457-4.568-7.225-6.128-3.061-1.725-6.722-2.8-10.1-1.826-2.071.6-3.875,1.923-5.947,2.517a6.278,6.278,0,0,1-1.13.212,6.835,6.835,0,0,0-5.256,3.491l-.029.05a24.166,24.166,0,0,1-2.408,3.045,20.551,20.551,0,0,0-4.606,13.117,21.246,21.246,0,0,0,5.391,13.911l.868-.4,6.3,5.438c-1.142-4.12-2.295-8.385-1.69-12.618s3.451-8.456,7.648-9.273c1.588-.309,3.262-.122,4.8-.613s2.961-2.075,2.432-3.6c.954,2.523,4.514,2.374,6.964,3.5,5.483,2.526,3.476-1.378,8.236,2.336,1.608-8.911,7.767-9.309-4.249-13.157Z" data-name="Path 36705"/></g><path id="Path_36706" fill="#ccc" d="M0,455.986a1.186,1.186,0,0,0,1.19,1.19H404.48a1.19,1.19,0,0,0,0-2.38H1.19A1.187,1.187,0,0,0,0,455.986Z" data-name="Path 36706"/><path id="Path_36707" fill="url(#linear-gradient)" d="M351.722,457.176H175.3a39.058,39.058,0,0,1-39.013-39.014V39.013A39.058,39.058,0,0,1,175.3,0H351.722a39.058,39.058,0,0,1,39.013,39.013V418.162a39.058,39.058,0,0,1-39.013,39.014Z" data-name="Path 36707"/><path id="Path_36708" fill="#3f3d56" d="M390.735,139.464a1.652,1.652,0,0,0-1.65,1.65v52.814a1.65,1.65,0,0,0,3.3,0V141.114A1.652,1.652,0,0,0,390.735,139.464Z" data-name="Path 36708"/><path id="Path_36709" fill="#fff" d="M387.022,39.014V418.156a35.3,35.3,0,0,1-33,35.229h-.008c-.272.017-.545.033-.825.041-.487.025-.974.033-1.469.033,0,0-1.816-.132-5.133-.38-3.35-.248-8.227-.619-14.31-1.106q-2.736-.21-5.777-.462c-4.044-.33-8.483-.693-13.245-1.106-1.9-.157-3.862-.33-5.867-.5-10.249-.883-21.728-1.915-33.834-3.086q-3.07-.285-6.189-.594c-.545-.058-1.1-.107-1.65-.165-8.632-.85-125.716-23.478-125.716-27.9V39.014a35.3,35.3,0,0,1,35.3-35.3h21.076a6.435,6.435,0,0,1,6.363,5.983c.025.223.05.446.091.668a7.171,7.171,0,0,0,7.138,5.727H317.051a7.171,7.171,0,0,0,7.138-5.727c.041-.223.066-.446.091-.668a6.435,6.435,0,0,1,6.362-5.983h21.076a35.3,35.3,0,0,1,35.3,35.3Z" data-name="Path 36709"/><path id="Path_36710" fill="#3f3d56" d="M135.459,99.853a1.652,1.652,0,0,0-1.65,1.65v13.2a1.65,1.65,0,1,0,3.3,0V101.5A1.652,1.652,0,0,0,135.459,99.853Z" data-name="Path 36710"/><path id="Path_36711" fill="#3f3d56" d="M135.459,139.464a1.652,1.652,0,0,0-1.65,1.65V166.7a1.65,1.65,0,0,0,3.3,0V141.114A1.652,1.652,0,0,0,135.459,139.464Z" data-name="Path 36711"/><path id="Path_36712" fill="#3f3d56" d="M135.459,175.773a1.652,1.652,0,0,0-1.65,1.65v25.582a1.65,1.65,0,1,0,3.3,0V177.423A1.652,1.652,0,0,0,135.459,175.773Z" data-name="Path 36712"/><rect id="Rectangle_13719" width="32.184" height="4.126" fill="#b0eedb" data-name="Rectangle 13719" rx=".31" transform="translate(163.929 9.49)"/><circle id="Ellipse_683" cx="3.301" cy="3.301" r="3.301" fill="#b0eedb" data-name="Ellipse 683" transform="translate(332.556 7.015)"/><circle id="Ellipse_684" cx="3.301" cy="3.301" r="3.301" fill="#b0eedb" data-name="Ellipse 684" transform="translate(341.634 7.015)"/><circle id="Ellipse_685" cx="3.301" cy="3.301" r="3.301" fill="#b0eedb" data-name="Ellipse 685" transform="translate(350.711 7.015)"/><path id="Path_36713" fill="#b0eedb" d="M333.509,95.159h-140a4,4,0,0,1,0-8h140a4,4,0,0,1,0,8Z" data-name="Path 36713"/><path id="Path_36714" fill="#b0eedb" d="M357.05,411.659h-52a4,4,0,0,1,0-8h52a4,4,0,0,1,0,8Z" data-name="Path 36714"/><path id="Path_36715" fill="#b0eedb" d="M218.05,411.659h-52a4,4,0,0,1,0-8h52a4,4,0,1,1,0,8Z" data-name="Path 36715"/><rect id="Rectangle_13720" width="195.081" height="1" fill="#3f3d56" data-name="Rectangle 13720" transform="translate(165.969 105.907)"/><path id="Path_36716" fill="#b0eedb" d="M333.509,156.159h-140a4,4,0,1,1,0-8h140a4,4,0,0,1,0,8Z" data-name="Path 36716"/><rect id="Rectangle_13721" width="195.081" height="1" fill="#3f3d56" data-name="Rectangle 13721" transform="translate(165.969 166.907)"/><path id="Path_36717" fill="#b0eedb" d="M333.509,217.159h-140a4,4,0,1,1,0-8h140a4,4,0,0,1,0,8Z" data-name="Path 36717"/><rect id="Rectangle_13722" width="195.081" height="1" fill="#3f3d56" data-name="Rectangle 13722" transform="translate(165.969 227.907)"/><rect id="Rectangle_13723" width="195.081" height="1" fill="#3f3d56" data-name="Rectangle 13723" transform="translate(165.969 279.907)"/><rect id="Rectangle_13724" width="195.081" height="1" fill="#3f3d56" data-name="Rectangle 13724" transform="translate(165.969 331.907)"/><circle id="Ellipse_686" cx="58" cy="58" r="58" fill="#189366" data-name="Ellipse 686" transform="translate(206.882 252.486)"/></svg>