<svg xmlns="http://www.w3.org/2000/svg" width="36" height="39.063" viewBox="0 0 36 39.063"><g id="Group_2029" data-name="Group 2029" transform="translate(10733 6932.961)"><g id="Group_2028" data-name="Group 2028" transform="translate(1 0.47)"><path id="Icon_feather-star" fill="none" stroke="#000" stroke-linecap="round" stroke-linejoin="round" stroke-width="1" d="M8.5,3l1.7,3.443L14,7,11.25,9.677l.649,3.784L8.5,11.674,5.1,13.461,5.75,9.677,3,7l3.8-.555Z" data-name="Icon feather-star" transform="translate(-10736.5 -6931.931)"/><path id="Icon_feather-star-2" fill="none" stroke="#000" stroke-linecap="round" stroke-linejoin="round" stroke-width="1" d="M8.5,3l1.7,3.443L14,7,11.25,9.677l.649,3.784L8.5,11.674,5.1,13.461,5.75,9.677,3,7l3.8-.555Z" data-name="Icon feather-star" transform="translate(-10724.5 -6935.931)"/><path id="Icon_feather-star-3" fill="none" stroke="#000" stroke-linecap="round" stroke-linejoin="round" stroke-width="1" d="M8.5,3l1.7,3.443L14,7,11.25,9.677l.649,3.784L8.5,11.674,5.1,13.461,5.75,9.677,3,7l3.8-.555Z" data-name="Icon feather-star" transform="translate(-10712.5 -6931.931)"/></g><path id="Icon_material-person" fill="none" stroke="#000" stroke-width="1.5" d="M17.176,17.176a5.588,5.588,0,1,0-5.588-5.588A5.586,5.586,0,0,0,17.176,17.176Zm0,2.794C13.446,19.97,6,21.842,6,25.558v2.794H28.352V25.558C28.352,21.842,20.906,19.97,17.176,19.97Z" data-name="Icon material-person" transform="translate(-10732.176 -6923)"/></g></svg>