<svg xmlns="http://www.w3.org/2000/svg" xmlns:xlink="http://www.w3.org/1999/xlink" id="pricing" width="904.362" height="586.406" viewBox="0 0 904.362 586.406"><defs><linearGradient id="linear-gradient" x1=".5" x2=".5" y2="1" gradientUnits="objectBoundingBox"><stop offset="0" stop-color="#202020"/><stop offset="1" stop-color="#2e2e2e"/></linearGradient><linearGradient id="linear-gradient-5" x1=".5" x2=".5" y2="1" gradientUnits="objectBoundingBox"><stop offset="0" stop-color="#383838"/><stop offset="1" stop-color="#020202"/></linearGradient></defs><path id="Path_36718" fill="#b0eedb" d="M176.481,606.861c4.482-45.747,31.57-91.412,74.671-107.385a211.783,211.783,0,0,0,3.8,145.354c7.154,17.9,16.974,37.067,11.164,55.449-3.615,11.437-12.957,20.359-23.51,26.061s-22.356,8.6-34.01,11.434l-2.257,1.968C186.637,698.212,172,652.608,176.481,606.861Z" data-name="Path 36718" transform="translate(-147.819 -156.797)"/><path id="Path_36719" fill="url(#linear-gradient)" d="M251.607,500.327c-24.335,28.723-39.652,65.408-42.33,103.015-.579,8.131-.459,16.429,1.523,24.376a44.709,44.709,0,0,0,11.656,20.44c5.154,5.374,11.048,10.274,14.805,16.808,3.961,6.886,4.313,14.819,1.919,22.306-2.928,9.16-8.974,16.722-15.142,23.912-6.849,7.983-14.09,16.165-16.818,26.583-.331,1.262-2.27.675-1.94-.585,4.747-18.124,21.942-28.8,29.847-45.215,3.689-7.661,5.091-16.481,1.24-24.366-3.367-6.9-9.441-11.954-14.706-17.35-5.529-5.666-9.818-11.929-12.142-19.561-2.378-7.807-2.823-16.118-2.454-24.228A175.62,175.62,0,0,1,218.5,552.776a184.227,184.227,0,0,1,31.731-53.932c.841-.992,2.215.5,1.38,1.484Z" data-name="Path 36719" transform="translate(-147.819 -156.797)"/><path id="Path_36720" fill="url(#linear-gradient)" d="M209.5,591.072a27.159,27.159,0,0,1-21.407-27.9,1.014,1.014,0,0,1,2.026.048,25.148,25.148,0,0,0,19.966,25.913c1.276.268.684,2.206-.585,1.94Z" data-name="Path 36720" transform="translate(-147.819 -156.797)"/><path id="Path_36721" fill="url(#linear-gradient)" d="M219.483,645.778a52.345,52.345,0,0,0,22.582-30.746c.335-1.261,2.274-.675,1.94.585a54.447,54.447,0,0,1-23.563,31.946c-1.106.7-2.058-1.094-.958-1.785Z" data-name="Path 36721" transform="translate(-147.819 -156.797)"/><path id="Path_36722" fill="url(#linear-gradient)" d="M227.849,534.99a15.373,15.373,0,0,0,14.544-1.119c1.1-.709,2.047,1.081.958,1.785a17.227,17.227,0,0,1-16.087,1.273,1.047,1.047,0,0,1-.677-1.262,1.018,1.018,0,0,1,1.262-.677Z" data-name="Path 36722" transform="translate(-147.819 -156.797)"/><path id="Path_36723" fill="#b0eedb" d="M385.833,577.466c-.672.462-1.344.924-2.016,1.4a202.441,202.441,0,0,0-25.35,20.878c-.618.581-1.235,1.178-1.835,1.775a213.429,213.429,0,0,0-44.683,64.638,207.264,207.264,0,0,0-10.584,29.661c-3.826,14.005-6.859,29.495-14.853,41.078a35.56,35.56,0,0,1-2.68,3.491l-74.916,1.953c-.172-.081-.345-.145-.519-.226l-2.988.215c.106-.533.228-1.083.335-1.617.06-.309.138-.619.2-.929.046-.206.092-.413.121-.6.015-.069.031-.138.046-.189.029-.189.077-.361.106-.533q1.008-4.619,2.085-9.239c0-.017,0-.017.016-.035,5.529-23.457,13.065-46.658,23.883-67.978.326-.641.65-1.3,1.01-1.942a197.778,197.778,0,0,1,17.057-27.4,174.842,174.842,0,0,1,11.293-13.618,145.4,145.4,0,0,1,35.662-28.194c26.5-14.887,57.465-21.133,86.407-13.216C384.368,577.042,385.092,577.245,385.833,577.466Z" data-name="Path 36723" transform="translate(-147.819 -156.797)"/><path id="Path_36724" fill="url(#linear-gradient-5)" d="M385.689,578.421c-36.724,8.283-71.04,28.351-95.82,56.766-5.357,6.143-10.258,12.841-13.461,20.38a44.709,44.709,0,0,0-3,23.338c.879,7.394,2.635,14.855,1.7,22.334-.984,7.883-5.478,14.429-11.9,18.966-7.853,5.551-17.233,7.949-26.487,9.976-10.275,2.25-20.982,4.424-29.433,11.1-1.024.809-2.219-.827-1.2-1.635,14.7-11.613,34.857-9.782,51.054-18.132,7.558-3.9,13.987-10.094,15.66-18.708,1.463-7.533-.341-15.229-1.3-22.707-1-7.853-.657-15.436,2.082-22.929,2.8-7.665,7.451-14.569,12.627-20.822a175.618,175.618,0,0,1,41.449-35.983,184.227,184.227,0,0,1,57.807-23.958c1.269-.286,1.468,1.731.208,2.015Z" data-name="Path 36724" transform="translate(-147.819 -156.797)"/><path id="Path_36725" fill="url(#linear-gradient-5)" d="M297.436,625.526a27.158,27.158,0,0,1-.294-35.166c.839-1,2.429.259,1.588,1.258a25.148,25.148,0,0,0,.341,32.711c.857.982-.783,2.173-1.635,1.2Z" data-name="Path 36725" transform="translate(-147.819 -156.797)"/><path id="Path_36726" fill="url(#linear-gradient-5)" d="M272.469,675.215a52.346,52.346,0,0,0,36.542-10.953c1.027-.805,2.222.831,1.2,1.635a54.447,54.447,0,0,1-38.048,11.321c-1.3-.11-.985-2.112.31-2Z" data-name="Path 36726" transform="translate(-147.819 -156.797)"/><path id="Path_36727" fill="url(#linear-gradient-5)" d="M345.851,591.793a15.373,15.373,0,0,0,12.286,7.863c1.3.094.984,2.1-.31,2a17.227,17.227,0,0,1-13.611-8.669,1.047,1.047,0,0,1,.219-1.416,1.018,1.018,0,0,1,1.416.219Z" data-name="Path 36727" transform="translate(-147.819 -156.797)"/><path id="Path_36728" fill="#189366" d="M825.522,196.935c-1.119-3.3-15.145-14.53-6.55-16.417l7.049,9.4,32.407-32.406,3.259,3.259Z" data-name="Path 36728" transform="translate(-147.819 -156.797)"/><path id="Path_36729" fill="#189366" d="M825.522,307.129c-1.119-3.3-15.145-14.53-6.55-16.417l7.049,9.4L858.427,267.7l3.259,3.259Z" data-name="Path 36729" transform="translate(-147.819 -156.797)"/><path id="Path_36730" fill="#189366" d="M825.522,418.9c-1.119-3.3-15.145-14.53-6.55-16.417l7.049,9.4,32.407-32.406,3.259,3.259Z" data-name="Path 36730" transform="translate(-147.819 -156.797)"/><circle id="Ellipse_687" cx="10" cy="10" r="10" fill="url(#linear-gradient)" data-name="Ellipse 687" transform="translate(637.862 151.738)"/><circle id="Ellipse_688" cx="10" cy="10" r="10" fill="url(#linear-gradient)" data-name="Ellipse 688" transform="translate(637.862 42.738)"/><rect id="Rectangle_13725" width="161" height="2" fill="url(#linear-gradient)" data-name="Rectangle 13725" transform="translate(743.362 29.738)"/><circle id="Ellipse_689" cx="10" cy="10" r="10" fill="url(#linear-gradient)" data-name="Ellipse 689" transform="translate(642.862 267.932)"/><rect id="Rectangle_13726" width="161" height="2" fill="url(#linear-gradient)" data-name="Rectangle 13726" transform="translate(743.362 139.932)"/><rect id="Rectangle_13727" width="161" height="2" fill="url(#linear-gradient)" data-name="Rectangle 13727" transform="translate(743.362 251.7)"/><path id="Path_36731" fill="url(#linear-gradient)" d="M702.96,277h-50V226h34v2h-32v47h46V252h2Z" data-name="Path 36731"/><path id="Path_36732" fill="url(#linear-gradient)" d="M702.96,165h-50V114h34v2h-32v47h46V140h2Z" data-name="Path 36732"/><path id="Path_36733" fill="url(#linear-gradient)" d="M702.96,51h-50V0h34V2h-32V49h46V26h2Z" data-name="Path 36733"/><path id="Path_36734" fill="#a0616a" d="M524.324,338.569s-13.363,56.421,2.97,56.421,54.936-63.845,54.936-63.845l-13.363-16.332-23.985,33.3-1.256-16.967Z" data-name="Path 36734" transform="translate(-147.819 -156.797)"/><circle id="Ellipse_690" cx="13" cy="13" r="13" fill="#a0616a" data-name="Ellipse 690" transform="translate(417.85 150.801)"/><path id="Path_36735" fill="#a0616a" d="M365.175,566.048h17.3l8.233-66.746h-25.54Z" data-name="Path 36735"/><path id="Path_36736" fill="url(#linear-gradient)" d="M512.384,740.9l53.213,0v-.673a20.713,20.713,0,0,0-20.71-20.711h0l-9.72-7.374-18.135,7.375h-4.645Z" data-name="Path 36736" transform="translate(-147.819 -156.797)"/><path id="Path_36737" fill="#a0616a" d="M179.038,544.459l15.483,7.726,37.172-56.045-22.852-11.4Z" data-name="Path 36737"/><path id="Path_36738" fill="url(#linear-gradient)" d="M318.25,717.136,365.863,740.9l.3-.6a20.713,20.713,0,0,0-9.283-27.781h0l-5.4-10.939-19.52-1.5L327.8,698Z" data-name="Path 36738" transform="translate(-147.819 -156.797)"/><rect id="Rectangle_13728" width="569.85" height="2.241" fill="#ccc" data-name="Rectangle 13728" transform="translate(0 584.165)"/><path id="Path_36739" fill="url(#linear-gradient)" d="M401.117,440.925s-6.915,83.148-8.4,100.966a126.709,126.709,0,0,1-7.424,32.665s-2.97,5.939-2.97,11.878L348.669,647.6s-10.284,7.559-8.8,13.5-6.2,9.5-6.2,9.5l35.442,6.831s-1.485-4.454,2.97-5.939,8-14.363,8-14.363l49.756-81.086L465.471,501.8s20.787,66.815,25.241,74.238c0,0,16.332,83.147,19.3,90.571s4.454,7.424,2.97,10.393-1.485,5.939,0,7.424,29.7,0,29.7,0L535.255,579.01,521.892,452.8l-68.3-20.787Z" data-name="Path 36739" transform="translate(-147.819 -156.797)"/><circle id="Ellipse_691" cx="31.18" cy="31.18" r="31.18" fill="#a0616a" data-name="Ellipse 691" transform="translate(288.987 23.271)"/><path id="Path_36740" fill="url(#linear-gradient-5)" d="M524.862,287.995l-37.118-22.489s-1.029-13.965-11.6-14.622c-5.31-.33-13.277-.834-25.234-1.605-2.527-.163-4.232,13.662-7.128,13.475L404.6,273.147l5.939,100.964s-8.909,40.089-5.939,47.513-7.424,10.393-4.454,11.878,0,11.878,0,11.878,57.906,29.7,121.751,7.424l-5.939-19.3a15.58,15.58,0,0,0-2.97-14.848s5.939-8.909-1.485-16.332c0,0,2.97-13.363-4.454-19.3l-1.485-20.787,4.454-10.393Z" data-name="Path 36740" transform="translate(-147.819 -156.797)"/><path id="Path_36741" fill="url(#linear-gradient)" d="M440.93,229.061l-.872-2.024c-.112-.262-11.139-26.329-1.365-42.408,4.524-7.444,12.751-11.646,24.452-12.49,18.307-1.324,30.837,3.019,37.251,12.9a11.075,11.075,0,0,1-9.335,17.061h-.246l-3.364-4.368-.2.425c-1.218,2.635-4.015,4.077-7.291,3.761-.557-.04-1.051.441-1.447,1.47a2.615,2.615,0,0,1-1.958,1.814c-2.42.471-5.871-2.578-7.415-4.1a2.478,2.478,0,0,1-1.155,1.7c-1.627.939-4.16-.288-4.887-.678-5.792,1.23-9.541.9-11.146-.977-1.089,7.7-3.426,21.57-6.228,22.338a1.4,1.4,0,0,1-1.529-.668c-.675-.876-1.278-1.312-1.654-1.19-.912.29-1.45,3.292-1.527,5.229Z" data-name="Path 36741" transform="translate(-147.819 -156.797)"/><path id="Path_36742" fill="url(#linear-gradient-5)" d="M508.529,289.48l14.811-2.406a72.314,72.314,0,0,1,20.823,38.041c4.454,23.756,5.939,28.211,5.939,28.211l-35.634,8.909-19.3-37.119Z" data-name="Path 36742" transform="translate(-147.819 -156.797)"/><rect id="Rectangle_13729" width="116.395" height="234.311" fill="#fff" data-name="Rectangle 13729" transform="translate(285.833 279.618) rotate(-85.49)"/><path id="Path_36743" fill="#189366" d="M467.762,329.37c-5.716-4.082-12.974-4.377-15.746-4.319.846,2.64,3.474,9.412,9.191,13.5s12.979,4.379,15.747,4.322C476.108,340.229,473.479,333.455,467.762,329.37Z" data-name="Path 36743" transform="translate(-147.819 -156.797)"/><path id="Path_36744" fill="#189366" d="M490.313,403.2l-37.507-2.959a8.465,8.465,0,0,0-1.331,16.878h0l37.507,2.959a8.465,8.465,0,0,0,1.331-16.878Z" data-name="Path 36744" transform="translate(-147.819 -156.797)"/><path id="Path_36745" fill="#189366" d="M667.183,327.527l-210.29-16.59A18.683,18.683,0,0,0,436.8,328.1l-8.087,102.451a18.694,18.694,0,0,0,17.162,20.1l210.29,16.59a18.683,18.683,0,0,0,20.092-17.159l7.685-97.375.155-1.989.245-3.1a18.683,18.683,0,0,0-17.159-20.092Zm-6.21,89.138-1.332,16.879A11.315,11.315,0,0,1,647.5,443.9l-28.133-2.217a11.315,11.315,0,0,1-10.361-12.141l1.333-16.879a11.319,11.319,0,0,1,12.141-10.36l28.124,2.219a11.329,11.329,0,0,1,10.37,12.139Zm-219.133-8.8a10.346,10.346,0,0,1,11.114-9.491l37.506,2.961a10.342,10.342,0,0,1-1.609,20.622l-.019,0L451.326,419a10.334,10.334,0,0,1-9.486-11.136Zm8.029-83.482-.256-1.049,1.079-.1c.422-.045,10.4-.941,18.165,4.607S479,343.122,479.108,343.529l.247,1.052-1.076.109a28.427,28.427,0,0,1-4.589-.03,27.137,27.137,0,0,1-13.578-4.586c-7.767-5.548-10.148-15.281-10.242-15.691Z" data-name="Path 36745" transform="translate(-147.819 -156.797)"/><path id="Path_36746" fill="#189366" d="M629.422,427.859l-12.19-.962a3.292,3.292,0,1,0-.518,6.564l12.19.962a3.292,3.292,0,0,0,.518-6.564Z" data-name="Path 36746" transform="translate(-147.819 -156.797)"/><path id="Path_36747" fill="#189366" d="M651.927,429.634l-12.19-.962a3.292,3.292,0,0,0-.518,6.564l12.19.962a3.292,3.292,0,0,0,.518-6.564Z" data-name="Path 36747" transform="translate(-147.819 -156.797)"/><path id="Path_36748" fill="#189366" d="M630.088,419.42l-12.19-.962a3.292,3.292,0,0,0-.518,6.564l12.19.962a3.292,3.292,0,1,0,.518-6.564Z" data-name="Path 36748" transform="translate(-147.819 -156.797)"/><path id="Path_36749" fill="#189366" d="M652.592,421.2l-12.19-.962a3.292,3.292,0,0,0-.518,6.564l12.19.962a3.292,3.292,0,0,0,.518-6.564Z" data-name="Path 36749" transform="translate(-147.819 -156.797)"/><path id="Path_36750" fill="#189366" d="M630.754,410.981l-12.19-.962a3.292,3.292,0,0,0-.518,6.564l12.19.962a3.292,3.292,0,1,0,.518-6.564Z" data-name="Path 36750" transform="translate(-147.819 -156.797)"/><path id="Path_36751" fill="#189366" d="M653.258,412.756l-12.19-.962a3.292,3.292,0,1,0-.518,6.564l12.19.962a3.292,3.292,0,0,0,.518-6.564Z" data-name="Path 36751" transform="translate(-147.819 -156.797)"/><rect id="Rectangle_13730" width="2.001" height="247.613" fill="#fff" data-name="Rectangle 13730" transform="translate(285.698 205.618) rotate(-85.509)"/><path id="Path_36752" fill="url(#linear-gradient)" d="M536.278,193.917l-.155,1.99-8.591-.674L436,188.043l.165-1.992,91.523,7.192Z" data-name="Path 36752"/><path id="Path_36753" fill="#a0616a" d="M382.324,329.569s-13.363,56.421,2.97,56.421,54.936-63.845,54.936-63.845l-13.363-16.332-23.985,33.3-1.256-16.967Z" data-name="Path 36753" transform="translate(-147.819 -156.797)"/><circle id="Ellipse_692" cx="13" cy="13" r="13" fill="#a0616a" data-name="Ellipse 692" transform="translate(275.85 141.801)"/><path id="Path_36754" fill="url(#linear-gradient-5)" d="M415.412,282.056l-8.909-8.909s-17.817,10.393-19.3,20.787-8.909,43.058-8.909,43.058l27.468,2.227,8.909-13.363Z" data-name="Path 36754" transform="translate(-147.819 -156.797)"/></svg>