<svg xmlns="http://www.w3.org/2000/svg" xmlns:xlink="http://www.w3.org/1999/xlink" id="products" width="719.53" height="455.365" viewBox="0 0 719.53 455.365"><defs><linearGradient id="linear-gradient" x1=".5" x2=".5" y2="1" gradientUnits="objectBoundingBox"><stop offset="0" stop-color="#1db27b"/><stop offset="1" stop-color="#0f593e"/></linearGradient><linearGradient id="linear-gradient-2" x1=".5" x2=".5" y2="1" gradientUnits="objectBoundingBox"><stop offset="0" stop-color="#202020"/><stop offset="1" stop-color="#2e2e2e"/></linearGradient><linearGradient id="linear-gradient-12" x1=".5" x2=".5" y2="1" gradientUnits="objectBoundingBox"><stop offset="0" stop-color="#383838"/><stop offset="1" stop-color="#020202"/></linearGradient></defs><path id="Path_36755" fill="url(#linear-gradient)" d="M602.46,35.65H.67A42.747,42.747,0,0,1,5.5,22.14,43.262,43.262,0,0,1,43.23,0H559.9a43.246,43.246,0,0,1,37.72,22.14A42.766,42.766,0,0,1,602.46,35.65Z" data-name="Path 36755"/><path id="Path_36756" fill="#3f3d56" d="M719.53,453.7a1.186,1.186,0,0,1-1.19,1.19H471.05a1.186,1.186,0,0,1-1.19-1.19,1.159,1.159,0,0,1,.32-.81H559.9a41.66,41.66,0,0,0,5.62-.38H718.34A1.186,1.186,0,0,1,719.53,453.7Z" data-name="Path 36756"/><path id="Path_36757" fill="url(#linear-gradient-2)" d="M479.561,211.14h-356a6,6,0,0,1,0-12h356a6,6,0,0,1,0,12Z" data-name="Path 36757"/><path id="Path_36758" fill="url(#linear-gradient-2)" d="M602.46,35.65a42.766,42.766,0,0,0-4.84-13.51A43.246,43.246,0,0,0,559.9,0H43.23A43.262,43.262,0,0,0,5.5,22.14,43.172,43.172,0,0,0,0,43.23V411.66a43.275,43.275,0,0,0,43.23,43.23H559.9a43.249,43.249,0,0,0,43.23-43.23V43.23a43.083,43.083,0,0,0-.67-7.58Zm-1.33,376.01a41.242,41.242,0,0,1-35.61,40.85,41.66,41.66,0,0,1-5.62.38H104.64A102.644,102.644,0,0,1,2,350.24V43.23a41.179,41.179,0,0,1,.7-7.58A40.767,40.767,0,0,1,7.8,22.14,41.2,41.2,0,0,1,43.23,2H559.9a41.2,41.2,0,0,1,35.43,20.14,40.765,40.765,0,0,1,5.1,13.51,41.179,41.179,0,0,1,.7,7.58Z" data-name="Path 36758"/><g id="Group_14942" data-name="Group 14942"><path id="Path_36759" fill="#ffb6b6" d="M575.926,216.08l-3.384-12.408,15.228-5.64,1.692,11.28Z" data-name="Path 36759"/><path id="Path_36760" d="M575.926,216.08l-3.384-12.408,8.968-3.783-2.786,14.628Z" data-name="Path 36760" opacity=".1"/><g id="Group_14940" data-name="Group 14940"><path id="Path_36761" fill="#ffb6b6" d="M531.349,322.417c-2.909-1.73-3.062-6.838-.343-11.409a13.311,13.311,0,0,1,4.337-4.55l1.6-2.609,20.2-36.216s8.843-34.156,12.443-38.286a9.973,9.973,0,0,1,8.806-3.157l4.617,4.1L566.53,278.668l-20.336,28.638-2.725,3.985a13.31,13.31,0,0,1-1.93,5.983c-2.719,4.571-7.282,6.873-10.19,5.142Z" data-name="Path 36761"/><path id="Path_36762" fill="#189366" d="M575.093,212.535s6.426-.248,10.48,4.743-17.185,61.249-17.185,61.249l-17.3-.612Z" data-name="Path 36762"/></g><circle id="Ellipse_693" cx="15.792" cy="15.792" r="15.792" fill="#ffb6b6" data-name="Ellipse 693" transform="translate(560.981 174.063)"/><path id="Path_36763" fill="#ffb6b6" d="M539.831,419.114l-10.716,26.507-6.2-6.2-2.256-11.844,9.023-11.279Z" data-name="Path 36763"/><path id="Path_36764" fill="#ffb6b6" d="M640.22,409.526l10.716,12.408-5.076,10.151-11.28-1.692L628.941,414.6Z" data-name="Path 36764"/><path id="Path_36765" fill="#ffb6b6" d="M568.876,261.48l-1.41,22.842,34.967-6.2-2.256-14.1Z" data-name="Path 36765"/><path id="Path_36766" fill="url(#linear-gradient-2)" d="M567.184,284.6l35.249-11.562s12.972,25.943-1.128,42.3-60.91,109.413-60.91,109.413l-14.1-6.768,20.3-59.218,22.559-54.706L567.184,284.6Z" data-name="Path 36766"/><path id="Path_36767" fill="url(#linear-gradient-2)" d="M601.3,305.753l13.536,59.218,28.2,45.683-14.663,8.46L588.9,364.971l-12.972-41.735Z" data-name="Path 36767"/><path id="Path_36768" fill="url(#linear-gradient-2)" d="M515.58,425.318h-9.768s-11.4-4.512-14.069,0,11.918,17.308,11.918,17.308,20.378,11.455,23.2,10.891,3.948-7.332,3.948-7.332l3.384-7.9-5.076,1.692s-6.768-3.948-5.076-10.716l-8.46-3.948Z" data-name="Path 36768"/><path id="Path_36769" fill="url(#linear-gradient-2)" d="M648.68,423.626v-5.64l6.557,5.64s10.927,3.948,2.467,12.408-19.175,17.483-19.175,17.483-16.919,4.512-18.047-.564,0-7.13,0-7.13l6.2-3.022,5.64-14.664,9.024,1.128,7.332-5.64Z" data-name="Path 36769"/><path id="Path_36770" fill="#2f2e41" d="M581.566,192.956l-5.076-.564-9.306-9.306s-8.46,4.512-8.46,1.128c0-15.792,9.588-15.228,17.484-16.355s7.05-1.41,9.588,2.82c1.161,1.934,5.358,3.1,5.358,3.1s7.9-10.716,11.844,2.256-1.128,53.014,2.82,56.4-16.21,6.763-14.027-6.488,6.131-33.555,3.875-38.066-2.82-3.384-2.82-3.384c2.8-1.141,4.622,18.964-5.919,19.949l-.285-9.8s-1.692-5.076-5.076-1.692Z" data-name="Path 36770"/><path id="Path_36771" fill="#189366" d="M574.516,212.414l16.919-6.768,22.559,67.678-46.416-1.691-4.179-20.2s-4.08-10.513-.7-16.717,11.813-22.3,11.813-22.3Z" data-name="Path 36771"/><g id="Group_14941" data-name="Group 14941"><path id="Path_36772" fill="#ffb6b6" d="M618.543,325.783c-3.372.29-6.474-3.771-6.93-9.07a13.311,13.311,0,0,1,.871-6.225l-.224-3.051-4.7-41.2s-8.748-33.7-8.231-39.157,1.335-6.9,1.335-6.9l6.142.64,14.814,48.913.173,35.123.109,4.827a13.31,13.31,0,0,1,1.92,5.986c.455,5.3-1.909,9.829-5.281,10.119Z" data-name="Path 36772"/><path id="Path_36773" fill="#189366" d="M590.026,211s5.076-3.948,11.28-2.256S623.05,268.53,623.05,268.53l-14.413,9.588L590.026,211Z" data-name="Path 36773"/></g></g><path id="Path_36774" fill="#189366" d="M296.2,308.64H228.549a7.5,7.5,0,0,1-7.488-7.488v-6.767a7.5,7.5,0,0,1,7.488-7.487H296.2a7.5,7.5,0,0,1,7.488,7.487v6.767A7.5,7.5,0,0,1,296.2,308.64Z" data-name="Path 36774"/><path id="Path_36775" fill="#189366" d="M556.205,87.511H488.549a7.5,7.5,0,0,1-7.488-7.488V73.256a7.5,7.5,0,0,1,7.488-7.487h67.656a7.5,7.5,0,0,1,7.488,7.487v6.767A7.5,7.5,0,0,1,556.205,87.511Z" data-name="Path 36775"/><path id="Path_36776" fill="#189366" d="M396.573,309.14H328.917a8,8,0,0,1-7.988-7.988v-6.767a8,8,0,0,1,7.988-7.987h67.656a8,8,0,0,1,7.988,7.987v6.767A8,8,0,0,1,396.573,309.14ZM328.917,288.4a5.994,5.994,0,0,0-5.988,5.987v6.767a6,6,0,0,0,5.988,5.988h67.656a6,6,0,0,0,5.988-5.988v-6.767a5.994,5.994,0,0,0-5.988-5.987Z" data-name="Path 36776"/><path id="Path_36777" fill="url(#linear-gradient-2)" d="M479.561,180.14h-356a6,6,0,0,1,0-12h356a6,6,0,0,1,0,12Z" data-name="Path 36777"/><path id="Path_36778" fill="#e6e6e6" d="M100.89,82.64h-45a6,6,0,0,1,0-12h45a6,6,0,0,1,0,12Z" data-name="Path 36778"/><path id="Path_36779" fill="#b0eedb" d="M369.89,82.64h-45a6,6,0,0,1,0-12h45a6,6,0,0,1,0,12Z" data-name="Path 36779"/><path id="Path_36780" fill="#b0eedb" d="M454.89,82.64h-45a6,6,0,0,1,0-12h45a6,6,0,0,1,0,12Z" data-name="Path 36780"/><path id="Path_36781" fill="url(#linear-gradient-2)" d="M400.561,242.14h-198a6,6,0,0,1,0-12h198a6,6,0,0,1,0,12Z" data-name="Path 36781"/><g id="Group_14943" data-name="Group 14943"><path id="Path_36782" fill="url(#linear-gradient-2)" d="M409.193,373.4H193.937a3.628,3.628,0,1,1,0-7.256H409.193a3.628,3.628,0,0,1,0,7.256Z" data-name="Path 36782"/><path id="Path_36783" fill="url(#linear-gradient-2)" d="M361.425,392.14H241.7a3.628,3.628,0,1,1,0-7.256H361.425a3.628,3.628,0,0,1,0,7.256Z" data-name="Path 36783"/></g><path id="Path_36784" fill="#fff" d="M411.193,21.4H195.937a3.628,3.628,0,1,1,0-7.256H411.193a3.628,3.628,0,0,1,0,7.256Z" data-name="Path 36784"/><path id="Path_36785" fill="url(#linear-gradient-12)" d="M440.153,9.962l-1.364,1.465,6.146,5.713H426.272a1,1,0,0,0,0,2h18.667l-6.15,5.715,1.364,1.465,8.8-8.178-8.8-8.18Z" data-name="Path 36785"/></svg>