<svg xmlns="http://www.w3.org/2000/svg" xmlns:xlink="http://www.w3.org/1999/xlink" width="421.485" height="448.304" viewBox="0 0 421.485 448.304"><defs><linearGradient id="linear-gradient" x1=".5" x2=".5" y2="1" gradientUnits="objectBoundingBox"><stop offset="0" stop-color="#1db27b"/><stop offset="1" stop-color="#0f593e"/></linearGradient><linearGradient id="linear-gradient-2" x1=".5" x2=".5" y2="1" gradientUnits="objectBoundingBox"><stop offset="0" stop-color="#202020"/><stop offset="1" stop-color="#2e2e2e"/></linearGradient><linearGradient id="linear-gradient-3" x1=".5" x2=".5" y2="1" gradientUnits="objectBoundingBox"><stop offset="0" stop-color="#383838"/><stop offset="1" stop-color="#020202"/></linearGradient><linearGradient id="linear-gradient-5" x1=".5" x2=".5" y2="1" gradientUnits="objectBoundingBox"><stop offset="0" stop-color="#62cbac"/><stop offset="1" stop-color="#316656"/></linearGradient></defs><g id="Group_14912" data-name="Group 14912" transform="translate(8525.292 -257.628)"><path id="Path_36168" fill="url(#linear-gradient)" d="M973.717,637.751a350.3,350.3,0,0,1,13.989-35.808c2.36-1.734,4.474-.193,6.542.623q45.339,17.895,90.743,35.622,32.867,12.912,65.755,25.769c2.134.833,4.478,1.4,5.8,3.583.262,4.389-1.553,7.994-4.27,11.257h-77.8c-23.02-7.368-44.983-17.442-67.409-26.331-9.386-3.72-18.772-7.441-28.125-11.245C976.989,640.424,974.79,639.916,973.717,637.751Z" data-name="Path 36168" transform="translate(-9421.865 27.135)"/><path id="Path_36169" fill="#b0eedb" d="M1272.966,678.8H1229.08c-4.928-3.816-4.64-9.246-4.117-14.5a89.126,89.126,0,0,1,5.031-21.228c.971-2.708,1.537-5.411.717-8.256,4.588-7.345,2.907-14.616-.282-21.858-2.617-5.941-6.336-11.3-9.037-17.205-4.086-8.923-3.347-18.1-1.368-27.307a6.755,6.755,0,0,1,2.76-4.587c1.564-.574,2.95.052,4.268.748,8.657,4.567,17.693,8.338,26.5,12.593,4.059,1.961,5.963,4.924,6.629,9.155q4.828,30.646,9.627,61.3c.259,1.667.718,3.526-.607,4.724-1.6,1.447-3.069-.277-4.421-.959-9.274-4.672-18.411-9.61-27.684-14.286,9.871,5.026,19.557,10.417,29.53,15.234,2.816,1.36,4.408,2.944,4.96,6.121.85,4.889,1.529,9.81,2.5,14.68C1274.479,675.125,1274.517,677.157,1272.966,678.8Z" data-name="Path 36169" transform="translate(-9421.865 27.135)"/><path id="Path_36171" fill="url(#linear-gradient-2)" d="M973.717,637.751q49.187,19.71,98.364,39.444a13.815,13.815,0,0,1,2.4,1.6H970.752c-2.3-.863-4.824-.862-7.078-1.861-1.777-.787-3.848-1.309-4.018-3.81C964.066,661.224,968.539,649.348,973.717,637.751Z" data-name="Path 36171" transform="translate(-9421.865 27.135)"/><path id="Path_36172" fill="#b0eedb" d="M1293.733,609.757c2.715,11.573,9.925,20.67,16.486,30.152,4.852,7.013,8.505,14.379,7.737,23.449-.5,5.915-3.484,10.528-6.091,15.439h-15.959c-.481-2.12,1.431-2.815,2.484-3.9,5.087-5.23,10.287-10.348,14.659-14.722-5.98,5.554-12.033,12.627-19.138,18.62h-18.95c-1.717-2.448-1.387-5.4-1.875-8.118-1.954-10.9-3.645-21.846-5.408-32.779-.31-1.919-.308-3.617,1.119-5.08,7.294-7.483,14.645-14.911,22.218-22.114A3.161,3.161,0,0,1,1293.733,609.757Z" data-name="Path 36172" transform="translate(-9421.865 27.135)"/><path id="Path_36173" fill="url(#linear-gradient-3)" d="M1293.733,609.757c-7.881,7.86-15.734,15.749-23.667,23.556-1.6,1.577-1.824,3.038-1.441,5.294,2.27,13.37,4.255,26.788,6.336,40.19h-2c.041-7.516-2.177-14.721-3.021-22.114-.265-2.321-2.139-2.791-3.695-3.6-9.122-4.768-18.275-9.476-27.405-14.229-1.569-.817-3.076-1.754-4.612-2.636l.574-1.08,34.4,17.7c-1.293-8.434-2.435-16.047-3.632-23.651-2.188-13.891-4.531-27.758-6.546-41.674-.642-4.436-2.159-7.406-6.588-9.352-9.871-4.337-19.478-9.276-29.193-13.969-.469-1.036.2-1.436.983-1.78,2.5-.45,4.467.954,6.521,1.957,8.019,3.914,15.937,8.034,24.452,12.127.316-4.489-.731-8.416-1.379-12.349-3.312-20.1-6.4-40.224-9.466-60.357-.271-1.784-.784-3.6.27-5.323a1.416,1.416,0,0,1,1.412-.466c2.9,2.4,2.681,5.963,3.162,9.137,3.333,21.97,7.087,43.872,10.391,65.846a2.682,2.682,0,0,0,1.546,2.456c6.465-6.538,13.22-13.044,19.666-19.871,1.226-1.3,2.091-3.066,4.192-3.23q1.865-.144,1.72,1.72c-.165,2.43-2.095,3.682-3.571,5.181-6.169,6.262-12.4,12.462-18.635,18.661-2.115,2.1-3.567,4.465-3.038,7.517,2.541,14.672,4.531,29.437,7.407,45.3,5.594-5.885,10.852-10.74,15.61-16.18,2.573-2.943,4.395-7.179,9.284-7.3Q1293.752,608.5,1293.733,609.757Z" data-name="Path 36173" transform="translate(-9421.865 27.135)"/><path id="Path_36174" fill="url(#linear-gradient-2)" d="M1293.912,678.8l23.461-21.372-.445-.5L1295.906,678.8Z" data-name="Path 36174" transform="translate(-9421.865 27.135)"/><path id="Path_36175" fill="url(#linear-gradient-5)" d="M959.656,673.126c2.989,3.28,7.806,2.981,11.1,5.671H956.789Z" data-name="Path 36175" transform="translate(-9421.865 27.135)"/><path id="Union_9" fill="url(#linear-gradient-2)" stroke="rgba(0,0,0,0)" stroke-miterlimit="10" stroke-width="1" d="M9600.724,245.628c-2.073-2.289-.309-4.453.438-6.453,7.137-19.086,14.528-38.076,21.878-57.079,4-10.349,7.827-20.772,11.993-31.063.74-1.831,1.248-3.8,2.74-5.242,2.174-1.211,3.242-3.223,4.088-5.453,4.607-12.165,8.45-24.561,9.538-37.579.771-9.244-.26-18.054-9.293-23.625-2.656-1.637-3.4-4.348-3.414-7.345-.044-8.4-2.97-15.949-7.129-23.073-3.289-5.642-7.739-9.982-14.3-11.614a11.468,11.468,0,0,1-6.7-4.857c-10.15-14.239-24.485-20.414-41.471-21.275a22.406,22.406,0,0,0-12.472,2.919c-7.5,4.325-8.528,12.871-2.362,18.878.833.814,1.8,1.47,2.693,2.211,1.529,1.267,4.923,1.784,3.877,4.215-.922,2.137-3.956.828-5.978.512-14.959-2.343-28.656,1.49-41.732,8.369a31.367,31.367,0,0,0-12.6,11.778c-6.132,10.325-1.086,23.438,9.551,24.769a29.254,29.254,0,0,0,14.263-1.341c4.039-1.534,7.982-3.326,12.1-4.651,12.678-4.088,22.38.909,26.458,13.658,4,12.511,1.382,23.953-7.166,33.474-10.139,11.293-28.965,10.661-35.795-4.352-2-4.4-3.627-8.925-5.484-13.371-3.932-9.418-9.492-13.775-17.147-13.4-8.4.409-15.418,6.328-17.944,15.567-2.909,10.638-1.615,21.105,2.051,31.34a87.488,87.488,0,0,0,7.515,15.726,57.428,57.428,0,0,1,7.239,17.954c.468,2.23,1.271,4.585-.809,6.536-21.883-8.141-41.836-19.062-55.712-38.726a2.7,2.7,0,0,1,.156-1.485,1.66,1.66,0,0,1-1.289-.4c-7.569-11.209-11.113-23.909-13.344-37.008-2.815-16.523-4.747-33.087-1.853-49.879,3.744-21.694,15.275-38.424,32.241-51.832a2.32,2.32,0,0,1,1.595.161,2.232,2.232,0,0,1,.508-1.9c21.971-16.444,47.223-23.934,74.1-26.068,36.852-2.924,73.769-1.921,110.554,1.056,33.489,2.71,61.547,17.554,84.62,41.851,5.107,5.379,9.911,11.053,14.854,16.591.552.255.63.868.971,1.282,3.395,5.627,6.854,11.219,10.166,16.9,2.166,3.715,4.058,7.59,6.186,11.332,3.119,5.482,5.923,10.555.987,16.927-2.531,3.264-2.2,8.2-2.341,13.6a108.427,108.427,0,0,1-14.816-26.793c-2.784-7.369-3.679-15.082-3.843-22.907-.11-5.051-.7-9.908-4.62-13.729-7.475-7.283-17.123-7.624-24.933-.556-9.8,8.872-10.908,20.373-9.168,32.5a95.047,95.047,0,0,0,5.19,19.662c6.6,17.719,6.942,35.251-.89,52.685-1.777,1.76-3.659,1.571-5.6.311-.419-.012-.841-.029-1.265-.042a15.975,15.975,0,0,1-4.19,2.635c-7.728,4.242-11.067,10.663-9.95,19.395.591,4.607,1.409,9.183,2.208,13.763,1.929,11.082-1.429,20.62-8.871,28.862q-.438.548-.87,1.1c-5.416,12.109-4.794,23.911,1.674,35.484,3.916,7.011,8.553,13.692,9.832,21.929.549,3.527-.091,6.862-.49,10.305-.284,2.468-2.245,1.968-3.414,2.843q-3.341.176-6.63.176C9648.911,271.77,9623.738,262.153,9600.724,245.628Z" data-name="Union 9" transform="translate(-17874.742 390.29)"/><path id="Path_36177" fill="url(#linear-gradient)" d="M1185.291,509.346c-9.841,25.678-19.767,51.323-29.469,77.053-2.794,7.407-6.479,14.515-7.972,22.388-2.459,3.618-4.325,7.459-4.459,11.946-2.071,1.311-3.859-.067-5.6-.757-33.419-13.255-66.944-26.24-100.392-39.423-1.614-.636-3.652-.948-3.824-3.318,2.274-6.211,4.562-12.416,6.811-18.636a3.826,3.826,0,0,1,2.136-2.582c5.312-9.43,4.212-18.831-.2-28.176-2.7-5.709-5.8-11.212-8.754-16.788-2.767-5.216-2.321-6.385,2.463-9.846,6.942-5.023,9.671-12.093,9.48-20.348a38.434,38.434,0,0,0-3.234-15.505c-1.826-3.943-.609-5.468,3.8-5.228,4.7.255,8.138,2.657,10.536,6.586a51.8,51.8,0,0,1,4.968,10.855c.779,2.367,1.645,4.7,2.637,6.991,7.862,18.177,28.459,17.026,38.711,7.643,12.747-11.666,14.953-33.559,4.479-46.756q-7.543-9.5-19.433-7.163a59.365,59.365,0,0,0-13.195,4.45c-5.228,2.4-10.674,3.67-16.467,2.848-3.824-.543-7.01-2.15-8.805-5.741-1.584-3.168-.564-5.07,2.935-5.666,1.639-.279,3.319-.113,4.973-.28,9.766-.988,16.324-8.023,16.647-17.85.275-8.363,1.021-9.23,9.164-10.618,10.718-1.826,21.122-1.09,31.154,3.489,13.49,6.157,19.992,17.384,22.983,31.219.491,2.272.709,4.6,1.2,6.872.262,1.2.077,3.083,1.911,2.933,1.493-.122,1.911-1.791,2.045-3.093.562-5.464.844-10.948-.439-16.355-2.877-12.122-10.728-20.356-21.065-26.555-4.427-2.654-9.409-4.187-13.955-6.61-3.69-1.967-6.485-4.681-6.768-9.166-.084-1.324-.035-2.8,1.346-3.5,1.211-.615,2.3.22,3.118.983,10.5,9.769,21.3,7.131,31.91.475,3.6-2.256,6.264-1.982,9.426.467,11.838,9.169,17.691,21.664,20.418,35.979a61.8,61.8,0,0,1,.024,22.788c-.193,1.066-.664,2.273.384,3.442,1.882-.821,1.6-2.638,1.9-4.14,2.289-11.573.571-22.812-2.863-33.9a23.67,23.67,0,0,1-1.169-3.806c-.338-2.554.854-3.518,3.2-2.58a16.4,16.4,0,0,1,7.413,6.457,46.65,46.65,0,0,1,8.191,25.228c.066,2.658-.046,5.318.052,7.975.078,2.139.4,3.427,3.264,2.38,3.93-1.438,5.8,1.729,7.143,4.534a26.183,26.183,0,0,1,2.295,14.082c-1.261,13.015-4.932,25.41-9.46,37.585A23.15,23.15,0,0,0,1185.291,509.346Z" data-name="Path 36177" transform="translate(-9421.865 27.135)"/><path id="Path_36178" fill="url(#linear-gradient-2)" d="M1033.575,577.235c16.419,6.574,32.817,13.2,49.262,19.709q30.247,11.972,60.554,23.789c7.981,3.121,15.938,6.308,23.959,9.325,2.481.933,3.162,1.881,2.017,4.608-4.593,10.94-8.889,22.005-13.295,33.023q-43.89-17.336-87.785-34.664-38.132-15.014-76.31-29.913a40.533,40.533,0,0,0-4.272-1.168c4.349-11.209,8.78-22.385,12.986-33.647,1.062-2.842,2.4-2.688,4.743-1.728,7.614,3.126,15.3,6.078,22.978,9.045C1030.091,576.263,1031.852,576.7,1033.575,577.235Z" data-name="Path 36178" transform="translate(-9421.865 27.135)"/><path id="Path_36180" fill="#fffefe" d="M1185.291,509.346c-1.9-.94-1.916-2.177-1.109-4.058a138.439,138.439,0,0,0,10.731-40.126c.643-6.036.1-11.976-4.221-16.8-1.072-1.2-2.551-3.324-3.826.121-.5,1.339-2.016.925-3.1.712-1.813-.356-1.544-1.919-1.533-3.2.068-7.455.521-14.913-2.059-22.152-2.6-7.287-5.508-14.28-12.6-18.469a1.637,1.637,0,0,0-2.106-.106c3.709,9.809,6.265,20,5.717,30.686a110.891,110.891,0,0,1-1.331,11.827c-.3,1.876-.749,4.193-3.682,3.5-2.881-.681-1.61-2.624-1.314-4.35,3.561-20.771-.482-39.488-15.05-55.332a22.355,22.355,0,0,0-1.789-1.733c-5.98-5.209-5.983-5.206-12.641-1.062-11.4,7.1-20.6,6.132-33.625-3.636-1.346,4.646.793,7.766,4.327,10.011a50.441,50.441,0,0,0,7.638,3.575c15.01,6.29,26.354,16.021,29.984,32.649a40.233,40.233,0,0,1-.194,17.753c-.462,1.994-1.29,3.278-3.65,3.218-2.866-.071-2.344-2.062-2.576-3.837-1.3-9.928-3.435-19.488-9.812-27.716-6.394-8.25-15-12.4-24.854-14.2a56.208,56.208,0,0,0-22.134.76c-4.008.865-5.228,2.571-5.083,6.7.408,11.589-4.538,18.222-15.039,20.818-2.209.546-4.6.315-6.9.538-1.233.119-2.858-.649-3.569.911s.318,2.984,1.254,4.067c4.625,5.348,10.734,4.767,16.554,3.257,5.421-1.407,10.5-4.081,15.866-5.761,11.734-3.672,19.455-1.19,26.455,8.668,11.6,16.332,4.434,47.155-17.54,52.894-11.352,2.966-22.877-1.443-28.2-11.986-2.978-5.9-4.991-12.272-7.8-18.263-3.06-6.531-6.674-8.284-14.416-7.482a40.042,40.042,0,0,1,4.789,17.473c.568,10.212-2.29,18.685-11.506,23.958-2.6,1.486-2.672,2.933-1.576,5.071,3.4,6.642,7.058,13.165,10.247,19.908,3.411,7.214,4.829,14.831,2.359,22.677-.641,2.033-.864,4.741-3.849,5.193-2-1.22-2.806-2.736-1.8-5.132a52.526,52.526,0,0,0,1.746-5.973c.208-8.654-3.291-16.136-7.456-23.388-5.15-8.97-9.52-18.245-10.87-28.63-1.059-8.144-1.243-16.291,2.455-23.926,3.752-7.749,9.748-12.539,18.661-12.7,8.744-.154,13.55,5.334,16.815,12.547,1.91,4.217,3.516,8.582,5.07,12.949,6.152,17.283,26.3,16.84,35.378,5.633,8.383-10.353,10.419-22.065,5.139-34.489-4.268-10.043-12.386-13.519-22.719-10.136-3.613,1.183-7.08,2.81-10.642,4.157a36.05,36.05,0,0,1-9.062,2.518c-9.618.989-16.347-1.639-19.477-7.751-3.9-7.611-2.357-17.233,3.9-23.98,7.023-7.577,16.108-11.447,25.778-14.261a61.454,61.454,0,0,1,32.864-.823c-2.471-1.633-4.182-2.591-5.7-3.8-4.487-3.571-7.917-7.8-6.481-14.017,1.465-6.348,5.973-9.921,12.069-11.155,10.054-2.035,19.832-.407,29.2,3.513a50.422,50.422,0,0,1,21.718,17.711,8.532,8.532,0,0,0,5.751,4.018c5.743,1.125,10.12,4.773,13.451,9.584a51.721,51.721,0,0,1,9.153,27.482c.141,2.917.79,4.66,3.693,6.153,7.1,3.656,8.642,10.706,8.759,17.819.276,16.915-5.174,32.59-11.174,48.109C1187.944,510.1,1186.759,509.785,1185.291,509.346Z" data-name="Path 36180" transform="translate(-9421.865 27.135)"/><path id="Path_36181" fill="#b0eedb" d="M1293.771,607.234c-7.686,6.332-13.58,14.428-20.827,21.2-1.414,1.321-2.307,3.2-3.441,4.823l-1.661-.914c-.926-5.266-1.905-10.524-2.767-15.8-1.568-9.6-2.91-19.23-4.663-28.79-.814-4.439-.2-7.788,3.328-11.059,7.879-7.31,15.344-15.065,22.976-22.64,7.62,5.383,10.153,13.361,11.159,22.071,1.023,8.857-2.287,17.162-3.423,25.746C1294.215,603.658,1294,605.446,1293.771,607.234Z" data-name="Path 36181" transform="translate(-9421.865 27.135)"/><path id="Path_36182" fill="#b0eedb" d="M1246.184,498.478l5.6-.311c10.175,1.686,15.67,8.263,17.187,20.512.424,3.417.809,6.847,1.443,10.228,1.376,7.34,4.527,13.708,10.368,18.627,1.61,1.355,3.349,2.727,4.212,4.8-7.484,9.553-16.7,17.421-25.678,26.95-1.846-11.4-3.538-21.893-5.243-32.379Q1250.135,522.689,1246.184,498.478Z" data-name="Path 36182" transform="translate(-9421.865 27.135)"/><path id="Path_36183" fill="url(#linear-gradient-2)" d="M1289.865,398.551l-.97-1.283c-3.249-13.544-6.892-26.932-14.212-39.005-9.937-16.39-24.924-27.223-40.742-37.111-14.73-9.207-30.223-17.234-43.706-28.358a96.216,96.216,0,0,1-13.991-14.041c-.468-.942.02-1.041.788-.893,13.963,16.293,32.253,26.78,50.348,37.529,14.125,8.391,28.084,17.073,39.14,29.468C1280.157,360.146,1287.424,378.33,1289.865,398.551Z" data-name="Path 36183" transform="translate(-9421.865 27.135)"/><path id="Path_36184" fill="url(#linear-gradient-2)" d="M1005.8,487.323a95.418,95.418,0,0,0,19.029-41.966c3.658-19.163.8-37.441-6.867-55.1a105.041,105.041,0,0,0-11.941-21.143c-.995-1.335-1.795-2.779-3.361-3.54-.08-1.525.71-2,2.1-1.741,3.806,6.939,8.677,13.214,12.224,20.34,8.566,17.208,12.413,35.394,10.448,54.43-1.909,18.483-8.623,35.29-20.792,49.643A1.346,1.346,0,0,1,1005.8,487.323Z" data-name="Path 36184" transform="translate(-9421.865 27.135)"/><path id="Path_36185" fill="url(#linear-gradient-2)" d="M985.692,506.213c-9.731,6.621-20.682,10.178-32.053,12.584a183.806,183.806,0,0,1-40.814,4.255c-.36-.311-.967-.357-1.046-.971,7.266-1.89,14.752-.825,22.135-1.69,17.892-2.1,35.159-5.883,50.958-14.924A1.061,1.061,0,0,1,985.692,506.213Z" data-name="Path 36185" transform="translate(-9421.865 27.135)"/><path id="Path_36186" fill="url(#linear-gradient-2)" d="M1177.032,277.86l-.788.893c-12.016-13.864-19.048-29.38-15.957-48.26C1158.33,248.958,1166.032,263.994,1177.032,277.86Z" data-name="Path 36186" transform="translate(-9421.865 27.135)"/><path id="Path_36187" fill="url(#linear-gradient-2)" d="M985.692,506.213l-.82-.746.747-1.17c8.282-3.81,14.123-10.522,20.183-16.975q.425.465.845.929c-5.541,7.189-12.593,12.7-19.895,17.936Z" data-name="Path 36187" transform="translate(-9421.865 27.135)"/><path id="Path_36190" fill="url(#linear-gradient-3)" d="M911.779,522.081l1.046.971H896.583l-.01-.971Z" data-name="Path 36190" transform="translate(-9421.865 27.135)"/><path id="Path_36198" fill="#b0eedb" d="M1224.113,563.089a33.216,33.216,0,0,1,2.266-4.887c6.132-9.133,6.865-18.926,4.349-29.4-1.34-5.575-2.542-11.275-.719-17.116,2.335-7.481,7.137-11.989,14.911-13.252,4.157,26.6,8.315,53.194,12.59,80.536Z" data-name="Path 36198" transform="translate(-9421.865 27.135)"/><path id="Path_36199" fill="url(#linear-gradient)" d="M1036.632,481.138c.329,4.176-.113,8.3-3.825,11.512-1.912,1.653-3.352,1.841-3.754-.841-1.1-7.31-.771-14.532,2.55-21.338.34-.7.983-1.605,1.616-1.726,1.208-.229,1.531,1.059,1.93,1.912C1036.669,473.9,1036.79,477.375,1036.632,481.138Z" data-name="Path 36199" transform="translate(-9421.865 27.135)"/><path id="Path_36200" fill="url(#linear-gradient)" d="M1066.5,416.013c-.095,7.627-7.326,11.006-13.63,10.263-2.248-.266-2.155-1.725-1.12-3.184a29.4,29.4,0,0,1,12.71-9.9C1067.53,411.88,1065.985,415.018,1066.5,416.013Z" data-name="Path 36200" transform="translate(-9421.865 27.135)"/><path id="Path_36201" fill="url(#linear-gradient)" d="M1127.471,379.169c-4.72,3.283-9.458,4.642-14.3,1.3-.671-.463-1.44-.974-1.217-1.922.252-1.072,1.286-.943,2.027-.868C1118.479,378.129,1122.974,378.663,1127.471,379.169Z" data-name="Path 36201" transform="translate(-9421.865 27.135)"/></g></svg>