<svg xmlns="http://www.w3.org/2000/svg" xmlns:xlink="http://www.w3.org/1999/xlink" id="quote" width="890.105" height="611.972" viewBox="0 0 890.105 611.972"><defs><linearGradient id="linear-gradient" x1=".5" x2=".5" y2="1" gradientUnits="objectBoundingBox"><stop offset="0" stop-color="#383838"/><stop offset="1" stop-color="#020202"/></linearGradient><linearGradient id="linear-gradient-2" x1=".5" x2=".5" y2="1" gradientUnits="objectBoundingBox"><stop offset="0" stop-color="#202020"/><stop offset="1" stop-color="#2e2e2e"/></linearGradient><linearGradient id="linear-gradient-8" x1=".5" x2=".5" y2="1" gradientUnits="objectBoundingBox"><stop offset="0" stop-color="#1db27b"/><stop offset="1" stop-color="#0f593e"/></linearGradient></defs><path id="Path_36786" fill="#b0eedb" d="M467.023,693.807l.279-1.112c.062-.244,6.366-24.577,25.4-37.79s44.033-10.616,44.282-10.588l1.14.126-.28,1.111c-.062.244-6.366,24.577-25.4,37.79s-44.033,10.616-44.283,10.588Zm26.817-37.258c-16.09,11.171-22.793,30.594-24.27,35.49,5.106.323,25.66.824,41.735-10.337s22.788-30.591,24.27-35.49c-5.109-.323-25.662-.823-41.736,10.336Z" data-name="Path 36786" transform="translate(-154.947 -144.014)"/><path id="Path_36787" fill="#b0eedb" d="M500.749,662.453c-9.6,20.969-32.21,31.179-32.21,31.179s-7.05-23.787,2.548-44.756S503.3,617.7,503.3,617.7,510.347,641.484,500.749,662.453Z" data-name="Path 36787" transform="translate(-154.947 -144.014)"/><path id="Path_36788" fill="url(#linear-gradient)" d="M257.106,686.225c-10.35-31.83-11.2-68,6.294-97.533,7.436-12.553,17.886-23.393,30.7-30.48,14.785-8.174,31.852-10.847,48.549-11.216,36.306-.8,72.365,7.969,108.675,3.435,16.291-2.034,32.541-6.6,46.5-15.447,12.074-7.651,22.554-18.358,28.738-31.344a57.36,57.36,0,0,0,3.841-39.854c-3.432-12.593-11.508-24.367-23.319-30.4-10.731-5.478-23.9-5.623-34.992-1.093-11.928,4.874-20.517,14.956-22.344,27.859-2.279,16.1,4.969,32.023,13.037,45.5,7.766,12.969,17.181,25.141,28.621,35.083,11.081,9.63,24.147,17.221,38.52,20.594,13.635,3.2,28.341,2.917,41.6-1.809a59.165,59.165,0,0,0,32.023-27.392c7.759-14.033,10.468-30.247,10.2-46.133-.315-18.761-4.274-37.333-7.808-55.691q-5.377-27.928-11.556-55.694-3.012-13.534-6.213-27.025c-.445-1.878-3.339-1.083-2.893.8,8.488,35.8,16.424,71.88,22.445,108.184,2.858,17.233,4.648,35.106,1.064,52.373-3.022,14.561-9.8,28.677-21.4,38.311-22.136,18.384-55.153,16.056-78.845,2.183-12.777-7.482-23.616-17.961-32.59-29.67-9.277-12.1-17.917-25.947-21.833-40.806-2.022-7.672-2.6-15.862-.263-23.535a30.765,30.765,0,0,1,10.149-14.992c9.009-7.309,21.746-9.934,33-7.471,12.685,2.775,22.5,12.321,27.765,23.933a53.342,53.342,0,0,1,1.787,38.867c-4.542,13.424-13.962,24.9-25.285,33.243-12.89,9.5-28.253,14.886-43.94,17.541-35.2,5.957-70.551-1.833-105.812-2.548-16.069-.326-32.539.911-47.726,6.527a81.546,81.546,0,0,0-34.626,24.752c-20.066,24.342-25.621,56.645-20.871,87.268a157.091,157.091,0,0,0,5.912,24.477c.594,1.828,3.492,1.046,2.893-.8Z" data-name="Path 36788" transform="translate(-154.947 -144.014)"/><rect id="Rectangle_13731" width="19" height="15" fill="#189366" data-name="Rectangle 13731" transform="translate(90.106 534.972)"/><path id="Path_36789" fill="#b0eedb" d="M586.925,347.955H925.813c64.2,0,116.24-36.591,116.24-100.788h0c0-64.2-52.042-90.955-116.24-90.955H819.406c-128.4,0-232.48,63.348-232.48,191.743Z" data-name="Path 36789" transform="translate(-154.947 -144.014)"/><path id="Path_36790" fill="url(#linear-gradient-2)" d="M925.813,350.954H583.925v-3c0-61.431,23.957-112.059,69.28-146.411,41.719-31.619,99.19-48.333,166.2-48.333H925.813c34.373,0,63.389,7.588,83.914,21.945,23.441,16.4,35.326,40.624,35.326,72.01,0,31.466-12.154,58.021-35.149,76.792C988.58,341.367,958.716,350.954,925.813,350.954Zm-335.869-6H925.813c67.732,0,113.24-39.3,113.24-97.788,0-79.385-79.192-87.955-113.24-87.955H819.406C709.267,159.211,591.633,208.075,589.944,344.954Z" data-name="Path 36790" transform="translate(-154.947 -144.014)"/><rect id="Rectangle_13732" width="40.028" height="9.636" fill="#189366" data-name="Rectangle 13732" transform="translate(587.145 72.118)"/><rect id="Rectangle_13733" width="14.084" height="9.636" fill="#189366" data-name="Rectangle 13733" transform="translate(751.703 72.118)"/><rect id="Rectangle_13734" width="14.084" height="9.636" fill="#189366" data-name="Rectangle 13734" transform="translate(779.87 72.118)"/><rect id="Rectangle_13735" width="95.621" height="9.636" fill="#189366" data-name="Rectangle 13735" transform="translate(641.256 72.118)"/><rect id="Rectangle_13736" width="40.028" height="9.636" fill="#189366" data-name="Rectangle 13736" transform="translate(536.74 134.383)"/><rect id="Rectangle_13737" width="14.084" height="9.636" fill="#189366" data-name="Rectangle 13737" transform="translate(701.297 134.383)"/><rect id="Rectangle_13738" width="14.084" height="9.636" fill="#189366" data-name="Rectangle 13738" transform="translate(729.465 134.383)"/><rect id="Rectangle_13739" width="95.621" height="9.636" fill="#189366" data-name="Rectangle 13739" transform="translate(590.851 134.383)"/><rect id="Rectangle_13740" width="40.028" height="9.636" fill="#189366" data-name="Rectangle 13740" transform="translate(702.039 93.614)"/><rect id="Rectangle_13741" width="40.028" height="9.636" fill="#189366" data-name="Rectangle 13741" transform="translate(756.15 93.614)"/><rect id="Rectangle_13742" width="14.084" height="9.636" fill="#189366" data-name="Rectangle 13742" transform="translate(810.261 93.614)"/><rect id="Rectangle_13743" width="14.084" height="9.636" fill="#189366" data-name="Rectangle 13743" transform="translate(564.907 93.614)"/><rect id="Rectangle_13744" width="95.621" height="9.636" fill="#189366" data-name="Rectangle 13744" transform="translate(593.075 93.614)"/><rect id="Rectangle_13745" width="40.028" height="9.636" fill="#189366" data-name="Rectangle 13745" transform="translate(619.019 114.369)"/><rect id="Rectangle_13746" width="40.028" height="9.636" fill="#189366" data-name="Rectangle 13746" transform="translate(564.907 114.369)"/><rect id="Rectangle_13747" width="14.084" height="9.636" fill="#189366" data-name="Rectangle 13747" transform="translate(810.261 114.369)"/><rect id="Rectangle_13748" width="14.084" height="9.636" fill="#189366" data-name="Rectangle 13748" transform="translate(782.094 114.369)"/><rect id="Rectangle_13749" width="95.621" height="9.636" fill="#189366" data-name="Rectangle 13749" transform="translate(672.389 114.369)"/><path id="Path_36791" fill="#cbcbcb" d="M536.947,694.986h-381a1,1,0,0,1,0-2h381a1,1,0,0,1,0,2Z" data-name="Path 36791" transform="translate(-154.947 -144.014)"/><path id="Path_36792" fill="#cbcbcb" d="M385.947,755.986h-117a1,1,0,0,1,0-2h117a1,1,0,0,1,0,2Z" data-name="Path 36792" transform="translate(-154.947 -144.014)"/><path id="Path_36793" fill="#ffb7b7" d="M275.368,481.5a13.749,13.749,0,0,0-4.483-20.6l7.248-48.32L255.1,423.26l-3.351,44.249A13.824,13.824,0,0,0,275.368,481.5Z" data-name="Path 36793" transform="translate(-154.947 -144.014)"/><path id="Path_36794" fill="#ffb7b7" d="M190.07,594.085H173.49L165.6,530.133h24.47Z" data-name="Path 36794"/><path id="Path_36795" fill="url(#linear-gradient-2)" d="M349.245,754.171l-53.461,0v-.676a20.809,20.809,0,0,1,20.807-20.808h32.655Z" data-name="Path 36795" transform="translate(-154.947 -144.014)"/><path id="Path_36796" fill="#ffb7b7" d="M249.331,555.947l-15.484,5.964-30.371-56.884,22.852-8.8Z" data-name="Path 36796"/><path id="Path_36797" fill="url(#linear-gradient-2)" d="M414.008,713.449l-49.925,19.23-.243-.631a20.825,20.825,0,0,1,11.947-26.917h0l30.493-11.746Z" data-name="Path 36797" transform="translate(-154.947 -144.014)"/><path id="Path_36798" fill="url(#linear-gradient-2)" d="M141.884,299.94,137.2,326.966l74.959,228,40.017-12.216-28.594-84.1-28.894-124.7-.626-44.446Z" data-name="Path 36798"/><path id="Path_36799" fill="url(#linear-gradient-2)" d="M158.371,581.952l13.5-92.314-2.177-17.422,24.368-53.478-2.808-126.752,53.137,7.954L223.581,463.2l-27.1,95.885-5.444,20.688Z" data-name="Path 36799"/><circle id="Ellipse_694" cx="30.488" cy="30.488" r="30.488" fill="#ffb8b8" data-name="Ellipse 694" transform="translate(136.049 19.561)"/><path id="Path_36800" fill="url(#linear-gradient-2)" d="M351.576,161.622A37.581,37.581,0,0,0,330.2,145.28l-6.536,5.229,2.541-6.1a34.6,34.6,0,0,0-6.46-.373l-5.881,7.561,2.434-7.3a37.222,37.222,0,0,0-25.677,15.273c-7.485,10.792-6.984,25.794.378,36.671,2.021-6.21,2.71-12.031,4.73-18.241a18.382,18.382,0,0,0,4.788.023l2.459-5.737.687,5.494c7.62-.664,18.924-2.122,26.148-3.457l-.7-4.215,4.2,3.5c2.213-.51,3.528-.972,3.419-1.325,5.373,8.662,10.7,14.195,16.07,22.856C354.837,182.924,358.438,172.768,351.576,161.622Z" data-name="Path 36800" transform="translate(-154.947 -144.014)"/><path id="Path_36801" fill="url(#linear-gradient-8)" d="M380.715,232.41s-58.061-5.161-83.473,15.93l-7.879,189.081,4.345,14.755s20.783,4.148,46-3.007,59.628,3.007,59.628,3.007l3.7-115.78Z" data-name="Path 36801" transform="translate(-154.947 -144.014)"/><path id="Path_36802" fill="url(#linear-gradient-2)" d="M295.24,440.925l18.119-183.943-3.42-15.861s-34.956,9.873-47.694,28.619l22.989,159.4v14.814Z" data-name="Path 36802" transform="translate(-154.947 -144.014)"/><path id="Path_36803" fill="url(#linear-gradient-2)" d="M376.471,428.71S327.86,263.813,345.3,233.684c0,0,35.089-9.895,51.855,2.31l9.286,101.277s18.63,57.907,4.344,71.525l3.135,13.618s-19.059,1.123-23.14,1.65S376.471,428.71,376.471,428.71Z" data-name="Path 36803" transform="translate(-154.947 -144.014)"/><path id="Path_36804" fill="url(#linear-gradient-2)" d="M273.083,268.649l-10.837,1.091s-3.9,2.116-3.417,11.52-11.245,147.212-5.383,156.161l-3.393,11.671,23.955,6.533,1.423-11.671s9.7-30.166,10.945-37.83S273.083,268.649,273.083,268.649Z" data-name="Path 36804" transform="translate(-154.947 -144.014)"/><path id="Path_36805" fill="#ffb7b7" d="M392.023,426.417a13.75,13.75,0,0,1,15.86-13.891l22.923-43.15,12.161,22.289-23.633,37.559a13.824,13.824,0,0,1-27.311-2.807Z" data-name="Path 36805" transform="translate(-154.947 -144.014)"/><path id="Path_36806" fill="url(#linear-gradient-2)" d="M383.163,241.344l12.908-5.35s21.018,11.424,22.7,22.7,43.28,84.293,43.28,84.293-14.872,65-28.233,68.947l-7.261,8.013L406.5,407.023l6.5-6.5s-.171-34.386,5.824-40.546c0,0-16.872-43.181-24.494-47.536S383.163,241.344,383.163,241.344Z" data-name="Path 36806" transform="translate(-154.947 -144.014)"/></svg>