<svg id="services" xmlns="http://www.w3.org/2000/svg" xmlns:xlink="http://www.w3.org/1999/xlink" width="866.805" height="443.064" viewBox="0 0 866.805 443.064">
  <defs>
    <linearGradient id="linear-gradient" x1="0.5" x2="0.5" y2="1" gradientUnits="objectBoundingBox">
      <stop offset="0" stop-color="#202020"/>
      <stop offset="1" stop-color="#2e2e2e"/>
    </linearGradient>
    <linearGradient id="linear-gradient-2" x1="0.5" x2="0.5" y2="1" gradientUnits="objectBoundingBox">
      <stop offset="0" stop-color="#1db27b"/>
      <stop offset="1" stop-color="#0f593e"/>
    </linearGradient>
    <linearGradient id="linear-gradient-3" x1="0.5" x2="0.5" y2="1" gradientUnits="objectBoundingBox">
      <stop offset="0" stop-color="#383838"/>
      <stop offset="1" stop-color="#020202"/>
    </linearGradient>
  </defs>
  <path id="Path_36807" data-name="Path 36807" d="M711.466,396.386H175.418a9.035,9.035,0,0,1,0-18.069H711.466a9.035,9.035,0,0,1,0,18.069Z" fill="url(#linear-gradient)"/>
  <path id="Path_36808" data-name="Path 36808" d="M592.511,443.064H294.372a9.035,9.035,0,0,1,0-18.069H592.511a9.035,9.035,0,0,1,0,18.069Z" fill="url(#linear-gradient-2)"/>
  <path id="Path_36809" data-name="Path 36809" d="M235.069,81.275l33.784-14.218,14.49,29.705-35.5,14.491Z" fill="#ffb6b6"/>
  <path id="Path_36810" data-name="Path 36810" d="M235.069,81.275l33.784-14.218,14.49,29.705-35.5,14.491Z" opacity="0.1"/>
  <path id="Path_36811" data-name="Path 36811" d="M239.872,69.955l33.328,38.4s-23.185,73.177-46.37,79.7-65.932,38.4-65.932,38.4l-53.615-34.777,26.083-38.4s63.033-86.218,79.7-86.218,26.807,2.9,26.807,2.9Z" fill="#189366"/>
  <path id="Path_36812" data-name="Path 36812" d="M194.843,320.278H117.261l-4.905-6.557L92.33,286.95l-4.608-6.158s-17.389-31.879-13.766-60.86,41.3-35.5,41.3-35.5h1.55l46.123,40.53-2.753,37.719,14.606,24.271,20.062,33.328Z" fill="url(#linear-gradient-3)"/>
  <path id="Path_36813" data-name="Path 36813" d="M133.15,320.278H112.356V289.486Z" fill="#2f2e41"/>
  <path id="Path_36814" data-name="Path 36814" d="M704.745,104.9l7.755,48.377-49,.632V111.851Z" fill="#ffb6b6"/>
  <path id="Path_36815" data-name="Path 36815" d="M704.745,104.9l7.755,48.377-49,.632V111.851Z" opacity="0.1"/>
  <path id="Path_36816" data-name="Path 36816" d="M821.461,273.532l-2.586,13.418-6.419,33.328H683.5c1.007-7.47,2.384-18.222,3.854-29.829.145-1.159.3-2.326.442-3.5,3.688-29.177,7.723-62.193,7.723-62.193l16.954,2.058,32.893,3.985,13.4,1.623,35.893,4.354a31.1,31.1,0,0,1,26.8,36.755Z" fill="#f2f2f2"/>
  <path id="Path_36817" data-name="Path 36817" d="M581.644,273.532l-2.586,13.418-6.419,33.328H443.68c1.007-7.47,2.384-18.222,3.854-29.829.145-1.159.3-2.326.442-3.5,3.688-29.177,7.723-62.193,7.723-62.193l16.954,2.058,32.893,3.985,13.4,1.623,35.893,4.354a31.1,31.1,0,0,1,26.8,36.755Z" fill="url(#linear-gradient)"/>
  <path id="Path_36818" data-name="Path 36818" d="M764.144,320.278H694.2c1.065-1.253,1.666-1.978,1.666-1.978l20.968-3.463,43.2-7.129s1.971,5.093,4.108,12.57Z" fill="#2f2e41"/>
  <path id="Path_36819" data-name="Path 36819" d="M667.92,320.278H562.292q1.576-3.13,3.253-6.267a55.148,55.148,0,0,1,4.775-7.484,45.1,45.1,0,0,1,3.478-4.05,36.716,36.716,0,0,1,11.368-8.049c14.382-6.47,31.328-2.507,45.761,3.941a135.608,135.608,0,0,1,14.925,7.883,158,158,0,0,1,16.244,11.3c.869.688,1.333,1.087,1.333,1.087l4.492,1.637Z" fill="#2f2e41"/>
  <path id="Path_36820" data-name="Path 36820" d="M584.122,320.278H569.139l3.949-4.586,2.231-2.594.957.775Z" fill="#ffb6b6"/>
  <path id="Path_36821" data-name="Path 36821" d="M769.259,320.278H640.236l5.615-14.027,7.716-19.3,3.876-9.694-3.2-13.628s-1.579-1.116-3.985-3.123c-8.571-7.1-27.648-25.387-23.264-44.167,4.985-21.373,11.245-63.026,12.57-72,.167-1.123.254-1.732.254-1.732l18.62-4.565.616-.152,2-.493h49.876l36.683,24.844-.007.261-2.239,68.3-.956,29.22a38.641,38.641,0,0,0-.877,10.766,50.57,50.57,0,0,0,3.376,16.164,58.328,58.328,0,0,0,13.527,20.359c5.18,5.18,7.694,9.542,8.825,12.969Z" fill="#189366"/>
  <path id="Path_36822" data-name="Path 36822" d="M758.768,232.422c-1.224,10.042-2.4,17.178-2.4,17.178l-12.839,21.185-9.8,16.164-16.9,27.887-2.478,4.094-1.768,1.348H659.559l2.536-2.724,25.257-27.1,3.268-3.5,5.3-5.688,16.555-54.448,19.511-64.171s7.9-2.753,15.621-.145a18.477,18.477,0,0,1,10.832,9.759c5.282,10.564,2.71,40.776.333,60.164Z" fill="#189366"/>
  <path id="Path_36823" data-name="Path 36823" d="M665.486,230.669,650.257,260.5l-13.5,26.445-5.832,11.418-2.3,4.507-19.685,17.4H564.372l7.347-9.129,2.731-3.405,10.716-13.317,6.013-7.477,16.323-20.3,4.354-92.462a31.759,31.759,0,0,1,27.615-29.836l.091-.015c4.941-.992,12.8-1.282,18.874,4.594.21.2.413.406.616.623a21.663,21.663,0,0,1,2.869,3.833c.087.145.174.3.254.449a15.5,15.5,0,0,1,.725,1.514c7.76,18.07,2.586,75.322,2.586,75.322Z" fill="#189366"/>
  <path id="Path_36824" data-name="Path 36824" d="M467.455,95.766l30.418,43.018-53.059,1.585-5.7-40.427Z" fill="#a0616a"/>
  <path id="Path_36825" data-name="Path 36825" d="M467.455,95.766l30.418,43.018-53.059,1.585-5.7-40.427Z" opacity="0.1"/>
  <path id="uuid-b14ece9b-aa3d-4fe4-9d8a-4500bc16dcc4-77" d="M317.446,184.9c-3.9-11.259-12.876-18.372-20.041-15.887s-9.808,13.625-5.9,24.888a29.822,29.822,0,0,0,7.464,11.945l17.14,47.5,22.117-8.518L318.979,198.9a29.824,29.824,0,0,0-1.533-14.005Z" fill="#a0616a"/>
  <path id="Path_36826" data-name="Path 36826" d="M523.347,162.977l-.042,43.841-4.079,16.193-8.39,33.306-6.108,30.633-4.55,22.823-1.623,8.151q-1.837,1.228-3.659,2.355H388.921a81.508,81.508,0,0,1-9.39-6.427,35.732,35.732,0,0,0,3.572-4.079c3.217-4.246,7.108-11.2,4.724-17.845a12.041,12.041,0,0,1-.478-4.977c.971-12.476,14.056-33.574,14.056-33.574l-2.71-31.314-1.188-13.722,8.378-66.91,27.307-15.874,4.714-.456,46.536-2.514,19.234,1.108.877.239,18.794,39.045Z" fill="#b0eedb"/>
  <g id="Group_14944" data-name="Group 14944">
    <path id="Path_36827" data-name="Path 36827" d="M525.414,320.278H502.229l-1.021-10.506-.022-.21,6.564-.449,17.077-1.166.3,6.288.232,4.826Z" fill="#b0eedb"/>
    <path id="Path_36828" data-name="Path 36828" d="M531.121,173.576l9.739,57.143-7.948,56.23-1.239,8.752-2.188,15.454-.674,4.753.022.514.167,3.855H501.468l-1.014-10.506-.087-.942-2.072-21.518-.036-.362-4.4-45.63,8.622-32.98.638-2.427V205.9l3.751-56.469-2.905-25.663-.029-.239c.058.036.109.073.167.109.152.094.3.188.449.29a57.3,57.3,0,0,1,26.568,49.644Z" fill="#b0eedb"/>
  </g>
  <path id="Path_36829" data-name="Path 36829" d="M415.748,152.379,405.16,141.428s-22.664,10.218-23.794,15.886S340.22,246.24,340.22,246.24l-17.41-46.5-22.662,15.13s18.184,72.192,35.19,75.581,74-85.446,74-85.446l6.408-52.628Z" fill="#b0eedb"/>
  <circle id="Ellipse_695" data-name="Ellipse 695" cx="35.227" cy="35.227" r="35.227" transform="translate(643.549 55.979)" fill="#ffb6b6"/>
  <path id="Path_36830" data-name="Path 36830" d="M693.383,105.055s-3.652-10.061-5.722-15.282-.72-12-.72-12-27.633-6.1-38.454-.054-11.549-24.362-.566-32.638c0,0,2.941,5.111,1.8,6.581l-1.141,1.47s8.311-17.576,22.345-18.456c0,0,6.652,5.308,4.145,7.059s18.483-9.9,22.134.158c0,0,13.383,2.384,10.776,6.956l.22,3.155s12.13-1.259,11.265,7.336c0,0-4.08-.813-6.69.929s6.208,10,6.208,10,5.3,34.43-13.08,44.343c0,0,2.981-15.669-4.034-13.107s-8.484,3.542-8.484,3.542Z" fill="url(#linear-gradient)"/>
  <path id="Path_36831" data-name="Path 36831" d="M845.641,328.778H21.164a21.164,21.164,0,1,1,0-42.328H845.641a21.164,21.164,0,1,1,0,42.328Z" fill="url(#linear-gradient-2)"/>
  <path id="Path_36832" data-name="Path 36832" d="M518.522,221.94l-1.6,74.8a13.315,13.315,0,0,1-13.312,13.03H366a13.315,13.315,0,0,1-13.3-12.589l-4.089-74.8a13.315,13.315,0,0,1,13.3-14.042h143.3a13.315,13.315,0,0,1,13.312,13.6Z" fill="url(#linear-gradient)"/>
  <path id="Path_36833" data-name="Path 36833" d="M817.522,221.94l-1.6,74.8a13.315,13.315,0,0,1-13.312,13.03H665a13.316,13.316,0,0,1-13.3-12.589l-4.089-74.8a13.315,13.315,0,0,1,13.3-14.042H804.209a13.315,13.315,0,0,1,13.312,13.6Z" fill="url(#linear-gradient)"/>
  <circle id="Ellipse_696" data-name="Ellipse 696" cx="32.922" cy="32.922" r="32.922" transform="translate(263.463 33.488)" fill="#ffb6b6"/>
  <path id="Path_36834" data-name="Path 36834" d="M241.321,152.551l3.623,39.124,24.634,99.26L248.3,298.394,212.34,190.226l-4.966-43.471Z" fill="#ffb6b6"/>
  <path id="Path_36835" data-name="Path 36835" d="M231.522,221.94l-1.6,74.8a13.315,13.315,0,0,1-13.312,13.03H79a13.316,13.316,0,0,1-13.3-12.589l-4.089-74.8a13.315,13.315,0,0,1,13.3-14.042h143.3a13.315,13.315,0,0,1,13.312,13.6Z" fill="url(#linear-gradient)"/>
  <ellipse id="Ellipse_697" data-name="Ellipse 697" cx="26" cy="11.5" rx="26" ry="11.5" transform="translate(247.5 287.278)" fill="#ffb6b6"/>
  <path id="Path_36836" data-name="Path 36836" d="M190.242,158.532l14.853-79.158s41.3-5.8,42.747,7.97-1.035,81.042-1.035,81.042l-56.564-9.853Z" fill="#189366"/>
  <path id="Path_36837" data-name="Path 36837" d="M283.1,71.586s20.365-7.268,28.956-11.179,25.657,23.366,26.037,8.96S332.57,48.92,332.57,48.92,331.1,17.405,299.347,21.345c0,0,6.984-15.767-15.941-18.205s-58.589,52.921-55.4,61.194,7.023,15.113-2.039,23.959-26.03,58.769-13.12,72.2,13.758,19.264,4.912,27.621-29.754,26.53-7.147,29.685-2.068.8,14.786-14.026,41.447-14.219,32.265-38,6.771-57.869,4.775-63.04,4.473-38,4.473-38,15.055-2.212,16.181,6.86Z" fill="url(#linear-gradient)"/>
  <g id="Group_14945" data-name="Group 14945">
    <circle id="Ellipse_698" data-name="Ellipse 698" cx="35.838" cy="35.838" r="35.838" transform="translate(415.353 39.661)" fill="#a0616a"/>
    <path id="Path_36838" data-name="Path 36838" d="M454.051,27.317c-1.037.605-2.426-.311-2.759-1.464a6,6,0,0,1,.439-3.516l1.934-5.727c1.371-4.062,2.827-8.266,5.8-11.357C463.945.586,471.069-.6,477.482.259c8.236,1.1,16.362,5.564,20.191,12.939s2.2,17.665-4.72,22.266c9.862,11.3,13.3,23.9,12.757,38.892s-16.879,28.787-27.533,39.348c-2.379-1.442-4.542-8.2-3.234-10.656s-.566-5.3,1.054-7.561,2.976,1.34,1.338-.909c-1.034-1.419,3-4.684,1.464-5.533-7.432-4.108-9.9-13.371-14.571-20.465a34.866,34.866,0,0,0-25.462-15.312c-5.617-.53-11.55.43-16.154,3.691s-7.585,9.089-6.517,14.629a12.992,12.992,0,0,1,2.7-20.335A21.223,21.223,0,0,1,423.3,31.247c4.8-5.294,24.28-4.392,31.291-3l-.542-.93Z" fill="url(#linear-gradient)"/>
    <path id="Path_36839" data-name="Path 36839" d="M455.14,53.475c9.285,1,15.989,9.045,21.65,16.473,3.263,4.281,6.681,9.009,6.6,14.391-.083,5.441-3.721,10.109-5.46,15.265a23.006,23.006,0,0,0,6.693,24.233c-6.685,1.269-13.911-3.744-15.065-10.449-1.343-7.806,4.574-15.34,3.873-23.23-.617-6.951-6.1-12.3-10.752-17.5s-9.03-12.094-6.888-18.735l-.65-.45Z" fill="url(#linear-gradient)"/>
  </g>
</svg>
