<svg xmlns="http://www.w3.org/2000/svg" width="31.603" height="67.492" data-name="Group 130"><defs><clipPath id="b"><path fill="url(#a)" d="M303.981 99.578a40.357 40.357 0 0 0-9.525 2.066 2.824 2.824 0 0 0-2.016 2.509c-.211 1.743-.381 3.486-.575 5.231q-.447 3.852-.86 7.706c-.2 1.832-.445 3.657-.57 5.493v.067a2.48 2.48 0 0 0 2.359 2.594h.007a2.55 2.55 0 0 0 2.753-2.329c.191-1.653.365-3.305.55-4.958.442-3.764.856-7.534 1.268-11.3.042-.378.072-.672.517-.652s.207.422.207.624c0 5.05-.03 10.1 0 15.15.017 2.66-.32 5.3-.5 7.946-.212 3.083-.49 6.166-.743 9.249l-.6 7.344c-.05.632-.109 1.268-.162 1.9-.181 2.128.315 2.976 2.344 4.013l1.482-.017a2.85 2.85 0 0 0 2.39-2.156 10.059 10.059 0 0 0 .3-2.344c.166-2.471.388-4.925.579-7.405.239-3.106.507-6.2.751-9.307.1-1.2.2-2.4.283-3.6.023-.381.1-.711.622-.6a2.306 2.306 0 0 0 1.047 0c.425-.094.524.109.557.488q.477 5.505.888 11.01c.273 3.536.587 7.074.826 10.615a3.178 3.178 0 0 0 2.683 3.305h1.316a3.2 3.2 0 0 0 2.417-3.128c0-.59-.057-1.183-.105-1.773q-.369-4.5-.733-9.05c-.189-2.492-.433-5-.6-7.476-.2-3-.59-5.98-.59-8.993v-15.809c.9-.062.733.619.785 1.079.256 2.176.477 4.356.716 6.537.331 2.957.694 5.918 1 8.881a2.638 2.638 0 0 0 2.066 2.681c.236.075.313.144.313.383.047.877.055.877-.85.877h-.79a1.133 1.133 0 0 0-1.24 1.281v15.15c0 .821.388 1.268 1.191 1.268q2.569.05 5.139 0a1.062 1.062 0 0 0 1.154-1.211v-15.29a1.091 1.091 0 0 0 .007-.181 1.061 1.061 0 0 0-1.111-1.012c-.438-.022-.88 0-1.318 0-.14 0-.271.115-.413-.112a3.188 3.188 0 0 1 .231-1.81 2.552 2.552 0 0 0 .784-2.263c-.147-1.427-.288-2.882-.45-4.319q-.768-6.863-1.544-13.72a2.777 2.777 0 0 0-1.43-2.29 10.307 10.307 0 0 0-2.034-.714 36.11 36.11 0 0 0-8.019-1.6c-.194-.017-.386-.092-.51.152a3.15 3.15 0 0 0-.508 1.914q.808 5.894 1.547 11.793a1.7 1.7 0 0 1-.045 1.211c-.637 1.042-1.224 2.116-1.877 3.257-.682-1.189-1.343-2.318-1.972-3.463a1.021 1.021 0 0 1-.02-.584c.508-3.909 1.009-7.817 1.546-11.728a3.1 3.1 0 0 0-.388-2.307.487.487 0 0 0-.442-.278.382.382 0 0 0-.075.007" data-name="Path 1127" transform="translate(-290.428 -99.571)"/></clipPath><clipPath id="c"><path fill="url(#a)" d="M300.444 90.894a6.529 6.529 0 0 0-5.005 6.357 8.865 8.865 0 0 0 2.947 6.313 5.151 5.151 0 0 0 7.094 0 8.1 8.1 0 0 0 1.736-2.128c1.3-2.4 1.74-4.839.376-7.36a6.593 6.593 0 0 0-5.686-3.372 5.633 5.633 0 0 0-1.464.191" data-name="Path 1128" transform="translate(-295.439 -90.703)"/></clipPath><linearGradient id="a" x1=".5" x2=".5" y2="1" gradientUnits="objectBoundingBox"><stop offset="0" stop-color="#fff"/><stop offset="1" stop-color="#bbb"/></linearGradient></defs><g clip-path="url(#b)" data-name="Group 311" transform="translate(0 14.834)"><path fill="url(#a)" d="M0 0h31.667v52.718H0z" data-name="Rectangle 169" transform="translate(-.062 -.06)"/></g><g clip-path="url(#c)" data-name="Group 313" transform="translate(8.381)"><path fill="url(#a)" d="M0 0h13.563v14.751H0z" data-name="Rectangle 170" transform="translate(-.045)"/></g></svg>