<svg xmlns="http://www.w3.org/2000/svg" xmlns:xlink="http://www.w3.org/1999/xlink" id="staff" width="564.81" height="449.941" viewBox="0 0 564.81 449.941"><defs><linearGradient id="linear-gradient" x1=".5" x2=".5" y2="1" gradientUnits="objectBoundingBox"><stop offset="0" stop-color="#202020"/><stop offset="1" stop-color="#2e2e2e"/></linearGradient><linearGradient id="linear-gradient-4" x1=".5" x2=".5" y2="1" gradientUnits="objectBoundingBox"><stop offset="0" stop-color="#1db27b"/><stop offset="1" stop-color="#0f593e"/></linearGradient></defs><g id="Group_14948" data-name="Group 14948"><g id="Group_14946" data-name="Group 14946"><path id="Path_36889" fill="#ffb6b6" d="M496.138,436.616H484.4l-5.586-45.29h17.33Z" data-name="Path 36889"/><path id="Path_36890" fill="url(#linear-gradient)" d="M496.551,448.865H460.444v-.457A14.055,14.055,0,0,1,474.5,434.353h0l6.6-5,12.306,5h3.152v14.511Z" data-name="Path 36890"/></g><g id="Group_14947" data-name="Group 14947"><path id="Path_36891" fill="#ffb6b6" d="M444.083,436.616H432.341l-5.585-45.29h17.329Z" data-name="Path 36891"/><path id="Path_36892" fill="url(#linear-gradient)" d="M444.5,448.865H408.389v-.457a14.055,14.055,0,0,1,14.054-14.054h0l6.6-5,12.306,5H444.5v14.511Z" data-name="Path 36892"/></g><path id="Path_36893" fill="url(#linear-gradient)" d="M438.488,183.865l67.743,1.426s12.179,19.966,2.88,48.133l1.042,7.844-4.278,12.122-2.139,37.08,2.139,5.7-1.426,10.7s5.7,70.595-8.557,106.249l-17.114-.713-6.418-93.023,3.565-6.808-.713-2.852-8.557-42.785L458.1,289.044v12.282l-7.844,9.11s2.852,84.143-4.992,101.257H426.1L418.878,297.6l7.131-66.316-1.426-4.278,2.139-2.139-1.426-7.131,13.192-33.871h0Z" data-name="Path 36893"/><path id="Path_36894" fill="url(#linear-gradient-4)" d="M467.367,53.728l20.679-4.992,5.7,13.549s29.515,15.688,30.941,37.08c0,0,4,17.114.435,24.958s-18.54,32.8-18.54,32.8,13.549,43.5,9.983,45.637-88.422-2.139-88.422-6.418,14.122-49.2,14.122-49.2l2.992-77.013L464.515,63l2.852-9.27h0Z" data-name="Path 36894"/><path id="Path_36895" fill="#ffb6b6" d="M522.5,229.263a8.724,8.724,0,0,1-3.132-13.005l-11.507-78.893,15.931.51,8.333,76.869a8.771,8.771,0,0,1-9.625,14.52h0Z" data-name="Path 36895"/><path id="Path_36896" fill="#ffb6b6" d="M371.338,192.028a8.724,8.724,0,0,1,6.412-11.74L422.2,114.1l11.462,11.076L388.22,187.733a8.771,8.771,0,0,1-16.882,4.3Z" data-name="Path 36896"/><path id="Path_36897" fill="url(#linear-gradient-4)" d="M493.468,117.466c-4.5-15.464,2.975-31.24,19.08-31.164,4.655.022,8.271,1.373,9.274,5.112,3.508,13.087,5.421,32.841,5.421,32.841l4.162,21.032-2.521,4.367,5.255,14.095-2.549,6.668-.551,34.052-12.836-.713L504.061,177.8l-5.408-3.216s4.342-41.972-4.295-54.057l-.89-3.058h0Z" data-name="Path 36897"/><path id="Path_36898" fill="url(#linear-gradient-4)" d="M435.975,79.41c7.505-14.25,26.72-17.625,38.251-6.381,3.333,3.25,5,6.734,3.119,10.119-6.568,11.85-21.793,24.609-21.793,24.609L436.8,137.9l-4.847,1.39-6.012,13.789-12.884,15.148-17.064,9-9.983-9.983,2.12-12.833,25.69-34.23s18.484-23.257,20.668-37.95l1.484-2.817h0Z" data-name="Path 36898"/><path id="Path_36899" fill="#ffb6b6" d="M471.3,49.56c.472.057.943.1,1.412.121a19.326,19.326,0,0,0,4.285-.238,20.227,20.227,0,1,0-23.249-22.917c-.025.168-.051.328-.069.5A20.235,20.235,0,0,0,471.3,49.56h0Z" data-name="Path 36899"/><path id="Path_36900" fill="url(#linear-gradient)" d="M449.187,25.783c2.871,1.42,7.562-3.044,9.358-.476.292-.555.614-1.092.933-1.6.288-.454.7-1.424,1.177-1.59a7.369,7.369,0,0,0,.156,5.118c2.832,1.058,6.539-1.284,9.16-4.055,4.116-4.344,10.836,6.8,9.247,12.56,2.022-2.469,6.411-1.077,7.9,1.747s-1.025,5.073-1.562,8.215l4.054-.515c2.558-2.491,2.379-6.689,4.485-9.576,3.518-4.832,4.881-9.762,2.237-14.749-2.346-4.409-2.565-10.116-6.869-12.658,1.881-.919-4.807.517-3.021-2.479s-7.769-3.353-8.393-1.751C475.314.7,472.558-1.451,469.2,1.169c-3.3,2.578-2.96,5.288-6.837,5.046-1.819-.113-1.62,3.28-2.7,4.759s-5.255,2.415-5.459,2.258c-1.1-.864-4.86,6.49-4.86,6.49s-3.046,4.623-.151,6.062h0Z" data-name="Path 36900"/></g><path id="Path_36901" fill="url(#linear-gradient-4)" d="M196.155,154.13a123,123,0,0,1,0,246c-67.931,0-161.945-67.351-123-123S128.224,154.13,196.155,154.13Z" data-name="Path 36901"/><path id="Path_36902" fill="#3f3d56" d="M360.782,159.982a2,2,0,0,0-2,2v64a2,2,0,1,0,4,0v-64A2,2,0,0,0,360.782,159.982Z" data-name="Path 36902"/><path id="Path_36903" fill="url(#linear-gradient)" d="M24.782,111.982a2,2,0,0,0-2,2v16a2,2,0,0,0,4,0v-16A2,2,0,0,0,24.782,111.982Z" data-name="Path 36903"/><path id="Path_36904" fill="url(#linear-gradient)" d="M24.782,159.982a2,2,0,0,0-2,2v31a2,2,0,0,0,4,0v-31A2,2,0,0,0,24.782,159.982Z" data-name="Path 36904"/><path id="Path_36905" fill="url(#linear-gradient)" d="M24.782,203.982a2,2,0,0,0-2,2v31a2,2,0,0,0,4,0v-31A2,2,0,0,0,24.782,203.982Z" data-name="Path 36905"/><path id="Path_36906" fill="url(#linear-gradient)" d="M204.155,48.982a2,2,0,0,0-2,2v31a2,2,0,0,0,4,0v-31a2,2,0,0,0-2-2Z" data-name="Path 36906"/><g id="Group_14949" data-name="Group 14949"><path id="Path_36907" fill="#b0eedb" d="M510.551,432.608a2.269,2.269,0,0,0,1.645-3.933l-.156-.618.062-.148a6.094,6.094,0,0,1,11.241.042c1.839,4.428,4.179,8.864,4.756,13.546a18.029,18.029,0,0,1-.316,6.2,72.282,72.282,0,0,0,6.575-30.021,69.774,69.774,0,0,0-.433-7.783q-.359-3.178-.995-6.31a73.119,73.119,0,0,0-14.5-30.99,19.459,19.459,0,0,1-8.093-8.4,14.843,14.843,0,0,1-1.35-4.056c.394.052,1.486-5.949,1.188-6.317.549-.833,1.532-1.247,2.131-2.06,2.982-4.043,7.091-3.337,9.236,2.157,4.582,2.313,4.627,6.148,1.815,9.837-1.789,2.347-2.035,5.522-3.6,8.035.161.207.329.407.491.614a73.588,73.588,0,0,1,7.681,12.169,30.592,30.592,0,0,1,1.826-14.21c1.748-4.217,5.025-7.769,7.91-11.415a6.279,6.279,0,0,1,11.184,3.083q.009.081.017.161-.643.363-1.259.77a3.078,3.078,0,0,0,1.241,5.6l.063.01a30.634,30.634,0,0,1-.807,4.579c3.7,14.316-4.29,19.53-15.7,19.764-.252.129-.5.258-.749.381a75.116,75.116,0,0,1,4.043,19.028,71.236,71.236,0,0,1-.052,11.5l.019-.136a18.826,18.826,0,0,1,6.427-10.87c4.946-4.063,11.933-5.559,17.268-8.824a3.533,3.533,0,0,1,5.411,3.437l-.022.143a20.674,20.674,0,0,0-2.319,1.117q-.643.363-1.259.77a3.078,3.078,0,0,0,1.241,5.6l.063.01.129.019a30.653,30.653,0,0,1-5.639,8.829c-2.315,12.5-12.256,13.683-22.89,10.043h-.006a75.093,75.093,0,0,1-5.044,14.726H511c-.065-.2-.123-.407-.181-.607a20.473,20.473,0,0,0,4.986-.3c-1.337-1.641-2.674-3.294-4.011-4.935a1.121,1.121,0,0,1-.084-.1c-.678-.84-1.363-1.673-2.041-2.512h0a29.99,29.99,0,0,1,.879-7.64h0Z" data-name="Path 36907"/><path id="Path_36908" fill="#ccc" d="M0,448.751a1.186,1.186,0,0,0,1.19,1.19H563.48a1.19,1.19,0,0,0,0-2.38H1.19A1.187,1.187,0,0,0,0,448.751Z" data-name="Path 36908"/></g><path id="Path_36909" fill="url(#linear-gradient)" d="M142.376,268.839H73.155v-2h69.221a10.918,10.918,0,0,0,10.905-10.906v-46.8h2v46.8a12.92,12.92,0,0,1-12.905,12.906h0Z" data-name="Path 36909"/><rect id="Rectangle_13791" width="157.436" height="2" fill="url(#linear-gradient)" data-name="Rectangle 13791" transform="translate(117.019 370.294)"/><g id="Group_14951" data-name="Group 14951"><path id="Path_36911" fill="url(#linear-gradient)" d="M305.912,158.392a21.438,21.438,0,0,0-21.438,21.438v65.643a7.54,7.54,0,0,0,7.54,7.54h51.42a36.687,36.687,0,0,0,36.687-36.687V165.932a7.54,7.54,0,0,0-7.54-7.54H305.912Z" data-name="Path 36911"/><g id="Group_14950" data-name="Group 14950"><path id="Path_36912" fill="#e6e6e6" d="M354.819,182.532H309.6a1.565,1.565,0,1,1,0-3.129h45.221a1.565,1.565,0,0,1,0,3.129Z" data-name="Path 36912"/><path id="Path_36913" fill="#e6e6e6" d="M354.819,215.9H309.6a1.565,1.565,0,1,1,0-3.129h45.221a1.565,1.565,0,0,1,0,3.129Z" data-name="Path 36913"/><path id="Path_36914" fill="#e6e6e6" d="M373.182,199.224H291.235a1.565,1.565,0,1,1,0-3.129h81.947a1.565,1.565,0,0,1,0,3.129Z" data-name="Path 36914"/></g><path id="Path_36915" fill="#e6e6e6" d="M374.019,229.461h-29.6a1.565,1.565,0,1,1,0-3.129h29.6a1.565,1.565,0,0,1,0,3.129Z" data-name="Path 36915"/></g><g id="Group_14953" data-name="Group 14953"><path id="Path_36916" fill="url(#linear-gradient)" d="M197.711,420.97H130.936a6.542,6.542,0,0,1-6.535-6.535v-65.96a6.542,6.542,0,0,1,6.535-6.535h66.775a6.542,6.542,0,0,1,6.535,6.535v65.96a6.542,6.542,0,0,1-6.535,6.535h0Z" data-name="Path 36916"/><path id="Path_36917" fill="#fff" d="M143.372,343.887a17.024,17.024,0,0,0-17.024,17.024v52.125a5.987,5.987,0,0,0,5.987,5.987h40.831A29.132,29.132,0,0,0,202.3,389.891V349.875a5.987,5.987,0,0,0-5.987-5.987H143.372Z" data-name="Path 36917"/><g id="Group_14952" data-name="Group 14952"><path id="Path_36918" fill="url(#linear-gradient-4)" d="M182.208,363.055H146.3a1.242,1.242,0,1,1,0-2.485h35.908a1.242,1.242,0,0,1,0,2.485Z" data-name="Path 36918"/><path id="Path_36919" fill="url(#linear-gradient-4)" d="M182.208,389.548H146.3a1.242,1.242,0,1,1,0-2.485h35.908a1.242,1.242,0,0,1,0,2.485Z" data-name="Path 36919"/><path id="Path_36920" fill="url(#linear-gradient-4)" d="M196.79,376.311H131.719a1.242,1.242,0,1,1,0-2.485H196.79a1.242,1.242,0,0,1,0,2.485Z" data-name="Path 36920"/></g><path id="Path_36921" fill="url(#linear-gradient-4)" d="M197.454,400.32H173.947a1.242,1.242,0,1,1,0-2.485h23.507a1.242,1.242,0,0,1,0,2.485Z" data-name="Path 36921"/></g><g id="Group_14955" data-name="Group 14955"><path id="Path_36922" fill="url(#linear-gradient)" d="M151.04,208.626H101.657a4.838,4.838,0,0,1-4.833-4.833v-48.78a4.838,4.838,0,0,1,4.833-4.833H151.04a4.838,4.838,0,0,1,4.833,4.833v48.78a4.838,4.838,0,0,1-4.833,4.833h0Z" data-name="Path 36922"/><path id="Path_36923" fill="#fff" d="M110.854,151.619a12.59,12.59,0,0,0-12.59,12.59v38.549a4.428,4.428,0,0,0,4.428,4.428h30.2a21.545,21.545,0,0,0,21.544-21.544V156.047A4.428,4.428,0,0,0,150,151.619H110.854Z" data-name="Path 36923"/><g id="Group_14954" data-name="Group 14954"><path id="Path_36924" fill="url(#linear-gradient-4)" d="M139.575,165.795H113.019a.919.919,0,1,1,0-1.838h26.556a.919.919,0,0,1,0,1.838Z" data-name="Path 36924"/><path id="Path_36925" fill="url(#linear-gradient-4)" d="M139.575,185.388H113.019a.919.919,0,1,1,0-1.838h26.556a.919.919,0,0,1,0,1.838Z" data-name="Path 36925"/><path id="Path_36926" fill="url(#linear-gradient-4)" d="M150.358,175.6H102.235a.919.919,0,1,1,0-1.838h48.123a.919.919,0,0,1,0,1.838Z" data-name="Path 36926"/></g><path id="Path_36927" fill="url(#linear-gradient-4)" d="M150.85,193.354H133.465a.919.919,0,1,1,0-1.838H150.85a.919.919,0,0,1,0,1.838Z" data-name="Path 36927"/></g><circle id="Ellipse_703" cx="10" cy="10" r="10" fill="#b0eedb" data-name="Ellipse 703" transform="translate(285.155 250.13)"/><circle id="Ellipse_704" cx="10" cy="10" r="10" fill="url(#linear-gradient)" data-name="Ellipse 704" transform="translate(144.155 199.13)"/><circle id="Ellipse_705" cx="10" cy="10" r="10" fill="url(#linear-gradient)" data-name="Ellipse 705" transform="translate(192.155 336.13)"/><g id="Group_14956" data-name="Group 14956"><ellipse id="Ellipse_706" cx="12.463" cy="12.201" fill="#b0eedb" data-name="Ellipse 706" rx="12.463" ry="12.201" transform="translate(211.293 54.451)"/><path id="Path_36928" fill="#b0eedb" d="M323.669,62.478H256.584a4.174,4.174,0,1,1,0-8.348h67.085a4.174,4.174,0,1,1,0,8.348Z" data-name="Path 36928"/><path id="Path_36929" fill="#b0eedb" d="M376.023,76.605H256.585a4.174,4.174,0,1,1,0-8.348H376.023a4.174,4.174,0,1,1,0,8.348Z" data-name="Path 36929"/></g><g id="Group_14957" data-name="Group 14957"><ellipse id="Ellipse_707" cx="8.066" cy="7.896" fill="#b0eedb" data-name="Ellipse 707" rx="8.066" ry="7.896" transform="translate(35.293 114.338)"/><path id="Path_36930" fill="#b0eedb" d="M108.021,119.533H64.6a2.7,2.7,0,0,1,0-5.4h43.416a2.7,2.7,0,0,1,0,5.4Z" data-name="Path 36930"/><path id="Path_36931" fill="#b0eedb" d="M141.9,128.676H64.6a2.7,2.7,0,0,1,0-5.4h77.3a2.7,2.7,0,0,1,0,5.4Z" data-name="Path 36931"/></g><g id="Group_14958" data-name="Group 14958"><ellipse id="Ellipse_708" cx="8.066" cy="7.896" fill="#b0eedb" data-name="Ellipse 708" rx="8.066" ry="7.896" transform="translate(277.293 395.338)"/><path id="Path_36932" fill="#b0eedb" d="M350.021,400.533H306.6a2.7,2.7,0,0,1,0-5.4h43.416a2.7,2.7,0,0,1,0,5.4Z" data-name="Path 36932"/><path id="Path_36933" fill="#b0eedb" d="M383.9,409.676h-77.3a2.7,2.7,0,1,1,0-5.4h77.3a2.7,2.7,0,0,1,0,5.4Z" data-name="Path 36933"/></g><rect id="Rectangle_13792" width="2" height="95" fill="#b0eedb" data-name="Rectangle 13792" transform="translate(186.405 155.97)"/><circle id="Ellipse_709" cx="6" cy="6" r="6" fill="#b0eedb" data-name="Ellipse 709" transform="translate(181.405 244.97)"/><circle id="Ellipse_710" cx="6" cy="6" r="6" fill="#b0eedb" data-name="Ellipse 710" transform="translate(272.405 313.97)"/><circle id="Ellipse_711" cx="6" cy="6" r="6" fill="#b0eedb" data-name="Ellipse 711" transform="translate(110.405 231.97)"/><rect id="Rectangle_13793" width="32.828" height="2.001" fill="#b0eedb" data-name="Rectangle 13793" transform="matrix(1, -0.03, 0.03, 1, 81.375, 238.973)"/><path id="Path_36934" fill="#b0eedb" d="M327.216,342.94H277.46V319.97h2v20.97h47.756Z" data-name="Path 36934"/><circle id="Ellipse_712" cx="6" cy="6" r="6" fill="#b0eedb" data-name="Ellipse 712" transform="translate(107.942 297.486)"/><path id="Path_36935" fill="#b0eedb" d="M162.161,326.455H112.4V303.486h2v20.969h47.756Z" data-name="Path 36935"/><rect id="Rectangle_13794" width="238.982" height="2" fill="#b0eedb" data-name="Rectangle 13794" transform="translate(75.423 280.655)"/></svg>