<svg xmlns="http://www.w3.org/2000/svg" xmlns:xlink="http://www.w3.org/1999/xlink" width="829.131" height="587.665" viewBox="0 0 829.131 587.665"><defs><linearGradient id="linear-gradient" x1=".5" x2=".5" y2="1" gradientUnits="objectBoundingBox"><stop offset="0" stop-color="#202020"/><stop offset="1" stop-color="#2e2e2e"/></linearGradient><linearGradient id="linear-gradient-4" x1=".5" x2=".5" y2="1" gradientUnits="objectBoundingBox"><stop offset="0" stop-color="#1db27b"/><stop offset="1" stop-color="#0f593e"/></linearGradient></defs><g id="startup" transform="translate(-0.005 -0.011)"><path id="Path_36936" fill="#ffb6b6" d="M85.757,572.858H99.518l6.547-53.082H85.754Z" data-name="Path 36936"/><path id="Path_36937" fill="url(#linear-gradient)" d="M270.706,743.376l42.319,0v-.535a16.473,16.473,0,0,0-16.471-16.472h0l-7.73-5.865L274.4,726.368h-3.694Z" data-name="Path 36937" transform="translate(-185.434 -156.162)"/><path id="Path_36938" fill="#ffb6b6" d="M107.98,508.635l10.834,8.486,37.888-37.75-15.99-12.525Z" data-name="Path 36938"/><path id="Path_36939" fill="url(#linear-gradient)" d="M284.179,675.8l33.315,26.1.33-.421a16.473,16.473,0,0,0-2.809-23.124h0l-2.469-9.384-14.971-4.276-2.908-2.278Z" data-name="Path 36939" transform="translate(-185.434 -156.162)"/><path id="Path_36940" fill="url(#linear-gradient)" d="M358.2,422.937s18.265,18.941,10.147,62.912l6.815,75.288,1.759,3.485a11.051,11.051,0,0,1-2.052,12.793h0l-1.449,4.493-1.353,8.794-50.4,75.765L302.4,646.172l31.118-71.029-8.456-18.265L305.44,493.29,291.911,609.642l2.706,100.118H268.722L252.676,598.142,235.764,441.2l8.8-18.265Z" data-name="Path 36940" transform="translate(-185.434 -156.162)"/><path id="Path_36941" fill="url(#linear-gradient-4)" d="M239.981,455.482l-.185-.259c-9.856-13.8,4.968-46.958,7.2-51.765h0a12.068,12.068,0,0,1-8.26-12.889l.964-8.193,1-8.036-7.2-7.2-.02-.18-4.142-36.242-6.022-24.072a52.848,52.848,0,0,1,15-51.216l13.921-2.21,16.918-16.3h27.282l9.354,8.937c17.462,3.063,20.462,2.063,35.462,20.063l-6.816,55.962-1.7,7.7.005,10.442,4.323,4.8a14.95,14.95,0,0,1,3.546,12.932l-.569,2.842h0c4.458,1.911,8.713,35.866,9.729,40.608L351.3,408.3c1.3,1.714,9.873,13.146,9.873,16.271,0,.469-.346.923-1.09,1.426-5.843,3.956-29.138,32.022-43.431,26.3-15.225-6.088-75.747,3.045-76.357,3.138Z" data-name="Path 36941" transform="translate(-185.434 -156.162)"/><path id="Path_36942" fill="#ffb6b6" d="M236.316,390.407s7.006-39.595-.052-54.485l-28,2,4.261,56.487L237,457.126a11.154,11.154,0,1,0,18.078-6.463Z" data-name="Path 36942" transform="translate(-185.434 -156.162)"/><path id="Path_36943" fill="url(#linear-gradient-4)" d="M208.264,314.922,210,296.051A54.107,54.107,0,0,1,229.4,259.3h0a23.687,23.687,0,0,1,24.788-3.272h0a23.631,23.631,0,0,1,12.2,29.866c-6.472,16.973-4.135,34.921-16.753,37.109l1.371,6.522L238.6,370.016l-35.338-4.094Z" data-name="Path 36943" transform="translate(-185.434 -156.162)"/><path id="Path_36944" fill="#ffb6b6" d="M394.641,371.641s-20.509-34.586-35.571-41.272l-19.923,19.776,40.067,40.044,59.456,31.584a11.154,11.154,0,1,0,9.491-16.689Z" data-name="Path 36944" transform="translate(-185.434 -156.162)"/><path id="Path_36945" fill="url(#linear-gradient-4)" d="M324.148,332.708l-10.993-15.436a54.107,54.107,0,0,1-9.258-40.515h0a23.687,23.687,0,0,1,16.658-18.645h0a23.631,23.631,0,0,1,28.729,14.683c6.162,17.087,28.639,45.171,20.5,55.059l5.293,4.051,8,22.787-29.46,19.941Z" data-name="Path 36945" transform="translate(-185.434 -156.162)"/><circle id="Ellipse_713" cx="30.299" cy="30.299" r="30.299" fill="#ffb6b6" data-name="Ellipse 713" transform="translate(65.232 12.288)"/><path id="Path_36946" fill="#2f2e41" d="M258.977,220.1c-.264-.232-.514-.48-.773-.718-.009.024-.011.05-.021.074Z" data-name="Path 36946" transform="translate(-185.434 -156.162)"/><path id="Path_36947" fill="#2f2e41" d="M305.8,166.753a17.182,17.182,0,0,0-6.067-5.85,25.38,25.38,0,0,0-5.3-1.879l-4.8-1.308a38.011,38.011,0,0,0-7.544-1.519,19.419,19.419,0,0,0-17.737,9.623c-1.449,2.57-2.611,5.772-5.407,6.712-2.254.758-4.714-.311-7.084-.1a8.53,8.53,0,0,0-6.476,4.77,18.38,18.38,0,0,0-1.7,8.141A45.619,45.619,0,0,0,258.2,219.387c.782-2.061-.506-4.287-1.524-6.259-1.03-2-1.667-4.777.059-6.214,1.92-1.6,5-.048,7.267-1.091a5.073,5.073,0,0,0,2.536-4.077c.22-1.657-.01-3.341.094-5.009a12.542,12.542,0,0,1,13.412-11.73c5.168.369,10.184,3.9,15.158,2.448,2.335-.682,4.326-2.418,6.741-2.711,2.674-.324,5.19,1.186,7.461,2.635a26.6,26.6,0,0,0-3.612-20.627Z" data-name="Path 36947" transform="translate(-185.434 -156.162)"/><path id="Path_36948" fill="#b0eedb" d="M410.834,726.353l-7.71-12.39-1.54,7.08c-.27,1.24-.54,2.5-.79,3.75-2.19-1.87-4.52-3.6-6.8-5.26q-10.5-7.62-20.99-15.26l2.19,12.7c1.35,7.82,2.76,15.8,6.1,22.95.37.81.77,1.61,1.2,2.39h32.54a10.491,10.491,0,0,0,.54-2.24.774.774,0,0,0,.01-.15C416.094,735.073,413.414,730.5,410.834,726.353Z" data-name="Path 36948" transform="translate(-185.434 -156.162)"/><path id="Path_36949" fill="#b0eedb" d="M974.917,712.972,960.932,690.5l-2.793,12.842c-.49,2.249-.98,4.535-1.433,6.8-3.972-3.392-8.2-6.53-12.334-9.541q-19.046-13.822-38.074-27.68l3.972,23.036c2.449,14.185,5.007,28.659,11.065,41.628.671,1.469,1.4,2.921,2.177,4.335h59.024a19.025,19.025,0,0,0,.98-4.063,1.4,1.4,0,0,0,.018-.272C984.458,728.789,979.6,720.5,974.917,712.972Z" data-name="Path 36949" transform="translate(-185.434 -156.162)"/><path id="Path_36950" fill="#cacaca" d="M1013.38,743.531l-826.75.307a1.191,1.191,0,1,1,0-2.381l826.75-.307a1.191,1.191,0,1,1,0,2.381Z" data-name="Path 36950" transform="translate(-185.434 -156.162)"/><path id="Path_36951" fill="url(#linear-gradient)" d="M444.832,394.459V681.483a13.806,13.806,0,0,0,13.8,13.8h425.34a13.806,13.806,0,0,0,13.795-13.795V394.459a13.812,13.812,0,0,0-13.795-13.779H458.627a13.812,13.812,0,0,0-13.8,13.779Z" data-name="Path 36951" transform="translate(-185.434 -156.162)"/><path id="Path_36952" fill="#fff" d="M454.81,398.031V677.943a7.385,7.385,0,0,0,7.373,7.373H880.426a7.385,7.385,0,0,0,7.373-7.373V398.031a7.388,7.388,0,0,0-7.372-7.388H462.183a7.389,7.389,0,0,0-7.373,7.388Z" data-name="Path 36952" transform="translate(-185.434 -156.162)"/><path id="Path_36953" fill="url(#linear-gradient)" d="M435.937,737.461a8.272,8.272,0,0,0,6.509,3.114H897.885a8.381,8.381,0,0,0,8.192-10.1l-7.07-33.581a8.4,8.4,0,0,0-5.218-6.088,8.123,8.123,0,0,0-2.974-.561H449.487a8.12,8.12,0,0,0-2.974.561,8.4,8.4,0,0,0-5.218,6.088l-7.07,33.581a8.374,8.374,0,0,0,1.712,6.986Z" data-name="Path 36953" transform="translate(-185.434 -156.162)"/><rect id="Rectangle_13795" width="14.027" height="8.416" fill="#b0eedb" data-name="Rectangle 13795" rx=".488" transform="translate(702.145 548.547) rotate(180)"/><rect id="Rectangle_13796" width="14.027" height="8.416" fill="#b0eedb" data-name="Rectangle 13796" rx=".488" transform="translate(674.091 548.547) rotate(180)"/><rect id="Rectangle_13797" width="14.027" height="8.416" fill="#b0eedb" data-name="Rectangle 13797" rx=".488" transform="translate(646.037 548.547) rotate(180)"/><rect id="Rectangle_13798" width="14.027" height="8.416" fill="#b0eedb" data-name="Rectangle 13798" rx=".488" transform="translate(617.981 548.547) rotate(180)"/><rect id="Rectangle_13799" width="14.027" height="8.416" fill="#b0eedb" data-name="Rectangle 13799" rx=".488" transform="translate(589.927 548.547) rotate(180)"/><rect id="Rectangle_13800" width="14.027" height="8.416" fill="#b0eedb" data-name="Rectangle 13800" rx=".488" transform="translate(561.873 548.547) rotate(180)"/><rect id="Rectangle_13801" width="14.027" height="8.416" fill="#b0eedb" data-name="Rectangle 13801" rx=".488" transform="translate(533.818 548.547) rotate(180)"/><rect id="Rectangle_13802" width="14.027" height="8.416" fill="#b0eedb" data-name="Rectangle 13802" rx=".488" transform="translate(505.763 548.547) rotate(180)"/><rect id="Rectangle_13803" width="14.027" height="8.416" fill="#b0eedb" data-name="Rectangle 13803" rx=".488" transform="translate(477.709 548.547) rotate(180)"/><rect id="Rectangle_13804" width="14.027" height="8.416" fill="#b0eedb" data-name="Rectangle 13804" rx=".488" transform="translate(449.654 548.547) rotate(180)"/><rect id="Rectangle_13805" width="14.027" height="8.416" fill="#b0eedb" data-name="Rectangle 13805" rx=".488" transform="translate(421.599 548.547) rotate(180)"/><rect id="Rectangle_13806" width="14.027" height="8.416" fill="#b0eedb" data-name="Rectangle 13806" rx=".488" transform="translate(393.544 548.547) rotate(180)"/><rect id="Rectangle_13807" width="14.027" height="8.416" fill="#b0eedb" data-name="Rectangle 13807" rx=".488" transform="translate(365.49 548.547) rotate(180)"/><rect id="Rectangle_13808" width="14.027" height="8.416" fill="#b0eedb" data-name="Rectangle 13808" rx=".488" transform="translate(337.436 548.547) rotate(180)"/><rect id="Rectangle_13809" width="14.027" height="8.416" fill="#b0eedb" data-name="Rectangle 13809" rx=".488" transform="translate(309.38 548.547) rotate(180)"/><rect id="Rectangle_13810" width="14.027" height="8.416" fill="#b0eedb" data-name="Rectangle 13810" rx=".488" transform="translate(281.326 548.547) rotate(180)"/><rect id="Rectangle_13811" width="14.027" height="8.416" fill="#b0eedb" data-name="Rectangle 13811" rx=".488" transform="translate(702.477 562.574) rotate(180)"/><rect id="Rectangle_13812" width="14.027" height="8.416" fill="#b0eedb" data-name="Rectangle 13812" rx=".488" transform="translate(674.423 562.574) rotate(180)"/><rect id="Rectangle_13813" width="14.027" height="8.416" fill="#b0eedb" data-name="Rectangle 13813" rx=".488" transform="translate(646.368 562.574) rotate(180)"/><rect id="Rectangle_13814" width="14.027" height="8.416" fill="#b0eedb" data-name="Rectangle 13814" rx=".488" transform="translate(618.313 562.574) rotate(180)"/><rect id="Rectangle_13815" width="14.027" height="8.416" fill="#b0eedb" data-name="Rectangle 13815" rx=".488" transform="translate(590.258 562.574) rotate(180)"/><rect id="Rectangle_13816" width="14.027" height="8.416" fill="#b0eedb" data-name="Rectangle 13816" rx=".488" transform="translate(562.204 562.574) rotate(180)"/><rect id="Rectangle_13817" width="14.027" height="8.416" fill="#b0eedb" data-name="Rectangle 13817" rx=".488" transform="translate(534.15 562.574) rotate(180)"/><rect id="Rectangle_13818" width="14.027" height="8.416" fill="#b0eedb" data-name="Rectangle 13818" rx=".488" transform="translate(506.094 562.574) rotate(180)"/><rect id="Rectangle_13819" width="14.027" height="8.416" fill="#b0eedb" data-name="Rectangle 13819" rx=".488" transform="translate(478.04 562.574) rotate(180)"/><rect id="Rectangle_13820" width="14.027" height="8.416" fill="#b0eedb" data-name="Rectangle 13820" rx=".488" transform="translate(449.986 562.574) rotate(180)"/><rect id="Rectangle_13821" width="14.027" height="8.416" fill="#b0eedb" data-name="Rectangle 13821" rx=".488" transform="translate(421.93 562.574) rotate(180)"/><rect id="Rectangle_13822" width="14.027" height="8.416" fill="#b0eedb" data-name="Rectangle 13822" rx=".488" transform="translate(393.876 562.574) rotate(180)"/><rect id="Rectangle_13823" width="14.027" height="8.416" fill="#b0eedb" data-name="Rectangle 13823" rx=".488" transform="translate(365.822 562.574) rotate(180)"/><rect id="Rectangle_13824" width="14.027" height="8.416" fill="#b0eedb" data-name="Rectangle 13824" rx=".488" transform="translate(337.767 562.574) rotate(180)"/><rect id="Rectangle_13825" width="14.027" height="8.416" fill="#b0eedb" data-name="Rectangle 13825" rx=".488" transform="translate(309.712 562.574) rotate(180)"/><rect id="Rectangle_13826" width="14.027" height="8.416" fill="#b0eedb" data-name="Rectangle 13826" rx=".488" transform="translate(281.657 562.574) rotate(180)"/><rect id="Rectangle_13827" width="112.219" height="8.416" fill="#b0eedb" data-name="Rectangle 13827" rx=".488" transform="translate(536.814 579.407) rotate(180)"/><path id="Path_36954" fill="url(#linear-gradient)" d="M766.585,560.2a94.642,94.642,0,1,1-5.992-33.327c.206.556.408,1.111.6,1.673v.005q1.31,3.7,2.308,7.538a95.288,95.288,0,0,1,3.081,24.111Z" data-name="Path 36954" transform="translate(-185.434 -156.162)"/><path id="Path_36955" fill="#189366" d="M660.88,495.918a31.968,31.968,0,0,0-28.065-1.148c-3.924,1.708-8.056,4.771-9.365,10.3,5.294-3.125,12.148,1.812,13.51,9.732l-.318.088c-.72,5.485.887,11.457,4,14.859a10.451,10.451,0,0,1,5.016-7.44c2.285-1.5,4.813-2.593,6.557-5.175,2.068-3.061,2.593-7.534,3.414-11.615S658.005,497.055,660.88,495.918Z" data-name="Path 36955" transform="translate(-185.434 -156.162)"/><path id="Path_36956" fill="#189366" d="M631.245,542.6c-1.466,2.2-3.425,3.584-5.182,5.3a11.93,11.93,0,0,0-3.769,7.045c-.222,1.916.122,3.864.074,5.8s-.693,4.118-2.011,4.6c-2.08.752-3.668-3.112-5.807-3.382-1.7-.212-3.229,2.461-2.737,4.78s2.805,3.345,4.134,1.831c1.2,2.017.355,5.674-1.45,6.294-.191,1.27-.381,2.536-.566,3.806-4.563-3.192-9.173-6.437-13.053-11.111a33.725,33.725,0,0,1-7.686-18.167c-.5-5.373.243-11.518-2.223-15.652-1.974-3.308-5.362-4.039-8.411-3.832-.556.037-1.117.1-1.673.169a94.241,94.241,0,0,1,6.823-15.615,6.683,6.683,0,0,0,1.71-1.064c2.837-2.408,4.1-7.284,6.4-10.655q.222-.326.461-.635c2.356-3.075,5.51-4.658,8.559-6.13,6.749-3.277,13.694-6.6,20.819-6.14l-2.027.2q-3.549,9.941-7.1,19.882-.54,1.524-1.09,3.054c-1.345,3.769-2.731,7.781-2.525,12,.122,2.5.99,5.166,2.641,6.024,1.54.794,3.224-.18,4.711-1.143.63-.4,1.255-.8,1.884-1.212,2.26-1.456,4.764-2.948,7.151-1.974,2.186.889,3.8,3.859,4.108,7.061A14.117,14.117,0,0,1,631.245,542.6Z" data-name="Path 36956" transform="translate(-185.434 -156.162)"/><path id="Path_36957" fill="#189366" d="M644.688,587.842l-19.8-12.193.112-.289c-4.1,1.563-5.808,8.859-5.13,14.825s2.978,11.3,4.14,17.114a45.425,45.425,0,0,1-1.713,23.835,195.209,195.209,0,0,0,22.93-31.6,16.907,16.907,0,0,0,2.074-4.6,7.316,7.316,0,0,0-.485-5.2A5.793,5.793,0,0,0,644.688,587.842Z" data-name="Path 36957" transform="translate(-185.434 -156.162)"/><path id="Path_36958" fill="#189366" d="M618.634,513.9a7.3,7.3,0,0,0-.335,5.308,5.884,5.884,0,0,0,3.287,3.045l3.647,1.808c1.213.6,2.521,1.209,3.758.714,1.492-.6,2.526-2.936,2.259-5.107-.285-2.311-1.741-3.9-3.089-5.254l-5.656-5.683-1.062,1.3A14.19,14.19,0,0,0,618.634,513.9Z" data-name="Path 36958" transform="translate(-185.434 -156.162)"/><path id="Path_36959" fill="#189366" d="M747.031,538.6l4.923,1.159c-.286,5.542-3.033,10.671-6.717,12.529-1.535.773-3.245,1.059-4.515,2.5-1.149,1.313-1.731,3.356-2.266,5.309l-2.811,10.227c-1.006,3.674-2.3,7.755-4.912,9.078-2.244,1.138-4.812-.254-6.537-2.589s-2.779-5.473-3.8-8.533c.064,3.335-1.487,6.606-3.684,7.765s-4.88.111-6.352-2.477c-1.059-1.858-1.5-4.309-2.536-6.193s-3.213-2.964-4.346-1.2c-.746,1.175-.651,2.975-1.022,4.468a4.851,4.851,0,0,1-4.055,3.9,6.761,6.761,0,0,1-4.854-2.218,21.988,21.988,0,0,1-6.029-12.159,14.5,14.5,0,0,1,.169-6.649c.651-2.059,2.223-3.647,3.785-3.255,1.027-2.17-1-5.05-2.827-4.8s-3.266,2.218-4.769,3.727-3.594,2.6-5.1,1.106a2.07,2.07,0,0,1-2.1,2.2,7.506,7.506,0,0,1-2.737-1.45c-3.456-2.154-7.845-.725-10.3,3.351,1.535-6.532,3.785-14.027,8.5-15.562,1.927-.63,4.028-.111,5.849-1.2,3.224-1.932,3.875-9.232,1.09-12.243.355,2.848.286,6.172-1.217,8.12s-4.658.677-4.468-2.2a1.929,1.929,0,0,1-3.589.762c-1-1.524-.916-4.018-.206-5.839a13.754,13.754,0,0,1,3.086-4.383c2.514-2.694,5.066-5.42,7.977-7.114s6.283-2.266,9.205-.582c1.54.889,2.9,2.371,4.468,3.155a3.311,3.311,0,0,0,4.611-1.154c1.17-2.054.619-5.1,1.053-7.67.778-4.536,5.314-6.659,7.829-3.663-1.879-.482-3.822,1.742-4.055,4.436s1.122,5.415,2.943,6.23c3.06,1.355,6.056-2.054,8.369-5.209q3.621-4.955,7.252-9.9a11.96,11.96,0,0,1,1.3-1.577,4.173,4.173,0,0,1,5.7-.116c2.445,2,3.594,6.087,5.6,8.9,2.911,4.092,7.268,5.087,11.322,5.881q4.534.881,9.073,1.773a94,94,0,0,1,5.267,11.63A31.875,31.875,0,0,0,747.031,538.6Z" data-name="Path 36959" transform="translate(-185.434 -156.162)"/><path id="Path_36960" fill="#189366" d="M763.5,536.091a19.077,19.077,0,0,0-1.006,5.669c-2.594-3.165-3.007-9.1-1.3-13.207Q762.506,532.253,763.5,536.091Z" data-name="Path 36960" transform="translate(-185.434 -156.162)"/><path id="Path_36961" fill="#189366" d="M756.8,602.289a94.887,94.887,0,0,1-7.887,13.2c-1.906-.815-3.954.64-5.738,2.006-1.863,1.429-4.1,2.821-6.013,1.519-1.953-1.334-2.583-5.066-1.964-8.025a21.382,21.382,0,0,1,3.663-7.538c1.588-2.371,3.287-4.833,5.494-5.754s5.055.381,5.7,3.525l1.567-.053c-.879-1.207-.418-3.705.762-4.145,1.36-.513,2.541,1.355,3.345,3.007C756.093,600.775,756.459,601.527,756.8,602.289Z" data-name="Path 36961" transform="translate(-185.434 -156.162)"/><path id="Path_36962" fill="#189366" d="M696.794,579.931c-3.368.212-6.035-3.934-7.808-8.013s-3.39-8.743-6.429-10.819c-1.736-1.186-3.716-1.349-5.6-1.924a6.933,6.933,0,0,1-4.755-4.186l-2.136-.863a32.082,32.082,0,0,0-8.111,5.783,18.128,18.128,0,0,0-4.833,10.566c-.408,4.276,1.1,9.044,3.915,10.651,2.225,1.269,4.815.469,7.069,1.631,2.816,1.452,4.487,5.669,5.12,9.833s.472,8.491.925,12.7,1.7,8.593,4.283,10.751c3.231,2.7,7.973.457,9.423-4.46.711-2.411.687-5.132,1.219-7.635.937-4.408,3.464-7.679,5.469-11.295S698.128,584.127,696.794,579.931Z" data-name="Path 36962" transform="translate(-185.434 -156.162)"/><path id="Path_36963" fill="#189366" d="M663.516,536.614a8.988,8.988,0,0,1,.877.931,3.059,3.059,0,0,1-.054,3.159,2.939,2.939,0,0,0,2.1-1.07,13.527,13.527,0,0,0,1.613-2.273,2.477,2.477,0,0,0,.476-1.983c-.159-.454-.535-.648-.8-.989a6.721,6.721,0,0,1-.738-2.144,3.866,3.866,0,0,0-2.8-2.953l.169.032a1.6,1.6,0,0,0-.75,1.705c.1.661.527,1.209.484,1.883-.061.969-1.029,1.423-1.089,2.392A1.849,1.849,0,0,0,663.516,536.614Z" data-name="Path 36963" transform="translate(-185.434 -156.162)"/><path id="Path_36964" fill="#189366" d="M657.745,520.152l.015,0a2.693,2.693,0,0,0,.287-.306Z" data-name="Path 36964" transform="translate(-185.434 -156.162)"/><path id="Path_36965" fill="#189366" d="M658.755,524.7a2.937,2.937,0,0,0,.914-2.911c-.245-1.1-1.111-1.842-1.909-1.639a1.946,1.946,0,0,1-1.809.533c-.494-.127-1.036-.454-1.464-.082a2.217,2.217,0,0,0-.5.974l-.476,1.46a.921.921,0,0,0-.056.553.468.468,0,0,0,.359.286l2.853.841a2.458,2.458,0,0,0,2.087-.014Z" data-name="Path 36965" transform="translate(-185.434 -156.162)"/><path id="Path_36966" fill="#189366" d="M730.555,587.478l-1.319-2.159a7.215,7.215,0,0,0-1.738-2.182,1.54,1.54,0,0,0-2.192.22l.054.411a9.286,9.286,0,0,1,2.317,4.52c.1.736.065,1.5.153,2.236a2.607,2.607,0,0,0,.815,1.823c.692.463,1.505-.219,2-1.051a3.621,3.621,0,0,0,.561-2.3,4.041,4.041,0,0,0-.647-1.512Z" data-name="Path 36966" transform="translate(-185.434 -156.162)"/><path id="Path_36967" fill="#189366" d="M737.452,588.414a4.984,4.984,0,0,0-.161-2.01,4.411,4.411,0,0,1,.671-2.5,8.129,8.129,0,0,0,1.046-2.293,1.918,1.918,0,0,0-.05-1.123c-.146-.327-.5-.476-.7-.217l.433.279a3.941,3.941,0,0,0-1.756.085,2.173,2.173,0,0,0-1.331,1.5,9.273,9.273,0,0,1-.349,1.557c-.258.53-.758.707-1.072,1.173a2.8,2.8,0,0,0,.044,2.663,3.108,3.108,0,0,0,1.758,1.383C736.514,589.1,737.21,589.109,737.452,588.414Z" data-name="Path 36967" transform="translate(-185.434 -156.162)"/><path id="Path_36968" fill="#189366" d="M749.734,592.12a6.041,6.041,0,0,0,.761,1.4c.588.592,1.387.228,2.1.084a3.631,3.631,0,0,1,3.455,1.386,8.794,8.794,0,0,0-5.058-6.31,14.858,14.858,0,0,0-5.2-.813l-.3.077C746.259,590.182,748.676,590.131,749.734,592.12Z" data-name="Path 36968" transform="translate(-185.434 -156.162)"/><path id="Path_36969" fill="#189366" d="M697.716,596.7l0,.01.088-.169Z" data-name="Path 36969" transform="translate(-185.434 -156.162)"/><path id="Path_36970" fill="#189366" d="M695.852,600.309a16.556,16.556,0,0,0-1.045,2.3,19.989,19.989,0,0,0-.758,3.929c-.095.757-.124,1.724.351,2.093a.673.673,0,0,0,.88-.12,3.48,3.48,0,0,0,.638-.948,21.85,21.85,0,0,0,2.154-5.113,8.9,8.9,0,0,0-.353-5.734Z" data-name="Path 36970" transform="translate(-185.434 -156.162)"/><path id="Path_36971" fill="#189366" d="M677.878,504.227a2.121,2.121,0,0,0,2.286.446,7.55,7.55,0,0,0,2.151-1.421,5.061,5.061,0,0,0,1.3-1.422,2.885,2.885,0,0,0,.267-2.2,2.232,2.232,0,0,0-1.7-1.346l-3.167-.939.764-.688c-.786-.422-1.655.361-2.146,1.33a7.16,7.16,0,0,0-.651,2.005,5.148,5.148,0,0,0,.894,4.233Z" data-name="Path 36971" transform="translate(-185.434 -156.162)"/><path id="Path_36972" fill="#189366" d="M696.516,497.97a1.744,1.744,0,0,0,2.377.193,2.657,2.657,0,0,0,1.051-1.893c.075-.83-.336-1.753-.922-1.825l.134-.777c-1.13-.2-2.52-.245-3.125,1.127a3.221,3.221,0,0,0,.485,3.176Z" data-name="Path 36972" transform="translate(-185.434 -156.162)"/><path id="Path_36973" fill="#cacaca" d="M864.966,441.316H477.643a1.015,1.015,0,1,1,0-2.031H864.966a1.015,1.015,0,1,1,0,2.031Z" data-name="Path 36973" transform="translate(-185.434 -156.162)"/><ellipse id="Ellipse_714" cx="10.925" cy="11.169" fill="url(#linear-gradient)" data-name="Ellipse 714" rx="10.925" ry="11.169" transform="translate(303.639 248.602)"/><ellipse id="Ellipse_715" cx="10.925" cy="11.169" fill="url(#linear-gradient)" data-name="Ellipse 715" rx="10.925" ry="11.169" transform="translate(341.381 248.602)"/><ellipse id="Ellipse_716" cx="10.925" cy="11.169" fill="url(#linear-gradient)" data-name="Ellipse 716" rx="10.925" ry="11.169" transform="translate(379.123 248.602)"/><path id="Path_36974" fill="#3f3d56" d="M842.349,407.532h-26.81a2.03,2.03,0,1,0,0,4.06h26.81a2.03,2.03,0,1,0,0-4.06Z" data-name="Path 36974" transform="translate(-185.434 -156.162)"/><path id="Path_36975" fill="#3f3d56" d="M842.349,415.152h-26.81a2.03,2.03,0,1,0,0,4.06h26.81a2.03,2.03,0,1,0,0-4.06Z" data-name="Path 36975" transform="translate(-185.434 -156.162)"/><path id="Path_36976" fill="url(#linear-gradient)" d="M842.349,422.762h-26.81a2.03,2.03,0,1,0,0,4.06h26.81a2.03,2.03,0,1,0,0-4.06Z" data-name="Path 36976" transform="translate(-185.434 -156.162)"/><g id="Group_14959" data-name="Group 14959" opacity=".35"><path id="Path_36977" fill="#fff" d="M875.228,564.9c6.234-2.718-6.409-4.3-20.752-4.821s-31.7-.491-40.861-1.971c-8.865-1.431-8.212-3.976-8.958-6.281s-4.154-4.669-17.987-5.182c-17.238-.639-45.664,1.82-58.677.344-12.143-1.377-4.925-5.7-22.632-5.863-10.111-.094-23.137,1.33-34.388,1.674a125.36,125.36,0,0,1-23.86-1.244c-5.484-.9-9.3-2.037-15.475-2.831-16.2-2.083-47.9-1.383-76.2,1.287s-52.548,7.046-66.227,11.381-17.458,8.6-14.271,12.221c2.035,2.311,7.241,4.472,19.87,5.4,23.623,1.737,65.68-1.253,90.09.327,13.6.881,19.64,3.064,31.577,4.259,12.824,1.284,31.6,1.352,50.042,1.321,38.4-.063,77.791-.458,117.953-1.182,16.775-.3,34.352-.7,52.2-2.136s36.056-4.219,39.822-6.825" data-name="Path 36977" transform="translate(-185.434 -156.162)"/></g></g></svg>