<svg xmlns="http://www.w3.org/2000/svg" width="23" height="17" fill="none" viewBox="0 0 23 17"><g clip-path="url(#clip0)"><path fill="#4285F4" d="M5.22729 16.9163V8.20406L2.47133 5.73219L0 4.36047V15.3789C0 16.2296 0.703027 16.9163 1.56822 16.9163H5.22729Z"/><path fill="#34A853" d="M17.7729 16.9163H21.432C22.2998 16.9163 23.0002 16.2269 23.0002 15.3788V4.36047L20.2011 5.93161L17.7729 8.20397V16.9163Z"/><path fill="#EA4335" d="M5.22755 8.20399L4.85254 4.79985L5.22755 1.54175L11.5003 6.15412L17.773 1.54175L18.1925 4.62394L17.773 8.20399L11.5003 12.8164L5.22755 8.20399Z"/><path fill="#FBBC04" d="M17.7729 1.54178V8.20401L23.0002 4.36043V2.31048C23.0002 0.409206 20.7865 -0.674654 19.2367 0.465579L17.7729 1.54178Z"/><path fill="#C5221F" d="M0 4.36035L2.40413 6.12817L5.22729 8.20393V1.54169L3.76355 0.465497C2.21105 -0.674824 0 0.409124 0 2.31031V4.36026V4.36035Z"/></g><defs><clipPath id="clip0"><rect width="23" height="17" fill="#fff"/></clipPath></defs></svg>