<svg xmlns="http://www.w3.org/2000/svg" xmlns:xlink="http://www.w3.org/1999/xlink" width="806.631" height="698.766" viewBox="0 0 806.631 698.766"><defs><linearGradient id="linear-gradient" x1=".5" x2=".5" y2="1" gradientUnits="objectBoundingBox"><stop offset="0" stop-color="#202020"/><stop offset="1" stop-color="#2e2e2e"/></linearGradient><linearGradient id="linear-gradient-5" x1=".5" x2=".5" y2="1" gradientUnits="objectBoundingBox"><stop offset="0" stop-color="#1db27b"/><stop offset="1" stop-color="#0f593e"/></linearGradient><linearGradient id="linear-gradient-13" x1=".5" x2=".5" y2="1" gradientUnits="objectBoundingBox"><stop offset="0" stop-color="#383838"/><stop offset="1" stop-color="#020202"/></linearGradient></defs><g id="teams" transform="translate(0 0)"><path id="Path_36978" fill="#b0eedb" d="M751.146,316.606a79.621,79.621,0,1,1-23.22-56.549A79.828,79.828,0,0,1,751.146,316.606Z" data-name="Path 36978" transform="translate(-196.684 -100.617)"/><path id="Path_36979" fill="#9e616a" d="M884.005,363.14l11.224-21.432c-10.065-12.154-43.089-26.9-43.089-26.9l-44.7-40.681a10.681,10.681,0,1,0-13.119,13.021l48.286,57.911Z" data-name="Path 36979" transform="translate(-196.684 -100.617)"/><path id="Path_36980" fill="url(#linear-gradient)" d="M878.568,361.661l15.849,5.046a54.393,54.393,0,0,0,35.295-.786h0a19.641,19.641,0,0,0,12.685-16.4h0a19.6,19.6,0,0,0-16.312-21.205c-14.863-2.443-34.014-3.647-40.846,4.483l-.069.082Z" data-name="Path 36980" transform="translate(-196.684 -100.617)"/><circle id="Ellipse_717" cx="79.828" cy="79.828" r="79.828" fill="#fff" data-name="Ellipse 717" transform="translate(488.058 167)"/><path id="Path_36981" fill="url(#linear-gradient)" d="M731.991,316.22a75,75,0,0,1-5.351,17.08c-14.082,29.79,26.02,20.08,40.351,20.08,15.669,0,30.661,8.239,28.371-28.371-.978-15.638-12.7-28.371-28.371-28.371C753.607,296.638,734.79,302.586,731.991,316.22Z" data-name="Path 36981" transform="translate(-196.684 -100.617)"/><circle id="Ellipse_718" cx="23.055" cy="23.055" r="23.055" fill="#ffb6b6" data-name="Ellipse 718" transform="translate(544.905 206.646)"/><path id="Path_36982" fill="url(#linear-gradient)" d="M748.987,306.817a26.409,26.409,0,0,1,40.15,23.048c-11.748,2.949-24.089,5.207-36.617.705l-2.959-7.241-1.744,7.246c-3.815,1.559-7.64,2.879-11.465-.015a26.965,26.965,0,0,1,12.635-23.743Z" data-name="Path 36982" transform="translate(-196.684 -100.617)"/><path id="Path_36983" fill="#189366" d="M826.64,400.525A79.8,79.8,0,0,1,714.956,408.6l6.847-19.105a20.546,20.546,0,0,1,17.452-11.984l4.356-.267L754,368.281s27.986-1,27.571-1.478L798.52,377l-.014-.07,6.664.408a20.537,20.537,0,0,1,17.452,11.984Z" data-name="Path 36983" transform="translate(-196.684 -100.617)"/><path id="Path_36984" fill="#b0eedb" d="M757.567,729.462l-1.984-27.588a89.244,89.244,0,0,0-41.9-9.4c20.432,15.793,18.8,47.358,32.945,68.96a53.681,53.681,0,0,0,40.028,23.721l17,9.783A89.952,89.952,0,0,0,782.717,722.6a86.883,86.883,0,0,0-16.368-14.4C762.632,718.871,757.567,729.462,757.567,729.462Z" data-name="Path 36984" transform="translate(-196.684 -100.617)"/><path id="Path_36985" fill="#b0eedb" d="M240.567,240.462l-1.984-27.588a89.244,89.244,0,0,0-41.9-9.4c20.432,15.793,18.8,47.358,32.945,68.96a53.681,53.681,0,0,0,40.028,23.721l17,9.783A89.952,89.952,0,0,0,265.717,233.6a86.89,86.89,0,0,0-16.368-14.4C245.632,229.871,240.567,240.462,240.567,240.462Z" data-name="Path 36985" transform="translate(-196.684 -100.617)"/><path id="Path_36986" fill="#9e616a" d="M635.268,685H622l-6.31-51.159H635.27Z" data-name="Path 36986"/><path id="Path_36987" fill="#2f2e41" d="M835.334,798.471l-42.768,0v-.541a16.647,16.647,0,0,1,16.645-16.646h0l7.812-5.927,14.576,5.928h3.733Z" data-name="Path 36987" transform="translate(-196.684 -100.617)"/><path id="Path_36988" fill="#9e616a" d="M752.165,685H738.9l-6.31-51.159h19.576Z" data-name="Path 36988"/><path id="Path_36989" fill="#2f2e41" d="M952.232,798.471l-42.768,0v-.541a16.647,16.647,0,0,1,16.645-16.646h0l7.812-5.926,14.576,5.928h3.733Z" data-name="Path 36989" transform="translate(-196.684 -100.617)"/><path id="Path_36990" fill="url(#linear-gradient)" d="M928.676,511.8l11.156,105.981S954.683,723.9,951.894,738.543s.7,16.734.7,16.734l-25.448-1.813s.7-9.064-3.486-13.248-2.092-16.734-2.092-16.734L872.2,550.848,842.218,641.49s-4.881,99.706-5.578,101.1-2.789,20.22-2.789,20.22h-25.8s3.486-11.156-1.395-14.642-9.064-.7-4.881-6.972,5.578-13.945,4.183-17.431-1.395-17.431-1.395-17.431,2.092-188.255,13.945-194.53S928.676,511.8,928.676,511.8Z" data-name="Path 36990" transform="translate(-196.684 -100.617)"/><circle id="Ellipse_719" cx="27.439" cy="27.439" r="27.439" fill="#9e616a" data-name="Ellipse 719" transform="translate(651.721 141.724)"/><path id="Path_36991" fill="url(#linear-gradient-5)" d="M938.159,523.354C885.02,534.328,814.6,515.461,814.6,515.461l18.785-81.43-6.679-85.217c-.816-10.421,5.12-20.19,14.354-23.651l12.75-4.776L864.35,305.3l30.1.988,12.034,15.84,9.5,5.038,20.589,10.919.091.045v.045L930.2,400.847l-3.9,37.788s11.835,42.5,9.406,48.137-.317,2.909.272,5.917,2.392,3.2,2.664,9.125S938.159,523.354,938.159,523.354Z" data-name="Path 36991" transform="translate(-196.684 -100.617)"/><path id="Path_36992" fill="#ccc" d="M1002.4,799.383H591.925a.919.919,0,1,1,0-1.839H1002.4a.919.919,0,1,1,0,1.839Z" data-name="Path 36992" transform="translate(-196.684 -100.617)"/><path id="Path_36993" fill="#2f2e41" d="M874.51,295.9a84.516,84.516,0,0,0,14.346-1.375c4.687-1.08,15.027-9.076,17.846-13.8h0c2.094-3.51,3.351-8.938,4.036-12.874a37.779,37.779,0,0,0-7.379-29.811,11.936,11.936,0,0,0-4.926-3.989c-.174-.063-.354-.118-.534-.165a14.727,14.727,0,0,1-7.44-4.342,12.142,12.142,0,0,0-1.25-1.222,18.14,18.14,0,0,0-7.664-3.6c-4.529-1.088-11.006.275-19.253,4.054-4.143,1.9-8.742,1.369-12.286.7a1.154,1.154,0,0,0-1.076.4,8.144,8.144,0,0,1-5.477,2.349c-1.258.088-2.535,1.866-4.074,4.182-.349.526-.757,1.139-1.052,1.514l-.059-.7-.692.8A9.883,9.883,0,0,0,842.451,254a19.272,19.272,0,0,0,3.891.517c.795.051,1.617.1,2.407.22a14.9,14.9,0,0,1,11.318,9.38A3.9,3.9,0,0,0,866,265.852a6.438,6.438,0,0,1,5.837-1.219,4.273,4.273,0,0,1,1.944,2.093,5.57,5.57,0,0,0,2.176,2.41c3.235,1.564,3.644,8.85,2.654,14.959-.954,5.888-3.03,10.184-5.047,10.445-1.553.2-1.729.317-1.834.595l-.094.249.181.226a6.364,6.364,0,0,0,2.7.29Z" data-name="Path 36993" transform="translate(-196.684 -100.617)"/><path id="Path_36994" fill="#3f3d56" d="M764.57,428.272A80.828,80.828,0,1,1,845.4,347.444a80.828,80.828,0,0,1-80.828,80.828Zm0-159.655A78.828,78.828,0,1,0,843.4,347.445a78.827,78.827,0,0,0-78.828-78.828Z" data-name="Path 36994" transform="translate(-196.684 -100.617)"/><circle id="Ellipse_720" cx="79.828" cy="79.828" r="79.828" fill="#fff" data-name="Ellipse 720" transform="translate(209.058 1)"/><circle id="Ellipse_721" cx="26.03" cy="26.03" r="26.03" fill="#ffb8b8" data-name="Ellipse 721" transform="translate(266.551 36.91)"/><path id="bf427902-b9bf-4946-b5d7-5c1c7e04535e" fill="url(#linear-gradient)" d="M512.184,146.361s6.777-12.956-8.133-14.134c0,0-12.711-11.531-25.668-2.108,0,0-7.067,0-10.932,8,0,0-5.558-2.108-6.78,3.534,0,0-4.067,11.779,0,22.379s5.418,11.779,5.418,11.779-2.854-13.155,13.414-14.333,31.191-11.369,32.547,1.588,2.846,7.1,2.846,7.1S527.772,151.661,512.184,146.361Z" transform="translate(-196.684 -100.617)"/><path id="Path_36995" fill="#189366" d="M545.6,234.525A79.8,79.8,0,0,1,433.92,242.6l6.847-19.106a20.546,20.546,0,0,1,17.452-11.984l4.356-.267,10.387-8.958s27.986-1,27.571-1.478L517.485,211l-.014-.07,6.664.408a20.537,20.537,0,0,1,17.452,11.984Z" data-name="Path 36995" transform="translate(-196.684 -100.617)"/><path id="Path_36996" fill="#3f3d56" d="M485.57,262.272A80.828,80.828,0,1,1,566.4,181.444a80.828,80.828,0,0,1-80.828,80.828Zm0-159.655A78.828,78.828,0,1,0,564.4,181.445,78.827,78.827,0,0,0,485.57,102.617Z" data-name="Path 36996" transform="translate(-196.684 -100.617)"/><circle id="Ellipse_722" cx="79.828" cy="79.828" r="79.828" fill="#fff" data-name="Ellipse 722" transform="translate(22.735 127)"/><path id="Path_36997" fill="url(#linear-gradient)" d="M262.247,281.477c3.3-10.52,10.807-20.168,21.188-23.724s25.583,1.861,33.387,9.639c14.276,14.228,17.76,63.106,7.952,78.552-1.951-.1-8.683-.18-10.657-.254l-2.793-9.31V345.6q-4.719-.146-9.511-.2a41.392,41.392,0,0,1-40.867-40.371C260.691,294.78,260.947,285.622,262.247,281.477Z" data-name="Path 36997" transform="translate(-196.684 -100.617)"/><circle id="Ellipse_723" cx="22.75" cy="22.75" r="22.75" fill="#9e616a" data-name="Ellipse 723" transform="translate(78.629 170.224)"/><path id="Path_36998" fill="url(#linear-gradient)" d="M278.429,273.611l26.195-13.116h0a32.924,32.924,0,0,1,19.284,27.278l.653,7.821L313.591,292.8l-1.2-10-1.863,9.22-5.062-1.288.048-15.526-5.066,15.514-18.08-4.154Z" data-name="Path 36998" transform="translate(-196.684 -100.617)"/><path id="Path_36999" fill="#189366" d="M358.484,360.271A79.8,79.8,0,0,1,246.8,368.342l6.847-19.105A20.546,20.546,0,0,1,271.1,337.253l4.356-.267,10.387-8.958s27.986-1,27.571-1.478l16.952,10.2-.014-.07,6.664.408a20.537,20.537,0,0,1,17.452,11.984Z" data-name="Path 36999" transform="translate(-196.684 -100.617)"/><path id="Path_37000" fill="#3f3d56" d="M299.247,388.272a80.828,80.828,0,1,1,80.828-80.828,80.828,80.828,0,0,1-80.828,80.828Zm0-159.655a78.828,78.828,0,1,0,78.828,78.828A78.828,78.828,0,0,0,299.247,228.617Z" data-name="Path 37000" transform="translate(-196.684 -100.617)"/><path id="Path_37001" fill="#9e616a" d="M838.3,388.858,826.212,367.9c-15.655,1.989-45.792,21.978-45.792,21.978l-58.294,15.95a10.681,10.681,0,1,0,3.968,18.052l74.767-9.753Z" data-name="Path 37001" transform="translate(-196.684 -100.617)"/><path id="Path_37002" fill="url(#linear-gradient)" d="M834.136,392.657l27.057-22.663,3.936-18.242a19.642,19.642,0,0,0-7.052-19.5h0a19.6,19.6,0,0,0-26.644,2.415c-10.024,11.242-21.3,26.768-18.094,36.893l.032.1Z" data-name="Path 37002" transform="translate(-196.684 -100.617)"/><path id="Path_37003" fill="url(#linear-gradient)" d="M419.43,471.387H317.765a10.288,10.288,0,0,1-10.277-10.277V398.494a10.288,10.288,0,0,1,10.277-10.277H419.43a10.288,10.288,0,0,1,10.277,10.277V461.11a10.288,10.288,0,0,1-10.277,10.277Z" data-name="Path 37003" transform="translate(-196.684 -100.617)"/><path id="Path_37004" fill="#fff" d="M379.037,463.322H324.912a9.636,9.636,0,0,1-9.625-9.625v-47.79a9.636,9.636,0,0,1,9.625-9.625h87.373a9.635,9.635,0,0,1,9.624,9.624v14.544a42.92,42.92,0,0,1-42.872,42.871Z" data-name="Path 37004" transform="translate(-196.684 -100.617)"/><path id="Path_37005" fill="#189366" d="M403.568,422.451h-69.94a2.281,2.281,0,0,1,0-4.562h69.94a2.281,2.281,0,0,1,0,4.562Z" data-name="Path 37005" transform="translate(-196.684 -100.617)"/><path id="Path_37006" fill="#189366" d="M344.568,431.465h-10.94a2.281,2.281,0,1,1,0-4.562h10.94a2.281,2.281,0,1,1,0,4.562Z" data-name="Path 37006" transform="translate(-196.684 -100.617)"/><path id="Path_37007" fill="#189366" d="M363.945,440.478H333.628a2.281,2.281,0,1,1,0-4.562h30.318a2.281,2.281,0,1,1,0,4.562Z" data-name="Path 37007" transform="translate(-196.684 -100.617)"/><circle id="Ellipse_724" cx="21.506" cy="21.506" r="21.506" fill="url(#linear-gradient)" data-name="Ellipse 724" transform="translate(85.751 264.847)"/><path id="Path_37008" fill="url(#linear-gradient)" d="M683.43,187.387H581.765a10.288,10.288,0,0,1-10.277-10.277V114.494a10.288,10.288,0,0,1,10.277-10.277H683.43a10.288,10.288,0,0,1,10.277,10.277V177.11a10.289,10.289,0,0,1-10.277,10.277Z" data-name="Path 37008" transform="translate(-196.684 -100.617)"/><path id="Path_37009" fill="#fff" d="M643.037,179.322H588.912a9.636,9.636,0,0,1-9.625-9.624v-47.79a9.636,9.636,0,0,1,9.625-9.625h87.373a9.635,9.635,0,0,1,9.624,9.625v14.543a42.92,42.92,0,0,1-42.872,42.871Z" data-name="Path 37009" transform="translate(-196.684 -100.617)"/><path id="Path_37010" fill="#189366" d="M667.568,138.451h-69.94a2.281,2.281,0,0,1,0-4.562h69.94a2.281,2.281,0,1,1,0,4.562Z" data-name="Path 37010" transform="translate(-196.684 -100.617)"/><path id="Path_37011" fill="#189366" d="M608.568,147.465h-10.94a2.281,2.281,0,1,1,0-4.562h10.94a2.281,2.281,0,1,1,0,4.562Z" data-name="Path 37011" transform="translate(-196.684 -100.617)"/><path id="Path_37012" fill="#189366" d="M627.945,156.478H597.628a2.281,2.281,0,1,1,0-4.562h30.318a2.281,2.281,0,1,1,0,4.562Z" data-name="Path 37012" transform="translate(-196.684 -100.617)"/><circle id="Ellipse_725" cx="21.506" cy="21.506" r="21.506" fill="url(#linear-gradient-13)" data-name="Ellipse 725" transform="translate(349.751 55.847)"/></g></svg>