<svg xmlns="http://www.w3.org/2000/svg" width="51.565" height="51.56" data-name="Group 128"><defs><clipPath id="b"><path fill="url(#a)" d="M296.3 15.177c-.758-.756-.758-.759.025-1.541.12-.119.244-.231.376-.355.07.06.127.1.176.146.427.43.848.861 1.281 1.281.134.134.159.216.022.375h-.005c-.463.545-.688.813-.927.813s-.472-.243-.948-.719m-5.532-12.5c.157.161.269.288.388.406q1.506 1.508 3.009 3.016c.125.125.294.211.248.463a201.94 201.94 0 0 0-.748 4.445c-.045.279-.167.353-.412.391-1.35.217-2.7.43-4.033.688a1 1 0 0 1-1.025-.351c-.937-.96-1.9-1.922-2.859-2.882-.117-.115-.2-.281-.393-.321a8.4 8.4 0 0 0-.371 4.132 9.124 9.124 0 0 0 11.994 7.317.751.751 0 0 1 .93.228q5.9 5.924 11.822 11.83c1.628 1.628 3.255 3.257 4.926 4.931.077-.12.129-.192.171-.266a12.325 12.325 0 0 1 4.441-4.483c.358-.211.378-.319.08-.6-1.544-1.516-3.058-3.063-4.605-4.575-.286-.283-.263-.418 0-.688q6.551-6.521 13.079-13.069a.9.9 0 0 1 .718-.32c.585.01 1.169.01 1.753.01.539 0 1.079 0 1.626.007a.52.52 0 0 0 .53-.3q1.894-3.443 3.817-6.875c.171-.258.105-.388-.1-.579q-1.41-1.385-2.792-2.794a.409.409 0 0 0-.569-.11.269.269 0 0 0-.037.028q-3.4 1.92-6.828 3.794a.546.546 0 0 0-.321.565c.02 1.124 0 2.242 0 3.376a.839.839 0 0 1-.281.676q-6.562 6.551-13.11 13.128c-.243.243-.375.284-.639.015q-4.371-4.409-8.777-8.779a.612.612 0 0 1-.154-.763 8.752 8.752 0 0 0 .231-5.3 9.109 9.109 0 0 0-7.962-6.837 8.306 8.306 0 0 0-3.747.442" data-name="Path 1129" transform="translate(-284.469 -2.18)"/></clipPath><clipPath id="c"><path fill="url(#a)" d="M312.856 35.691q-2.16-1.117-4.351-2.175a.5.5 0 0 1-.321-.554c.02-.711 0-1.419 0-2.131v-2.077a.47.47 0 0 1 .3-.514q2.208-1.079 4.4-2.2a.593.593 0 0 1 .617 0q2.165 1.107 4.349 2.175a.477.477 0 0 1 .319.5c0 1.417-.015 2.839 0 4.257a.517.517 0 0 1-.345.567q-2.163 1.056-4.3 2.146a.642.642 0 0 1-.662 0m-10.487-4.9v.1a10.8 10.8 0 0 0 21.609.1v-.1a10.769 10.769 0 0 0-10.722-10.818h-.114a10.774 10.774 0 0 0-10.773 10.709" data-name="Path 1130" transform="translate(-302.369 -20.077)"/></clipPath><clipPath id="d"><path fill="url(#a)" d="M290.486 39.485c-.731-.741-.733-.738 0-1.47q4.022-4.022 8.033-8.053c.291-.294.438-.279.714 0 .785.848.8.82-.015 1.629v.01l-7.961 7.964c-.109.109-.224.207-.41.381a5.809 5.809 0 0 0-.361-.462m-2.578-2.559c-.656-.666-.659-.662 0-1.321q4.06-4.06 8.11-8.123c.291-.3.438-.283.714 0 .791.826.8.813 0 1.626l-7.969 7.969c-.119.1-.234.206-.413.371v.01c-.157-.186-.284-.37-.442-.532m12.123-18.135c-.641.7-1.335 1.36-2.017 2.022a.424.424 0 0 0-.122.539c.189.48.321.977.493 1.47a.971.971 0 0 1-1.323 1.293c-.438-.147-.883-.284-1.315-.452a.607.607 0 0 0-.763.174c-1.281 1.3-2.561 2.561-3.842 3.864-1.735 1.741-3.538 3.423-5.177 5.251a5.46 5.46 0 0 0-.928 6.226 5.622 5.622 0 0 0 5 3.494 6.156 6.156 0 0 0 4.665-1.867q3.887-3.9 7.783-7.785c.381-.383.96-.721 1.062-1.168s-.264-1.03-.432-1.556c-.025-.079-.057-.164-.08-.243a1 1 0 0 1 .206-1.109.988.988 0 0 1 1.062-.179c.509.157 1.022.321 1.517.509a.418.418 0 0 0 .539-.122 55.382 55.382 0 0 1 1.986-1.981c.218-.227.246-.355-.01-.6-.766-.728-1.485-1.5-2.242-2.225-.3-.284-.365-.452-.02-.756.545-.48 1.032-1.029 1.554-1.531.186-.177.224-.284.018-.483q-1.046-1.009-2.054-2.056c-.2-.2-.321-.167-.483.017-.507.524-1.04 1.02-1.534 1.552-.259.279-.423.34-.721.02-.729-.785-1.514-1.521-2.263-2.29-.112-.114-.2-.191-.3-.191a.388.388 0 0 0-.264.162" data-name="Path 1131" transform="translate(-284.461 -18.629)"/></clipPath><linearGradient id="a" x1=".5" x2=".5" y2="1" gradientUnits="objectBoundingBox"><stop offset="0" stop-color="#fff"/><stop offset="1" stop-color="#bbb"/></linearGradient></defs><g clip-path="url(#b)" data-name="Group 315" transform="translate(.013)"><path fill="url(#a)" d="M0 0h51.677v34.785H0z" data-name="Rectangle 171" transform="translate(-.117)"/></g><g clip-path="url(#c)" data-name="Group 317" transform="translate(29.955 29.938)"><path fill="url(#a)" d="M0 0h21.642v21.654H0z" data-name="Rectangle 172" transform="translate(-.006)"/></g><g clip-path="url(#d)" data-name="Group 319" transform="translate(0 27.516)"><path fill="url(#a)" d="M0 0h24.548v24.045H0z" data-name="Rectangle 173" transform="translate(-.417)"/></g></svg>