<svg xmlns="http://www.w3.org/2000/svg" xmlns:xlink="http://www.w3.org/1999/xlink" width="1139.171" height="654.543" viewBox="0 0 1139.171 654.543">
  <defs>
    <linearGradient id="linear-gradient" x1="0.5" x2="0.5" y2="1" gradientUnits="objectBoundingBox">
      <stop offset="0" stop-color="#202020"/>
      <stop offset="1" stop-color="#2e2e2e"/>
    </linearGradient>
    <linearGradient id="linear-gradient-8" x1="0.5" x2="0.5" y2="1" gradientUnits="objectBoundingBox">
      <stop offset="0" stop-color="#383838"/>
      <stop offset="1" stop-color="#020202"/>
    </linearGradient>
  </defs>
  <g id="web" transform="translate(0 0)">
    <circle id="Ellipse_726" data-name="Ellipse 726" cx="59.243" cy="59.243" r="59.243" transform="translate(187.584 462.522)" fill="#f2f2f2"/>
    <circle id="Ellipse_727" data-name="Ellipse 727" cx="59.243" cy="59.243" r="59.243" transform="translate(197.217 453.852)" fill="#189366"/>
    <rect id="Rectangle_13828" data-name="Rectangle 13828" width="733" height="2" transform="translate(304.171 447.543)" fill="url(#linear-gradient)"/>
    <path id="Path_38793" data-name="Path 38793" d="M714.207,141.381H454.038v-5.362H336.067v5.362H74.825a17.6,17.6,0,0,0-17.6,17.6V515.231a17.6,17.6,0,0,0,17.6,17.6H714.207a17.6,17.6,0,0,0,17.6-17.6V158.979a17.6,17.6,0,0,0-17.6-17.6Z" transform="translate(-30.415 -122.728)" fill="url(#linear-gradient)"/>
    <rect id="Rectangle_13829" data-name="Rectangle 13829" width="627.391" height="353.913" transform="translate(50.406 49.754)" fill="#189366"/>
    <circle id="Ellipse_728" data-name="Ellipse 728" cx="6.435" cy="6.435" r="6.435" transform="translate(357.13 27.232)" fill="#189366"/>
    <path id="Path_38794" data-name="Path 38794" d="M498.374,403.667H50.406V49.754Z" opacity="0.1"/>
    <circle id="Ellipse_729" data-name="Ellipse 729" cx="60.307" cy="60.307" r="60.307" transform="translate(88.267 256.569)" fill="#b0eedb"/>
    <rect id="Rectangle_13830" data-name="Rectangle 13830" width="58.605" height="12.246" transform="translate(509.953 240.622)" fill="#b0eedb"/>
    <rect id="Rectangle_13831" data-name="Rectangle 13831" width="200.307" height="5.248" transform="translate(439.102 145.279)" fill="#b0eedb"/>
    <rect id="Rectangle_13832" data-name="Rectangle 13832" width="200.307" height="5.248" transform="translate(439.102 161.898)" fill="#b0eedb"/>
    <rect id="Rectangle_13833" data-name="Rectangle 13833" width="200.307" height="5.248" transform="translate(439.102 178.518)" fill="#b0eedb"/>
    <rect id="Rectangle_13834" data-name="Rectangle 13834" width="200.307" height="5.248" transform="translate(439.102 195.137)" fill="#b0eedb"/>
    <rect id="Rectangle_13835" data-name="Rectangle 13835" width="200.307" height="5.248" transform="translate(439.102 211.757)" fill="#b0eedb"/>
    <rect id="Rectangle_13836" data-name="Rectangle 13836" width="24.492" height="24.492" transform="translate(614.917 56.934)" fill="#b0eedb"/>
    <path id="Path_38795" data-name="Path 38795" d="M681.2,215.525h-29.74v-29.74H681.2Zm-28.447-1.293H679.9V187.078H652.748Z" transform="translate(-30.415 -122.728)" fill="url(#linear-gradient)"/>
    <path id="Path_38796" data-name="Path 38796" d="M749.422,519.96h-61.23v-4.412a.875.875,0,0,0-.875-.875H666.324a.875.875,0,0,0-.875.875v4.412H652.329v-4.412a.875.875,0,0,0-.875-.875H630.462a.875.875,0,0,0-.875.875v4.412h-13.12v-4.412a.875.875,0,0,0-.875-.875H594.6a.875.875,0,0,0-.875.875v4.411H580.6v-4.412a.875.875,0,0,0-.875-.875H558.736a.875.875,0,0,0-.875.875v4.412h-13.12v-4.412a.875.875,0,0,0-.875-.875H522.873a.875.875,0,0,0-.875.875v4.412h-13.12v-4.412a.875.875,0,0,0-.875-.875H487.01a.875.875,0,0,0-.875.875v4.412H473.015v-4.412a.875.875,0,0,0-.875-.875H307.7a.875.875,0,0,0-.875.875v4.412H293.7v-4.412a.875.875,0,0,0-.875-.875H271.833a.875.875,0,0,0-.875.875v4.412h-13.12v-4.412a.875.875,0,0,0-.875-.875H235.97a.875.875,0,0,0-.875.875v4.412H221.975v-4.412a.875.875,0,0,0-.875-.875H200.107a.875.875,0,0,0-.875.875v4.412h-13.12v-4.412a.875.875,0,0,0-.875-.875H164.244a.875.875,0,0,0-.875.875v4.412h-13.12v-4.412a.875.875,0,0,0-.875-.875H128.381a.875.875,0,0,0-.875.875v4.412h-13.12v-4.412a.875.875,0,0,0-.875-.875H92.519a.875.875,0,0,0-.875.875v4.412H51.408a20.993,20.993,0,0,0-20.993,20.993v9.493a20.993,20.993,0,0,0,20.993,20.993H749.422a20.993,20.993,0,0,0,20.993-20.993v-9.492a20.993,20.993,0,0,0-20.993-20.993Z" transform="translate(-30.415 -122.728)" fill="url(#linear-gradient)"/>
    <path id="Path_38797" data-name="Path 38797" d="M193.586,477.272a76,76,0,1,1,76-76,76,76,0,0,1-76,76Zm0-150a74,74,0,1,0,74,74,74,74,0,0,0-74-74Z" transform="translate(-30.415 -122.728)" fill="url(#linear-gradient)"/>
    <rect id="Rectangle_13837" data-name="Rectangle 13837" width="255" height="2" transform="translate(586.171 32.543)" fill="url(#linear-gradient)"/>
    <rect id="Rectangle_13838" data-name="Rectangle 13838" width="733" height="2" transform="translate(406.171 560.543)" fill="url(#linear-gradient)"/>
    <rect id="Rectangle_13839" data-name="Rectangle 13839" width="255" height="2" transform="translate(192.672 652.543)" fill="url(#linear-gradient-8)"/>
    <rect id="Rectangle_13840" data-name="Rectangle 13840" width="28" height="28" transform="translate(471 550)" fill="#189366"/>
    <path id="Path_38798" data-name="Path 38798" d="M546.415,684.728h-34v-34h34Zm-32.522-1.478h31.043V652.207H513.893Z" transform="translate(-30.415 -122.728)" fill="#3f3d56"/>
    <rect id="Rectangle_13841" data-name="Rectangle 13841" width="28" height="28" transform="translate(796 22)" fill="#189366"/>
    <path id="Path_38799" data-name="Path 38799" d="M871.415,156.728h-34v-34h34Zm-32.522-1.478h31.043V124.207H838.893Z" transform="translate(-30.415 -122.728)" fill="url(#linear-gradient)"/>
    <rect id="Rectangle_13842" data-name="Rectangle 13842" width="28" height="28" transform="translate(1078 550)" fill="#189366"/>
    <path id="Path_38800" data-name="Path 38800" d="M1153.41,684.728h-34v-34h34Zm-32.522-1.478h31.043V652.207h-31.043Z" transform="translate(-30.415 -122.728)" fill="#3f3d56"/>
    <path id="Path_38801" data-name="Path 38801" d="M1087.59,354.687h-2.379V289.525a37.714,37.714,0,0,0-37.714-37.714H909.44a37.714,37.714,0,0,0-37.714,37.714V647.006A37.714,37.714,0,0,0,909.44,684.72h138.053a37.714,37.714,0,0,0,37.714-37.714V401.07h2.379Z" transform="translate(-30.415 -122.728)" fill="url(#linear-gradient)"/>
    <path id="Path_38802" data-name="Path 38802" d="M1077.18,291.742V648.7a28.166,28.166,0,0,1-28.165,28.17H910.3a28.164,28.164,0,0,1-28.16-28.165V291.742a28.162,28.162,0,0,1,28.157-28.16h16.833a13.379,13.379,0,0,0,12.39,18.43h79.09a13.379,13.379,0,0,0,12.39-18.43h18.02a28.163,28.163,0,0,1,28.164,28.161Z" transform="translate(-30.415 -122.728)" fill="#189366"/>
    <rect id="Rectangle_13843" data-name="Rectangle 13843" width="41.324" height="12.246" transform="translate(928.58 376.218)" fill="#b0eedb"/>
    <rect id="Rectangle_13844" data-name="Rectangle 13844" width="141.24" height="5.248" transform="translate(878.621 280.875)" fill="#b0eedb"/>
    <rect id="Rectangle_13845" data-name="Rectangle 13845" width="141.24" height="5.248" transform="translate(878.621 297.494)" fill="#b0eedb"/>
    <rect id="Rectangle_13846" data-name="Rectangle 13846" width="141.24" height="5.248" transform="translate(878.621 314.114)" fill="#b0eedb"/>
    <rect id="Rectangle_13847" data-name="Rectangle 13847" width="141.24" height="5.248" transform="translate(878.621 330.733)" fill="#b0eedb"/>
    <rect id="Rectangle_13848" data-name="Rectangle 13848" width="141.24" height="5.248" transform="translate(878.621 347.352)" fill="#b0eedb"/>
    <rect id="Rectangle_13849" data-name="Rectangle 13849" width="24.492" height="24.492" transform="translate(929.684 211.179)" fill="#b0eedb"/>
    <path id="Path_38803" data-name="Path 38803" d="M969.474,340.032v29.74h29.74v-29.74Zm28.45,28.45h-27.16v-27.16h27.16Z" transform="translate(-30.415 -122.728)" fill="url(#linear-gradient-8)"/>
    <path id="Path_38804" data-name="Path 38804" d="M1077.18,610.582V648.7a28.166,28.166,0,0,1-28.165,28.17H910.3a28.164,28.164,0,0,1-28.16-28.165V456.492l116.87,92.33,2,1.58,21.74,17.17,2.03,1.61Z" transform="translate(-30.415 -122.728)" opacity="0.1"/>
    <circle id="Ellipse_730" data-name="Ellipse 730" cx="43.868" cy="43.868" r="43.868" transform="translate(893.373 454.839)" fill="#b0eedb"/>
    <path id="Path_38805" data-name="Path 38805" d="M350.586,777.272a87,87,0,1,1,87-87A87,87,0,0,1,350.586,777.272Zm0-172a85,85,0,1,0,85,85,85,85,0,0,0-85-85Z" transform="translate(-30.415 -122.728)" fill="url(#linear-gradient)"/>
    <path id="Path_38806" data-name="Path 38806" d="M980.586,655.272a55,55,0,1,1,55-55A55,55,0,0,1,980.586,655.272Zm0-108a53,53,0,1,0,53,53,53,53,0,0,0-53-53Z" transform="translate(-30.415 -122.728)" fill="url(#linear-gradient-8)"/>
  </g>
</svg>
